<svg width="175" height="101" viewBox="0 0 175 101" fill="none" xmlns="http://www.w3.org/2000/svg">
<circle cx="87.565" cy="34.3307" r="34.2252" fill="#373538"/>
<path d="M87.6154 10.9121C87.7627 10.9121 88.2377 11.1904 88.6798 11.5342C89.1056 11.8781 89.7285 12.4681 90.0724 12.8447C90.3999 13.2215 90.9235 13.9254 91.2345 14.3838C91.5456 14.8587 91.9552 15.6611 92.1681 16.1523C92.4792 16.9056 92.545 17.348 92.545 18.8545C92.5614 20.41 92.4954 20.7706 92.1515 21.5566C91.9386 22.0479 91.5619 22.785 91.2999 23.1943C91.0547 23.6031 90.8424 24.0281 90.8419 24.127C90.8419 24.2416 91.3982 24.9458 92.0695 25.6826C92.7408 26.4359 93.6905 27.5991 94.1818 28.2705C94.6566 28.9419 95.3288 30.0222 95.6564 30.6445C96.0002 31.2667 96.4744 32.413 96.7365 33.1826C96.9985 33.9523 97.2769 35.0501 97.3751 35.6396C97.4734 36.2291 97.5558 37.1949 97.5558 37.8008C97.5558 38.4231 97.4573 39.4551 97.3263 40.0938C97.1953 40.7488 96.9329 41.7311 96.7365 42.2715C96.54 42.8117 96.3435 43.3846 96.3107 43.5322C96.2452 43.7942 96.4258 43.8271 98.2599 43.8271C99.7171 43.8272 100.618 43.9087 101.568 44.1543C102.288 44.3344 103.467 44.7774 104.188 45.1377C104.908 45.4979 106.103 46.267 106.857 46.8564C107.593 47.446 108.642 48.478 109.183 49.1494C109.789 49.919 110.165 50.5251 110.165 50.7871C110.165 51.0165 109.87 51.5567 109.477 52.0479C109.084 52.5228 108.33 53.3415 107.79 53.8818C107.25 54.4059 106.3 55.1756 105.661 55.585C105.039 56.0106 104.041 56.5346 103.451 56.7803C102.862 57.0095 101.846 57.337 101.207 57.4844C100.552 57.6317 99.3076 57.7471 98.4562 57.7471C97.49 57.7471 96.3271 57.6154 95.3937 57.4189C94.5585 57.2224 93.1341 56.7472 92.2335 56.3379C91.3329 55.9449 89.9899 55.2249 89.2531 54.75C88.6458 54.3721 88.1512 54.0149 88.0138 53.874C87.9073 53.8373 87.8207 53.8165 87.7628 53.8164C87.5663 53.8164 86.8292 54.1931 86.1251 54.668C85.4374 55.1428 84.2744 55.7975 83.5538 56.125C82.8333 56.4525 81.8342 56.8458 81.3429 56.9932C80.8516 57.1405 79.8853 57.37 79.214 57.501C78.5427 57.6319 77.8384 57.7305 77.6583 57.7305C77.5964 57.7248 77.5786 57.7102 77.5968 57.6885C76.9272 57.738 76.1574 57.7136 75.5304 57.5996C74.9081 57.485 73.8761 57.2387 73.2374 57.0586C72.6151 56.8784 71.616 56.4857 71.0265 56.1582C70.437 55.8471 69.5529 55.5035 69.0616 55.127C68.9948 55.0757 68.919 55.0097 68.8331 54.9375C68.755 54.8841 68.6363 54.7989 68.4884 54.6846C68.1281 54.4061 67.4733 53.7834 67.0148 53.3086C66.5332 52.7908 66.4409 52.6808 66.8234 53.0234C66.5334 52.707 66.293 52.4243 66.1144 52.1787L65.9015 51.8789C65.6805 51.5536 65.4593 51.1641 65.4591 50.8203C65.4592 50.5419 65.9015 49.9523 66.6056 49.3955C67.2934 48.8387 68.3084 48.2323 68.5704 48.085C68.8469 47.9549 69.2684 47.7597 69.7072 47.5967C69.9173 47.5068 70.1479 47.4122 70.3878 47.3154C70.8303 47.1369 71.2763 46.9652 71.6476 46.8311C72.179 46.5949 72.7767 46.3429 72.9923 46.2998C73.4015 46.218 73.9578 46.1522 74.2199 46.1357C74.4982 46.1194 74.7608 46.1689 74.8263 46.2344C74.908 46.3 74.5638 46.6108 74.089 46.9219C73.6305 47.2166 72.7956 47.8888 72.2716 48.3965C72.018 48.6356 71.7821 48.7917 71.6251 48.8662C71.3662 49.1277 71.085 49.4213 70.8273 49.7295C70.8042 49.7679 70.7844 49.8046 70.7648 49.8369C70.552 50.2297 70.3724 50.6066 70.3722 50.7051C70.3722 50.8033 70.5682 51.0491 70.8302 51.2783C71.0758 51.5076 71.7146 51.9825 72.255 52.3428C72.7954 52.6866 73.7124 53.1284 74.3019 53.3086C74.7157 53.4465 75.4366 53.6064 76.1408 53.7305L77.4952 53.6367C78.7068 53.5548 79.4765 53.3907 80.4425 53.0469C81.163 52.7685 82.1622 52.2936 82.6534 51.9824C83.1446 51.6714 83.6846 51.2947 83.8322 51.1309C83.9959 50.9835 84.1271 50.8192 84.1271 50.7373C84.1259 50.6707 83.864 50.3272 83.5372 49.9678C83.2259 49.6072 82.4242 48.641 81.7531 47.8389C81.0981 47.0366 80.1972 45.7762 79.755 45.0557C79.3293 44.3352 78.7563 43.1232 78.4943 42.3535C78.4286 42.1479 78.3591 41.9047 78.2911 41.6436C78.2683 41.613 78.2479 41.577 78.2325 41.5342C78.0197 40.9609 77.6759 39.7167 77.6759 37.6865C77.6595 35.0828 77.6587 35.0497 78.2482 33.3467C78.5757 32.3969 79.2313 30.9557 79.7062 30.1533C80.1646 29.3511 81.0159 28.0907 81.589 27.3701C82.1621 26.6497 82.9976 25.6834 83.4562 25.2412C83.9147 24.7991 84.2911 24.3236 84.2911 24.209C84.2908 24.1102 83.9965 23.5541 83.6202 22.9814C83.2601 22.4248 82.8341 21.5568 82.6866 21.0654C82.5229 20.5087 82.4249 19.6404 82.4249 18.7725C82.4249 17.7572 82.5223 17.1345 82.7843 16.4795C82.9808 15.9882 83.4239 15.137 83.7677 14.5967C84.1279 14.0564 84.766 13.2378 85.2081 12.7793C85.6503 12.3372 86.3059 11.7313 86.6661 11.4365C87.0263 11.1583 87.4515 10.9286 87.6154 10.9121ZM94.7589 56.5928C94.7359 56.6565 94.6814 56.6946 94.6027 56.7041C94.6708 56.7125 94.7334 56.6679 94.7589 56.5928ZM93.6251 56.5186C93.6442 56.5216 93.6636 56.5252 93.6827 56.5283C93.6356 56.5196 93.5889 56.5103 93.5431 56.502L93.6251 56.5186ZM94.5255 53.9805C94.4763 54.2096 94.3454 54.5367 94.2472 54.7168C94.1653 54.8807 94.1476 55.019 94.214 55.2158C94.1479 55.019 94.1663 54.8806 94.2482 54.7168C94.3464 54.5366 94.4774 54.2095 94.5265 53.9805C94.5347 53.9456 94.5405 53.9113 94.545 53.8779L94.5255 53.9805ZM94.5529 53.7803L94.549 53.6865C94.5476 53.6746 94.5441 53.6631 94.5421 53.6514C94.5493 53.6931 94.5537 53.7359 94.5529 53.7803ZM94.5382 53.6279C94.536 53.6174 94.5332 53.6071 94.5304 53.5967C94.5332 53.6071 94.536 53.6174 94.5382 53.6279ZM98.9464 48.0527C98.3242 48.0036 97.44 48.0204 96.9816 48.0859C96.5395 48.1514 95.6883 48.3641 95.0988 48.5605C94.5092 48.7571 93.4604 49.2807 92.7726 49.7393C92.0693 50.1809 91.4965 50.672 91.4952 50.8037C91.4952 50.9347 91.7415 51.2295 92.0363 51.4424C92.3146 51.6553 92.9698 52.0488 93.4611 52.3271C93.9524 52.6055 94.9187 52.9988 95.59 53.1953C96.474 53.4736 97.2271 53.5713 98.2911 53.5713C99.3227 53.5713 100.109 53.4731 100.911 53.2275C101.55 53.0311 102.615 52.5073 103.335 52.0488C104.022 51.5906 104.645 51.0832 104.711 50.9355C104.777 50.7227 104.645 50.5092 104.252 50.1816C103.941 49.9196 103.253 49.478 102.713 49.167C102.173 48.8722 101.37 48.5119 100.911 48.3809C100.469 48.2499 99.5849 48.1018 98.9464 48.0527ZM94.2199 53.1738L94.2062 53.1611C94.1926 53.1495 94.1774 53.1405 94.1642 53.1299C94.1821 53.1442 94.2016 53.1579 94.2199 53.1738ZM93.9386 52.998C93.9788 53.0053 94.0306 53.0332 94.089 53.0732C94.0264 53.0301 93.9739 53.0011 93.9386 52.998ZM93.9034 52.998C93.9086 52.997 93.9141 52.9979 93.92 52.998C93.91 52.998 93.8976 52.9954 93.8829 52.9912C93.8913 52.9934 93.8977 52.998 93.9034 52.998ZM91.3849 51.1211C91.5429 51.2862 91.7719 51.492 92.0206 51.6875C92.4954 52.0313 93.0846 52.4734 93.3302 52.6699C93.4546 52.7555 93.5762 52.8319 93.6759 52.8896C93.5775 52.8313 93.462 52.7544 93.3468 52.6699C93.0847 52.4733 92.4956 52.0313 92.0372 51.6875C91.7791 51.4916 91.5449 51.2862 91.3849 51.1211ZM91.3175 51.0498C91.3293 51.0631 91.3426 51.0759 91.3556 51.0898C91.308 51.0393 91.2679 50.9934 91.2374 50.9531L91.3175 51.0498ZM91.3517 50.3789C91.3205 50.4296 91.2931 50.4795 91.2687 50.5264C91.2931 50.4795 91.3206 50.4296 91.3517 50.3789ZM91.4962 50.165C91.4498 50.2269 91.4067 50.291 91.3673 50.3535C91.4067 50.291 91.4498 50.2269 91.4962 50.165C91.5355 50.1118 91.5688 50.0605 91.5988 50.0098C91.5689 50.0606 91.5356 50.1118 91.4962 50.165ZM91.6163 49.9785C91.6239 49.9649 91.6309 49.9513 91.6378 49.9375C91.6309 49.9513 91.6238 49.9649 91.6163 49.9785ZM91.6661 49.876C91.6716 49.863 91.6777 49.8502 91.6827 49.8369C91.6777 49.8502 91.6716 49.863 91.6661 49.876ZM91.7296 49.6689C91.747 49.5857 91.758 49.4927 91.7638 49.3828C91.7581 49.4926 91.7469 49.5857 91.7296 49.6689ZM91.545 47.0693C91.6106 47.1348 91.7086 47.7575 91.7413 48.4453C91.7495 48.5823 91.757 48.706 91.7618 48.8184L91.7423 48.4453C91.7096 47.7575 91.6115 47.1348 91.546 47.0693C91.5433 47.0671 91.5389 47.0667 91.5353 47.0645C91.5386 47.0666 91.5425 47.0673 91.545 47.0693ZM87.5665 27.1074C87.4355 27.1074 86.8455 27.6158 86.256 28.2217C85.6665 28.8276 84.8477 29.8593 84.422 30.4814C83.9964 31.1036 83.4399 32.102 83.1779 32.6914C82.9159 33.2809 82.5555 34.313 82.3917 34.9844C82.1789 35.8194 82.0805 36.7528 82.0968 37.9316C82.1067 38.6646 82.0611 39.1917 82.0031 39.4287C82.0977 39.8312 82.2656 40.4584 82.42 40.9648C82.567 41.1804 82.8569 41.7097 83.0792 42.1895C83.3904 42.8608 83.9962 43.8929 84.422 44.4824C84.8478 45.0719 85.6835 46.0377 86.3058 46.6436C86.9114 47.2655 87.5003 47.7573 87.6154 47.7578C87.7136 47.7578 88.4017 47.1517 89.1222 46.3984C89.8427 45.6615 90.825 44.4327 91.2999 43.6631C91.7747 42.8935 92.3646 41.6824 92.5939 40.9619C92.9705 39.8484 93.0363 39.3731 93.0363 37.6865C93.0363 36.2455 92.9542 35.4588 92.7413 34.7383C92.5775 34.1978 92.2172 33.2808 91.9552 32.6914C91.6931 32.1019 91.1358 31.1036 90.7101 30.4814C90.2843 29.8592 89.4656 28.8276 88.8761 28.2217C88.2867 27.6159 87.6978 27.1077 87.5665 27.1074ZM91.4777 47.0381C91.463 47.0328 91.4471 47.026 91.4288 47.0205C91.447 47.026 91.463 47.0328 91.4777 47.0381ZM91.3781 47.0078C91.3274 46.9945 91.2676 46.9808 91.2003 46.9678C91.2676 46.9808 91.3274 46.9945 91.3781 47.0078ZM64.8038 30.8252C65.4588 30.6287 66.1961 30.5798 67.506 30.6289C68.5049 30.678 69.6517 30.7758 70.0939 30.874C70.5192 30.9722 70.863 31.1195 70.8634 31.2178C70.8634 31.316 70.5845 31.4959 70.257 31.627C69.913 31.758 69.2415 32.0691 68.7667 32.3311C68.2918 32.5767 67.4894 33.0846 66.9982 33.4775C66.5069 33.8542 65.8852 34.4771 65.6232 34.8701C65.401 35.1707 65.2192 35.3847 65.1554 35.4102C65.1184 35.5045 65.0988 35.5836 65.0988 35.6396C65.0826 35.8691 65.3936 36.5076 65.8029 37.1133C65.9011 37.2606 66.0237 37.4303 66.1613 37.6113C66.2652 37.6671 66.6404 37.9946 67.1622 38.5049C68.2103 39.5365 68.8324 39.9794 71.5997 41.3877L70.3722 41.2891C69.7009 41.2236 68.6037 41.0434 67.965 40.8633C67.31 40.6995 66.5237 40.4543 66.2452 40.3232C65.9505 40.1922 64.3948 39.4062 64.4767 39.4062C64.4829 39.405 64.4981 39.4107 64.5226 39.418C64.4785 39.3961 64.4349 39.3772 64.3947 39.3564C63.8543 39.0617 62.9532 38.39 62.38 37.8496C62.036 37.5343 61.7088 37.202 61.4796 36.9443C61.4713 36.9443 61.4437 36.9131 61.4034 36.8584C61.2809 36.7156 61.1966 36.6028 61.1681 36.54C61.1471 36.5015 61.1376 36.4763 61.1378 36.4639C60.9147 36.118 60.6474 35.6783 60.546 35.4756C60.3659 35.1153 60.2189 34.722 60.2189 34.6074C60.203 34.5087 60.4974 34.0345 60.8409 33.5928C60.9973 33.3938 61.2121 33.1606 61.4454 32.9326C61.7534 32.6173 62.7224 31.7322 63.1173 31.5127C63.543 31.2671 64.3125 30.9563 64.8038 30.8252ZM107.872 30.5791C108.642 30.5791 109.641 30.6608 110.083 30.7754C110.542 30.9064 111.376 31.2505 111.949 31.5615C112.604 31.9054 113.325 32.4793 113.882 33.1016C114.373 33.6418 114.815 34.2308 114.864 34.4111C114.914 34.6076 114.75 35.1322 114.439 35.7217C114.16 36.262 113.685 36.9663 113.391 37.2773C113.096 37.5885 112.523 38.112 112.113 38.4395C111.72 38.7833 110.918 39.308 110.328 39.6191C109.739 39.9466 108.495 40.4209 107.545 40.6992C106.595 40.9776 105.334 41.2557 104.712 41.3213C104.106 41.3868 103.614 41.4034 103.614 41.3379C103.615 41.256 103.893 41.0925 104.236 40.9453C104.564 40.798 105.252 40.4871 105.743 40.2578C106.316 39.9794 107.119 39.34 107.954 38.5049C108.691 37.7681 109.428 36.8513 109.641 36.4092C110.001 35.6395 110.001 35.6393 109.69 35.1152C109.509 34.8205 109.117 34.3457 108.822 34.0674C108.528 33.7726 107.774 33.1994 107.135 32.79C106.513 32.3645 105.646 31.9221 105.22 31.791C104.778 31.6601 104.401 31.4801 104.352 31.3818C104.303 31.2836 104.286 31.1849 104.318 31.1357C104.336 31.1027 104.828 30.956 105.416 30.8252C106.006 30.6942 107.103 30.5955 107.872 30.5791ZM68.5665 40.4297C68.549 40.5054 68.3175 40.55 68.0372 40.5508C68.0404 40.5508 68.0439 40.5518 68.047 40.5518C68.3252 40.5517 68.5704 40.503 68.5704 40.4375C68.57 40.4351 68.5678 40.4329 68.5665 40.4297ZM66.9269 40.3506C67.2858 40.4523 67.7159 40.5367 67.9835 40.5488C67.7631 40.5386 67.35 40.4625 66.9269 40.3506ZM66.7697 40.3066C66.7849 40.3115 66.8009 40.3145 66.8165 40.3193C66.7973 40.314 66.7781 40.3082 66.7589 40.3027C66.7625 40.3039 66.7663 40.3056 66.7697 40.3066ZM67.5382 39.2422C67.6612 39.3724 67.7791 39.4996 67.8888 39.6191C67.7793 39.4996 67.6619 39.3722 67.5392 39.2422C67.5222 39.2242 67.5055 39.2056 67.4884 39.1875C67.5055 39.2058 67.5215 39.2245 67.5382 39.2422ZM82.5031 33.001C82.5064 32.9664 82.507 32.9338 82.5089 32.9033C82.507 32.9338 82.5063 32.9664 82.5031 33.001ZM82.5128 32.8232C82.5134 32.7972 82.5117 32.773 82.5109 32.75C82.5118 32.773 82.5133 32.7972 82.5128 32.8232ZM82.5079 32.6904C82.5056 32.6687 82.5014 32.6489 82.4972 32.6299C82.5014 32.6489 82.5055 32.6687 82.5079 32.6904ZM82.3898 32.4355L82.3839 32.4287C82.3782 32.4235 82.3715 32.4192 82.3654 32.4141C82.3739 32.4211 82.382 32.4283 82.3898 32.4355ZM81.7013 32.0352C81.8793 32.1273 82.0476 32.2167 82.1622 32.2822C82.2224 32.3163 82.2731 32.3478 82.3165 32.3779C82.273 32.3478 82.2224 32.3162 82.1622 32.2822C81.9329 32.1512 81.4908 31.9217 81.1798 31.7744L81.7013 32.0352ZM102.223 18.1338C102.861 18.1338 103.45 18.1826 103.549 18.248C103.647 18.3135 103.811 18.5104 103.893 18.6904C103.991 18.8706 104.205 19.6076 104.368 20.3281C104.581 21.2451 104.662 22.2767 104.662 23.7666C104.662 25.6498 104.614 26.0434 104.204 27.2061C103.959 27.9266 103.517 28.8765 103.222 29.335C102.927 29.7771 102.272 30.5464 101.797 31.0049C101.306 31.4797 100.716 31.9709 100.454 32.0693C100.209 32.184 99.9623 32.2493 99.9132 32.2002C99.8653 32.148 100.029 31.4942 100.258 30.7266C100.504 29.9569 100.798 28.5978 100.945 27.6973C101.109 26.6165 101.142 25.6498 101.076 24.8311C101.011 24.1597 100.847 23.2099 100.699 22.7188C100.536 22.2276 100.29 21.7525 100.143 21.6543C99.9298 21.5235 99.5366 21.5238 98.6691 21.6875C98.014 21.8021 97.0149 22.0803 96.4581 22.3096C95.8851 22.5224 95.3611 22.6702 95.2628 22.6211C95.1646 22.572 95.2139 22.2934 95.4103 21.917C95.574 21.5895 96.0822 20.918 96.5079 20.4268C97.0483 19.8373 97.6866 19.3786 98.4562 19.002C99.0946 18.6909 99.9294 18.3799 100.339 18.2979C100.748 18.216 101.601 18.1502 102.223 18.1338ZM72.6486 18.1172C73.2381 18.1172 74.1388 18.183 74.63 18.2812C75.1213 18.3796 75.9396 18.6419 76.4308 18.8711C76.9218 19.1003 77.6258 19.5253 77.9699 19.8037C78.3301 20.0984 78.9033 20.7702 79.2472 21.3105C79.5911 21.8509 79.8702 22.3427 79.8702 22.4082C79.8699 22.4899 79.755 22.5391 79.6241 22.5391C79.493 22.539 78.8217 22.3591 78.1505 22.1299C77.4791 21.9006 76.4961 21.671 75.9884 21.6055C75.1045 21.5073 75.0228 21.5238 74.7609 21.9004C74.5971 22.1132 74.3672 22.866 74.2199 23.5537C74.0889 24.2577 73.9748 25.2239 73.9747 25.6826C73.9747 26.1575 74.1218 27.3207 74.3019 28.2705C74.482 29.2203 74.777 30.4323 74.9572 30.9727C75.1371 31.5125 75.2841 32.0032 75.2843 32.0693C75.2843 32.1512 75.1701 32.2002 75.0392 32.2002C74.9082 32.2002 74.4822 31.9876 74.1056 31.7256C73.69 31.414 73.2334 30.8609 72.92 30.5039C72.4271 29.9907 71.8484 29.1945 71.5831 28.6797C71.5761 28.666 71.5697 28.6518 71.5626 28.6377C71.539 28.6076 71.5232 28.5921 71.5177 28.5977C71.4674 28.6438 70.7489 27.1066 70.6017 26.3867C70.3889 25.3717 70.3392 24.6349 70.421 23.1123C70.4865 21.9496 70.6669 20.6066 70.8634 19.8369C71.0599 19.1164 71.2886 18.4281 71.3868 18.3135C71.4852 18.1989 71.9773 18.1172 72.6486 18.1172ZM74.9552 31.5088C74.9828 31.5988 75.0062 31.6804 75.0226 31.75L74.9562 31.5088C74.9285 31.4187 74.8954 31.3202 74.8585 31.2178L74.9552 31.5088ZM74.4074 29.5928C74.4473 29.746 74.4864 29.8974 74.5255 30.043C74.4865 29.8974 74.4472 29.746 74.4074 29.5928ZM73.9357 27.4688C74.0065 27.8798 74.1007 28.3521 74.2033 28.7939C74.2214 28.8679 74.242 28.9422 74.2609 29.0176C74.242 28.9423 74.2224 28.8678 74.2042 28.7939C74.1017 28.3521 74.0067 27.8798 73.9357 27.4688ZM73.8556 26.9492C73.8701 27.0566 73.8889 27.1743 73.9093 27.2998C73.8888 27.1743 73.8701 27.0566 73.8556 26.9492ZM73.795 26.1631V26.1562C73.7943 26.1506 73.7919 26.1452 73.7911 26.1396C73.7922 26.1474 73.7941 26.1551 73.795 26.1631ZM73.3966 25.7158C73.4394 25.7154 73.48 25.7205 73.5158 25.7324C73.6433 25.7717 73.7226 25.8525 73.7667 26.0166C73.7242 25.8527 73.6502 25.7717 73.5324 25.7324C73.4904 25.7199 73.4444 25.7148 73.3966 25.7158ZM71.6222 25.7373C71.6591 25.7545 71.6975 25.7718 71.7374 25.7881C71.6974 25.7716 71.6587 25.7548 71.6222 25.7373ZM70.9952 25.4258C71.1071 25.4232 71.2439 25.4742 71.338 25.5684C71.3904 25.6148 71.4728 25.663 71.5704 25.7119C71.4769 25.6636 71.4005 25.6143 71.3546 25.5684C71.2557 25.4694 71.11 25.4172 70.9952 25.4258ZM87.6798 14.5156C87.565 14.516 87.2702 14.7126 87.0411 14.958V14.9746C86.8119 15.2204 86.4521 15.7442 86.2394 16.1533C85.9446 16.7264 85.8624 17.1685 85.8624 18.1182C85.8461 19.1498 85.928 19.4774 86.2882 20.165C86.5338 20.6072 86.8618 21.1638 87.0255 21.3604C87.2056 21.606 87.4511 21.7212 87.6476 21.6885C87.8278 21.6555 88.2211 21.2623 88.5158 20.8203C88.8105 20.3618 89.1216 19.7069 89.2199 19.3467C89.3181 18.9864 89.3666 18.2494 89.3175 17.709C89.2848 17.1195 89.1044 16.4643 88.8751 16.0713C88.6787 15.7111 88.368 15.22 88.2042 14.958C88.0241 14.7124 87.7944 14.5156 87.6798 14.5156ZM94.5197 53.5586C94.5159 53.5477 94.5113 53.5371 94.507 53.5264C94.5113 53.5371 94.516 53.5477 94.5197 53.5586ZM91.7003 49.7832C91.706 49.7653 91.712 49.7473 91.7169 49.7285C91.7121 49.7473 91.706 49.7653 91.7003 49.7832Z" fill="url(#paint0_linear_379_2518)"/>
<path d="M107.838 83.1787C107.805 83.4406 107.593 83.6207 107.102 83.8008C106.725 83.9316 106.332 84.1279 106.233 84.21C106.086 84.3246 106.167 84.7349 106.544 85.7666C106.822 86.5364 107.462 88.3374 107.953 89.7783C108.461 91.2189 109 92.7578 109.164 93.2168C109.328 93.6589 109.541 94.2982 109.64 94.6094C109.754 94.9203 109.836 95.3454 109.836 95.542C109.836 95.7549 109.951 95.9677 110.082 96.0332C110.213 96.115 110.36 96.1321 110.409 96.083C110.458 96.0339 110.605 95.526 110.736 94.9365C110.884 94.3471 111.129 93.463 111.293 92.9717C111.473 92.4805 111.915 91.0721 112.292 89.8604C112.669 88.6486 113.045 87.3874 113.144 87.0762C113.242 86.7652 113.373 86.3561 113.438 86.1758C113.504 85.9957 113.652 85.6517 113.75 85.3896C113.848 85.144 113.93 84.7832 113.93 84.5703C113.93 84.3412 113.782 84.128 113.521 83.9971C113.292 83.899 113.014 83.8011 112.915 83.8008C112.8 83.8172 112.554 83.6538 112.374 83.4736C112.156 83.2555 112.101 83.0916 112.21 82.9824C112.308 82.8842 113.471 82.8352 115.076 82.8516C117.499 82.9007 117.778 82.9332 117.811 83.1787C117.843 83.3916 117.63 83.5877 116.255 84.21L115.175 87.2402C114.569 88.9103 113.914 90.6784 113.733 91.1699C113.553 91.6612 113.34 92.2183 113.274 92.3984L112.62 94.1992C112.538 94.3794 112.243 95.1822 111.965 96.001C111.686 96.8198 111.309 97.8354 111.146 98.2939C110.982 98.736 110.802 99.2762 110.753 99.4727C110.687 99.6854 110.491 99.8821 110.295 99.915C110.082 99.9642 109.59 100.046 109.181 100.095C108.657 100.177 108.395 100.144 108.264 99.9805C108.165 99.8658 106.675 96.2625 101.828 84.21L101.042 83.834C100.616 83.6375 100.175 83.3912 100.093 83.293C99.9837 83.1839 100.01 83.0806 100.174 82.9824C100.305 82.9005 102.09 82.8184 107.871 82.8184L107.838 83.1787ZM140.704 82.6875C142.145 82.622 144.094 82.5727 145.044 82.6055C145.994 82.6382 147.238 82.7862 147.827 82.9336C148.417 83.0809 149.318 83.4077 149.825 83.6533C150.349 83.9153 151.136 84.4727 151.562 84.8984C151.987 85.3406 152.544 86.0445 152.773 86.5029C153.003 86.9451 153.329 87.7643 153.493 88.3047C153.69 88.976 153.771 89.8436 153.771 91.0879C153.771 92.2342 153.674 93.2666 153.51 93.9053C153.346 94.4784 153.019 95.3626 152.757 95.8701C152.495 96.3941 151.889 97.1968 151.414 97.6553C150.923 98.1136 150.202 98.6532 149.793 98.8662C149.384 99.0791 148.647 99.3743 148.155 99.5381C147.664 99.7182 146.845 99.8981 146.354 99.9473C145.862 100.013 143.635 100.013 141.392 99.9473C137.659 99.849 137.348 99.8329 137.396 99.5547C137.413 99.4073 137.79 99.0955 138.248 98.8662C138.706 98.637 139.116 98.3758 139.182 98.2939C139.247 98.2121 139.312 95.0181 139.312 84.292L138.379 83.834C137.871 83.5884 137.429 83.2934 137.396 83.1787C137.364 83.0805 137.511 82.9498 137.707 82.917C137.92 82.8679 139.263 82.7694 140.704 82.6875ZM34.7207 82.8184C36.5384 82.8184 38.1434 82.8839 38.2744 82.9658C38.4543 83.064 38.4709 83.1789 38.3564 83.3262C38.2746 83.4408 37.7991 83.7025 36.4727 84.292V91.2031C36.4727 95.0139 36.5381 98.204 36.6035 98.3096C36.669 98.4078 36.9969 98.5887 37.3408 98.7197C37.6846 98.8507 38.078 99.0792 38.209 99.2266C38.3399 99.3902 38.4054 99.6036 38.3564 99.6855C38.3073 99.7838 36.9641 99.8496 31.3965 99.8496L31.4453 99.4727C31.4671 99.2326 31.6965 99.0034 32.1328 98.7852C32.493 98.6051 32.8377 98.3759 32.9033 98.2939C32.9852 98.2121 33.0176 96.7379 32.9521 91.9072L32.1328 91.7764C31.6904 91.7109 30.5772 91.6448 29.6768 91.6611C28.7762 91.6611 27.63 91.7108 26.2383 91.9072L26.1562 98.375L26.9424 98.7354C27.4827 98.9974 27.7284 99.2274 27.7939 99.8496H24.2725C21.0314 99.8496 20.7521 99.8328 20.752 99.5547C20.752 99.3746 21.0801 99.0964 22.6357 98.2939L22.6846 91.5791C22.7009 87.8952 22.6841 84.719 22.6514 84.5381C22.6022 84.3416 22.3239 84.1281 21.9473 83.9971C21.6036 83.8661 21.1782 83.67 20.998 83.5391C20.7852 83.3917 20.7198 83.2281 20.7852 83.0645C20.8998 82.8516 21.3744 82.8188 24.3057 82.8516C27.1714 82.9007 27.7116 82.9336 27.7607 83.1465C27.7929 83.2939 27.4976 83.5559 26.1562 84.292V87.1904C26.1562 89.3349 26.2053 90.1542 26.3525 90.3184C26.5163 90.4657 27.3679 90.5146 29.5947 90.5146C31.8218 90.5146 32.6905 90.4655 32.8379 90.3018C32.9849 90.1692 33.0342 89.2648 33.0342 84.292L32.2646 83.916C31.7079 83.654 31.462 83.4406 31.3965 82.8184H34.7207ZM50.0977 82.5234C50.6377 82.5562 50.9812 82.6548 51.0469 82.8184C51.1124 82.9494 51.2435 83.2444 51.3418 83.4736C51.4401 83.7029 51.7351 84.4729 51.9971 85.1934C52.2756 85.9143 53.1596 88.2065 53.9619 90.2695C54.7807 92.3329 55.7964 95.0024 56.2549 96.165C57.0407 98.2607 57.0733 98.2939 57.7773 98.6377C58.1703 98.8342 58.596 99.1124 58.6943 99.2598C58.809 99.4071 58.8743 99.6037 58.8252 99.6855C58.7738 99.7837 57.3822 99.8496 55.1406 99.8496C53.1594 99.8496 51.5062 99.7996 51.457 99.7178C51.4246 99.6521 51.5548 99.4397 51.751 99.2598C51.9474 99.0633 52.3896 98.8012 52.7334 98.6865C53.1917 98.5065 53.3397 98.3592 53.3398 98.0811C53.3398 97.8845 53.2574 97.5237 53.1592 97.2617C53.0609 97.0161 52.9141 96.6723 52.8486 96.4922C52.7668 96.3121 52.57 95.8044 52.4062 95.3623C52.2426 94.9206 52.0139 94.4787 51.8828 94.3799C51.7354 94.2653 50.7523 94.1992 49.1475 94.1992C47.1334 94.1992 46.593 94.2488 46.3965 94.4453C46.2654 94.5765 45.8563 95.4773 45.4961 96.4434C45.12 97.4246 44.858 98.2912 44.9062 98.375C44.9554 98.4569 45.3321 98.6371 45.7578 98.7354C46.1672 98.85 46.609 99.0962 46.7236 99.2764C46.8381 99.4563 46.9036 99.652 46.8711 99.7178C46.822 99.7997 45.4959 99.8496 43.9238 99.8496C41.3053 99.8496 41.0584 99.8165 41.0908 99.5713C41.1236 99.4075 41.5329 99.0635 42.9082 98.2939L43.6455 96.4102C44.0384 95.3787 44.4644 94.2983 44.5791 94.0361C44.6937 93.7741 44.9558 93.1348 45.1523 92.6436C45.3488 92.1524 45.6756 91.3669 45.8721 90.9248C46.0849 90.4663 46.5601 89.2872 46.9531 88.3047C47.3298 87.3221 47.9359 85.733 48.3125 84.7832C48.6727 83.8335 49.0334 82.9333 49.1152 82.7695C49.2462 82.5403 49.4427 82.4907 50.0977 82.5234ZM70.0918 82.4912C70.4684 82.4748 70.8617 82.5729 70.96 82.6875C71.0582 82.8021 71.5163 83.8995 71.9912 85.1113C72.4661 86.323 72.9247 87.4691 72.9902 87.6494C73.0721 87.8295 73.7933 89.6798 74.5957 91.7432L74.5977 91.749C75.3995 93.8109 76.3149 96.1659 76.6094 96.9512C77.1496 98.3755 77.1829 98.4081 77.9688 98.752C78.4109 98.9485 78.8368 99.2432 78.9023 99.3906C79.0006 99.5871 78.9788 99.713 78.8369 99.7676C78.7387 99.8167 77.0515 99.8328 75.1191 99.8164C72.1227 99.7673 71.5986 99.7344 71.5986 99.5215C71.5991 99.3903 72.0081 99.0629 72.499 98.8174C72.9903 98.5717 73.4165 98.3425 73.4492 98.3262C73.4651 98.3083 73.3671 97.9159 73.2363 97.4746C73.089 97.0161 72.909 96.5082 72.8271 96.3281C72.7452 96.1479 72.5485 95.6405 72.3848 95.2148C72.2212 94.7895 71.9758 94.3967 71.8447 94.3633C71.7137 94.3305 71.0744 94.2491 70.4521 94.1836C69.8135 94.1345 68.6676 94.1181 67.8652 94.1836C66.6043 94.2655 66.4235 94.3305 66.2598 94.6416C66.1451 94.8546 65.8179 95.7228 65.5068 96.5742C65.2121 97.4257 64.9668 98.2121 64.9668 98.2939C64.9515 98.376 65.2946 98.5723 65.7197 98.7031C66.1288 98.834 66.5871 99.0791 66.7021 99.2266C66.8332 99.3903 66.8987 99.6037 66.8496 99.6855C66.7997 99.7837 65.7024 99.8496 64.0654 99.8496C62.429 99.8496 61.3325 99.7837 61.2822 99.6855C61.2331 99.6037 61.2982 99.4069 61.3965 99.2432C61.5111 99.0958 61.9044 98.8503 62.2646 98.6865C62.6904 98.5064 62.9852 98.244 63.1162 97.9492C63.215 97.6859 63.8863 95.9996 64.6064 94.1992C65.327 92.3979 66.3095 89.9256 66.8008 88.7139C67.2921 87.5021 67.9794 85.7659 68.3232 84.8652C68.6507 83.9647 69.0445 83.0645 69.1592 82.8516C69.3393 82.5732 69.5516 82.4912 70.0918 82.4912ZM88.7109 82.5234C89.3823 82.5071 90.4473 82.6053 91.0859 82.7363C91.708 82.8837 92.5263 83.1461 92.8867 83.3262C93.247 83.5063 93.7553 83.8664 94.001 84.0957C94.263 84.3414 94.6229 84.8332 94.8193 85.1934C95.0485 85.6355 95.1794 86.2577 95.2285 87.1582C95.2776 88.157 95.2292 88.6484 95 89.2051C94.8362 89.6145 94.443 90.2208 94.1318 90.5811C93.8044 90.9249 93.2638 91.3499 92.9199 91.5137C92.5924 91.6938 92.2815 91.9074 92.2324 91.9893C92.1834 92.0712 92.2485 92.3163 92.3467 92.5127C92.4613 92.7092 93.0343 93.5772 93.6074 94.4287C94.1805 95.2965 95.1141 96.59 95.6709 97.3105C96.2274 98.0307 96.882 98.7516 97.1279 98.8994C97.3571 99.0631 97.5536 99.3413 97.5537 99.5215C97.5537 99.8326 97.4395 99.8496 95.6221 99.8496C93.9026 99.8496 93.6565 99.8002 93.1816 99.4727C92.8868 99.2761 92.281 98.5551 91.8389 97.8838C91.3967 97.2123 90.6111 95.7391 90.1035 94.6094C89.5959 93.4795 89.0875 92.5128 88.9893 92.4473C88.8742 92.3818 88.4815 92.3164 88.0889 92.3164C87.7123 92.3164 87.2863 92.3493 87.1553 92.3984C86.9427 92.4643 86.9102 92.9578 86.9102 98.375L87.8105 98.7852C88.4653 99.0798 88.7108 99.276 88.7109 99.5215C88.7109 99.8326 88.5966 99.8496 85.1904 99.8496C83.0131 99.8496 81.6378 99.7838 81.5879 99.6855C81.5388 99.6037 81.5556 99.4074 81.6211 99.2764C81.703 99.129 82.0957 98.8991 82.5215 98.7354C83.0126 98.5552 83.3242 98.3427 83.3896 98.1299C83.4224 97.9498 83.4707 94.8875 83.4707 91.334C83.4707 87.7817 83.4222 84.7202 83.373 84.5381C83.3239 84.358 83.0943 84.1117 82.8486 83.9971C82.6034 83.8826 82.3254 83.801 82.2432 83.8008C82.1449 83.8008 81.9479 83.6701 81.7842 83.4736C81.6369 83.2936 81.5389 83.0644 81.5879 82.9824C81.637 82.9005 82.2758 82.8018 83.0127 82.8018C83.766 82.7854 85.0763 82.7198 85.9277 82.6543C86.7791 82.6052 88.0395 82.5398 88.7109 82.5234ZM133.368 83.4248C133.303 83.7688 133.204 84.4891 133.155 85.0293C133.106 85.5697 132.975 86.2251 132.877 86.4707C132.762 86.7325 132.582 86.9124 132.435 86.8799C132.32 86.8471 132.074 86.5689 131.91 86.2578C131.746 85.9467 131.468 85.3404 130.961 84.1289L129.699 84.0469C128.995 83.9978 127.914 84.0135 126.13 84.21L126.097 87.1582C126.064 89.3192 126.113 90.1543 126.261 90.3184C126.392 90.4603 126.905 90.5256 127.8 90.5146C128.847 90.5146 129.192 90.4497 129.421 90.2207C129.568 90.0733 129.83 89.6632 129.994 89.3193C130.207 88.9266 130.42 88.714 130.633 88.7139C130.813 88.7139 130.993 88.8282 131.042 88.959C131.091 89.09 131.124 90.0892 131.124 91.1699C131.124 92.2507 131.091 93.2499 131.042 93.3809C130.993 93.5117 130.83 93.6257 130.683 93.626C130.502 93.6424 130.224 93.3316 129.945 92.8076C129.683 92.3655 129.388 91.9395 129.29 91.874C129.175 91.8086 128.455 91.7759 127.686 91.8086C126.85 91.825 126.244 91.9235 126.179 92.0381C126.113 92.1536 126.048 93.562 126.048 95.1826C126.048 96.8029 126.113 98.2105 126.179 98.3262C126.244 98.4244 126.981 98.5554 127.931 98.6045C128.831 98.67 129.929 98.6534 130.354 98.5879C130.96 98.4896 131.19 98.359 131.354 98.0479L132.041 96.6562C132.434 95.8538 132.598 95.6738 132.926 95.6738C133.302 95.6739 133.351 95.7718 133.531 96.8193C133.63 97.458 133.728 98.3922 133.744 99.8496H127.194C121.072 99.8496 120.644 99.8329 120.644 99.5547C120.627 99.3746 120.955 99.1283 122.609 98.375V84.292L121.708 83.8828C121.217 83.6536 120.759 83.3912 120.693 83.293C120.612 83.1947 120.677 83.0477 120.808 82.9658C120.939 82.8839 123.854 82.8184 133.499 82.8184L133.368 83.4248ZM164.891 82.7695C165.022 82.5403 165.219 82.4914 166.692 82.5732L167.249 84.0469C167.544 84.8656 167.888 85.7004 167.986 85.9297C168.085 86.1589 168.231 86.4869 168.297 86.667C168.362 86.8471 168.494 87.1741 168.592 87.4033C168.674 87.6326 169.051 88.5825 169.411 89.5322C169.754 90.436 170.452 92.2445 170.999 93.6592L171.081 93.8721C171.638 95.3125 172.145 96.6383 172.228 96.8193C172.293 96.9994 172.473 97.4254 172.62 97.7529C172.833 98.2442 173.063 98.4576 173.783 98.7852C174.438 99.0798 174.683 99.276 174.684 99.5215C174.684 99.8326 174.569 99.8496 170.999 99.8496C167.429 99.8496 167.314 99.8326 167.314 99.5215C167.315 99.276 167.56 99.0797 168.215 98.7852C168.706 98.5559 169.116 98.2767 169.116 98.1621C169.115 98.062 168.837 97.2275 168.51 96.3281C168.182 95.4279 167.806 94.5767 167.691 94.4453C167.511 94.2488 166.97 94.1992 164.956 94.1992C162.664 94.1992 162.402 94.2326 162.091 94.5273C161.895 94.7073 161.731 94.9523 161.747 95.0508C161.747 95.1654 161.665 95.4117 161.583 95.5918C161.501 95.7718 161.338 96.066 161.256 96.2461C161.174 96.4262 161.092 96.6722 161.092 96.7705C161.092 96.8851 160.994 97.2294 160.847 97.5078C160.716 97.8026 160.634 98.163 160.683 98.2939C160.732 98.425 161.109 98.6543 161.534 98.7852C161.976 98.8998 162.369 99.129 162.435 99.2764C162.516 99.4074 162.532 99.6037 162.483 99.6855C162.433 99.7837 161.336 99.8496 159.7 99.8496C158.063 99.8496 156.966 99.7838 156.916 99.6855C156.867 99.6037 156.9 99.4232 156.981 99.3086C157.063 99.2103 157.456 98.9484 157.833 98.752C158.226 98.5718 158.602 98.3097 158.668 98.1787C158.717 98.0635 159.52 96.0823 160.437 93.79C161.354 91.4975 162.189 89.3851 162.32 89.123C162.435 88.861 162.68 88.2877 162.877 87.8457C163.057 87.4202 163.221 87.0275 163.221 86.9453C163.221 86.8798 163.564 85.9789 163.974 84.9473C164.383 83.9162 164.792 82.9341 164.891 82.7695ZM10.583 83.3262C10.7632 83.8012 11.4995 85.7498 12.2363 87.6328C12.9726 89.5143 13.6437 91.2325 13.7266 91.4316C13.8084 91.6445 13.9396 91.9724 14.0215 92.1689C14.1034 92.3818 14.6764 93.8557 16.4121 98.375L17.2637 98.7686C17.8856 99.0631 18.1315 99.2758 18.1318 99.5049C18.1318 99.816 18.0338 99.8333 14.4805 99.7842C11.3691 99.7514 10.8447 99.7178 10.8447 99.5049C10.8456 99.3736 11.2545 99.0461 11.7451 98.8008C12.2364 98.5551 12.6626 98.3259 12.6953 98.3096C12.7276 98.2923 12.6298 97.9488 12.499 97.54C12.368 97.1306 12.0728 96.2958 11.8271 95.6572C11.5982 95.0194 11.353 94.4631 11.2871 94.3965C11.2216 94.331 10.3536 94.2327 9.37109 94.1836C8.37218 94.1181 7.12743 94.1338 5.60449 94.3467L5.14648 95.4932C4.88447 96.1318 4.57339 96.9347 4.44238 97.2949C4.32777 97.6551 4.21289 98.0643 4.21289 98.1953C4.21296 98.3427 4.57339 98.5721 5.14648 98.7686C5.89946 99.0305 6.11224 99.1781 6.17773 99.833H3.3125C0.561383 99.833 0.446289 99.816 0.446289 99.5049C0.446581 99.2758 0.67624 99.079 1.24902 98.8008C1.69098 98.6043 2.13315 98.2773 2.23145 98.0645C2.32966 97.868 2.47694 97.5242 2.5752 97.2949L2.73242 96.8848C2.79175 96.7375 2.85325 96.5901 2.90234 96.4756C2.98423 96.2463 3.132 95.9023 3.21387 95.6895C3.29576 95.4929 3.47553 95.0678 3.60645 94.7568C3.73744 94.4457 4.2456 93.2173 4.7041 92.0547C5.17888 90.8923 5.65378 89.697 5.76855 89.4346C5.89671 89.1783 6.49464 87.6523 7.13379 86.0225L7.17676 85.9131C7.81536 84.2429 8.42128 82.7857 8.51953 82.6875V82.6709C8.60169 82.5727 9.02769 82.4746 10.2715 82.4746L10.583 83.3262ZM143.62 84.0781C143.047 84.1109 142.899 84.1772 142.834 84.4883C142.785 84.6878 142.769 87.9128 142.785 91.6445L142.834 98.4404C145.257 98.5223 145.814 98.456 146.354 98.2432C146.764 98.0957 147.37 97.7026 147.73 97.3916C148.074 97.064 148.582 96.3604 148.844 95.8203C149.122 95.2799 149.45 94.2968 149.564 93.6582C149.695 93.0031 149.794 91.8569 149.794 91.1201C149.794 90.285 149.663 89.2696 149.467 88.5C149.287 87.796 148.877 86.83 148.565 86.3223C148.254 85.8312 147.747 85.2415 147.469 85.0283C147.174 84.8156 146.748 84.5532 146.519 84.4385C146.289 84.3239 145.7 84.1771 145.209 84.1279C144.718 84.0788 143.997 84.0454 143.62 84.0781ZM8.7168 86.9766C8.56948 86.6329 8.47101 86.5679 8.42188 86.7314C8.37259 86.863 8.15977 87.567 7.93066 88.2871C7.70141 89.0076 7.29203 90.2197 7.01367 90.9893C6.73547 91.7584 6.50607 92.4784 6.50586 92.5771C6.50586 92.7409 7.01345 92.79 8.4707 92.79C9.55129 92.79 10.4692 92.741 10.502 92.6592C10.5494 92.5892 10.2056 91.3949 9.74805 90.0059C9.28968 88.6144 8.83154 87.239 8.7168 86.9766ZM49.2793 86.7637C49.1975 86.7309 49.0668 86.9112 49.0176 87.1729C48.9521 87.4185 48.7058 88.1397 48.4766 88.7783C48.2473 89.4006 47.854 90.5139 47.6084 91.2344C47.3464 91.9549 47.1831 92.5937 47.2158 92.6592C47.2499 92.7409 48.1662 92.79 49.2461 92.79C50.8822 92.79 51.2115 92.7411 51.2119 92.5449C51.2119 92.4139 50.9495 91.5456 50.6221 90.6123C50.2946 89.6955 49.9011 88.4676 49.7373 87.8779C49.5738 87.2894 49.3777 86.7978 49.2793 86.7637ZM69.4053 86.5674C69.3234 86.5674 69.192 86.7642 69.0938 87.0098C69.0119 87.2718 68.8482 87.7629 68.75 88.123C68.6355 88.483 68.4882 88.9251 68.4062 89.1055C68.3244 89.2856 68.0459 90.0556 67.7676 90.8252C67.4894 91.5943 67.2601 92.347 67.2598 92.4951C67.2598 92.7571 67.4562 92.79 69.2246 92.79C71.0741 92.79 71.1894 92.7738 71.1895 92.4629C71.1895 92.2828 70.8295 91.0545 70.3711 89.7119C69.929 88.3856 69.5528 87.1408 69.5527 86.9277C69.5527 86.7319 69.4868 86.5685 69.4053 86.5674ZM165.056 86.5186C164.974 86.2893 164.875 86.4532 164.728 87.0918C164.596 87.567 164.138 88.9585 163.696 90.1699C163.254 91.3812 162.894 92.478 162.894 92.5771C162.894 92.7409 163.401 92.79 164.858 92.79C166.004 92.79 166.857 92.7242 166.906 92.626C166.953 92.5221 166.577 91.1818 166.07 89.6299C165.563 88.0921 165.106 86.6846 165.056 86.5186ZM88.2539 84.1113C87.7315 84.1113 87.2413 84.1604 87.1572 84.2256C87.0753 84.2747 87.0256 85.7656 87.042 87.5342C87.0584 90.3014 87.0913 90.7764 87.3369 90.9893C87.5661 91.2019 87.7633 91.2018 88.6963 91.0381C89.3184 90.907 89.9903 90.662 90.2686 90.4492C90.5469 90.2362 90.9066 89.7771 91.0703 89.417C91.234 89.0731 91.4147 88.3691 91.4639 87.8779C91.4966 87.3867 91.4469 86.6657 91.3486 86.2891C91.2503 85.8962 90.9721 85.3563 90.7266 85.0615C90.4647 84.7833 90.0226 84.4553 89.7441 84.3242C89.4494 84.2096 88.7778 84.1114 88.2539 84.1113Z" fill="#3AC281"/>
<defs>
<linearGradient id="paint0_linear_379_2518" x1="109.018" y1="17.79" x2="66.6047" y2="55.1262" gradientUnits="userSpaceOnUse">
<stop stop-color="#18C45B"/>
<stop offset="1" stop-color="#4DC49F"/>
</linearGradient>
</defs>
</svg>
