<svg width="195" height="100" viewBox="0 0 195 100" fill="none" xmlns="http://www.w3.org/2000/svg">
<path d="M111.249 2.26074C111.362 2.26099 111.489 2.33096 111.531 2.40137C111.574 2.48622 111.97 2.67045 112.422 2.83984C112.86 3.00923 113.636 3.19305 114.145 3.26367C114.78 3.33425 115.205 3.32002 115.516 3.20703C115.77 3.10846 116.023 3.09406 116.08 3.15039C116.137 3.22163 116.193 3.60367 116.193 4.73242L152.358 4.80371C176.741 4.86022 188.679 4.93041 189.018 5.0293C189.286 5.1143 189.922 5.36851 190.43 5.6084C190.938 5.84861 191.659 6.31534 192.04 6.6543C192.421 6.99341 192.972 7.62905 193.255 8.05273C193.552 8.4766 193.933 9.23952 194.456 10.666V94.1553L194.117 95.0742C193.934 95.5826 193.595 96.2748 193.354 96.6279C193.129 96.981 192.732 97.4757 192.492 97.7441C192.252 97.9984 191.701 98.4505 191.277 98.7471C190.854 99.0437 190.09 99.4248 188.664 99.9473L97.7578 99.9902C32.4746 100.018 6.61674 99.9899 5.93359 99.877C5.4252 99.7922 4.57733 99.4954 4.02637 99.2412C3.48969 98.9729 2.75465 98.5066 2.40137 98.21C2.04838 97.9134 1.5262 97.3202 1.22949 96.8965C0.946967 96.4727 0.550911 95.667 0 94.085V52.5098C0 18.6503 0.0423511 10.8224 0.183594 10.2422C0.296604 9.86082 0.565046 9.15461 0.791016 8.68848C1.04532 8.1517 1.54002 7.50153 2.11914 6.93652C2.64179 6.42806 3.40452 5.86275 3.88477 5.63672C4.35099 5.41072 5.11402 5.12763 5.58008 5.01465C6.3026 4.84524 11.5491 4.81783 42.0693 4.80371C73.5943 4.80371 77.707 4.77513 77.7686 4.5918C77.8109 4.47863 77.8388 4.09703 77.8389 3.74414C77.8389 3.3629 77.9095 3.08025 78.0225 3.05176C78.1075 3.00982 78.3333 3.07971 78.5166 3.19238C78.7285 3.33343 79.0398 3.36209 79.5762 3.30566C79.9718 3.26322 80.6363 3.12229 81.0176 3.02344C81.4129 2.91044 81.9494 2.69828 82.2178 2.54297C82.4855 2.38804 82.782 2.27528 82.8535 2.26074C82.9254 2.26228 83.3209 2.60019 83.7295 3.00879C84.125 3.4042 84.8033 3.95509 85.2129 4.19531C85.6227 4.44959 86.4145 4.81693 86.9512 5.01465C87.5018 5.19815 88.1089 5.36806 88.335 5.36816C88.5464 5.36827 88.6874 5.43926 88.6455 5.50977C88.6011 5.59428 87.7824 5.63658 86.499 5.6084C85.3415 5.58017 84.2537 5.50961 84.0547 5.45312C83.744 5.35426 83.6874 5.39661 83.6309 5.79199C83.5744 6.11691 83.6171 6.27259 83.7725 6.3291C83.8856 6.37101 84.0973 6.32901 84.2383 6.23047C84.3945 6.13172 85.2017 6.07475 88.5049 6.08887L87.1631 6.58301C86.429 6.85124 85.4824 7.27496 85.0723 7.5293C84.6626 7.76942 83.9982 8.32089 82.9248 9.46484L81.8369 8.9707C81.1166 8.65999 80.3812 8.44764 79.7314 8.37695C78.9977 8.29231 78.6579 8.3067 78.4883 8.43359C78.3613 8.53227 78.1638 8.58893 78.0508 8.54688C77.9096 8.50448 77.8389 8.27851 77.8389 7.84082C77.8389 7.45974 77.7539 7.12057 77.627 6.99316C77.4433 6.80952 73.2893 6.78093 5.8623 6.85156L5.08594 7.2334C4.66223 7.43113 3.99812 7.88319 3.60254 8.23633C3.22121 8.57529 2.74083 9.16838 2.54297 9.5498C2.35934 9.93118 2.11942 10.5247 2.02051 10.8779C1.89338 11.3729 1.85059 18.5214 1.85059 42.4512C1.83647 59.4519 1.89274 73.4608 1.94922 73.5586C2.04171 73.6997 22.1316 73.7284 192.479 73.6719L192.521 42.5928C192.549 18.9349 192.521 11.3609 192.394 10.8779C192.295 10.5249 192.083 9.95964 191.899 9.60645C191.73 9.25336 191.306 8.6877 190.967 8.34863C190.642 8.00981 190.035 7.58613 189.653 7.40234C189.258 7.21876 188.565 7.00669 188.099 6.92188C187.543 6.83715 174.942 6.78125 151.85 6.78125C123.739 6.78125 116.442 6.82377 116.292 6.96484C116.193 7.05004 116.123 7.47346 116.123 7.88281C116.123 8.51809 116.08 8.61705 115.84 8.61719C115.685 8.61712 115.558 8.56107 115.558 8.47656C115.558 8.40596 115.275 8.33503 114.922 8.33496C114.569 8.33496 113.947 8.40554 113.552 8.49023C113.142 8.57499 112.421 8.82973 111.107 9.45117L110.331 8.68848C109.907 8.26481 109.172 7.69962 108.706 7.41699C108.24 7.14865 107.378 6.76715 106.799 6.56934C106.22 6.38594 105.613 6.20247 105.457 6.17383C105.302 6.13145 106.177 6.10299 107.406 6.08887C108.762 6.07476 109.653 6.13107 109.695 6.21582C109.738 6.30038 109.893 6.35735 110.048 6.35742C110.203 6.35719 110.359 6.24414 110.401 6.11719C110.444 5.97613 110.444 5.75025 110.401 5.62305C110.345 5.42538 110.231 5.38265 109.949 5.45312C109.723 5.4955 108.536 5.56647 107.293 5.59473C106.05 5.62297 105.09 5.60871 105.146 5.53809C105.218 5.48143 105.67 5.35413 106.135 5.26953C106.615 5.17052 107.534 4.8312 108.184 4.52051C108.988 4.12508 109.596 3.70148 110.189 3.1084C110.656 2.64232 111.136 2.26074 111.249 2.26074ZM192.479 75.9326C12.8372 75.862 2.01203 75.89 1.92188 76.0732C1.8795 76.1863 1.83692 80.0712 1.83691 84.6904C1.83691 90.7085 1.87969 93.3084 2.00684 93.8311C2.10576 94.2407 2.33104 94.8627 2.51465 95.2158C2.69838 95.569 3.09452 96.0911 3.37695 96.3877C3.65954 96.6843 4.16841 97.0943 4.52148 97.292C4.87476 97.5038 5.4821 97.7445 5.86328 97.8574C6.45534 97.9985 22.7054 98.041 97.1934 98.041C172.348 98.041 187.944 97.9982 188.523 97.8428C188.919 97.7438 189.484 97.5317 189.795 97.3623C190.106 97.2067 190.572 96.8678 190.84 96.5996C191.108 96.3453 191.462 95.9359 191.646 95.71C191.815 95.4696 192.098 94.8765 192.253 94.3682C192.55 93.4783 192.55 93.2367 192.521 84.6904L192.479 75.9326ZM72.0469 78.0508C72.4564 78.1073 72.8671 78.2629 73.1777 78.5312C73.4461 78.7432 73.785 79.139 73.9121 79.4072C74.0957 79.7745 74.1519 80.2834 74.166 81.6816C74.166 83.1637 74.1233 83.5036 73.9541 83.5605C73.8411 83.6028 73.5872 83.6308 73.3896 83.6309C73.1921 83.6309 72.9374 83.6028 72.8242 83.5605C72.6547 83.504 72.6123 83.1932 72.6123 81.8936C72.6123 80.7214 72.5557 80.2266 72.4004 79.9863C72.2592 79.7747 72.0471 79.6759 71.7227 79.6758C71.4402 79.6617 71.1709 79.775 70.9873 79.9727C70.7192 80.255 70.7054 80.4978 70.6631 86.6543C70.6348 91.5536 70.6767 93.1087 70.8037 93.3643C70.9026 93.5619 71.1852 93.774 71.4111 93.8447C71.6935 93.9293 71.9394 93.9199 72.1465 93.8164C72.4706 93.6614 72.471 93.6422 72.4004 87.5303L72.0469 87.4453C71.7223 87.3747 71.6943 87.2893 71.6943 85.9619H74.2373L74.2793 90.1299C74.2934 92.416 74.2792 94.4201 74.251 94.5791C74.2086 94.7344 73.9821 94.9323 73.7139 95.0312C73.4597 95.1301 72.9233 95.2717 72.542 95.3564C72.1466 95.4412 71.5524 95.4837 71.1992 95.4414C70.8462 95.3849 70.3377 95.2147 70.0693 95.0312C69.801 94.8617 69.4331 94.4939 68.9248 93.7314L68.9395 87.0215C68.9395 82.1065 68.996 80.1709 69.123 79.7607C69.2078 79.4641 69.4478 79.0258 69.6455 78.7998C69.8715 78.5315 70.2533 78.3058 70.7051 78.1787C71.0864 78.0799 71.6938 78.0226 72.0469 78.0508ZM134.22 85.6377C134.234 89.6195 134.276 93.0367 134.332 93.2373C134.389 93.4349 134.601 93.6749 134.812 93.7598C135.095 93.9008 135.265 93.901 135.505 93.7881C135.688 93.6894 135.858 93.5909 135.9 93.5625C135.943 93.5095 135.999 90.0966 136.112 78.4746L136.918 78.4326C137.666 78.4044 137.737 78.4326 137.808 78.7148C137.85 78.8997 137.878 82.2904 137.85 86.2451C137.807 92.7135 137.779 93.4915 137.567 93.873C137.44 94.099 137.116 94.4947 136.861 94.749C136.607 94.989 136.113 95.2574 135.76 95.3564C135.294 95.4694 134.954 95.4839 134.488 95.3711C134.135 95.2864 133.64 95.0311 133.386 94.791C133.146 94.5649 132.835 94.1271 132.722 93.8447C132.538 93.3925 132.51 92.219 132.51 85.8633V78.4043H134.205L134.22 85.6377ZM108.848 78.0654C109.003 78.0373 109.413 78.0368 109.766 78.0791C110.119 78.1215 110.557 78.2351 110.755 78.334C110.953 78.4333 111.263 78.7863 111.461 79.125C111.757 79.6757 111.814 79.9585 111.856 81.5117C111.913 83.1072 111.885 83.2925 111.659 83.4619C111.504 83.5606 111.264 83.6306 111.108 83.6309C110.953 83.6309 110.713 83.5606 110.571 83.4619C110.345 83.3065 110.289 83.0236 110.232 81.6533C110.19 80.7218 110.091 79.9446 110.006 79.8447C109.907 79.7461 109.639 79.6613 109.413 79.6611C109.102 79.6611 108.933 79.7748 108.777 80.043C108.622 80.3113 108.565 80.8199 108.579 81.7803C108.579 82.9384 108.636 83.2356 108.946 83.8428C109.144 84.2242 109.441 84.8035 109.625 85.1143C109.809 85.4251 110.105 85.9623 110.303 86.3154C110.501 86.6686 110.825 87.2338 111.037 87.5869C111.235 87.9401 111.546 88.6602 111.716 89.2109C111.942 89.9313 112.026 90.5536 112.026 91.5C112.026 92.4461 111.955 93.0253 111.758 93.5479C111.588 93.9857 111.277 94.4806 110.98 94.749C110.698 95.0031 110.218 95.2856 109.907 95.3564C109.597 95.427 109.102 95.4548 108.806 95.3984C108.523 95.342 108.099 95.1724 107.873 95.0029C107.647 94.8475 107.308 94.438 107.11 94.085C106.771 93.4916 106.743 93.3222 106.729 89.7764L107.393 89.7344C108 89.7062 108.085 89.7483 108.142 90.0166C108.17 90.2005 108.212 90.935 108.24 91.6553C108.283 92.8984 108.311 92.9974 108.664 93.3223C108.89 93.5058 109.159 93.6611 109.271 93.6611C109.385 93.6607 109.639 93.5199 109.837 93.3506C110.176 93.0401 110.204 92.9403 110.204 91.6836C110.218 90.5255 110.162 90.2283 109.837 89.4941C109.639 89.028 109.229 88.265 108.946 87.7988C108.664 87.3327 108.282 86.6966 108.099 86.3857C107.929 86.0749 107.633 85.4956 107.449 85.1143C107.266 84.7331 107.04 84.1826 106.955 83.9141C106.87 83.6457 106.799 82.7128 106.799 81.8652C106.799 80.8905 106.884 80.0993 106.997 79.7461C107.11 79.4353 107.351 79.0116 107.534 78.7998C107.718 78.574 108.014 78.348 108.212 78.2773C108.41 78.1927 108.692 78.1078 108.848 78.0654ZM46.6895 78.1924C47.0567 78.0512 47.4949 78.0089 47.9609 78.0654C48.3846 78.1079 48.8508 78.2774 49.1191 78.4893C49.3733 78.673 49.6844 79.0682 49.8115 79.3506C49.9528 79.7038 50.066 80.4813 50.1084 81.583C50.179 83.1219 50.1646 83.2925 49.9248 83.4619C49.7695 83.5607 49.4584 83.6308 49.2324 83.6309C49.0067 83.6309 48.7242 83.5606 48.625 83.4619C48.512 83.3348 48.4551 82.7831 48.4551 81.7236C48.4551 80.4392 48.3987 80.1279 48.2012 79.916C48.0741 79.7749 47.8052 79.6613 47.6074 79.6611C47.41 79.6613 47.1562 79.7745 47.043 79.9014C46.8876 80.085 46.8306 80.5092 46.8447 81.71C46.8447 83.1084 46.8871 83.3488 47.2119 83.9844C47.4098 84.366 47.989 85.3977 48.4834 86.2451C48.9776 87.0923 49.5285 88.1511 49.6982 88.5752C49.8678 88.999 50.0661 89.7061 50.1367 90.1299C50.2073 90.5538 50.2358 91.4157 50.2217 92.0371C50.1793 92.9408 50.0943 93.3225 49.7695 93.9297C49.5577 94.3533 49.2183 94.8194 49.0205 94.9609C48.8228 95.1021 48.3985 95.2857 48.0596 95.3564C47.6644 95.4552 47.2687 95.4415 46.8594 95.3428C46.5346 95.258 46.0821 95.0171 45.8701 94.8193C45.6443 94.6076 45.3905 94.2407 45.2773 94.0146C45.1785 93.7887 45.0365 93.3082 44.9658 92.9551C44.9093 92.6019 44.8811 91.7541 44.9941 89.7764L45.6299 89.7344C46.0388 89.7062 46.2933 89.7623 46.3643 89.875C46.4066 89.9745 46.4639 90.6243 46.4639 91.3301C46.478 92.0357 46.5196 92.7417 46.5479 92.9121C46.5903 93.0957 46.817 93.3362 47.043 93.4492C47.2685 93.562 47.5223 93.6608 47.6074 93.6611C47.6925 93.6605 47.9052 93.4917 48.1025 93.2803C48.4273 92.9273 48.4697 92.7708 48.4697 91.7539C48.4556 91.1327 48.3845 90.3986 48.2998 90.1299C48.2151 89.8617 48.074 89.4801 47.9893 89.2822C47.8904 89.0845 47.3673 88.1657 46.8164 87.2334C46.2656 86.3013 45.7147 85.3126 45.6016 85.0439C45.4887 84.7758 45.3196 84.3804 45.2207 84.1543C45.136 83.9424 45.0655 82.9817 45.0654 81.9082C45.0654 80.3404 45.1071 79.93 45.333 79.4639C45.4743 79.1531 45.7152 78.7853 45.8564 78.6582C46.0122 78.5169 46.3791 78.3052 46.6895 78.1924ZM173.195 77.9805C173.393 77.9806 173.789 78.0515 174.071 78.1221C174.368 78.2069 174.806 78.4328 175.061 78.6445C175.301 78.8707 175.625 79.2949 175.752 79.6055C175.992 80.1281 176.021 80.7084 176.021 86.5273C176.021 91.019 175.978 93.0253 175.865 93.3789C175.766 93.6473 175.526 94.113 175.328 94.3955C175.13 94.692 174.735 95.0315 174.467 95.1729C174.17 95.3141 173.647 95.413 173.195 95.4131C172.687 95.4131 172.249 95.3143 171.952 95.1309C171.698 94.9896 171.288 94.5795 170.652 93.5908V86.7676C170.652 81.1875 170.695 79.8874 170.851 79.5625C170.964 79.3506 171.232 79.0116 171.458 78.7998C171.67 78.588 172.079 78.319 172.348 78.2061C172.616 78.0931 172.998 77.9946 173.195 77.9805ZM160.566 78.3623C160.708 78.3201 161.089 78.32 161.399 78.3623C161.71 78.4047 162.006 78.5169 162.063 78.6016C162.12 78.6922 162.148 82.3917 162.134 86.8379C162.12 91.263 162.05 94.9434 161.993 95.0312C161.923 95.0877 161.555 95.1587 161.174 95.1729C160.708 95.2011 160.411 95.144 160.27 95.0029C160.086 94.8189 160.058 93.7159 160.058 86.7812C160.058 82.3597 160.114 78.6863 160.171 78.6016C160.242 78.5169 160.411 78.4046 160.566 78.3623ZM36.5469 78.291C36.646 78.2775 36.8297 78.3619 36.9424 78.4746C37.0553 78.5878 37.1543 78.8566 37.1543 79.0684C37.1543 79.2942 37.0833 79.5627 37.0127 79.6758C36.9138 79.8311 36.5034 79.9022 33.9756 80.0293L33.9326 82.6426C33.9185 84.0831 33.9332 85.3964 33.9756 85.5664C34.0321 85.8489 34.1454 85.8913 35.6709 85.9619V87.375L34.8936 87.417C34.4702 87.4452 34.0747 87.5442 34.0176 87.6289C33.9611 87.7278 33.9043 89.0563 33.9043 90.582C33.9043 93.2374 33.9191 93.3924 34.1875 93.5195C34.3437 93.5901 35.0355 93.6611 35.7412 93.6611C36.9411 93.6611 37.0129 93.6753 37.0977 93.9717C37.14 94.1553 37.14 94.4669 37.0977 94.6787C37.0129 95.0457 36.9551 95.0743 36.1787 95.1025C35.7123 95.1308 34.6383 95.1307 32.21 95.0742V78.4043L34.2861 78.3623C35.4443 78.3482 36.4621 78.3051 36.5469 78.291ZM83.8428 78.3477C84.2239 78.39 84.5918 78.4748 84.6484 78.5312C84.7052 78.5758 84.8752 79.2537 85.0303 80.0293C85.1998 80.8063 85.4535 82.0067 85.5947 82.7129C85.7501 83.4192 85.9906 84.6063 86.1318 85.3691C86.2731 86.1177 86.4147 86.7393 86.457 86.7393C86.4992 86.718 86.5412 84.9603 86.5693 82.8262C86.5835 80.6648 86.6266 78.7853 86.6689 78.6582C86.7256 78.4609 86.8958 78.4043 88.0107 78.4043V95.0742H86.457L86.2451 94.0566C86.118 93.4916 85.9622 92.7428 85.8916 92.3896C85.8068 92.0362 85.4958 90.5533 85.1992 89.0703C84.8885 87.5875 84.5492 86.0338 84.4502 85.6094C84.2807 84.9172 84.267 85.3547 84.2246 89.8467C84.2105 93.0057 84.1396 94.9121 84.041 95.0029C83.9704 95.0735 83.6594 95.1307 83.377 95.1025C83.0952 95.0744 82.8134 94.9752 82.7559 94.8906C82.6994 94.7917 82.6284 91.0904 82.6143 86.6406C82.6001 78.8021 82.5999 78.5597 82.8682 78.4043C83.0238 78.3197 83.4477 78.3054 83.8428 78.3477ZM148.304 78.4043C150.182 78.4043 150.423 78.4323 150.776 78.6865C150.988 78.842 151.256 79.1676 151.369 79.3936C151.553 79.7612 151.581 80.8644 151.581 86.7109C151.581 93.5614 151.568 93.6054 151.257 94.1279C151.087 94.4244 150.747 94.7628 150.493 94.876C150.182 95.0171 149.49 95.0884 148.304 95.1025C147.345 95.1166 146.497 95.0736 146.396 95.0312C146.256 94.9574 146.213 93.1325 146.213 86.6826V78.4043H148.304ZM20.4414 78.4043C22.404 78.4184 22.5608 78.4326 22.9561 78.7432C23.182 78.9128 23.4651 79.3085 23.5498 79.6191C23.6769 80.0291 23.7334 81.9367 23.7334 86.7676C23.7334 93.0099 23.7189 93.4068 23.4648 93.9717C23.2671 94.3953 23.0267 94.664 22.6455 94.8477C22.2076 95.0595 21.8116 95.102 20.3711 95.0879C19.4265 95.0879 18.5943 95.0452 18.5068 95.0029C18.4221 94.9605 18.3652 92.0369 18.3652 86.6689V78.4043H20.4414ZM60.3223 95.0742H58.4854V78.4043H60.3223V95.0742ZM119.584 78.4893C119.658 78.447 120.763 78.4182 124.388 78.4746L124.43 79.04C124.458 79.3788 124.401 79.6753 124.288 79.7744C124.189 79.8591 123.85 79.9587 122.975 80.0293L122.833 95.0029L122.014 95.0459C121.576 95.06 121.209 95.0311 121.209 94.9746C121.195 94.8929 121.195 91.5227 121.209 80.0996L120.855 79.958C120.658 79.8874 120.304 79.8175 120.078 79.8174C119.824 79.8173 119.627 79.7323 119.584 79.6055C119.542 79.4925 119.5 79.2099 119.485 78.998C119.471 78.7722 119.528 78.546 119.584 78.4893ZM173.294 79.8164C173.054 79.8165 172.743 79.8875 172.63 79.958C172.447 80.0722 172.418 80.9798 172.418 86.7246C172.418 92.4447 172.446 93.3923 172.63 93.5762C172.743 93.675 172.97 93.8161 173.125 93.8584C173.309 93.9145 173.549 93.8444 173.803 93.6611L174.185 93.3779C174.185 81.1672 174.156 80.2129 173.973 80.0283C173.86 79.9154 173.548 79.8165 173.294 79.8164ZM20.7949 79.958C20.4138 79.958 20.2025 80.0141 20.2021 80.127V86.8799C20.2021 90.4963 20.23 93.4634 20.2441 93.4775C20.2623 93.4925 20.4589 93.548 20.6963 93.5898C21.0066 93.6602 21.2188 93.6041 21.501 93.3926L21.8965 93.0957C21.9106 80.8945 21.8821 80.438 21.6562 80.2119C21.5008 80.0567 21.1759 79.9581 20.7949 79.958ZM148.05 93.5332C148.657 93.6602 149.01 93.6178 149.222 93.5049C149.447 93.4059 149.674 93.1664 149.717 92.9688C149.773 92.7699 149.815 89.9163 149.815 86.6113C149.815 82.0779 149.773 80.5371 149.632 80.2822C149.491 80.0282 149.334 79.9717 148.756 79.9717H148.05V93.5332ZM63.9941 15.624C64.771 15.6806 65.549 15.8365 66.1846 16.0625C66.7355 16.2604 67.5266 16.6556 67.9502 16.9521C68.3739 17.2347 69.0096 17.7857 69.3486 18.167C69.6735 18.5485 70.1118 19.213 70.3096 19.6367C70.5072 20.0605 70.7194 20.7947 70.79 21.2607C70.8748 21.7559 70.9028 29.4268 70.8887 39.9082C70.8463 55.7128 70.8178 57.7782 70.6201 58.3438C70.493 58.6968 70.1824 59.3894 69.9141 59.8838C69.6457 60.3781 69.0241 61.2117 68.5156 61.7344C67.9508 62.2992 67.3006 62.808 66.8203 63.0342C66.3967 63.246 65.7885 63.4718 65.4775 63.5566C65.1665 63.6413 64.2766 63.7119 63.5 63.7119C62.6104 63.7119 61.805 63.6275 61.3105 63.4863C60.8871 63.3593 60.2798 63.1333 59.9688 62.9639C59.658 62.8085 59.1213 62.4544 58.7822 62.1719C58.4433 61.8894 57.906 61.2825 57.5811 60.8164C57.2562 60.3504 56.9169 59.8132 56.832 59.6152C56.7473 59.4176 56.6209 59.1069 56.5361 58.9092C56.4655 58.7114 56.324 58.0753 56.2393 57.4961C56.1121 56.7043 56.0841 51.915 56.1123 38.9902C56.1547 22.6172 56.168 21.5009 56.4082 20.8369C56.5495 20.4555 56.8036 19.8761 56.959 19.5654C57.1286 19.2546 57.5532 18.662 57.9062 18.2383C58.2594 17.8145 58.9372 17.2209 59.4033 16.9102C59.8695 16.5994 60.5336 16.2179 60.8867 16.0625C61.2399 15.9072 61.8052 15.7376 62.1582 15.667C62.5116 15.6106 63.3306 15.5958 63.9941 15.624ZM129.119 16.4717C129.234 16.4295 130.321 16.4294 131.521 16.4717C132.719 16.514 133.736 16.5846 133.781 16.627C133.824 16.6853 133.866 26.187 133.923 58.627H139.429C140.888 58.6395 141.413 58.69 141.509 58.7959C141.636 58.9236 141.679 59.5192 141.622 62.7803L141.198 62.8789C140.958 62.9495 138.302 62.9917 135.265 63.0059C131.72 63.02 129.615 62.9635 128.979 62.7236L128.95 39.6396C128.922 19.5831 128.95 16.5432 129.119 16.4717ZM97.6445 16.4434C98.308 16.4575 98.9152 16.5148 98.9863 16.5713C99.0428 16.6594 99.1144 26.1655 99.1709 58.627H102.914C106.516 58.627 106.658 58.6408 106.799 58.9092C106.883 59.0653 106.926 59.9832 106.912 60.9434C106.884 61.9026 106.813 62.7495 106.757 62.8223C106.686 62.8788 104.807 62.9639 102.589 62.9922C100.357 63.0204 97.5592 63.0055 94.2256 62.8643V16.5283L95.3281 16.4863C95.9215 16.4581 96.9667 16.4434 97.6445 16.4434ZM173.478 16.458C174.212 16.4015 175.032 16.401 175.286 16.4434C175.526 16.4858 175.767 16.6131 175.795 16.7119C175.823 16.7969 175.795 17.1646 175.71 17.5176C175.639 17.8708 175.427 18.8876 175.229 19.7773C175.046 20.6673 174.763 22.0095 174.607 22.7441C174.452 23.4787 174.226 24.5383 174.113 25.0752C173.986 25.6261 173.817 26.3891 173.746 26.7705C173.661 27.166 173.534 27.7312 173.478 28.042C173.421 28.3528 173.294 28.9321 173.224 29.3135C173.139 29.7091 172.898 30.8106 172.687 31.7852C172.489 32.7595 172.263 33.805 172.192 34.1162C172.122 34.4269 172.009 35.0063 171.924 35.3877C171.853 35.7832 171.669 36.6731 171.514 37.3652C171.372 38.0715 171.133 39.146 171.006 39.7676C170.865 40.3888 170.708 41.1509 170.638 41.4619C170.567 41.7725 170.441 42.352 170.342 42.7334C170.229 43.2137 170.158 46.5057 170.017 62.7939L168.815 62.8926C168.152 62.9349 167.121 62.978 166.527 62.9922C165.921 63.0063 165.329 62.9777 165.214 62.9355C165.03 62.879 165.002 61.6638 165.002 53.2305C165.002 47.5099 164.945 43.3846 164.86 43.0869C164.79 42.8185 164.564 41.8297 164.366 40.8975C164.168 39.9651 163.871 38.665 163.716 38.001C163.56 37.3372 163.377 36.5462 163.307 36.2354C163.236 35.9245 163.01 34.9358 162.798 34.0459C162.6 33.1561 162.303 31.8848 162.162 31.2207C162.007 30.5568 161.823 29.765 161.752 29.4541C161.681 29.1432 161.526 28.4799 161.413 27.9717C161.3 27.4631 161.074 26.4876 160.904 25.7812C160.749 25.0894 160.552 24.2421 160.481 23.917C160.397 23.578 160.283 23.0407 160.198 22.7158C160.128 22.3766 159.902 21.374 159.704 20.4844C159.492 19.5945 159.238 18.478 159.125 18.0117C159.026 17.5456 158.913 17.0231 158.898 16.8535C158.87 16.6558 158.955 16.5288 159.139 16.4863C159.295 16.444 160.214 16.415 161.188 16.415C162.162 16.4151 163.164 16.4582 163.419 16.5146C163.673 16.5571 163.914 16.6986 163.956 16.8115C163.999 16.9262 164.154 17.6318 164.31 18.3652C164.465 19.0998 164.719 20.3143 164.86 21.0488C165.016 21.7833 165.298 23.1536 165.496 24.0859C165.694 25.0183 165.92 26.1069 165.99 26.4883C166.061 26.884 166.259 27.8018 166.414 28.5361C166.584 29.2706 166.795 30.3303 166.908 30.8672C167.007 31.4182 167.234 32.4637 167.403 33.1982C167.559 33.9328 167.77 34.7947 167.841 35.1055C167.954 35.515 168.025 35.6134 168.109 35.458C168.166 35.343 168.35 34.5528 168.52 33.6924C168.689 32.8449 168.886 31.884 168.957 31.5732C169.028 31.2623 169.141 30.6551 169.226 30.2314C169.31 29.8075 169.537 28.6631 169.734 27.6885C169.932 26.7138 170.158 25.6402 170.215 25.2871C170.285 24.9339 170.412 24.2977 170.497 23.874C170.582 23.4504 170.709 22.787 170.779 22.3916C170.864 22.0101 171.09 20.8936 171.288 19.9189C171.486 18.9444 171.726 17.8146 171.825 17.3906C171.91 16.981 172.023 16.6137 172.065 16.5996C172.114 16.585 172.747 16.5142 173.478 16.458ZM22.2783 16.4014C24.2842 16.3873 26.6859 16.4436 27.6182 16.5283C28.5503 16.599 29.5393 16.7547 29.8076 16.8535C30.0759 16.9524 30.4996 17.1356 30.7256 17.2627C30.9658 17.3759 31.3616 17.7299 31.6299 18.0264C31.8982 18.3372 32.2514 18.9019 32.4209 19.2832C32.5904 19.6788 32.8167 20.3997 32.9297 20.9082C33.0991 21.6719 33.1279 24.8384 33.1279 39.5557C33.1279 54.176 33.0992 57.4401 32.9297 58.2031C32.8166 58.7116 32.5619 59.5027 32.3359 59.9688C32.0958 60.4771 31.6722 61.0703 31.2627 61.4375C30.8954 61.7906 30.2308 62.229 29.0303 62.7939L23.8037 62.8359C18.9033 62.8783 18.5631 62.864 18.3936 62.624C18.2523 62.4252 18.2241 57.7343 18.21 39.5977C18.21 19.1561 18.2241 16.8106 18.4219 16.627C18.6065 16.4439 19.2731 16.4155 22.2783 16.4014ZM63.501 20.4844C62.7667 20.4844 62.3985 20.5549 62.0596 20.7666C61.8054 20.922 61.466 21.2614 61.3105 21.5156C61.0281 21.9676 61.0283 22.224 61.0283 39.5273C61.0283 53.1164 61.0707 57.2136 61.2119 57.7227C61.3249 58.1604 61.5509 58.5277 61.918 58.8525C62.2286 59.1349 62.6528 59.3755 62.9775 59.418C63.2602 59.4744 63.7695 59.4744 64.1084 59.418C64.5177 59.3613 64.8433 59.1919 65.168 58.8672C65.4362 58.5988 65.6907 58.1326 65.8037 57.7373C65.9308 57.2282 65.9727 53.1305 65.9727 39.584C65.9727 23.2274 65.9588 22.0806 65.7188 21.6143C65.5917 21.346 65.2527 20.9787 64.9844 20.7949C64.589 20.5407 64.3055 20.4844 63.501 20.4844ZM24.7646 20.7666C23.6212 20.7666 23.4371 20.7954 23.2959 21.0352C23.1829 21.2329 23.1402 26.4034 23.1543 39.7529C23.1684 49.896 23.1969 58.302 23.2393 58.415C23.296 58.5843 23.5929 58.627 24.7646 58.627C25.6968 58.6269 26.3753 58.5558 26.7002 58.4287C26.9685 58.3156 27.3358 58.0761 27.4912 57.8926C27.6607 57.7229 27.8865 57.3126 27.9854 57.002C28.1548 56.5347 28.1836 53.4955 28.1836 39.5557C28.1836 24.1464 28.1551 22.6321 27.9434 22.1797C27.8163 21.9114 27.5616 21.5442 27.3779 21.3887C27.2085 21.2193 26.8269 21.0208 26.5586 20.9219C26.2899 20.8372 25.4846 20.7666 24.7646 20.7666ZM96.8301 0.0107422C96.9394 0.116642 97.2782 1.03302 98.1113 3.74414L100.074 3.81445C101.486 3.87092 102.052 3.94138 102.095 4.06836C102.122 4.15342 101.642 4.57756 101.05 5.00098C100.442 5.42473 99.7355 5.94786 99.001 6.56934L99.5947 8.47656C99.9187 9.51904 100.158 10.3933 100.131 10.4258C100.099 10.4374 99.3662 9.94405 98.5068 9.32422C97.6326 8.70381 96.8276 8.19528 96.7402 8.19336C96.6649 8.19433 96.2413 8.46481 95.707 8.84375L94.582 9.66211C94.0495 10.0402 93.6291 10.3101 93.5625 10.3125C93.4636 10.3125 93.3926 10.2278 93.4209 10.1289C93.4493 10.0434 93.5767 9.57786 93.7178 9.1123C93.859 8.64611 94.099 7.91107 94.2402 7.4873C94.3673 7.06387 94.4518 6.6261 94.3955 6.5127C94.339 6.3997 93.6185 5.82026 92.7852 5.21289C91.9375 4.59131 91.3014 4.05403 91.3438 3.9834C91.3895 3.92695 92.325 3.85693 95.4268 3.74414L96.0342 1.86523C96.3732 0.848166 96.7126 0 96.8115 0L96.8301 0.0107422Z" fill="#FEF295"/>
</svg>
