<svg width="301" height="100" viewBox="0 0 301 100" fill="none" xmlns="http://www.w3.org/2000/svg">
<path d="M182.073 36.327C184.354 36.327 186.215 36.3651 186.219 36.4032C186.209 36.4415 186.072 36.7655 185.906 37.1181C185.739 37.4803 185.415 38.2434 185.18 38.8153C184.945 39.3874 184.474 40.5028 184.122 41.2938C183.769 42.0755 183.308 43.1524 183.092 43.6767C182.877 44.201 182.298 45.5455 181.808 46.6513C181.319 47.7637 180.919 48.7054 180.917 48.7479C180.917 48.7956 180.828 48.9962 180.73 49.2059C180.622 49.4161 180.122 50.5121 179.613 51.6366C179.103 52.7609 178.613 53.8567 178.535 54.0673C178.456 54.277 178.191 54.9251 177.946 55.497C177.701 56.0689 177.436 56.7179 177.338 56.9276C177.25 57.1375 177.025 57.6712 176.829 58.119C176.642 58.5671 176.456 59.0152 176.407 59.12C176.367 59.2252 176.182 59.6348 175.996 60.0253C175.8 60.4161 175.623 60.8267 175.593 60.9315C175.554 61.0372 175.348 61.4748 175.132 61.9032C174.917 62.3404 174.742 62.7114 174.741 62.7421C174.741 62.7564 174.713 62.828 174.669 62.9315L174.322 63.6972C174.278 63.8007 174.25 63.8723 174.25 63.8866C174.249 63.9183 174.044 64.3936 173.799 64.954C173.554 65.5255 173.261 66.1733 173.143 66.412C173.035 66.6503 172.781 67.194 172.575 67.6229C172.359 68.0614 172.192 68.4812 172.192 68.5575C172.192 68.6335 172.163 68.7188 172.124 68.7382C172.075 68.7572 171.898 69.1297 171.711 69.5683C171.535 70.0067 171.309 70.5402 171.211 70.7499C171.113 70.9596 170.947 71.3312 170.83 71.579C170.722 71.8364 170.624 72.0563 170.624 72.0849C170.623 72.1153 170.505 72.3814 170.369 72.6757C170.231 72.9808 169.937 73.6766 169.721 74.2294C169.506 74.7822 169.193 75.5544 169.006 75.9452C168.83 76.336 168.565 76.9177 168.417 77.2323C168.271 77.5466 168.095 77.937 168.026 78.0897C167.957 78.2423 167.555 79.1297 167.143 80.0448C166.722 80.9591 166.321 81.8638 166.242 82.0458C166.163 82.2268 166.055 82.4652 166.016 82.5702C165.967 82.6751 165.78 83.0856 165.594 83.4765C165.408 83.8678 164.791 85.2399 164.212 86.5263C163.634 87.8132 163.076 89.0338 162.811 89.6249H149.332L149.391 89.3866C149.411 89.2532 149.498 88.8906 149.567 88.5761C149.645 88.2615 149.842 87.7278 150.008 87.3847C150.165 87.0415 150.597 86.031 150.959 85.1444C151.332 84.2579 151.685 83.4092 151.763 83.2567C151.842 83.1138 151.88 82.9999 151.851 82.9999C151.822 82.9988 152.244 82.1313 152.792 81.0643C153.33 80.0086 153.781 79.0952 153.792 79.0438C153.802 78.9962 153.841 78.9289 153.89 78.9003C153.929 78.8717 153.978 78.786 153.988 78.7099C154.007 78.6336 154.047 78.4715 154.086 78.3476C154.126 78.2334 154.194 78.138 154.252 78.1376C154.311 78.1376 154.332 78.1091 154.312 78.0614C154.302 78.0232 154.449 77.6987 154.655 77.327C154.851 76.9552 155.243 76.231 155.507 75.7069C155.772 75.1826 156.165 74.2577 156.38 73.6571C156.596 73.0566 156.919 72.1508 157.095 71.6552C157.272 71.1597 157.429 70.5596 157.458 70.3212C157.498 69.9495 157.458 69.8443 157.213 69.5585C157.047 69.3774 156.694 68.7476 156.41 68.1757C156.135 67.6038 155.821 66.9557 155.723 66.746C155.632 66.5518 155.441 66.0963 155.273 65.6972L155.233 65.6024C155.056 65.1831 154.812 64.6206 154.684 64.3632C154.557 64.0963 154.429 63.7716 154.4 63.619C154.37 63.4762 154.311 63.3622 154.252 63.3622C154.194 63.3619 154.155 63.2854 154.155 63.1903C154.155 63.1046 154.106 62.9709 154.038 62.9042C153.969 62.8376 153.939 62.7902 153.988 62.7899C154.027 62.7899 153.949 62.5901 153.812 62.3329C153.685 62.0851 153.272 61.1789 152.89 60.3114C152.518 59.444 152.047 58.3286 151.851 57.8329C151.655 57.3372 151.439 56.8703 151.38 56.8036C151.312 56.7369 151.292 56.6798 151.341 56.6893C151.381 56.6893 151.361 56.5935 151.292 56.4696C151.224 56.3553 151.185 56.2311 151.195 56.1835C151.204 56.1456 151.174 56.1171 151.116 56.1171C151.067 56.1169 151.018 56.0505 151.018 55.9745C151.018 55.8982 150.93 55.6688 150.832 55.4686C150.724 55.2777 150.41 54.6015 150.135 53.9726C149.861 53.3434 149.596 52.7425 149.547 52.6376C149.498 52.5326 149.273 52.0181 149.047 51.494C148.822 50.9697 148.508 50.264 148.351 49.9208C148.184 49.5776 147.901 48.9766 147.714 48.5858C147.528 48.1951 147.341 47.7854 147.292 47.6806C147.243 47.5747 146.744 46.3933 146.175 45.0595C145.617 43.7249 145.057 42.4086 144.959 42.1513C144.852 41.8841 144.577 41.16 144.352 40.5311C144.127 39.9021 143.646 38.7296 143.284 37.9384C142.931 37.1376 142.657 36.4604 142.686 36.4413C142.736 36.4132 145.904 36.4414 149.744 36.4794C153.596 36.527 156.85 36.6034 156.978 36.6415C157.115 36.6891 157.233 36.8226 157.262 36.9559C157.282 37.0894 157.409 37.4904 157.537 37.8622C157.664 38.2343 158.096 39.4352 158.507 40.5311C158.919 41.6274 159.459 43.0956 159.704 43.7724C159.919 44.367 160.164 45.0356 160.287 45.37L160.331 45.4882C160.429 45.7456 160.693 46.4793 160.918 47.1083C161.144 47.7374 161.36 48.3383 161.409 48.4433C161.448 48.5481 161.585 48.8914 161.712 49.2059C161.83 49.5198 161.967 49.8242 161.997 49.8729C162.036 49.9206 162.282 50.5503 162.537 51.2558C162.782 51.9612 163.114 53.0767 163.271 53.7343C163.418 54.392 163.624 55.3546 163.712 55.8788C163.81 56.4029 163.928 56.908 163.967 56.994C164.016 57.0894 164.085 57.1659 164.134 57.1659C164.174 57.1651 164.301 56.965 164.418 56.7177C164.546 56.4603 164.644 56.2312 164.644 56.1835C164.644 56.1446 164.712 55.9544 164.8 55.7548C164.888 55.5642 165.016 55.2687 165.084 55.1161C165.153 54.9636 165.33 54.5723 165.477 54.2577C165.624 53.9431 165.83 53.4479 165.938 53.162C166.046 52.8762 166.212 52.4666 166.31 52.2567C166.408 52.047 166.712 51.2269 166.987 50.4452C167.271 49.6541 167.78 48.2434 168.133 47.2997L168.259 46.9638C168.603 46.0436 169.05 44.8468 169.32 44.1532C169.614 43.362 170.114 42.0084 170.437 41.122C170.751 40.245 170.986 39.5302 170.947 39.5302C170.898 39.5395 170.937 39.4723 171.015 39.3866C171.093 39.301 171.123 39.2443 171.065 39.244C171.006 39.244 171.016 39.1965 171.084 39.1298C171.153 39.063 171.221 38.9009 171.25 38.7675C171.27 38.6348 171.3 38.521 171.3 38.5009C171.31 38.4912 171.33 38.4332 171.359 38.3856C171.388 38.338 171.417 38.2623 171.417 38.2147C171.427 38.1766 171.427 38.1188 171.417 38.0712C171.418 38.0333 171.467 38.0049 171.535 38.0048C171.593 38.0048 171.624 37.9855 171.584 37.9569C171.535 37.9283 171.594 37.747 171.702 37.5468C171.809 37.3561 171.898 37.0893 171.898 36.9559C171.898 36.8225 171.947 36.6603 172.015 36.5936C172.094 36.5174 172.564 36.4792 173.564 36.4696C174.348 36.4601 175.653 36.4228 176.457 36.3847C177.271 36.3465 179.799 36.3175 182.073 36.327ZM111.807 46.87C111.807 52.6659 111.777 60.7881 111.689 72.4657L106.19 72.5233C103.161 72.5615 100.435 72.6188 100.141 72.6474C99.8471 72.6759 99.534 72.6655 99.4556 72.6083C99.3771 72.5606 99.2983 72.3987 99.2983 72.2558C99.2885 72.1114 99.2497 70.9777 99.2007 69.7489C99.1615 68.5192 99.1119 67.585 99.0923 67.6708C99.0726 67.7661 98.9648 67.8619 98.8472 67.8905C98.719 67.9105 98.1806 68.3671 97.6421 68.9003C97.103 69.434 96.1815 70.2254 95.5835 70.664C94.9954 71.0929 94.2206 71.5788 93.8677 71.7313C93.5149 71.8838 93.0152 72.0752 92.7407 72.161C92.4761 72.2468 91.8781 72.3799 91.4175 72.4657C90.9567 72.5515 90.4756 72.6373 90.3384 72.6659C90.2002 72.685 89.3675 72.733 88.4761 72.7616C87.447 72.7997 86.4669 72.7805 85.7808 72.7138C85.1927 72.647 84.2614 72.4939 83.7222 72.37C83.183 72.2461 82.4569 72.0369 82.104 71.913C81.7514 71.7796 81.3109 71.6175 81.1245 71.5507C80.9385 71.4745 80.7616 71.3889 80.7319 71.3602C80.7025 71.3221 80.4674 71.188 80.1929 71.0546C79.9282 70.9306 79.4382 70.6259 79.1147 70.3876C78.7913 70.1493 78.2907 69.7112 77.9966 69.4061C77.7025 69.0916 77.2622 68.5475 77.0171 68.1757C76.7721 67.804 76.3793 67.1278 76.1343 66.6513C75.899 66.1746 75.6831 65.7448 75.6733 65.6972C75.653 65.6477 75.5064 65.2771 75.3403 64.8876C75.1737 64.4968 74.9287 63.791 74.7915 63.3143C74.6641 62.8378 74.5173 62.0752 74.4585 61.5985C74.3997 61.1219 74.3112 59.5392 74.272 58.0712C74.2328 56.603 74.1842 51.1597 74.1646 36.5272L76.9771 36.4511C78.5357 36.4129 81.0164 36.3847 82.4966 36.3847C83.9766 36.3847 85.5448 36.4124 86.7603 36.5077L86.7905 46.289C86.8101 51.6628 86.8393 56.17 86.8589 56.3075C86.8883 56.441 86.9271 56.9083 86.9565 57.3563C86.986 57.8044 87.0744 58.4146 87.1528 58.7196C87.2312 59.0151 87.3976 59.4439 87.5054 59.6727C87.623 59.892 87.9369 60.2833 88.2212 60.5311C88.5153 60.798 89.0836 61.1698 89.603 61.4081C90.0932 61.6369 90.5937 61.8558 90.731 61.8749C90.8683 61.9035 91.2212 61.9991 91.5151 62.0849C91.8778 62.1897 92.4468 62.2462 93.231 62.2558C93.8774 62.2557 94.5433 62.2374 94.7007 62.2089C94.8673 62.1803 95.2397 62.0274 95.5337 61.8749C95.8278 61.7224 96.4655 61.236 96.9458 60.788C97.4261 60.34 97.9656 59.7492 98.1421 59.4823C98.3283 59.2059 98.5432 58.729 98.6216 58.4335C98.7 58.1284 98.8079 57.4039 98.8569 56.8319C98.9059 56.2596 98.9653 51.5128 98.9751 46.2987C98.9947 41.0844 98.9752 36.7369 98.936 36.6415C98.8772 36.489 98.9753 36.4792 100.22 36.4696C100.956 36.4601 103.612 36.422 106.122 36.3934C108.631 36.3649 110.935 36.3368 111.817 36.3368L111.807 46.87ZM36.9624 27.3856C41.549 27.4047 45.489 27.4332 45.7358 27.4618C45.9809 27.4904 46.5107 27.5279 46.9126 27.5565C47.3145 27.5851 48.0884 27.6527 48.6274 27.7099C49.1666 27.767 50.0492 27.8999 50.5884 28.0048C51.1275 28.1192 51.6767 28.224 51.814 28.2431C51.9512 28.2717 52.2351 28.3485 52.4507 28.4247C52.6663 28.4914 53.1077 28.6153 53.4312 28.7011C53.7546 28.7773 54.3923 29.0055 54.853 29.1962C55.3135 29.3867 55.8618 29.6064 56.0776 29.6923C56.2933 29.7685 57.0681 30.1974 57.7935 30.6454C58.5189 31.0839 59.3617 31.6183 59.6558 31.828C59.9498 32.0282 60.3718 32.3427 60.5874 32.5048C60.7933 32.6764 61.1462 32.9526 61.3716 33.1337C61.5873 33.3149 62.1852 33.8776 62.6948 34.3827C63.2045 34.8784 63.7344 35.4216 63.8716 35.5741C64.009 35.7364 64.3716 36.2037 64.6753 36.6229C64.9793 37.0426 65.5771 38.0339 66.0083 38.8153C66.4493 39.6064 66.9393 40.569 67.0962 40.9599C67.253 41.3507 67.5476 42.2371 67.7437 42.914C67.9299 43.5908 68.1846 44.7542 68.3022 45.4882C68.4787 46.6034 68.5083 47.2518 68.5181 49.4442C68.5181 51.8369 68.4984 52.2089 68.2632 53.6864C68.1161 54.5825 67.9295 55.5835 67.8511 55.9267C67.7726 56.2699 67.5665 56.9277 67.3901 57.4042C67.2234 57.881 66.6061 59.1868 66.0181 60.3114C65.4399 61.436 64.7049 62.7417 64.4009 63.2186C64.0971 63.6952 63.5478 64.4578 63.1851 64.9345C62.8225 65.4109 62.1954 66.0687 61.8032 66.412C61.4013 66.7552 60.9201 67.1467 60.7339 67.2802C60.5473 67.4139 60.0088 67.7951 59.5386 68.119C59.0582 68.4336 58.6461 68.7001 58.6069 68.7001C58.5576 68.7098 58.2835 68.8529 57.9897 69.0243C57.6957 69.2054 56.9607 69.5872 56.3726 69.8827C55.7844 70.1782 55.2643 70.4159 55.2251 70.4159C55.176 70.416 54.9603 70.5023 54.7349 70.5976C54.4995 70.7024 53.9406 70.9121 53.48 71.0741C53.0192 71.2362 52.2746 71.4749 51.814 71.6083C51.3533 71.7417 50.5396 71.9419 50.0005 72.0468C49.4613 72.1516 48.8237 72.2565 48.5786 72.2851C48.3336 72.3137 48.0098 72.3607 47.8433 72.3798C47.6797 72.3989 42.9578 72.4564 37.355 72.5136C31.7478 72.5612 27.1499 72.5895 27.1401 72.58C27.1303 72.5425 27.1108 67.5869 27.1108 61.5507V27.4237L27.8755 27.3944C28.2879 27.3754 32.385 27.3666 36.9624 27.3856ZM134.02 27.6327C134.03 27.6518 134.069 28.5197 134.108 29.5683C134.137 30.6169 134.167 32.3139 134.167 33.3339C134.167 34.3537 134.206 35.4688 134.304 36.4315L134.991 36.4413C135.373 36.4508 136.314 36.4225 137.098 36.3749C137.882 36.3272 139.029 36.3177 140.774 36.413L140.745 41.7128C140.735 44.6257 140.715 47.0161 140.696 47.0419C140.686 47.0514 139.402 47.0895 137.833 47.1181C136.275 47.1467 134.804 47.1749 134.569 47.1845C134.206 47.2035 134.137 47.2421 134.088 47.4423C134.059 47.5759 134.059 48.4049 134.098 49.3007C134.128 50.1968 134.157 52.0564 134.157 53.4481C134.157 54.8398 134.187 57.1082 134.216 58.4999C134.246 59.8893 134.304 61.0796 134.333 61.1405C134.373 61.2072 134.647 61.284 134.941 61.3222C135.235 61.3508 135.834 61.389 136.265 61.4081C136.697 61.4272 137.843 61.4742 138.813 61.5028C139.783 61.5314 140.598 61.5795 140.627 61.5985C140.657 61.6217 140.667 62.1638 140.657 62.8095C140.637 63.4487 140.627 65.8991 140.627 72.5136L137.569 72.4657C135.883 72.4371 133.99 72.3898 133.373 72.3612C132.755 72.3326 131.912 72.2749 131.51 72.2177C131.109 72.17 130.599 72.1037 130.383 72.0751C130.168 72.0465 129.481 71.8651 128.864 71.6649C128.246 71.4648 127.433 71.1505 127.05 70.9599C126.678 70.7787 126.06 70.4162 125.677 70.1493C125.305 69.8919 124.639 69.3393 124.198 68.9296C123.766 68.5197 123.198 67.8517 122.953 67.4608C122.698 67.07 122.472 66.6124 122.433 66.4599C122.404 66.3074 122.325 66.1454 122.266 66.1073C122.198 66.0693 122.198 66.0315 122.247 66.0409C122.305 66.0409 122.286 65.9743 122.227 65.8886C122.159 65.8124 122.12 65.6981 122.149 65.6503C122.178 65.6027 122.168 65.5548 122.129 65.5546C122.08 65.5546 122.05 65.4975 122.041 65.4403C122.031 65.3736 121.982 65.0779 121.914 64.7919C121.845 64.5059 121.727 63.8386 121.649 63.3143C121.571 62.79 121.463 61.2074 121.404 59.787C121.335 58.2045 121.316 55.3446 121.355 52.3515C121.414 48.1865 121.403 47.4619 121.276 47.2997C121.148 47.1186 121.012 47.1088 119.09 47.0897C117.973 47.0707 116.924 47.0419 116.463 46.9657V36.5751H116.904C117.149 36.5656 118.101 36.5268 119.012 36.4696C119.853 36.4261 120.662 36.375 121.139 36.3446L121.266 36.3368L121.316 27.8046L127.619 27.7479C131.079 27.7193 133.932 27.6713 133.952 27.6522C133.971 27.6334 134.01 27.6234 134.02 27.6327ZM43.2856 38.6893C41.9623 38.6989 40.4721 38.7281 39.9819 38.7567C39.482 38.7853 39.0407 38.8614 38.9917 38.9091C38.9525 38.961 38.933 44.0216 38.9624 50.1581L39.021 61.3114C40.4618 61.3591 41.8049 61.3305 42.9419 61.2733C44.0692 61.2161 45.501 61.1111 46.1284 61.0253C46.746 60.949 47.579 60.7959 47.9907 60.6815C48.3926 60.5767 49.0099 60.3765 49.3628 60.2431C49.7059 60.1001 50.2649 59.8429 50.5884 59.6522C50.9119 59.4616 51.5884 58.9277 52.0884 58.4511C52.598 57.984 53.2056 57.336 53.4507 57.0214C53.6957 56.7068 54.0787 56.0876 54.314 55.6395C54.5394 55.1915 54.8427 54.4472 54.9897 53.9706C55.127 53.4939 55.3136 52.617 55.4019 52.0165C55.5097 51.2349 55.5387 50.5768 55.4995 49.7284C55.4701 49.0708 55.3524 48.0418 55.2446 47.4413C55.1466 46.8408 54.9405 46.0114 54.8032 45.6015C54.666 45.2011 54.3724 44.5146 54.147 44.0761C53.9313 43.6471 53.5191 42.9796 53.2446 42.5888C52.9701 42.1979 52.4218 41.5969 52.0396 41.2538C51.6573 40.9107 50.9904 40.4253 50.5688 40.1679C50.1474 39.92 49.2948 39.5473 48.6772 39.328C48.05 39.1183 47.1285 38.8809 46.6187 38.8046C45.9717 38.7188 44.9422 38.6798 43.2856 38.6893ZM74.0366 42.0565C74.0562 42.5332 74.0562 43.3246 74.0366 43.8202C74.0268 44.3153 74.0073 43.9339 74.0073 42.9618C74.0073 41.9895 74.0268 41.5799 74.0366 42.0565Z" fill="#09438B"/>
<path d="M244.198 36.3367C244.923 36.3367 245.805 36.375 246.158 36.4226C246.511 36.4703 247.148 36.5751 247.58 36.6609C248.011 36.7372 248.736 36.9283 249.197 37.0808C249.657 37.2333 250.402 37.5384 250.863 37.7576C251.323 37.9672 251.981 38.3574 252.333 38.6052C252.686 38.8626 253.236 39.3395 253.559 39.6541C253.883 39.9782 254.324 40.3697 254.54 40.5222C254.754 40.6739 254.949 40.7975 254.98 40.7986C255.009 40.7986 255.02 39.8736 255.01 38.7488C254.991 37.1664 255.01 36.6988 255.108 36.6892C255.167 36.6892 255.912 36.6702 256.745 36.6511C257.578 36.6416 260.441 36.5948 263.097 36.5662C267.338 36.5186 267.919 36.5276 267.92 36.6511C267.92 36.7274 267.881 36.7947 267.822 36.7947C267.773 36.7955 267.705 37.0237 267.675 37.2996C267.656 37.5665 267.606 39.6447 267.577 41.8943C267.547 44.144 267.508 50.5601 267.479 56.1463C267.45 61.7324 267.4 67.2236 267.361 68.3484C267.322 69.473 267.283 70.8262 267.283 71.3601C267.283 71.9798 267.322 72.38 267.411 72.4754C267.509 72.6087 267.499 72.6472 267.381 72.6853C267.303 72.7139 264.558 72.7332 261.284 72.7332C258 72.7332 255.294 72.7049 255.245 72.6668C255.205 72.6191 255.108 72.1415 255.03 71.5886C254.951 71.0359 254.882 70.3594 254.882 70.0925C254.882 69.8161 254.843 69.3963 254.785 69.158C254.736 68.9198 254.667 68.7293 254.637 68.7293C254.608 68.7294 254.51 68.7676 254.421 68.8152C254.323 68.8633 254.03 69.2067 253.755 69.5877C253.491 69.969 253.069 70.4551 252.824 70.6648C252.579 70.8745 252.274 71.0842 252.137 71.1414C251.999 71.199 251.451 71.4939 250.913 71.7986C250.374 72.1036 249.687 72.4185 249.393 72.4949C249.099 72.5712 248.461 72.7238 247.971 72.8191C247.491 72.924 246.521 73.0571 245.815 73.1238C245.08 73.1905 244.061 73.21 243.414 73.1814C242.796 73.1528 242.197 73.1048 242.089 73.0857C241.981 73.0571 241.678 73.0095 241.404 72.9715C241.139 72.9333 240.403 72.7429 239.786 72.5427C239.168 72.352 238.109 71.9325 237.433 71.6179C236.757 71.3129 235.993 70.9026 235.718 70.7215C235.454 70.5403 234.963 70.1971 234.639 69.9588C234.316 69.7203 233.787 69.2434 233.463 68.9099C233.14 68.5667 232.6 67.9092 232.277 67.4422C231.944 66.9654 231.385 66.0029 231.032 65.2976C230.679 64.5922 230.277 63.6865 230.13 63.2957C229.993 62.9048 229.729 61.9991 229.542 61.2937C229.366 60.5883 229.17 59.7682 229.111 59.4822C229.052 59.196 228.944 58.5095 228.856 57.9568C228.778 57.4039 228.679 56.6317 228.64 56.241C228.601 55.8499 228.572 54.8874 228.562 54.0965C228.562 53.3148 228.591 52.3898 228.63 52.0466C228.679 51.7035 228.748 51.189 228.797 50.9031C228.846 50.6171 228.964 50.0547 229.052 49.6638C229.15 49.273 229.434 48.3673 229.699 47.6619C229.954 46.9567 230.277 46.099 230.424 45.7556C230.562 45.4125 230.777 44.9259 230.895 44.659C231.013 44.4015 231.346 43.7342 231.63 43.1814C231.924 42.6285 232.345 41.9227 232.571 41.6082C232.806 41.2936 233.365 40.6936 233.826 40.2742C234.277 39.8547 235.003 39.2821 235.424 39.0056C235.856 38.7196 236.738 38.2434 237.384 37.948C238.031 37.643 238.825 37.3095 239.149 37.1951C239.472 37.0807 240.11 36.8993 240.571 36.7849C241.032 36.6706 241.737 36.5274 242.139 36.4607C242.541 36.3845 243.473 36.3367 244.198 36.3367ZM188.978 27.405C189.017 27.3669 192.302 27.3667 196.262 27.3953C200.222 27.4334 204.663 27.4807 206.114 27.4998C207.574 27.5284 209.132 27.5669 209.593 27.5955C210.054 27.6241 210.711 27.6714 211.064 27.7C211.417 27.7286 212.034 27.7959 212.436 27.8435C212.838 27.9007 213.456 28.0048 213.809 28.0906C214.162 28.1669 214.868 28.3583 215.377 28.5203C215.887 28.6824 216.73 28.9871 217.24 29.1873C217.749 29.3875 218.455 29.7215 218.808 29.9216C219.161 30.1314 219.994 30.7416 220.67 31.2849C221.386 31.8568 222.16 32.5905 222.523 33.0291C222.866 33.4485 223.357 34.087 223.612 34.4588C223.867 34.8305 224.21 35.3834 224.367 35.698C224.533 36.0126 224.817 36.6991 225.013 37.2234C225.209 37.7477 225.435 38.5108 225.523 38.9207C225.601 39.3211 225.719 40.0933 225.778 40.6365C225.846 41.3418 225.846 42.028 225.768 43.1336C225.699 44.0106 225.553 45.1265 225.406 45.7556C225.269 46.3561 225.024 47.2139 224.867 47.6619C224.71 48.1099 224.367 48.9013 224.102 49.4256C223.847 49.9498 223.416 50.7026 223.151 51.0935C222.886 51.4844 222.406 52.1043 222.083 52.4666C221.769 52.8383 221.171 53.4103 220.769 53.7439C220.367 54.0776 219.965 54.3823 219.886 54.4109C219.808 54.4397 219.474 54.6588 219.151 54.8875C218.827 55.1163 218.122 55.5359 217.583 55.8123C217.043 56.0887 216.181 56.451 215.671 56.6131C215.162 56.7846 214.406 56.9755 214.004 57.0613C213.602 57.1376 212.632 57.2614 211.848 57.3377C211.064 57.4139 209.917 57.4995 209.299 57.5281C208.682 57.5567 207.957 57.6047 207.682 57.6238C207.417 57.6524 206.064 57.6997 204.692 57.7283C203.32 57.7569 202.163 57.8044 202.124 57.8425C202.094 57.8807 202.045 61.265 202.026 65.364C202.016 69.4185 201.987 72.6933 201.977 72.7332C201.957 72.676 201.898 72.6757 201.83 72.7234C201.759 72.7615 198.876 72.8288 189.155 72.905L189.077 70.4646C189.037 69.1205 188.978 65.2021 188.958 61.7703C188.929 58.3385 188.9 50.1023 188.89 43.4675C188.88 36.833 188.88 30.5224 188.88 29.4353C188.89 28.3604 188.929 27.4468 188.978 27.405ZM298.799 36.4705C298.986 36.4515 299.318 36.4605 299.534 36.489C299.749 36.5081 299.936 36.5371 299.946 36.5466C299.965 36.5527 299.975 39.5628 299.975 43.2293C299.975 46.8921 299.936 49.9187 299.897 49.9685C299.858 49.9971 298.524 50.0454 296.936 50.074C294.966 50.1121 293.78 50.1789 293.211 50.2742C292.751 50.36 292.113 50.5119 291.79 50.6072C291.466 50.7121 291.015 50.9222 290.79 51.0652C290.564 51.2083 290.201 51.4848 289.976 51.6658C289.751 51.847 289.378 52.2566 289.143 52.5711C288.908 52.8856 288.634 53.3625 288.526 53.6199C288.418 53.8868 288.28 54.459 288.221 54.907C288.172 55.3553 288.094 56.709 288.075 57.9099C288.045 59.1114 288.016 62.9718 288.006 66.489C288.006 70.0066 287.986 72.8185 287.957 72.7517C287.937 72.6854 287.869 72.6665 287.8 72.7234C287.732 72.7615 284.928 72.8288 281.576 72.867C276.746 72.9146 275.46 72.895 275.4 72.8093C275.361 72.7426 275.321 67.1566 275.311 60.3884C275.291 53.6202 275.253 45.4884 275.174 36.5086L276.576 36.5564C277.34 36.585 278.958 36.6225 280.173 36.6511C281.389 36.6702 283.703 36.6895 288.261 36.699L288.192 37.4812C288.153 37.92 288.085 39.0731 288.045 40.0642C287.977 41.6179 287.986 41.8464 288.114 41.8465C288.192 41.8369 288.751 41.4371 289.339 40.9509C289.937 40.4553 291.26 39.5118 292.28 38.8445C293.309 38.168 294.377 37.5197 294.662 37.3953C294.936 37.2809 295.603 37.071 296.132 36.947C296.652 36.8231 297.398 36.6703 297.77 36.6131C298.152 36.5559 298.613 36.4895 298.799 36.4705ZM248.56 47.4812C248.021 47.4908 247.315 47.5483 246.992 47.615C246.668 47.6817 246.138 47.8436 245.815 47.9675C245.491 48.0915 244.982 48.3492 244.688 48.5398C244.384 48.7305 243.933 49.0738 243.668 49.3025C243.404 49.5313 243.022 49.9502 242.816 50.2361C242.62 50.5221 242.345 50.9797 242.208 51.2371C242.07 51.504 241.885 51.9713 241.787 52.2859C241.649 52.7244 241.6 53.1819 241.6 54.1922C241.6 54.9929 241.65 55.7369 241.728 56.0515C241.797 56.3375 241.953 56.852 242.061 57.1951C242.169 57.5383 242.433 58.1585 242.649 58.5779C242.865 58.9971 243.247 59.5875 243.492 59.9021C243.747 60.2071 244.217 60.656 244.541 60.8943C244.864 61.1231 245.365 61.4278 245.668 61.5613C245.963 61.6852 246.531 61.8474 246.943 61.9236C247.345 61.9903 247.972 62.0478 248.334 62.0574C248.697 62.0574 249.345 61.9899 249.756 61.9041C250.178 61.8183 250.697 61.6661 250.913 61.5613C251.128 61.4564 251.57 61.1895 251.893 60.9607C252.217 60.7415 252.746 60.2844 253.07 59.9412C253.393 59.598 253.824 59.0444 254.02 58.7107C254.226 58.3771 254.511 57.758 254.648 57.3386C254.834 56.7667 254.912 56.2991 254.952 55.4793C254.981 54.8501 254.952 54.0776 254.883 53.6677C254.824 53.2769 254.686 52.6576 254.569 52.2859C254.461 51.9142 254.206 51.2949 254 50.9041C253.804 50.5133 253.461 49.9509 253.236 49.6648C253.02 49.3789 252.599 48.9591 252.315 48.7302C252.031 48.5015 251.53 48.1865 251.207 48.034C250.883 47.8815 250.374 47.6913 250.08 47.615C249.756 47.5292 249.138 47.4812 248.56 47.4812ZM202.212 38.2254C202.183 38.4089 202.193 40.5146 202.222 42.8963L202.291 47.2332C205.172 47.195 206.878 47.1383 207.927 47.0906C209.584 47.0048 209.908 46.9668 210.33 46.7761C210.604 46.6522 210.996 46.3852 211.202 46.1756C211.417 45.9754 211.691 45.5651 211.829 45.2791C211.956 44.9931 212.133 44.4787 212.211 44.1355C212.29 43.7923 212.359 43.0866 212.359 42.5623C212.359 42.0381 212.29 41.314 212.202 40.9422C212.094 40.4561 211.937 40.1222 211.624 39.7029C211.398 39.3883 211.055 39.0158 210.869 38.8728C210.682 38.7394 210.222 38.5304 209.839 38.4256C209.467 38.3207 208.673 38.1869 208.075 38.1297C207.487 38.082 205.938 38.0057 204.634 37.9675L202.271 37.8914L202.212 38.2254Z" fill="#0277B6"/>
<path d="M13.7614 27.4805H27.2547V72.4578H13.7614V27.4805Z" fill="#0096C7"/>
<path d="M1.01758 27.4805H13.7614V72.4578H1.01758V27.4805Z" fill="#08B4D8"/>
</svg>
