<svg width="291" height="100" viewBox="0 0 291 100" fill="none" xmlns="http://www.w3.org/2000/svg">
<g clip-path="url(#clip0_387_2694)">
<path d="M275.685 46.7099L290.92 69.8351C291.224 70.7315 290.613 71.0551 289.826 71.1596C288.765 71.2998 284.951 71.3031 283.896 71.1596C282.66 70.9917 282.206 69.8396 281.563 68.9132C279.238 65.5624 270.176 49.3311 267.896 48.1834C266.844 47.6529 265.954 47.4272 264.901 48.1612L264.4 49.3356L264.345 70.2655L263.949 70.8749C263.282 71.3832 257.434 71.1318 257.235 70.8594L257.181 20.692C257.535 19.6477 259.408 19.4665 260.352 19.283C267.758 17.845 281.497 17.6993 286.149 24.8157C292.213 34.0941 285.862 44.8293 275.685 46.7099ZM264.398 44.142C272.126 44.7737 280.841 43.001 280.947 33.5947C281.061 23.4167 272.699 22.1455 264.398 23.38V44.142Z" fill="#CDCDCE"/>
<path d="M86.1201 4.54102C86.3659 4.77678 86.466 7.88625 86.4871 8.47233C87.1867 27.6396 86.407 47.027 86.367 66.1854C85.4093 76.925 79.56 87.6981 69.3263 92.0298C67.5178 92.7949 64.4391 93.9493 62.4926 93.4988C61.0089 93.1552 59.9245 91.516 60.6196 90.0313C60.9789 89.2639 66.1975 87.0319 67.4521 86.14C73.9666 81.5136 76.3067 73.9679 76.6515 66.3066C77.4334 48.9476 76.4836 30.9437 76.7527 13.4957C76.7972 10.5731 76.8829 7.62713 76.9785 4.7045L86.119 4.54102H86.1201Z" fill="#CDCDCE"/>
<path d="M154.632 17.944C159.378 17.7182 167.057 20.1815 169.424 24.6444C170.468 26.6129 170.607 29.154 168.294 30.2506C164.655 31.9744 163.257 27.1333 161.305 25.1649C155.031 18.8414 144.167 25.2494 147.817 33.836C151.313 42.059 169.268 40.7734 172.033 54.4112C175.162 69.8396 156.385 76.8325 145.055 69.1912C142.299 67.3317 136.847 60.8014 141.028 57.9366C145.255 55.0407 146.763 60.5935 148.437 63.0223C153.88 70.9216 166.691 67.3885 165.147 57.1592C163.56 46.6387 142.57 47.9943 140.402 34.322C138.953 25.1816 145.754 18.3677 154.633 17.944H154.632Z" fill="#CDCDCE"/>
<path d="M113.617 19.1724C114.584 19.0634 117.027 18.7876 117.424 19.8774L137.097 70.4385L136.432 71.0947C135.967 71.2348 130.712 71.2615 130.121 71.158C129.62 71.0702 129.43 70.84 129.125 70.4785L121.525 50.8331L106.04 50.8965L98.4707 70.6854C97.9357 71.4872 92.7893 71.257 92.5725 70.8233L92.5669 69.9214L112.525 19.3091C112.885 19.2502 113.256 19.2135 113.618 19.1735L113.617 19.1724ZM107.715 46.3746L119.887 46.1911L113.915 29.5206L107.715 46.3746Z" fill="#CDCDCE"/>
<path d="M187.956 49.0537V70.5419C186.274 71.8208 183.352 70.88 181.306 71.0457L180.752 70.8177L180.597 70.0804L180.703 20.3223C181.617 18.762 194.699 18.534 196.839 18.6952C204.881 19.3024 212.255 23.2193 212.987 32.035C214.16 46.1388 199.319 50.3192 187.958 49.0548L187.956 49.0537ZM190.618 23.0792C189.795 23.1415 188.965 23.2916 188.147 23.4017L188.013 44.3661C188.301 44.891 193.428 44.6653 194.268 44.5863C200.973 43.9524 205.154 40.7796 205.214 33.7054C205.289 24.8797 198.314 22.4942 190.618 23.0792Z" fill="#CDCDCE"/>
<path d="M226.959 24.1609V41.4632H244.56C245.294 41.8068 245.029 45.9884 244.731 46.2097C244.53 46.1974 244.125 46.3743 244.002 46.3743H226.848L226.959 66.2444L247.783 66.1521C248.224 66.33 248.356 70.1779 247.862 70.7685C247.595 71.0854 246.963 71.121 246.578 71.161C238.321 72.0073 228.5 70.5916 220.095 71.0354L219.585 70.6528C219.677 69.2371 219.507 67.8225 219.468 66.4156C219.086 52.581 218.834 36.6344 219.467 22.872C219.518 21.7488 219.487 20.5154 219.87 19.479C220.142 19.2132 223.422 19.1542 224.105 19.132C231.873 18.8862 239.688 19.321 247.46 19.1453L248.075 19.7592L247.963 23.6494L247.669 24.0253C247.375 23.9519 246.876 24.1598 246.686 24.1598H226.961L226.959 24.1609Z" fill="#CDCDCE"/>
<path d="M83.2913 2.82324C83.536 3.05843 83.6345 6.15364 83.6556 6.73633C84.3518 25.8121 83.5755 45.1069 83.5355 64.1738C82.5823 74.8623 76.7612 85.5838 66.5765 89.8955C64.7769 90.6573 61.7123 91.8056 59.7747 91.3574C58.2988 91.016 57.2187 89.3831 57.9105 87.9062C58.27 87.1419 63.4624 84.9215 64.7113 84.0342C71.1942 79.4301 73.5228 71.9203 73.8665 64.2959C74.644 47.0193 73.7002 29.1017 73.9671 11.7373C74.0116 8.82809 74.0961 5.89639 74.1917 2.98828L83.2884 2.82617L83.2913 2.82324ZM151.476 16.1631C156.199 15.9384 163.842 18.3895 166.198 22.8311C167.236 24.7906 167.376 27.3201 165.074 28.4111C161.452 30.126 160.061 25.3092 158.117 23.3496C151.874 17.0562 141.06 23.433 144.694 31.9795C148.173 40.1635 166.043 38.8837 168.794 52.457C171.907 67.8116 153.221 74.7712 141.945 67.166C139.201 65.3155 133.776 58.8163 137.937 55.9648C142.143 53.0824 143.644 58.6073 145.311 61.0264C150.729 68.889 163.479 65.3717 161.942 55.1914C160.361 44.721 139.472 46.0695 137.314 32.4629C135.872 23.3662 142.64 16.5846 151.477 16.1641L151.476 16.1631ZM220.618 17.3457C228.35 17.101 236.127 17.533 243.863 17.3584L244.474 17.9697L244.362 21.8418L244.07 22.2168C243.777 22.1434 243.282 22.3493 243.091 22.3496H223.459V39.5693H240.978C241.708 39.9122 241.444 44.0718 241.147 44.2939C240.948 44.2828 240.545 44.459 240.421 44.459H223.348L223.458 64.2344L244.183 64.1416C244.622 64.3184 244.755 68.1491 244.262 68.7363C243.996 69.0521 243.366 69.0871 242.985 69.126C234.768 69.9689 224.992 68.5593 216.628 69.002L216.119 68.6201C216.212 67.2112 216.043 65.8034 216.004 64.4033C215.623 50.6343 215.374 34.7632 216.003 21.0664C216.054 19.9489 216.023 18.7213 216.405 17.6904C216.675 17.4258 219.939 17.3668 220.618 17.3457ZM256.692 17.4961C264.064 16.0648 277.737 15.9199 282.367 23.0029C288.401 32.2362 282.082 42.9196 271.953 44.792L287.116 67.8076C287.419 68.6992 286.809 69.0216 286.028 69.125C284.971 69.264 281.177 69.2673 280.125 69.125C278.895 68.9582 278.443 67.8116 277.802 66.8896C275.487 63.5537 266.468 47.4009 264.201 46.2588C263.153 45.7307 262.268 45.5059 261.22 46.2363L260.722 47.4053L260.666 68.2354L260.273 68.8428C259.61 69.3487 253.79 69.0985 253.59 68.8271L253.535 18.8984C253.889 17.859 255.753 17.6784 256.692 17.4961ZM177.423 18.5283C178.332 16.9759 191.351 16.748 193.482 16.9092C201.485 17.5131 208.824 21.4121 209.554 30.1855C210.721 44.2214 195.951 48.3829 184.643 47.124H184.642V68.5098C182.967 69.782 180.059 68.8473 178.023 69.0107L177.471 68.7832L177.317 68.0498L177.423 18.5283ZM110.657 17.3838C111.619 17.2748 114.051 17.0018 114.446 18.0859L134.025 68.4053L133.363 69.0596C132.897 69.1996 127.671 69.2253 127.082 69.123C126.584 69.0363 126.395 68.8064 126.091 68.4473L118.527 48.8945L103.115 48.958L95.5824 68.6523C95.0496 69.4508 89.9291 69.2217 89.7122 68.7891L89.7064 67.8916L109.569 17.5215C109.927 17.4637 110.296 17.4269 110.657 17.3857V17.3838ZM104.783 44.4561V44.457L116.898 44.2744L110.954 27.6826L104.783 44.4561ZM201.816 31.8496C201.89 23.0662 194.948 20.6917 187.289 21.2744L187.29 21.2734C186.471 21.3357 185.645 21.4846 184.831 21.5947L184.698 42.459C184.986 42.9814 190.086 42.7567 190.923 42.6777C197.595 42.0471 201.757 38.8888 201.816 31.8496ZM277.19 31.7383C277.303 21.6082 268.981 20.3436 260.72 21.5713V42.2354C268.411 42.8636 277.085 41.0998 277.19 31.7383Z" fill="url(#paint0_linear_387_2694)"/>
<path d="M83.2913 2.82324L83.9865 2.10018L83.2775 1.4186L82.5821 2.11401L83.2913 2.82324ZM83.6556 6.73633L82.6532 6.77268L82.6532 6.77291L83.6556 6.73633ZM83.5355 64.1738L84.5345 64.2629L84.5384 64.2195L84.5385 64.1759L83.5355 64.1738ZM66.5765 89.8955L66.9675 90.8192L66.9675 90.8192L66.5765 89.8955ZM59.7747 91.3574L59.5487 92.3346L59.5487 92.3346L59.7747 91.3574ZM57.9105 87.9062L57.0028 87.4794L57.0022 87.4808L57.9105 87.9062ZM64.7113 84.0342L64.1305 83.2164L64.1303 83.2165L64.7113 84.0342ZM73.8665 64.2959L74.8685 64.3411L74.8685 64.341L73.8665 64.2959ZM73.9671 11.7373L74.97 11.7527L74.97 11.7526L73.9671 11.7373ZM74.1917 2.98828L74.1739 1.98543L73.2206 2.00242L73.1893 2.95531L74.1917 2.98828ZM83.2884 2.82617L83.3063 3.82902L83.7112 3.82181L83.9976 3.53541L83.2884 2.82617ZM151.476 16.1631L151.428 15.1612L149.163 15.2689L150.767 16.8723L151.476 16.1631ZM166.198 22.8311L167.084 22.3613L167.084 22.3611L166.198 22.8311ZM165.074 28.4111L165.503 29.3176L165.503 29.3175L165.074 28.4111ZM158.117 23.3496L157.404 24.056L157.404 24.056L158.117 23.3496ZM144.694 31.9795L145.617 31.5871L145.617 31.5871L144.694 31.9795ZM168.794 52.457L167.811 52.6563L167.811 52.6563L168.794 52.457ZM141.945 67.166L142.506 66.3345L142.505 66.3344L141.945 67.166ZM137.937 55.9648L137.37 55.1375L137.37 55.1375L137.937 55.9648ZM145.311 61.0264L146.137 60.4573L146.137 60.4572L145.311 61.0264ZM161.942 55.1914L160.95 55.3411L160.95 55.3412L161.942 55.1914ZM137.314 32.4629L136.323 32.62L136.323 32.62L137.314 32.4629ZM151.477 16.1641L151.525 17.1659L153.789 17.0581L152.186 15.4548L151.477 16.1641ZM220.618 17.3457L220.65 18.3482L220.65 18.3482L220.618 17.3457ZM243.863 17.3584L244.572 16.6492L244.269 16.346L243.84 16.3556L243.863 17.3584ZM244.474 17.9697L245.477 17.9988L245.489 17.5664L245.183 17.2605L244.474 17.9697ZM244.362 21.8418L245.153 22.458L245.355 22.199L245.364 21.8709L244.362 21.8418ZM244.07 22.2168L243.826 23.1896L244.459 23.3487L244.861 22.833L244.07 22.2168ZM243.091 22.3496L243.091 23.3526L243.093 23.3526L243.091 22.3496ZM223.459 22.3496V21.3466H222.456V22.3496H223.459ZM223.459 39.5693H222.456V40.5723H223.459V39.5693ZM240.978 39.5693L241.404 38.6614L241.202 38.5663H240.978V39.5693ZM241.147 44.2939L241.091 45.2954L241.455 45.3158L241.748 45.097L241.147 44.2939ZM223.348 44.459V43.456H222.339L222.345 44.4646L223.348 44.459ZM223.458 64.2344L222.455 64.24L222.461 65.2419L223.463 65.2374L223.458 64.2344ZM244.183 64.1416L244.557 63.2111L244.375 63.1377L244.178 63.1386L244.183 64.1416ZM244.262 68.7363L245.029 69.3824L245.03 69.3811L244.262 68.7363ZM242.985 69.126L242.883 68.1281L242.882 68.1282L242.985 69.126ZM216.628 69.002L216.026 69.8042L216.318 70.0228L216.681 70.0036L216.628 69.002ZM216.119 68.6201L215.119 68.5546L215.083 69.0964L215.517 69.4223L216.119 68.6201ZM216.004 64.4033L215.002 64.4311L215.002 64.4312L216.004 64.4033ZM216.003 21.0664L217.005 21.1125L217.005 21.1123L216.003 21.0664ZM216.405 17.6904L215.703 16.9738L215.542 17.1313L215.464 17.3424L216.405 17.6904ZM256.692 17.4961L256.501 16.5115L256.5 16.5115L256.692 17.4961ZM282.367 23.0029L283.206 22.4542L283.206 22.4542L282.367 23.0029ZM271.953 44.792L271.771 43.8057L270.284 44.0807L271.116 45.3438L271.953 44.792ZM287.116 67.8076L288.065 67.4845L288.024 67.363L287.953 67.2558L287.116 67.8076ZM286.028 69.125L286.158 70.1194L286.159 70.1193L286.028 69.125ZM280.125 69.125L279.991 70.1189L279.991 70.119L280.125 69.125ZM277.802 66.8896L276.978 67.4615L276.978 67.462L277.802 66.8896ZM264.201 46.2588L263.749 47.1544L263.749 47.1546L264.201 46.2588ZM261.22 46.2363L260.646 45.4136L260.41 45.5783L260.297 45.8432L261.22 46.2363ZM260.722 47.4053L259.799 47.0121L259.72 47.1992L259.719 47.4026L260.722 47.4053ZM260.666 68.2354L261.508 68.7807L261.669 68.5331L261.669 68.238L260.666 68.2354ZM260.273 68.8428L260.881 69.6401L261.02 69.5344L261.115 69.3882L260.273 68.8428ZM253.59 68.8271L252.587 68.8282L252.588 69.1572L252.783 69.422L253.59 68.8271ZM253.535 18.8984L252.586 18.5751L252.532 18.7329L252.532 18.8995L253.535 18.8984ZM177.423 18.5283L176.558 18.0217L176.421 18.2554L176.42 18.5262L177.423 18.5283ZM193.482 16.9092L193.406 17.9093L193.406 17.9093L193.482 16.9092ZM209.554 30.1855L210.554 30.1025L210.554 30.1024L209.554 30.1855ZM184.643 47.124L184.754 46.1272L184.699 46.121H184.643V47.124ZM184.642 47.124V46.121H183.639V47.124H184.642ZM184.642 68.5098L185.249 69.3085L185.645 69.0075V68.5098H184.642ZM178.023 69.0107L177.64 69.938L177.863 70.0298L178.103 70.0105L178.023 69.0107ZM177.471 68.7832L176.489 68.9897L176.599 69.5084L177.089 69.7105L177.471 68.7832ZM177.317 68.0498L176.314 68.0476L176.313 68.1531L176.335 68.2563L177.317 68.0498ZM110.657 17.3838L110.544 16.3872L109.654 16.488V17.3838H110.657ZM114.446 18.0859L113.503 18.4293L113.507 18.4395L113.511 18.4496L114.446 18.0859ZM134.025 68.4053L134.73 69.1187L135.198 68.6556L134.959 68.0416L134.025 68.4053ZM133.363 69.0596L133.652 70.02L133.89 69.9482L134.068 69.773L133.363 69.0596ZM127.082 69.123L126.91 70.1112L126.911 70.1113L127.082 69.123ZM126.091 68.4473L125.156 68.8092L125.216 68.9662L125.325 69.0948L126.091 68.4473ZM118.527 48.8945L119.462 48.5326L119.213 47.8887L118.523 47.8915L118.527 48.8945ZM103.115 48.958L103.11 47.955L102.423 47.9578L102.178 48.5997L103.115 48.958ZM95.5824 68.6523L96.4167 69.209L96.4791 69.1156L96.5192 69.0106L95.5824 68.6523ZM89.7122 68.7891L88.7092 68.7956L88.7108 69.0295L88.8156 69.2386L89.7122 68.7891ZM89.7064 67.8916L88.7733 67.5237L88.7021 67.7041L88.7034 67.8981L89.7064 67.8916ZM109.569 17.5215L109.409 16.5313L108.845 16.6223L108.636 17.1535L109.569 17.5215ZM110.657 17.3857L110.77 18.3823L111.66 18.2807V17.3857H110.657ZM104.783 44.4561L103.841 44.1097L103.78 44.2774V44.4561H104.783ZM104.783 44.457H103.78V45.4753L104.798 45.4599L104.783 44.457ZM116.898 44.2744L116.913 45.2773L118.315 45.2562L117.842 43.9362L116.898 44.2744ZM110.954 27.6826L111.899 27.3444L110.967 24.7437L110.013 27.3363L110.954 27.6826ZM201.816 31.8496L200.813 31.8411L200.813 31.8412L201.816 31.8496ZM187.289 21.2744L186.58 20.5652L184.665 22.48L187.365 22.2745L187.289 21.2744ZM187.29 21.2734L188 21.9827L189.914 20.0682L187.214 20.2733L187.29 21.2734ZM184.831 21.5947L184.697 20.6008L183.834 20.7175L183.828 21.5883L184.831 21.5947ZM184.698 42.459L183.695 42.4526L183.693 42.7143L183.819 42.9435L184.698 42.459ZM190.923 42.6777L191.017 43.6763L191.018 43.6763L190.923 42.6777ZM277.19 31.7383L276.187 31.727L276.187 31.7271L277.19 31.7383ZM260.72 21.5713L260.573 20.5792L259.717 20.7063V21.5713H260.72ZM260.72 42.2354H259.717V43.1598L260.638 43.235L260.72 42.2354ZM83.2913 2.82324L82.5962 3.54631C82.5134 3.4667 82.4662 3.39146 82.4449 3.3544C82.4213 3.31353 82.4083 3.28228 82.4031 3.26918C82.3933 3.24453 82.3941 3.24035 82.4014 3.27044C82.4154 3.3286 82.434 3.4311 82.4541 3.58348C82.4938 3.88294 82.528 4.28421 82.5564 4.71556C82.6131 5.57361 82.6425 6.47671 82.6532 6.77268L83.6556 6.73633L84.6579 6.69998C84.6475 6.41326 84.6171 5.47741 84.5581 4.58339C84.5288 4.1387 84.4912 3.68565 84.4428 3.3204C84.419 3.14043 84.3896 2.95798 84.3513 2.79957C84.3325 2.72138 84.306 2.62602 84.2679 2.52991C84.2407 2.46134 84.162 2.26894 83.9865 2.10018L83.2913 2.82324ZM83.6556 6.73633L82.6532 6.77291C83.3487 25.8261 82.5726 45.0502 82.5325 64.1717L83.5355 64.1738L84.5385 64.1759C84.5784 45.1637 85.355 25.7981 84.6579 6.69974L83.6556 6.73633ZM83.5355 64.1738L82.5364 64.0847C81.6058 74.5207 75.933 84.8452 66.1855 88.9719L66.5765 89.8955L66.9675 90.8192C77.5894 86.3224 83.5588 75.2038 84.5345 64.2629L83.5355 64.1738ZM66.5765 89.8955L66.1855 88.9718C65.3018 89.3459 64.1363 89.8022 62.9708 90.1106C61.7714 90.4279 60.7203 90.5467 60.0008 90.3802L59.7747 91.3574L59.5487 92.3346C60.7667 92.6164 62.2167 92.3851 63.4839 92.0499C64.785 91.7056 66.0516 91.2069 66.9675 90.8192L66.5765 89.8955ZM59.7747 91.3574L60.0008 90.3802C58.9929 90.147 58.461 89.0955 58.8188 88.3317L57.9105 87.9062L57.0022 87.4808C55.9763 89.6707 57.6047 91.8849 59.5487 92.3346L59.7747 91.3574ZM57.9105 87.9062L58.8181 88.3331C58.7701 88.4352 58.7209 88.4767 58.7439 88.4535C58.7579 88.4394 58.7935 88.407 58.8607 88.356C58.9953 88.254 59.1953 88.1234 59.4599 87.9668C59.9864 87.6552 60.6827 87.291 61.4316 86.9106C62.1647 86.5382 62.9635 86.1427 63.6325 85.7973C64.289 85.4584 64.9123 85.1218 65.2922 84.8518L64.7113 84.0342L64.1303 83.2165C63.8858 83.3903 63.3917 83.664 62.7122 84.0148C62.0451 84.3592 61.2891 84.733 60.5231 85.1221C59.7729 85.5032 59.0256 85.8929 58.4384 86.2404C58.1461 86.4133 57.8717 86.5885 57.6487 86.7576C57.5371 86.8422 57.423 86.9368 57.3208 87.0396C57.2277 87.1334 57.0958 87.2818 57.0028 87.4794L57.9105 87.9062ZM64.7113 84.0342L65.292 84.8519C72.1358 79.9916 74.5183 72.1099 74.8685 64.3411L73.8665 64.2959L72.8645 64.2507C72.5273 71.7306 70.2525 78.8686 64.1305 83.2164L64.7113 84.0342ZM73.8665 64.2959L74.8685 64.341C75.2586 55.672 75.2166 46.8489 75.1112 38.0375C75.0057 29.2176 74.8368 20.4171 74.97 11.7527L73.9671 11.7373L72.9642 11.7219C72.8305 20.4219 73.0001 29.2624 73.1053 38.0615C73.2107 46.8692 73.2519 55.6432 72.8645 64.2508L73.8665 64.2959ZM73.9671 11.7373L74.97 11.7526C75.0144 8.85204 75.0986 5.92708 75.1942 3.02125L74.1917 2.98828L73.1893 2.95531C73.0935 5.8657 73.0088 8.80413 72.9642 11.722L73.9671 11.7373ZM74.1917 2.98828L74.2096 3.99113L83.3063 3.82902L83.2884 2.82617L83.2705 1.82332L74.1739 1.98543L74.1917 2.98828ZM83.2884 2.82617L83.9976 3.53541L84.0006 3.53248L83.2913 2.82324L82.5821 2.11401L82.5792 2.11694L83.2884 2.82617ZM151.476 16.1631L151.524 17.165C153.718 17.0606 156.663 17.5822 159.346 18.676C162.05 19.7788 164.294 21.3832 165.312 23.3011L166.198 22.8311L167.084 22.3611C165.745 19.8374 162.99 17.9954 160.103 16.8185C157.195 15.6325 153.958 15.0409 151.428 15.1612L151.476 16.1631ZM166.198 22.8311L165.311 23.3009C165.767 24.1594 165.984 25.0739 165.893 25.8259C165.809 26.5201 165.465 27.1159 164.644 27.5047L165.074 28.4111L165.503 29.3175C166.985 28.6154 167.722 27.4009 167.884 26.0677C168.039 24.7922 167.667 23.4622 167.084 22.3613L166.198 22.8311ZM165.074 28.4111L164.644 27.5046C163.946 27.8351 163.458 27.8144 163.072 27.6755C162.642 27.5209 162.206 27.1711 161.732 26.6109C161.259 26.0505 160.827 25.3789 160.353 24.6573C159.901 23.9708 159.397 23.2162 158.829 22.6432L158.117 23.3496L157.404 24.056C157.808 24.4628 158.207 25.0452 158.676 25.7593C159.123 26.4385 159.63 27.2313 160.2 27.9057C160.77 28.5803 161.482 29.2356 162.393 29.5631C163.347 29.9063 164.39 29.8446 165.503 29.3176L165.074 28.4111ZM158.117 23.3496L158.829 22.6432C155.338 19.1247 150.55 19.1563 147.173 21.2468C143.772 23.353 141.738 27.592 143.771 32.3719L144.694 31.9795L145.617 31.5871C144.015 27.8204 145.572 24.5978 148.229 22.9523C150.912 21.2912 154.652 21.2811 157.404 24.056L158.117 23.3496ZM144.694 31.9795L143.771 32.3719C144.769 34.7211 146.77 36.3142 149.048 37.597C151.303 38.8667 154.054 39.9449 156.6 41.1094C161.813 43.4941 166.54 46.3855 167.811 52.6563L168.794 52.457L169.777 52.2577C168.297 44.9553 162.713 41.6999 157.434 39.2852C154.733 38.0499 152.192 37.0653 150.032 35.849C147.895 34.6458 146.358 33.3299 145.617 31.5871L144.694 31.9795ZM168.794 52.457L167.811 52.6563C169.262 59.814 165.677 64.9735 160.334 67.5158C154.933 70.0859 147.823 69.921 142.506 66.3345L141.945 67.166L141.384 67.9976C147.342 72.0162 155.213 72.1742 161.196 69.3271C167.238 66.4522 171.439 60.4546 169.777 52.2577L168.794 52.457ZM141.945 67.166L142.505 66.3344C141.266 65.4982 139.337 63.5329 138.237 61.4691C137.688 60.4391 137.399 59.4824 137.424 58.6902C137.448 57.9591 137.736 57.3183 138.504 56.7922L137.937 55.9648L137.37 55.1375C136.057 56.0371 135.463 57.278 135.419 58.6253C135.378 59.9115 135.836 61.23 136.466 62.4125C137.725 64.7737 139.88 66.9833 141.384 67.9976L141.945 67.166ZM137.937 55.9648L138.504 56.7922C139.41 56.1715 140.02 56.1012 140.434 56.1833C140.874 56.2707 141.323 56.5746 141.807 57.1519C142.291 57.7285 142.725 58.4756 143.165 59.2877C143.583 60.0584 144.028 60.9329 144.485 61.5955L145.311 61.0264L146.137 60.4572C145.76 59.9103 145.392 59.1871 144.929 58.3316C144.487 57.5175 143.971 56.6099 143.345 55.8632C142.719 55.1171 141.901 54.4292 140.824 54.2157C139.722 53.997 138.567 54.317 137.37 55.1375L137.937 55.9648ZM145.311 61.0264L144.485 61.5955C147.464 65.9184 152.479 67.1231 156.539 65.8307C160.648 64.5227 163.781 60.6526 162.933 55.0417L161.942 55.1914L160.95 55.3412C161.64 59.9104 159.166 62.8892 155.93 63.9192C152.645 64.9649 148.576 63.9969 146.137 60.4573L145.311 61.0264ZM161.942 55.1914L162.933 55.0417C162.482 52.0508 160.644 49.9604 158.308 48.3161C156.002 46.6932 153.067 45.409 150.271 44.0954C144.52 41.3945 139.29 38.5226 138.304 32.3058L137.314 32.4629L136.323 32.62C137.495 40.0098 143.789 43.267 149.418 45.9111C152.311 47.27 155.03 48.4622 157.153 49.9565C159.246 51.4294 160.611 53.0969 160.95 55.3411L161.942 55.1914ZM137.314 32.4629L138.304 32.3058C136.972 23.9027 143.175 17.5633 151.525 17.1659L151.477 16.1641L151.429 15.1622C142.106 15.6059 134.771 22.8297 136.323 32.62L137.314 32.4629ZM151.477 16.1641L152.186 15.4548L152.185 15.4538L151.476 16.1631L150.767 16.8723L150.768 16.8733L151.477 16.1641ZM220.618 17.3457L220.65 18.3482C224.49 18.2267 228.345 18.2731 232.225 18.3287C236.097 18.3842 239.995 18.449 243.885 18.3612L243.863 17.3584L243.84 16.3556C239.994 16.4424 236.136 16.3785 232.253 16.3229C228.377 16.2673 224.478 16.22 220.587 16.3432L220.618 17.3457ZM243.863 17.3584L243.153 18.0676L243.765 18.679L244.474 17.9697L245.183 17.2605L244.572 16.6492L243.863 17.3584ZM244.474 17.9697L243.471 17.9406L243.359 21.8127L244.362 21.8418L245.364 21.8709L245.477 17.9988L244.474 17.9697ZM244.362 21.8418L243.57 21.2256L243.278 21.6006L244.07 22.2168L244.861 22.833L245.153 22.458L244.362 21.8418ZM244.07 22.2168L244.314 21.2439C244.082 21.1857 243.866 21.1941 243.721 21.2085C243.568 21.2236 243.425 21.2533 243.318 21.278C243.262 21.2908 243.21 21.3038 243.166 21.3146C243.119 21.3262 243.086 21.3346 243.055 21.3417C242.966 21.3626 243.006 21.3467 243.09 21.3466L243.091 22.3496L243.093 23.3526C243.197 23.3525 243.288 23.3392 243.344 23.3296C243.406 23.3191 243.465 23.3061 243.512 23.2951C243.559 23.2841 243.609 23.2716 243.649 23.2616C243.692 23.2509 243.73 23.2416 243.767 23.2331C243.844 23.2155 243.891 23.2075 243.919 23.2047C243.956 23.2011 243.911 23.2112 243.826 23.1896L244.07 22.2168ZM243.091 22.3496V21.3466H223.459V22.3496V23.3526H243.091V22.3496ZM223.459 22.3496H222.456V39.5693H223.459H224.462V22.3496H223.459ZM223.459 39.5693V40.5723H240.978V39.5693V38.5663H223.459V39.5693ZM240.978 39.5693L240.552 40.4773C240.299 40.3585 240.249 40.1704 240.283 40.252C240.302 40.2965 240.334 40.4017 240.365 40.5851C240.424 40.9451 240.45 41.4389 240.445 41.9661C240.439 42.4874 240.403 42.9992 240.354 43.3816C240.329 43.5758 240.303 43.7144 240.282 43.7959C240.271 43.8387 240.268 43.8406 240.278 43.8176C240.283 43.8057 240.299 43.7697 240.329 43.7224C240.355 43.6819 240.422 43.5836 240.546 43.4909L241.147 44.2939L241.748 45.097C241.996 44.9111 242.1 44.6606 242.126 44.5985C242.172 44.49 242.204 44.3794 242.227 44.2865C242.275 44.0967 242.313 43.8712 242.343 43.6388C242.404 43.1682 242.444 42.5769 242.451 41.9877C242.457 41.4043 242.43 40.7801 242.344 40.2568C242.301 39.9986 242.236 39.7208 242.131 39.4714C242.041 39.259 241.84 38.8659 241.404 38.6614L240.978 39.5693ZM241.147 44.2939L241.203 43.2925C241.013 43.2819 240.843 43.3152 240.751 43.3356C240.644 43.3592 240.54 43.3895 240.465 43.4122C240.374 43.4399 240.334 43.453 240.288 43.4659C240.269 43.4712 240.267 43.4711 240.277 43.4691C240.282 43.468 240.296 43.4653 240.317 43.4626C240.336 43.4601 240.372 43.456 240.421 43.456V44.459V45.462C240.538 45.462 240.636 45.4433 240.682 45.4337C240.738 45.4222 240.79 45.4084 240.83 45.3974C240.9 45.3776 240.996 45.3474 241.046 45.3324C241.112 45.3124 241.155 45.3007 241.183 45.2945C241.226 45.285 241.181 45.3004 241.091 45.2954L241.147 44.2939ZM240.421 44.459V43.456H223.348V44.459V45.462H240.421V44.459ZM223.348 44.459L222.345 44.4646L222.455 64.24L223.458 64.2344L224.461 64.2288L224.351 44.4534L223.348 44.459ZM223.458 64.2344L223.463 65.2374L244.187 65.1446L244.183 64.1416L244.178 63.1386L223.454 63.2314L223.458 64.2344ZM244.183 64.1416L243.808 65.0721C243.562 64.9729 243.448 64.8037 243.424 64.7678C243.39 64.7161 243.382 64.6873 243.39 64.7088C243.405 64.7494 243.432 64.8482 243.461 65.0188C243.517 65.3504 243.557 65.8137 243.569 66.3103C243.582 66.8054 243.566 67.2969 243.523 67.6834C243.501 67.878 243.474 68.024 243.448 68.121C243.414 68.25 243.407 68.1944 243.494 68.0916L244.262 68.7363L245.03 69.3811C245.24 69.1314 245.337 68.8277 245.388 68.6341C245.447 68.4086 245.488 68.1576 245.516 67.9077C245.573 67.4053 245.589 66.8179 245.575 66.2599C245.561 65.7033 245.516 65.1391 245.439 64.6843C245.401 64.4618 245.35 64.2277 245.275 64.0226C245.238 63.9213 245.183 63.7915 245.099 63.664C245.026 63.5523 244.859 63.3324 244.557 63.2111L244.183 64.1416ZM244.262 68.7363L243.495 68.0903C243.547 68.0278 243.59 68.0111 243.576 68.0177C243.562 68.0242 243.523 68.0393 243.449 68.0559C243.285 68.0925 243.115 68.1045 242.883 68.1281L242.985 69.126L243.087 70.1238C243.236 70.1085 243.572 70.0836 243.885 70.014C244.172 69.95 244.675 69.8036 245.029 69.3824L244.262 68.7363ZM242.985 69.126L242.882 68.1282C238.856 68.5412 234.426 68.4039 229.904 68.212C225.41 68.0212 220.817 67.7759 216.575 68.0003L216.628 69.002L216.681 70.0036C220.804 69.7854 225.28 70.0235 229.819 70.2162C234.33 70.4076 238.896 70.5536 243.087 70.1238L242.985 69.126ZM216.628 69.002L217.23 68.1997L216.722 67.8179L216.119 68.6201L215.517 69.4223L216.026 69.8042L216.628 69.002ZM216.119 68.6201L217.12 68.6857C217.216 67.2218 217.042 65.6454 217.007 64.3754L216.004 64.4033L215.002 64.4312C215.044 65.9614 215.207 67.2005 215.119 68.5546L216.119 68.6201ZM216.004 64.4033L217.007 64.3755C216.625 50.61 216.377 34.77 217.005 21.1125L216.003 21.0664L215.001 21.0204C214.37 34.7563 214.62 50.6585 215.002 64.4311L216.004 64.4033ZM216.003 21.0664L217.005 21.1123C217.062 19.8741 217.034 18.8791 217.345 18.0385L216.405 17.6904L215.464 17.3424C215.012 18.5634 215.047 20.0236 215.001 21.0205L216.003 21.0664ZM216.405 17.6904L217.106 18.407C217.031 18.4808 216.962 18.5229 216.927 18.5423C216.889 18.5635 216.86 18.5749 216.849 18.5793C216.828 18.5874 216.828 18.5854 216.862 18.5776C216.927 18.5624 217.039 18.5434 217.202 18.5236C217.523 18.4846 217.951 18.4532 218.412 18.4283C219.332 18.3787 220.295 18.3593 220.65 18.3482L220.618 17.3457L220.587 16.3432C220.263 16.3533 219.254 16.3739 218.304 16.4252C217.83 16.4508 217.349 16.485 216.961 16.5322C216.769 16.5555 216.576 16.5847 216.409 16.6234C216.326 16.6426 216.228 16.6691 216.129 16.7071C216.054 16.7359 215.869 16.8109 215.703 16.9738L216.405 17.6904ZM256.692 17.4961L256.883 18.4807C260.483 17.7818 265.632 17.3977 270.422 18.0505C275.26 18.7097 279.458 20.3862 281.527 23.5517L282.367 23.0029L283.206 22.4542C280.646 18.5366 275.693 16.7441 270.693 16.0628C265.646 15.3751 260.273 15.7791 256.501 16.5115L256.692 17.4961ZM282.367 23.0029L281.527 23.5516C284.339 27.8538 284.262 32.447 282.329 36.1984C280.384 39.9731 276.539 42.9242 271.771 43.8057L271.953 44.792L272.136 45.7783C277.496 44.7874 281.874 41.4605 284.112 37.1172C286.363 32.7505 286.429 27.3853 283.206 22.4542L282.367 23.0029ZM271.953 44.792L271.116 45.3438L286.278 68.3594L287.116 67.8076L287.953 67.2558L272.791 44.2402L271.953 44.792ZM287.116 67.8076L286.166 68.1307C286.205 68.2439 286.186 68.2581 286.195 68.2072C286.199 68.1807 286.209 68.1473 286.228 68.1129C286.246 68.0791 286.267 68.055 286.282 68.0405C286.308 68.0154 286.305 68.0302 286.229 68.0577C286.155 68.0843 286.046 68.1108 285.896 68.1307L286.028 69.125L286.159 70.1193C286.597 70.0614 287.221 69.9221 287.675 69.4833C287.926 69.2412 288.108 68.9236 288.172 68.543C288.234 68.1776 288.178 67.8172 288.065 67.4845L287.116 67.8076ZM286.028 69.125L285.897 68.1306C285.444 68.1902 284.296 68.2271 283.074 68.2275C281.852 68.2279 280.708 68.1916 280.26 68.131L280.125 69.125L279.991 70.119C280.595 70.2007 281.874 70.2339 283.075 70.2335C284.278 70.2331 285.555 70.1988 286.158 70.1194L286.028 69.125ZM280.125 69.125L280.26 68.1311C279.979 68.093 279.767 67.9574 279.518 67.6542C279.386 67.4933 279.258 67.3022 279.11 67.068C278.972 66.85 278.802 66.5714 278.626 66.3173L277.802 66.8896L276.978 67.462C277.122 67.6689 277.249 67.8793 277.415 68.1408C277.57 68.3861 277.752 68.665 277.967 68.9268C278.412 69.4691 279.041 69.9902 279.991 70.1189L280.125 69.125ZM277.802 66.8896L278.626 66.3178C277.489 64.6787 274.698 59.8773 271.838 55.2261C270.422 52.9238 268.998 50.6737 267.781 48.9226C267.173 48.0483 266.606 47.2825 266.109 46.6913C265.861 46.3959 265.621 46.1319 265.393 45.9153C265.176 45.7089 264.924 45.5 264.652 45.363L264.201 46.2588L263.749 47.1546C263.748 47.1539 263.771 47.166 263.822 47.2048C263.871 47.2423 263.933 47.2957 264.01 47.3688C264.165 47.516 264.353 47.7193 264.573 47.9814C265.013 48.5052 265.541 49.2148 266.133 50.0676C267.317 51.7706 268.718 53.9813 270.129 56.2769C272.924 60.8217 275.801 65.7647 276.978 67.4615L277.802 66.8896ZM264.201 46.2588L264.652 45.3632C264.095 45.0825 263.465 44.8188 262.774 44.7747C262.041 44.7278 261.337 44.9323 260.646 45.4136L261.22 46.2363L261.794 47.0591C262.151 46.8099 262.413 46.7617 262.646 46.7766C262.922 46.7943 263.258 46.907 263.749 47.1544L264.201 46.2588ZM261.22 46.2363L260.297 45.8432L259.799 47.0121L260.722 47.4053L261.645 47.7984L262.143 46.6295L261.22 46.2363ZM260.722 47.4053L259.719 47.4026L259.663 68.2327L260.666 68.2354L261.669 68.238L261.725 47.408L260.722 47.4053ZM260.666 68.2354L259.825 67.69L259.431 68.2974L260.273 68.8428L261.115 69.3882L261.508 68.7807L260.666 68.2354ZM260.273 68.8428L259.664 68.0455C259.753 67.9776 259.814 67.964 259.779 67.9757C259.756 67.983 259.707 67.9964 259.622 68.0121C259.452 68.0433 259.212 68.0707 258.909 68.0912C258.308 68.1319 257.544 68.1399 256.779 68.1237C256.016 68.1074 255.273 68.0675 254.717 68.0164C254.437 67.9906 254.222 67.9636 254.083 67.9389C254.01 67.9259 253.983 67.9181 253.987 67.9193C253.988 67.9196 254.022 67.9298 254.072 67.9547C254.097 67.967 254.26 68.0453 254.398 68.2323L253.59 68.8271L252.783 69.422C252.933 69.626 253.119 69.7212 253.178 69.7503C253.262 69.7921 253.34 69.819 253.395 69.8359C253.506 69.8703 253.626 69.8952 253.732 69.9141C253.952 69.953 254.23 69.9861 254.534 70.014C255.146 70.0703 255.937 70.1122 256.737 70.1292C257.534 70.1462 258.362 70.1389 259.045 70.0927C259.384 70.0697 259.709 70.0358 259.985 69.9849C260.123 69.9595 260.267 69.9267 260.403 69.8822C260.525 69.8421 260.71 69.7712 260.881 69.6401L260.273 68.8428ZM253.59 68.8271L254.593 68.826L254.538 18.8973L253.535 18.8984L252.532 18.8995L252.587 68.8282L253.59 68.8271ZM253.535 18.8984L254.485 19.2218C254.492 19.2014 254.595 19.0219 255.196 18.8324C255.751 18.6573 256.324 18.5893 256.883 18.4807L256.692 17.4961L256.5 16.5115C256.121 16.5852 255.292 16.6987 254.593 16.9193C253.938 17.1256 252.933 17.556 252.586 18.5751L253.535 18.8984ZM177.423 18.5283L178.289 19.035C178.223 19.1466 178.165 19.1611 178.243 19.1141C178.31 19.0747 178.428 19.0189 178.614 18.9544C178.987 18.8257 179.517 18.701 180.186 18.5863C181.515 18.3581 183.253 18.1917 185.058 18.0771C188.678 17.8471 192.411 17.834 193.406 17.9093L193.482 16.9092L193.557 15.909C192.422 15.8231 188.579 15.8434 184.931 16.0751C183.1 16.1914 181.28 16.3631 179.846 16.6092C179.133 16.7316 178.481 16.8781 177.959 17.0584C177.699 17.1484 177.442 17.2566 177.216 17.391C177.004 17.5178 176.736 17.716 176.558 18.0217L177.423 18.5283ZM193.482 16.9092L193.406 17.9093C197.285 18.202 200.922 19.289 203.652 21.2925C206.353 23.2739 208.215 26.1814 208.554 30.2687L209.554 30.1855L210.554 30.1024C210.164 25.4162 207.991 21.9875 204.839 19.6751C201.717 17.3847 197.683 16.2203 193.557 15.909L193.482 16.9092ZM209.554 30.1855L208.554 30.2686C208.831 33.5899 208.163 36.2695 206.882 38.4171C205.598 40.5724 203.66 42.2529 201.306 43.5047C196.574 46.0207 190.272 46.7415 184.754 46.1272L184.643 47.124L184.532 48.1209C190.322 48.7654 197.059 48.0349 202.247 45.2759C204.853 43.8902 207.096 41.9774 208.606 39.4441C210.12 36.9032 210.861 33.7991 210.554 30.1025L209.554 30.1855ZM184.643 47.124V46.121H184.642V47.124V48.127H184.643V47.124ZM184.642 47.124H183.639V68.5098H184.642H185.645V47.124H184.642ZM184.642 68.5098L184.035 67.711C183.505 68.1137 182.687 68.2275 181.514 68.1741C180.938 68.1478 180.378 68.0898 179.757 68.0423C179.165 67.997 178.535 67.9634 177.943 68.0109L178.023 69.0107L178.103 70.0105C178.529 69.9764 179.026 69.9983 179.604 70.0425C180.154 70.0846 180.807 70.15 181.422 70.178C182.63 70.233 184.104 70.1781 185.249 69.3085L184.642 68.5098ZM178.023 69.0107L178.405 68.0835L177.853 67.8559L177.471 68.7832L177.089 69.7105L177.64 69.938L178.023 69.0107ZM177.471 68.7832L178.453 68.5767L178.298 67.8433L177.317 68.0498L176.335 68.2563L176.489 68.9897L177.471 68.7832ZM177.317 68.0498L178.32 68.052L178.426 18.5305L177.423 18.5283L176.42 18.5262L176.314 68.0476L177.317 68.0498ZM110.657 17.3838L110.769 18.3804C111.261 18.3248 112.022 18.2416 112.695 18.2881C113.033 18.3114 113.281 18.3641 113.434 18.4286C113.583 18.4907 113.534 18.5135 113.503 18.4293L114.446 18.0859L115.388 17.7426C115.16 17.1164 114.659 16.7667 114.21 16.5785C113.767 16.3927 113.272 16.3171 112.833 16.2868C111.951 16.226 111.014 16.3338 110.544 16.3872L110.657 17.3838ZM114.446 18.0859L113.511 18.4496L133.09 68.769L134.025 68.4053L134.959 68.0416L115.38 17.7222L114.446 18.0859ZM134.025 68.4053L133.32 67.6918L132.658 68.3461L133.363 69.0596L134.068 69.773L134.73 69.1187L134.025 68.4053ZM133.363 69.0596L133.074 68.0991C133.142 68.0785 133.129 68.0902 132.91 68.1064C132.739 68.119 132.508 68.1305 132.231 68.1406C131.68 68.1606 130.975 68.1736 130.261 68.1792C129.548 68.1847 128.833 68.1827 128.264 68.1731C127.978 68.1683 127.734 68.1616 127.546 68.1534C127.336 68.1441 127.254 68.1348 127.254 68.1348L127.082 69.123L126.911 70.1113C127.154 70.1535 127.687 70.1697 128.23 70.1788C128.82 70.1888 129.551 70.1908 130.277 70.1851C131.001 70.1795 131.727 70.1663 132.304 70.1453C132.592 70.1348 132.851 70.1222 133.057 70.107C133.215 70.0954 133.467 70.0757 133.652 70.02L133.363 69.0596ZM127.082 69.123L127.254 68.1349C127.194 68.1243 127.164 68.1132 127.153 68.1084C127.143 68.1043 127.136 68.1002 127.124 68.0915C127.11 68.0803 127.084 68.0581 127.039 68.0093C126.99 67.9569 126.938 67.8956 126.857 67.7998L126.091 68.4473L125.325 69.0948C125.456 69.2501 125.652 69.4907 125.903 69.6831C126.191 69.9041 126.517 70.0428 126.91 70.1112L127.082 69.123ZM126.091 68.4473L127.027 68.0854L119.462 48.5326L118.527 48.8945L117.591 49.2564L125.156 68.8092L126.091 68.4473ZM118.527 48.8945L118.523 47.8915L103.11 47.955L103.115 48.958L103.119 49.961L118.531 49.8975L118.527 48.8945ZM103.115 48.958L102.178 48.5997L94.6455 68.294L95.5824 68.6523L96.5192 69.0106L104.051 49.3163L103.115 48.958ZM95.5824 68.6523L94.748 68.0957C94.8679 67.9159 94.992 67.9088 94.8446 67.9621C94.7402 67.9999 94.5678 68.0425 94.3216 68.0796C93.8346 68.1529 93.1952 68.1849 92.5373 68.1794C91.8823 68.1739 91.2483 68.1315 90.7798 68.0685C90.5414 68.0364 90.3751 68.0027 90.2798 67.9755C90.2295 67.9612 90.2319 67.9578 90.2634 67.9739C90.2802 67.9824 90.325 68.0065 90.3804 68.0516C90.4323 68.0939 90.5318 68.1857 90.6089 68.3395L89.7122 68.7891L88.8156 69.2386C88.9805 69.5675 89.2644 69.7163 89.3527 69.7613C89.4833 69.8278 89.6185 69.873 89.73 69.9048C89.9582 69.9698 90.2318 70.0188 90.5122 70.0565C91.0815 70.1332 91.8016 70.1793 92.5204 70.1853C93.2363 70.1914 93.9904 70.158 94.6202 70.0632C94.9324 70.0163 95.2491 69.9491 95.5275 69.8483C95.763 69.7631 96.1636 69.5884 96.4167 69.209L95.5824 68.6523ZM89.7122 68.7891L90.7152 68.7825L90.7094 67.8851L89.7064 67.8916L88.7034 67.8981L88.7092 68.7956L89.7122 68.7891ZM89.7064 67.8916L90.6395 68.2595L110.502 17.8894L109.569 17.5215L108.636 17.1535L88.7733 67.5237L89.7064 67.8916ZM109.569 17.5215L109.729 18.5117C110.057 18.4587 110.39 18.4257 110.77 18.3823L110.657 17.3857L110.543 16.3892C110.203 16.428 109.797 16.4686 109.409 16.5313L109.569 17.5215ZM110.657 17.3857H111.66V17.3838H110.657H109.654V17.3857H110.657ZM104.783 44.4561H103.78V44.457H104.783H105.786V44.4561H104.783ZM104.783 44.457L104.798 45.4599L116.913 45.2773L116.898 44.2744L116.883 43.2715L104.767 43.4541L104.783 44.457ZM116.898 44.2744L117.842 43.9362L111.899 27.3444L110.954 27.6826L110.01 28.0209L115.954 44.6127L116.898 44.2744ZM110.954 27.6826L110.013 27.3363L103.841 44.1097L104.783 44.4561L105.724 44.8024L111.896 28.029L110.954 27.6826ZM201.816 31.8496L202.819 31.8581C202.859 27.1539 200.992 24.0134 197.971 22.1909C195.03 20.4172 191.135 19.9759 187.213 20.2743L187.289 21.2744L187.365 22.2745C191.102 21.9903 194.508 22.4449 196.935 23.9086C199.28 25.3235 200.847 27.762 200.813 31.8411L201.816 31.8496ZM187.289 21.2744L187.999 21.9837L188 21.9827L187.29 21.2734L186.581 20.5642L186.58 20.5652L187.289 21.2744ZM187.29 21.2734L187.214 20.2733C186.357 20.3384 185.45 20.4989 184.697 20.6008L184.831 21.5947L184.966 22.5887C185.841 22.4704 186.584 22.333 187.366 22.2736L187.29 21.2734ZM184.831 21.5947L183.828 21.5883L183.695 42.4526L184.698 42.459L185.701 42.4654L185.834 21.6012L184.831 21.5947ZM184.698 42.459L183.819 42.9435C183.982 43.2376 184.232 43.3822 184.353 43.4432C184.495 43.5154 184.641 43.5613 184.762 43.5926C185.006 43.6558 185.293 43.6956 185.578 43.7231C186.158 43.7789 186.887 43.7973 187.605 43.7969C189.041 43.7961 190.559 43.7196 191.017 43.6763L190.923 42.6777L190.829 41.6792C190.45 41.7148 188.999 41.7901 187.604 41.7909C186.906 41.7912 186.254 41.7728 185.77 41.7263C185.524 41.7026 185.358 41.6749 185.265 41.6507C185.217 41.6382 185.223 41.6354 185.259 41.6536C185.273 41.6605 185.45 41.7456 185.576 41.9745L184.698 42.459ZM190.923 42.6777L191.018 43.6763C194.473 43.3497 197.428 42.3568 199.532 40.4017C201.662 38.4232 202.787 35.5843 202.819 31.858L201.816 31.8496L200.813 31.8412C200.785 35.1542 199.801 37.414 198.167 38.9321C196.507 40.4736 194.045 41.3752 190.829 41.6792L190.923 42.6777ZM277.19 31.7383L278.193 31.7495C278.223 29.0805 277.697 26.9124 276.691 25.1962C275.681 23.473 274.226 22.2736 272.515 21.4848C269.143 19.9301 264.756 19.9575 260.573 20.5792L260.72 21.5713L260.867 22.5634C264.945 21.9574 268.849 22.0033 271.675 23.3065C273.063 23.9466 274.184 24.886 274.961 26.2107C275.741 27.5423 276.214 29.3311 276.187 31.727L277.19 31.7383ZM260.72 21.5713H259.717V42.2354H260.72H261.723V21.5713H260.72ZM260.72 42.2354L260.638 43.235C264.556 43.5551 268.86 43.2826 272.239 41.6345C273.945 40.8026 275.433 39.6115 276.497 37.9593C277.562 36.3055 278.165 34.2492 278.193 31.7495L277.19 31.7383L276.187 31.7271C276.162 33.9081 275.642 35.5829 274.811 36.8731C273.979 38.1649 272.797 39.1307 271.36 39.8314C268.454 41.2486 264.575 41.5439 260.802 41.2357L260.72 42.2354Z" fill="white"/>
<path d="M117.573 82.518V76.4014H119.13V84.4642C118.753 84.7467 117.907 84.6944 117.512 84.5253C116.354 84.0316 113.177 79.3084 111.79 78.4032V84.4642L110.248 84.4486L110.415 76.4181L112.067 76.6249L117.572 82.5191L117.573 82.518Z" fill="#C8C8C8"/>
<path d="M211.002 84.6316L209.571 84.4493L209.555 76.402C210.229 76.4131 210.64 76.2864 211.28 76.6244C212.262 77.1438 216.329 82.5431 216.73 82.5164L216.973 76.3987L218.27 76.4187L218.266 84.6361L216.619 84.4103L211.002 78.4049V84.6328V84.6316Z" fill="#C8C8C8"/>
<path d="M137.038 76.4019C139.684 76.641 143.954 75.5033 145.694 78.1445C147.547 80.956 145.564 84.6315 142.21 84.6315H137.204L137.038 84.4647V76.4019ZM138.595 83.5194H142.321C145.383 83.5194 145.563 77.514 142.21 77.514H138.762L138.595 77.6808V83.5194Z" fill="#C8C8C8"/>
<path d="M213.426 4.37012C221.179 3.50156 222.237 11.9592 215.601 12.7732C207.871 13.7219 207.095 5.07964 213.426 4.37012ZM213.982 5.37102C211.582 5.60123 210.484 7.33834 210.966 9.65487C211.926 12.6598 217.822 12.4819 218.231 9.28565C218.589 6.47423 216.607 5.11968 213.982 5.37102Z" fill="#C8C8C8"/>
<path d="M245.593 84.6311H243.869L242.596 82.3446L237.99 82.2C237.062 83.5412 237.315 85.0915 235.139 84.63L239.201 76.6272L240.535 76.3125C241.089 76.377 241.019 76.5205 241.302 76.8552C242.851 78.6924 244.091 82.5715 245.593 84.6311ZM241.922 81.1835C241.781 80.8266 240.393 77.6404 240.034 77.8472L238.474 81.1835H241.922Z" fill="#C8C8C8"/>
<path d="M192.872 84.6316H191.259L189.924 82.2972L185.383 82.2038L184.03 84.6316H182.417L186.484 76.7433C186.815 76.2273 188.306 76.184 188.624 76.8123L192.872 84.6316ZM185.865 81.184H189.202L187.588 77.7353L185.865 81.184Z" fill="#C8C8C8"/>
<path d="M101.89 6.78233L100.417 6.98695C98.2021 3.72624 92.6009 5.50562 93.9411 9.7828C94.7252 12.0048 98.1632 12.433 99.7782 10.9539C100.662 10.1431 100.181 9.41247 101.956 10.0008L101.916 10.5335C99.5835 14.4136 91.7822 13.4861 92.107 8.17691C92.3806 3.704 100.295 2.83099 101.89 6.78233Z" fill="#C8C8C8"/>
<path d="M244.926 5.44914H239.086L238.919 5.61596V7.89579H244.091L244.147 9.0079H238.919V12.6779H237.362V4.44824H244.648L245.022 4.7474L244.926 5.44914Z" fill="#C8C8C8"/>
<path d="M167.29 9.28498L163.065 4.44841C165.603 3.869 166.594 6.80164 168.236 8.12394C169.672 6.89728 170.786 4.18595 172.943 4.36166L173.295 4.50513L169.017 9.1215L168.848 12.6769H167.29V9.28498Z" fill="#C8C8C8"/>
<path d="M141.931 5.56041L138.328 5.46254L138.316 4.66961L147.088 4.46387L147.271 5.4492L143.6 5.56041V12.6779L141.931 12.5111V5.56041Z" fill="#C8C8C8"/>
<path d="M90.6569 76.4579L92.1962 76.4189C92.5866 76.6658 92.0683 83.6466 92.214 84.6319L90.6558 84.464V76.4568L90.6569 76.4579Z" fill="#C8C8C8"/>
<path d="M165.622 76.4014H164.065V84.631H165.622V76.4014Z" fill="#C8C8C8"/>
<path d="M121.132 4.55945V12.6779H119.575V4.44824L121.132 4.55945Z" fill="#C8C8C8"/>
<path d="M29.9019 0.0253435C33.3966 -0.422838 33.2031 5.23114 29.6995 4.51049C27.3226 4.02116 27.4784 0.336735 29.9019 0.0253435Z" fill="black"/>
<path d="M48.9181 24.0484C52.1459 23.4267 52.6419 28.2533 49.7723 28.5736C46.7393 28.9128 46.4089 24.531 48.9181 24.0484Z" fill="black"/>
<path d="M47.0586 6.67226L47.2788 6.78458C47.7293 3.89309 51.6377 4.32681 51.7189 7.15602L51.4586 8.1269C50.0038 10.4001 47.1131 9.1923 47.0586 6.67226Z" fill="black"/>
<path d="M24.8945 24.0481C28.1067 23.4676 28.5616 28.2186 25.7488 28.5744C22.7368 28.9559 22.3319 24.5119 24.8945 24.0481Z" fill="black"/>
<path d="M29.7909 24.0472C33.0287 23.5835 33.3813 28.3722 30.416 28.5735C27.4508 28.7748 27.2361 24.4131 29.7909 24.0472Z" fill="black"/>
<path d="M49.2596 0.023696C52.2938 -0.240987 52.4863 4.35648 49.6701 4.56556C46.6336 4.79021 46.3823 0.273921 49.2596 0.023696Z" fill="black"/>
<path d="M34.7995 0.0256976C38.2174 -0.299039 37.9961 5.14809 34.5937 4.50973C32.1412 4.05043 32.3036 0.262578 34.7995 0.0256976Z" fill="black"/>
<path d="M20.4456 14.3756C23.2696 14.191 23.7701 18.6884 20.8616 18.9042C17.5705 19.1488 17.7117 14.5547 20.4456 14.3756Z" fill="black"/>
<path d="M39.2425 14.4845C42.7149 13.7594 43.1498 19.1165 39.6585 18.913C37.0647 18.7617 36.9824 14.9561 39.2425 14.4845Z" fill="black"/>
<path d="M41.3423 24.6202C43.4055 26.4441 40.9597 29.6792 38.6117 28.1845C35.9901 26.5164 38.9187 22.4772 41.3423 24.6202Z" fill="black"/>
<path d="M33.4191 5.49171C35.4 3.38425 38.6133 6.42477 36.7725 8.5667C34.8383 10.8176 31.2636 7.78377 33.4191 5.49171Z" fill="black"/>
<path d="M39.8007 9.59544C42.2076 9.50424 43.0496 13.1364 40.7172 13.956C37.2359 15.1794 36.414 9.72444 39.8007 9.59544Z" fill="black"/>
<path d="M39.5822 0.0261503C42.722 -0.269672 42.9367 4.40898 39.9881 4.56134C37.0462 4.7137 36.8661 0.281936 39.5822 0.0261503Z" fill="black"/>
<path d="M44.3631 24.0494C47.4029 23.7002 47.6765 28.2332 44.9905 28.5746C41.9807 28.9561 41.4224 24.3875 44.3631 24.0494Z" fill="black"/>
<path d="M23.74 32.6567C21.9726 30.7761 24.5008 27.5387 26.802 29.317C29.368 31.301 25.8866 34.9409 23.74 32.6567Z" fill="black"/>
<path d="M57.4436 8.63213C55.723 6.8483 57.9319 3.78666 60.2387 5.11452C63.1294 6.77935 59.8472 11.1222 57.4436 8.63213Z" fill="black"/>
<path d="M53.814 24.0482C57.0607 23.56 57.3932 28.4088 54.4358 28.5723C51.4639 28.7369 51.3159 24.423 53.814 24.0482Z" fill="black"/>
<path d="M60.5865 27.9849C58.0194 30.2325 55.1976 25.794 57.9616 24.3038C60.3084 23.0393 62.593 26.2266 60.5865 27.9849Z" fill="black"/>
<path d="M48.9178 19.2665C52.2556 18.6048 52.656 23.7717 49.4483 23.7739C46.661 23.7762 46.542 19.7381 48.9178 19.2665Z" fill="black"/>
<path d="M23.74 8.63394C21.867 6.68552 24.6921 3.45484 26.9299 5.38769C29.1678 7.32054 25.8956 10.876 23.74 8.63394Z" fill="black"/>
<path d="M20.4548 9.59067C23.3767 9.38048 23.7582 14.2004 20.5293 14.1336C17.7075 14.0758 17.6797 9.78973 20.4548 9.59067Z" fill="black"/>
<path d="M39.4673 4.80776C42.5872 4.39739 43.1188 9.2651 39.8766 9.34406C37.0671 9.41302 36.9125 5.14362 39.4673 4.80776Z" fill="black"/>
<path d="M44.479 0.0255263C47.501 -0.198008 47.6011 4.3661 44.8839 4.56183C41.8408 4.78092 41.5494 0.241276 44.479 0.0255263Z" fill="black"/>
<path d="M54.0411 0.0261581C57.3834 -0.278561 57.2277 5.10073 53.8353 4.51019C51.355 4.07869 51.5185 0.256365 54.0411 0.0261581Z" fill="black"/>
<path d="M24.8938 19.2665C28.2339 18.6382 28.5753 23.636 25.5066 23.7684C22.6882 23.8896 22.4146 19.7336 24.8938 19.2665Z" fill="black"/>
<path d="M29.676 19.2666C32.6623 18.7039 33.5343 22.991 30.8416 23.6572C27.6205 24.4535 27.0466 19.7615 29.676 19.2666Z" fill="black"/>
<path d="M42.446 7.6028C41.6952 4.81695 46.1698 3.64145 46.7848 6.44397C47.4789 9.6046 43.1967 10.3897 42.446 7.6028Z" fill="black"/>
<path d="M58.8238 0.0259685C61.868 -0.260956 62.115 4.19528 59.45 4.55226C56.3636 4.96597 55.9643 0.2951 58.8238 0.0259685Z" fill="black"/>
<path d="M29.9018 4.80814C33.0495 4.40889 33.3987 9.34444 30.201 9.34222C27.3926 9.3411 27.3103 5.13621 29.9018 4.80814Z" fill="black"/>
<path d="M39.3537 19.2679C42.6705 18.6807 43.0097 23.6541 39.9655 23.7675C37.1037 23.8743 36.8823 19.705 39.3537 19.2679Z" fill="black"/>
<path d="M44.1355 19.267C47.381 18.6264 47.7981 23.5865 44.8562 23.7755C41.931 23.9635 41.6218 19.763 44.1355 19.267Z" fill="black"/>
<path d="M22.2128 23.0898C20.3698 24.9782 17.1666 22.5649 18.8082 20.1861C20.6434 17.5271 24.4284 20.82 22.2128 23.0898Z" fill="black"/>
<path d="M33.4187 29.5128C35.3985 27.4076 38.6129 30.4415 36.7721 32.5878C34.9313 34.7342 31.2309 31.8394 33.4187 29.5128Z" fill="black"/>
<path d="M47.7647 10.3831C49.5676 8.25785 52.8699 10.8001 51.2827 13.1778C49.6955 15.5555 45.6458 12.882 47.7647 10.3831Z" fill="black"/>
<path d="M49.1439 28.8309C52.2393 28.4773 52.6542 33.3272 49.4375 33.3495C46.6002 33.3684 46.5235 29.1301 49.1439 28.8309Z" fill="black"/>
<path d="M26.8855 10.1601C29.0033 12.0184 26.4662 15.3625 24.0905 13.6777C21.5979 11.9094 24.5754 8.13158 26.8855 10.1601Z" fill="black"/>
<path d="M47.0586 16.238L47.2788 16.4594L48.2454 14.8112L48.9194 14.4854L50.6111 14.7422C52.2661 15.8744 51.9881 18.2365 50.0672 18.8571L48.2865 18.6224C47.4879 18.0185 47.1342 17.2356 47.0586 16.238Z" fill="black"/>
<path d="M58.935 9.58781C61.898 9.39319 62.2217 14.1764 59.014 14.1308C56.1333 14.0896 56.1989 9.76798 58.935 9.58781Z" fill="black"/>
<path d="M39.4675 28.8288C42.3315 28.4507 43.2414 32.8158 40.166 33.304C37.0906 33.7922 36.7547 29.1869 39.4675 28.8288Z" fill="black"/>
<path d="M58.5955 19.2678C62.4505 18.6261 61.9978 24.9151 58.1528 23.5483C56.2375 22.8677 56.5256 19.6126 58.5955 19.2678Z" fill="black"/>
<path d="M53.9264 4.80734C57.0051 4.40142 57.4945 9.24801 54.3246 9.33141C51.405 9.40815 51.3827 5.1432 53.9264 4.80734Z" fill="black"/>
<path d="M34.46 19.2666C37.8335 18.5771 38.2606 23.8196 35.0061 23.7551C32.2756 23.7006 32.1488 19.7382 34.46 19.2666Z" fill="black"/>
<path d="M57.4436 32.6542C55.2458 30.4077 59.2454 26.9312 61.0328 30.0107C62.383 32.3361 59.2231 34.4736 57.4436 32.6542Z" fill="black"/>
<path d="M24.7811 14.4827C27.9732 13.772 28.6539 18.3695 25.9523 18.8777C22.7334 19.4838 22.3352 15.0265 24.7811 14.4827Z" fill="black"/>
<path d="M30.1312 9.59145C33.1243 9.43909 33.2956 14.2345 30.0945 14.1322C27.255 14.041 27.3951 9.73046 30.1312 9.59145Z" fill="black"/>
<path d="M34.9048 9.59329C37.9146 9.40423 38.1793 14.2441 34.8793 14.1329C32.1431 14.0395 32.1698 9.76567 34.9048 9.59329Z" fill="black"/>
<path d="M46.2376 10.2724C48.0038 12.0829 45.8894 15.169 43.4614 13.7711C40.6296 12.1418 43.8941 7.87022 46.2376 10.2724Z" fill="black"/>
<path d="M22.3258 27.763C20.5729 29.8827 17.1939 27.4816 18.7588 25.0305C20.4249 22.4237 24.3245 25.3464 22.3258 27.763Z" fill="black"/>
<path d="M58.4843 14.4837C62.0513 13.743 62.3093 19.3391 58.6912 18.8943C56.2676 18.5962 56.321 14.9329 58.4843 14.4837Z" fill="black"/>
<path d="M53.8131 19.2669C57.1732 18.7287 57.439 23.8866 54.1567 23.7332C51.4618 23.6075 51.385 19.6551 53.8131 19.2669Z" fill="black"/>
<path d="M29.7889 28.8304C32.9132 28.2944 33.4771 33.2733 30.3005 33.3534C27.3909 33.4268 27.3253 29.253 29.7889 28.8304Z" fill="black"/>
<path d="M42.4456 31.6234C41.6993 28.8542 46.1672 27.662 46.7845 30.4646C47.4819 33.6296 43.1864 34.3759 42.4456 31.6234Z" fill="black"/>
<path d="M34.4604 14.484C37.5869 13.83 38.292 18.3107 35.6082 18.8568C32.3749 19.5141 31.9378 15.0122 34.4604 14.484Z" fill="black"/>
<path d="M36.5624 27.9852C34.6471 29.6812 31.832 27.4069 33.1533 25.0781C34.7872 22.1989 39.0983 25.7398 36.5624 27.9852Z" fill="black"/>
<path d="M31.7786 15.0549C34.3556 17.5405 29.6853 20.7823 28.2116 17.6762C27.1383 15.4142 30.0045 13.3434 31.7786 15.0549Z" fill="black"/>
<path d="M22.2119 5.4899C24.3096 7.62405 21.0218 10.8114 18.9586 8.63162C16.981 6.54308 20.1454 3.38801 22.2119 5.4899Z" fill="black"/>
<path d="M53.9264 28.8295C57.0596 28.4169 57.4 33.2935 54.3246 33.3535C51.4283 33.4103 51.3449 29.1698 53.9264 28.8295Z" fill="black"/>
<path d="M53.7021 14.484C56.8831 13.8624 57.4548 18.3275 54.851 18.8569C51.5788 19.5208 51.1917 14.9745 53.7021 14.484Z" fill="black"/>
<path d="M54.2677 9.59213C56.6679 9.55209 57.3653 13.152 55.1541 13.936C51.546 15.215 50.9354 9.64885 54.2677 9.59213Z" fill="black"/>
<path d="M44.0227 14.4819C47.8688 13.6022 47.7053 20.0791 43.798 18.7724C41.7582 18.0907 42.123 14.9167 44.0227 14.4819Z" fill="black"/>
<path d="M22.2132 29.5125C24.0228 31.3687 21.7505 34.3347 19.437 33.0112C16.6253 31.4031 19.823 27.0603 22.2132 29.5125Z" fill="black"/>
<path d="M62.3376 29.5117C64.2161 27.5699 67.3783 30.2701 65.5798 32.4755C63.66 34.8287 60.1809 31.7415 62.3376 29.5117Z" fill="black"/>
<path d="M63.2671 24.1591C66.3613 23.4607 67.0988 27.9114 64.4149 28.4196C61.3062 29.0091 60.888 24.6963 63.2671 24.1591Z" fill="black"/>
<path d="M63.265 19.3757C66.5072 18.6339 67.0089 23.4327 64.097 23.664C61.3075 23.8864 61.0183 19.8895 63.265 19.3757Z" fill="black"/>
<path d="M63.2668 14.5953C66.3033 13.9614 66.9884 18.0873 64.6115 18.7201C61.4116 19.572 60.8477 15.1013 63.2668 14.5953Z" fill="black"/>
<path d="M63.7153 9.69731C66.5849 9.48823 66.8918 14.1157 63.7954 14.0201C61.0637 13.9367 61.2405 9.87747 63.7153 9.69731Z" fill="black"/>
<path d="M62.4466 8.63437C60.4134 6.74823 63.3264 3.55202 65.3584 5.55604C67.3905 7.56007 64.3964 10.4427 62.4466 8.63437Z" fill="black"/>
<path d="M15.4405 14.5954C18.2823 14.135 18.7784 18.5189 16.069 18.7858C13.2728 19.0616 12.9347 15.0013 15.4405 14.5954Z" fill="black"/>
<path d="M15.4408 9.81468C18.3927 9.35538 18.792 13.9217 15.8435 14.0051C13.3398 14.0752 12.9338 10.205 15.4408 9.81468Z" fill="black"/>
<path d="M15.4418 19.3759C18.2325 18.9433 18.8275 23.2917 16.0692 23.563C13.234 23.8422 12.9727 19.7585 15.4418 19.3759Z" fill="black"/>
<path d="M14.3973 8.63402C12.4787 6.87133 14.9234 3.8208 17.0811 5.45005C19.3768 7.18383 16.4761 10.5435 14.3973 8.63402Z" fill="black"/>
<path d="M17.2069 32.6546C15.0502 34.5041 12.2818 31.1666 14.5252 29.4729C16.7686 27.7791 19.1288 31.0065 17.2069 32.6546Z" fill="black"/>
<path d="M63.3772 0.249365C66.3513 -0.296682 66.8307 3.78588 64.4149 4.28856C61.4041 4.91356 61.0103 0.684201 63.3772 0.249365Z" fill="black"/>
<path d="M15.2181 24.2702C18.1322 23.6196 18.8151 27.7711 16.366 28.3082C13.3874 28.9622 12.8947 24.7895 15.2181 24.2702Z" fill="black"/>
<path d="M25.0059 0.804779C27.375 0.312114 27.6442 3.69961 25.4875 3.84085C23.7002 3.95873 23.3376 1.15176 25.0059 0.804779Z" fill="black"/>
<path d="M16.7628 3.29524C15.2557 4.69094 13.336 2.13197 15.08 1.11216C16.5081 0.278077 17.9729 2.17423 16.7628 3.29524Z" fill="black"/>
<path d="M19.844 1.4828C21.0018 0.51971 22.5501 2.22903 21.1976 3.2277C20.2043 3.96058 18.8318 2.32467 19.844 1.4828Z" fill="black"/>
<path d="M49.0311 48.0699C52.2255 47.5883 52.5269 52.2692 49.7708 52.5984C46.7733 52.9565 46.3495 48.4747 49.0311 48.0699Z" fill="#E71320"/>
<path d="M41.3421 48.6416C43.3653 50.4299 41.0073 53.6984 38.6093 52.2082C35.9955 50.5845 38.8985 46.4819 41.3421 48.6416Z" fill="#E71320"/>
<path d="M60.5866 52.0072C58.688 53.6698 55.8674 51.4856 57.1965 49.119C58.8393 46.1942 63.1526 49.7596 60.5866 52.0072Z" fill="#E71320"/>
<path d="M20.4454 38.396C23.2593 38.2147 23.7587 42.6898 20.8602 42.9234C17.598 43.187 17.7026 38.5728 20.4454 38.396Z" fill="#E71320"/>
<path d="M25.0069 48.0704C28.189 47.6144 28.4537 52.2797 25.7465 52.5989C22.7323 52.9548 22.3075 48.4574 25.0069 48.0704Z" fill="#E71320"/>
<path d="M20.1104 43.2878C23.3893 42.685 23.7119 47.5727 20.8311 47.7963C17.9104 48.0232 17.5778 43.7526 20.1104 43.2878Z" fill="#E71320"/>
<path d="M29.7904 48.0685C33.0393 47.6026 33.3974 52.4725 30.3021 52.5937C27.4514 52.706 27.3001 48.4255 29.7904 48.0685Z" fill="#E71320"/>
<path d="M53.815 48.0687C57.0983 47.5994 57.4075 52.5127 54.3266 52.595C51.4848 52.6706 51.3558 48.4212 53.815 48.0687Z" fill="#E71320"/>
<path d="M49.1435 52.8503C52.2033 52.4733 52.6493 57.2587 49.5316 57.3532C46.5753 57.4422 46.5097 53.175 49.1435 52.8503Z" fill="#E71320"/>
<path d="M20.4453 62.4185C23.2893 62.2351 23.713 66.7335 20.859 66.9482C17.589 67.194 17.7103 62.5954 20.4453 62.4185Z" fill="#E71320"/>
<path d="M44.1349 43.2875C47.3693 42.6492 47.8042 47.5747 44.8612 47.7905C41.9426 48.0051 41.6101 43.7846 44.1349 43.2875Z" fill="#E71320"/>
<path d="M22.1014 48.6405C24.0868 50.4055 21.7533 53.7095 19.3708 52.2049C16.7726 50.5656 19.6444 46.4552 22.1014 48.6405Z" fill="#E71320"/>
<path d="M24.8933 43.2876C28.0075 42.7016 28.5236 47.1333 26.0645 47.6827C22.7122 48.4323 22.2806 43.7792 24.8933 43.2876Z" fill="#E71320"/>
<path d="M39.3523 43.2876C42.9638 42.6203 42.9182 48.4667 39.3412 47.696C36.9176 47.1733 37.2279 43.6801 39.3523 43.2876Z" fill="#E71320"/>
<path d="M51.02 47.1117C49.0246 49.1213 45.7846 46.1909 47.8301 43.9778C49.8755 41.7647 53.1644 44.9509 51.02 47.1117Z" fill="#E71320"/>
<path d="M46.3396 51.7775C44.7535 53.8649 41.1787 51.5506 42.7826 49.0528C44.3831 46.5605 48.3427 49.1418 46.3396 51.7775Z" fill="#E71320"/>
<path d="M25.1224 52.8513C28.1244 52.5454 28.6238 57.223 25.5073 57.3542C22.5365 57.4788 22.4597 53.1226 25.1224 52.8513Z" fill="#E71320"/>
<path d="M63.7175 57.6307C66.1422 57.4483 67.1588 61.0438 64.803 61.949C61.3717 63.268 60.4497 57.8765 63.7175 57.6307Z" fill="#E71320"/>
<path d="M15.2179 62.5276C18.6547 61.8103 19.0729 67.1217 15.6361 66.9571C13.0379 66.8326 12.9522 63.0003 15.2179 62.5276Z" fill="#E71320"/>
<path d="M58.5953 43.2889C62.4358 42.6505 61.9954 48.935 58.1526 47.5694C56.2217 46.8832 56.5521 43.6292 58.5953 43.2889Z" fill="#E71320"/>
<path d="M19.0687 37.5479C17.1011 35.7463 19.5014 32.5378 21.8037 33.9791C24.5187 35.6784 21.4878 39.7621 19.0687 37.5479Z" fill="#E71320"/>
<path d="M34.4597 43.288C37.5484 42.6596 38.1823 47.1248 35.7432 47.6853C32.3686 48.4615 31.936 43.8007 34.4597 43.288Z" fill="#E71320"/>
<path d="M34.6865 48.0709C37.8386 47.6962 38.1389 52.4293 35.1937 52.595C32.2818 52.7585 32.0583 48.3834 34.6865 48.0709Z" fill="#E71320"/>
<path d="M33.4185 53.5351C35.5318 51.2875 38.7695 54.8162 36.6073 56.7791C34.5697 58.6274 31.3531 55.7326 33.4185 53.5351Z" fill="#E71320"/>
<path d="M39.4674 52.8504C42.3726 52.4678 43.0155 56.735 40.5251 57.2466C36.9771 57.9761 36.798 53.2018 39.4674 52.8504Z" fill="#E71320"/>
<path d="M58.484 62.5268C61.486 61.9029 62.3224 66.0333 59.8743 66.8084C56.5654 67.8549 55.8391 63.0773 58.484 62.5268Z" fill="#E71320"/>
<path d="M58.4839 38.5056C61.4491 37.8862 62.3578 42.001 59.8742 42.7873C56.5719 43.8327 55.8312 39.0595 58.4839 38.5056Z" fill="#E71320"/>
<path d="M39.8005 57.6384C42.1707 57.5483 42.9904 61.0626 40.7771 61.9479C37.3469 63.318 36.3292 57.7719 39.8005 57.6384Z" fill="#E71320"/>
<path d="M44.4766 33.6089C47.3807 33.3742 47.8078 38.2119 44.5544 38.1518C41.8339 38.1029 41.6548 33.8368 44.4766 33.6089Z" fill="#E71320"/>
<path d="M39.8005 33.6169C42.1707 33.5269 42.9904 37.0411 40.7771 37.9264C37.3469 39.2965 36.3292 33.7504 39.8005 33.6169Z" fill="#E71320"/>
<path d="M58.7089 52.8505C61.5774 52.4757 62.2803 56.7295 59.7667 57.2467C56.1975 57.9818 56.0573 53.1964 58.7089 52.8505Z" fill="#E71320"/>
<path d="M39.3526 38.5063C42.6949 37.9102 43.0608 43.0337 39.7719 42.9358C37.0424 42.8546 36.9534 38.9344 39.3526 38.5063Z" fill="#E71320"/>
<path d="M29.6756 43.2873C32.7487 42.6801 33.415 47.1274 30.8468 47.6824C27.5268 48.3997 27.1386 43.7889 29.6756 43.2873Z" fill="#E71320"/>
<path d="M34.4596 38.5053C37.8653 37.788 38.318 43.085 34.8778 42.9349C32.2885 42.8225 32.1784 38.9857 34.4596 38.5053Z" fill="#E71320"/>
<path d="M49.3718 57.6341C52.3126 57.5129 52.5206 62.2594 49.3351 62.1771C46.5178 62.1037 46.5856 57.7487 49.3718 57.6341Z" fill="#E71320"/>
<path d="M49.3727 33.6118C52.3324 33.5161 52.5037 38.2382 49.3349 38.1559C46.4831 38.0814 46.6143 33.7019 49.3727 33.6118Z" fill="#E71320"/>
<path d="M39.2426 62.5279C42.6572 61.8139 43.1099 67.0453 39.7743 66.9586C37.0482 66.8874 37.007 62.995 39.2426 62.5279Z" fill="#E71320"/>
<path d="M53.7016 62.5275C57.1796 61.848 57.4721 67.1038 54.1198 66.957C51.476 66.8413 51.4404 62.969 53.7016 62.5275Z" fill="#E71320"/>
<path d="M53.8128 43.2891C56.847 42.7998 57.4231 47.1748 54.8716 47.683C51.5838 48.3392 51.1312 43.7217 53.8128 43.2891Z" fill="#E71320"/>
<path d="M48.9191 38.5057C52.0434 37.8951 52.644 42.4259 49.9768 42.8985C46.7925 43.4624 46.3198 39.0128 48.9191 38.5057Z" fill="#E71320"/>
<path d="M44.3635 52.8501C47.4711 52.5165 47.7658 57.461 44.5525 57.3609C41.7575 57.2741 41.7463 53.1315 44.3635 52.8501Z" fill="#E71320"/>
<path d="M34.4596 62.5278C37.8564 61.8172 38.2779 67.003 34.989 66.9596C32.2907 66.924 32.145 63.0127 34.4596 62.5278Z" fill="#E71320"/>
<path d="M44.4767 57.6304C47.393 57.3946 47.809 62.2323 44.5545 62.1623C41.794 62.1033 41.6983 57.8551 44.4767 57.6304Z" fill="#E71320"/>
<path d="M20.3394 52.8506C23.4415 52.5581 23.7173 57.4225 20.5285 57.358C17.7446 57.3012 17.7068 53.0986 20.3394 52.8506Z" fill="#E71320"/>
<path d="M20.4542 57.6334C23.4628 57.4421 23.6908 62.3354 20.4219 62.1697C17.797 62.0363 17.6769 57.8091 20.4542 57.6334Z" fill="#E71320"/>
<path d="M25.3483 33.6109C28.2179 33.513 28.5027 38.2095 25.3128 38.1527C22.5043 38.1027 22.5032 33.7076 25.3483 33.6109Z" fill="#E71320"/>
<path d="M57.5524 61.5703C55.5993 59.7898 57.9617 56.5724 60.2874 58.0015C63.0257 59.6841 59.9337 63.7411 57.5524 61.5703Z" fill="#E71320"/>
<path d="M30.1307 33.6119C33.0592 33.4607 33.3228 38.2505 30.0939 38.1527C27.31 38.0681 27.3734 33.7543 30.1307 33.6119Z" fill="#E71320"/>
<path d="M29.9018 52.8506C32.738 52.4914 33.4054 56.7485 30.8472 57.2457C27.3314 57.9296 27.1868 53.1942 29.9018 52.8506Z" fill="#E71320"/>
<path d="M44.1351 38.5051C47.7532 37.8123 47.741 43.692 44.0528 42.8713C41.8016 42.3697 41.9673 38.92 44.1351 38.5051Z" fill="#E71320"/>
<path d="M48.9191 62.5267C52.0567 61.9139 52.6907 66.528 49.8667 66.9195C46.7424 67.3532 46.3787 63.0227 48.9191 62.5267Z" fill="#E71320"/>
<path d="M57.5524 37.5488C55.5993 35.7683 57.9617 32.551 60.2874 33.98C63.0124 35.6549 59.9415 39.7263 57.5524 37.5488Z" fill="#E71320"/>
<path d="M55.8024 39.0763C57.8344 40.958 55.2129 44.1564 52.8983 42.4805C50.5081 40.7511 53.4377 36.8865 55.8024 39.0763Z" fill="#E71320"/>
<path d="M53.9263 52.8499C56.8003 52.4707 57.4276 56.7479 54.8717 57.245C51.3559 57.929 51.2691 53.2003 53.9263 52.8499Z" fill="#E71320"/>
<path d="M25.348 57.6324C28.2766 57.5334 28.4746 62.3588 25.2023 62.1731C22.5062 62.0196 22.5396 57.728 25.348 57.6324Z" fill="#E71320"/>
<path d="M44.1351 62.5267C47.4919 61.8839 47.8445 67.0919 44.5533 66.9573C41.8339 66.8461 41.7772 62.9793 44.1351 62.5267Z" fill="#E71320"/>
<path d="M54.2674 57.6352C57.2059 57.5851 57.2248 62.3127 54.1228 62.1704C51.311 62.0414 51.4278 57.683 54.2674 57.6352Z" fill="#E71320"/>
<path d="M36.5617 37.5486C34.2349 39.5871 31.2685 35.9972 33.6554 34.1422C35.9822 32.3339 38.6316 35.7347 36.5617 37.5486Z" fill="#E71320"/>
<path d="M54.2674 33.6137C57.1826 33.5636 57.2393 38.2923 54.1228 38.1489C51.311 38.0199 51.4278 33.6615 54.2674 33.6137Z" fill="#E71320"/>
<path d="M36.5618 61.5705C34.2338 63.6068 31.2608 59.9924 33.6555 58.1641C36.0412 56.3425 38.5905 59.7956 36.5618 61.5705Z" fill="#E71320"/>
<path d="M30.1297 57.6338C33.0127 57.497 33.3397 62.1457 30.2009 62.169C27.3224 62.1901 27.3358 57.7662 30.1297 57.6338Z" fill="#E71320"/>
<path d="M24.8933 62.5269C28.0677 61.9186 28.5437 66.5272 25.841 66.9209C22.7156 67.3746 22.3252 63.0196 24.8933 62.5269Z" fill="#E71320"/>
<path d="M24.8933 38.5064C28.0677 37.8981 28.5437 42.5067 25.841 42.9004C22.7156 43.3541 22.3252 38.9991 24.8933 38.5064Z" fill="#E71320"/>
<path d="M29.6768 38.506C33.0202 37.8531 33.4573 42.9544 30.2073 42.9377C27.4545 42.9233 27.3488 38.9608 29.6768 38.506Z" fill="#E71320"/>
<path d="M29.6771 62.5268C32.8081 61.9162 33.4821 66.4837 30.6248 66.9207C27.5416 67.3923 27.1746 63.015 29.6771 62.5268Z" fill="#E71320"/>
<path d="M63.6048 52.8467C66.3554 52.552 67.1162 56.7836 64.4368 57.2462C60.9621 57.8457 60.9332 53.1325 63.6048 52.8467Z" fill="#E71320"/>
<path d="M63.4906 43.2876C66.4336 42.8516 67.052 47.1911 64.4383 47.6815C61.2205 48.2854 60.8179 43.6835 63.4906 43.2876Z" fill="#E71320"/>
<path d="M63.6073 48.0666C66.9184 47.7352 66.9396 53.0833 63.3782 52.4639C60.9635 52.0435 61.2894 48.299 63.6073 48.0666Z" fill="#E71320"/>
<path d="M63.3773 38.506C66.1523 37.9811 67.1623 41.9158 64.7398 42.7587C61.4787 43.8942 60.6334 39.0243 63.3773 38.506Z" fill="#E71320"/>
<path d="M65.3691 37.5485C62.9622 39.5426 60.1938 35.8437 62.574 34.1421C64.9653 32.4328 67.4345 35.8359 65.3691 37.5485Z" fill="#E71320"/>
<path d="M63.49 62.5276C66.3963 62.0883 66.9424 66.2454 64.6378 66.7903C61.1087 67.6244 60.8662 62.9246 63.49 62.5276Z" fill="#E71320"/>
<path d="M15.3292 57.7451C18.3045 57.1958 18.8873 61.4496 16.4771 62.0056C13.1715 62.7686 12.6754 58.2345 15.3292 57.7451Z" fill="#E71320"/>
<path d="M15.5547 52.959C18.0094 52.6588 18.9549 56.5133 16.3845 57.1306C13.2312 57.889 12.7763 53.2982 15.5547 52.959Z" fill="#E71320"/>
<path d="M15.4412 48.1813C18.1039 47.7854 18.8858 51.7089 16.3833 52.3495C13.378 53.118 12.7151 48.5872 15.4412 48.1813Z" fill="#E71320"/>
<path d="M17.4214 46.8833C15.9188 48.8751 12.4063 46.5808 14.1358 44.2075C15.7219 42.0311 19.2511 44.4566 17.4214 46.8833Z" fill="#E71320"/>
<path d="M15.328 38.6167C18.2132 38.0762 18.8472 42.3289 16.2757 42.7882C13.3115 43.3176 12.8444 39.0816 15.328 38.6167Z" fill="#E71320"/>
<path d="M15.3277 33.8347C18.4031 33.2542 18.8012 37.865 15.9517 38.0251C13.2845 38.1753 12.9575 34.2818 15.3277 33.8347Z" fill="#E71320"/>
<path d="M20.2255 80.8761C24.1795 80.4368 24.9603 86.5578 20.9618 86.9526C16.7842 87.3663 16.5517 81.2842 20.2255 80.8761Z" fill="#E81821"/>
<path d="M49.2593 76.87C52.3969 76.6187 52.4614 81.3407 49.554 81.4075C46.6466 81.4742 46.4809 77.0925 49.2593 76.87Z" fill="#ECAC05"/>
<path d="M49.1484 72.0895C52.8154 71.6936 52.2282 77.5744 48.7291 76.4534C46.43 75.7161 46.9439 72.3275 49.1484 72.0895Z" fill="#ECAC05"/>
<path d="M22.1016 72.6619C24.1215 74.4569 21.7157 77.7109 19.3711 76.2263C16.7784 74.5859 19.6491 70.4822 22.1016 72.6619Z" fill="#ECAC05"/>
<path d="M25.2335 76.8724C28.1654 76.6177 28.4557 81.2763 25.5305 81.4109C22.6209 81.5444 22.3294 77.1248 25.2335 76.8724Z" fill="#ECAC05"/>
<path d="M17.4315 80.6988C15.5429 82.6373 12.3185 80.1383 14.0247 77.7929C15.9044 75.2095 19.5659 78.5069 17.4315 80.6988Z" fill="#ECAC05"/>
<path d="M29.9059 72.09C33.0669 71.7464 33.3227 76.4973 30.3085 76.6108C27.4623 76.7175 27.2565 72.3781 29.9059 72.09Z" fill="#ECAC05"/>
<path d="M44.6834 81.6738C47.4919 81.6661 47.6453 86.1946 44.6656 86.1946C41.726 86.1946 41.6681 81.6816 44.6834 81.6738Z" fill="#ECAC05"/>
<path d="M44.3632 72.092C46.7946 71.8118 47.8023 75.107 45.7613 76.2736C42.5747 78.0941 40.9052 72.4902 44.3632 72.092Z" fill="#ECAC05"/>
<path d="M12.426 90.4855C9.95343 92.4151 7.25846 88.5749 9.69539 86.9212C12.1868 85.2308 14.5748 88.8085 12.426 90.4855Z" fill="#ECAC05"/>
<path d="M51.0201 71.1326C49.0747 73.0933 45.7736 70.2519 47.8313 67.9998C49.8889 65.7478 53.1645 68.9729 51.0201 71.1326Z" fill="#ECAC05"/>
<path d="M44.2475 67.3102C47.6543 66.7641 47.7533 72.3358 44.1173 71.723C41.8083 71.3338 41.8862 67.6894 44.2475 67.3102Z" fill="#ECAC05"/>
<path d="M39.3525 67.3096C42.8383 66.6668 43.0151 72.3442 39.3347 71.7236C37.0068 71.331 37.1603 67.7144 39.3525 67.3096Z" fill="#ECAC05"/>
<path d="M58.5952 67.3103C62.1021 66.6997 62.2323 72.2992 58.5952 71.7031C56.2284 71.3161 56.3919 67.6929 58.5952 67.3103Z" fill="#ECAC05"/>
<path d="M20.111 67.3091C23.5589 66.6251 23.8069 72.3225 20.0932 71.7219C17.8042 71.3516 17.8809 67.7506 20.111 67.3091Z" fill="#ECAC05"/>
<path d="M20.339 91.3316C23.3454 91.0114 23.5979 95.2674 21.1709 95.7245C17.8398 96.3517 17.4583 91.6375 20.339 91.3316Z" fill="#ECAC05"/>
<path d="M25.1234 72.0902C28.7738 71.6943 28.1342 77.6719 24.624 76.423C22.414 75.6367 22.9123 72.3293 25.1234 72.0902Z" fill="#ECAC05"/>
<path d="M15.3293 86.5493C18.5659 86.0066 18.9541 90.7187 16.0656 90.9589C13.1771 91.1991 12.7945 86.9753 15.3293 86.5493Z" fill="#ECAC05"/>
<path d="M34.6866 72.0911C37.8565 71.6907 38.0823 76.4917 35.196 76.6152C32.3097 76.7386 32.1117 72.4169 34.6866 72.0911Z" fill="#ECAC05"/>
<path d="M39.5817 72.0896C41.9575 71.8483 43.0887 75.1691 40.8875 76.2934C37.6031 77.9705 36.2517 72.4288 39.5817 72.0896Z" fill="#ECAC05"/>
<path d="M24.8934 67.3092C27.8954 66.732 28.5894 71.1037 26.0413 71.682C22.6879 72.4427 22.3331 67.8019 24.8934 67.3092Z" fill="#ECAC05"/>
<path d="M29.6762 67.3088C32.7772 66.696 33.3722 71.1445 30.8474 71.7039C27.6119 72.4201 27.1192 67.8137 29.6762 67.3088Z" fill="#ECAC05"/>
<path d="M53.8141 67.3095C56.8317 66.8069 57.3944 71.1986 54.873 71.7035C51.5952 72.3596 51.1403 67.7544 53.8141 67.3095Z" fill="#ECAC05"/>
<path d="M39.9011 81.6738C42.6929 81.6683 42.8441 86.2468 39.771 86.1846C36.9615 86.1278 36.8614 81.6794 39.9011 81.6738Z" fill="#ECAC05"/>
<path d="M39.4672 76.8719C42.309 76.4716 43.0675 80.7821 40.4126 81.267C36.948 81.8998 36.8734 77.2367 39.4672 76.8719Z" fill="#ECAC05"/>
<path d="M34.5721 67.3101C37.9734 66.7496 38.2114 72.1923 34.6667 71.7196C32.1674 71.386 32.3287 67.6793 34.5721 67.3101Z" fill="#ECAC05"/>
<path d="M31.7783 87.1184C33.787 89.0557 31.1543 92.1729 28.8742 90.5226C26.4529 88.7699 29.4993 84.9198 31.7783 87.1184Z" fill="#ECAC05"/>
<path d="M35.0058 81.6714C37.9155 81.6147 38.0467 86.2333 34.988 86.1833C32.1073 86.1365 32.154 81.727 35.0058 81.6714Z" fill="#ECAC05"/>
<path d="M30.0162 76.8719C32.9981 76.6105 33.3407 81.2947 30.302 81.3615C27.2945 81.4271 27.3824 77.1032 30.0162 76.8719Z" fill="#ECAC05"/>
<path d="M44.3633 76.8701C47.1939 76.5654 47.769 80.8059 45.1952 81.2674C41.7584 81.8835 41.5893 77.1693 44.3633 76.8701Z" fill="#ECAC05"/>
<path d="M24.8932 86.5483C28.0397 85.9556 28.617 90.5964 25.7285 90.9401C22.6809 91.3026 22.3784 87.0221 24.8932 86.5483Z" fill="#ECAC05"/>
<path d="M38.3106 87.1175C40.4472 85.0545 43.4903 88.382 41.3882 90.3615C39.2293 92.3956 36.1851 89.1704 38.3106 87.1175Z" fill="#ECAC05"/>
<path d="M34.6854 76.8696C37.5972 76.5237 38.1645 80.7709 35.6285 81.2669C32.1706 81.9431 32.056 77.1821 34.6854 76.8696Z" fill="#ECAC05"/>
<path d="M29.6771 81.7671C32.5055 81.1965 33.5154 85.0678 31.1041 85.9731C27.8608 87.1908 26.842 82.3387 29.6771 81.7671Z" fill="#ECAC05"/>
<path d="M12.5354 95.1538C10.4144 97.1757 7.36795 93.9917 9.47676 91.9287C11.5856 89.8657 14.6654 93.122 12.5354 95.1538Z" fill="#ECAC05"/>
<path d="M5.87749 91.33C8.80047 90.9731 9.28986 95.3982 6.50591 95.7418C3.48283 96.1144 3.14471 91.6637 5.87749 91.33Z" fill="#ECAC05"/>
<path d="M15.5573 67.308C18.507 67.0088 18.8752 71.583 15.9633 71.732C13.0492 71.881 12.8446 67.5838 15.5573 67.308Z" fill="#ECAC05"/>
<path d="M30.1119 91.3483C33.1984 91.2215 33.1306 95.7267 30.2065 95.7612C27.4459 95.7934 27.3391 91.4618 30.1119 91.3483Z" fill="#ECAC05"/>
<path d="M34.6831 86.5483C37.8086 86.1146 38.1178 90.8956 35.0824 90.959C32.3419 91.0168 32.1339 86.902 34.6831 86.5483Z" fill="#ECAC05"/>
<path d="M63.1524 67.417C66.3957 66.6341 67.1187 71.2104 64.3036 71.6809C61.2727 72.188 61.0258 67.9308 63.1524 67.417Z" fill="#ECAC05"/>
<path d="M9.3919 82.4469C11.3561 80.2983 14.6017 83.3811 12.5751 85.463C10.6654 87.4259 7.40321 84.6211 9.3919 82.4469Z" fill="#ECAC05"/>
<path d="M15.4414 72.2026C18.2621 71.8078 18.7893 75.8937 16.389 76.3753C13.1324 77.0281 12.871 72.5618 15.4414 72.2026Z" fill="#ECAC05"/>
<path d="M17.2089 95.1549C14.9454 97.0988 12.2393 93.5434 14.5272 91.863C16.8151 90.1826 19.1764 93.4645 17.2089 95.1549Z" fill="#ECAC05"/>
<path d="M53.8128 72.2006C56.827 71.6779 57.3753 76.2698 54.4045 76.4589C51.6406 76.6357 51.496 72.6021 53.8128 72.2006Z" fill="#ECAC05"/>
<path d="M43.2063 90.2605C41.4511 88.5812 43.5166 85.6208 45.7789 86.9653C48.3204 88.4756 45.4385 92.3969 43.2063 90.2605Z" fill="#ECAC05"/>
<path d="M25.1191 91.4402C27.9442 91.0743 28.2746 95.3393 25.7476 95.6329C22.8513 95.9687 22.5721 91.7705 25.1191 91.4402Z" fill="#ECAC05"/>
<path d="M49.1435 81.8768C52.2345 81.4642 52.3134 86.4642 49.0112 85.9571C46.8356 85.6235 46.9268 82.1726 49.1435 81.8768Z" fill="#ECAC05"/>
<path d="M58.5946 72.3134C61.1906 71.7941 62.057 75.4129 59.847 76.2336C56.9385 77.3135 56.0086 72.8306 58.5946 72.3134Z" fill="#ECAC05"/>
<path d="M4.72289 87.343C6.62261 85.3735 9.63568 88.4106 7.57803 90.2534C5.66608 91.9649 2.8888 89.2458 4.72289 87.343Z" fill="#ECAC05"/>
<path d="M54.0387 77.2034C56.6736 76.9009 56.8393 81.019 54.3379 81.0758C51.9366 81.1303 51.7475 77.4658 54.0387 77.2034Z" fill="#ECAC05"/>
<path d="M10.6589 77.427C12.9846 77.0678 13.4951 80.452 11.3841 80.8234C8.9249 81.256 8.57121 77.7496 10.6589 77.427Z" fill="#ECAC05"/>
<path d="M5.87729 96.6647C8.02281 96.3244 8.5489 99.554 6.60025 99.951C4.17111 100.446 3.87414 96.9828 5.87729 96.6647Z" fill="#ECAC05"/>
<path d="M39.4649 91.997C41.6349 91.57 42.0476 94.6939 40.3013 95.0576C38.0101 95.5347 37.6008 92.364 39.4649 91.997Z" fill="#ECAC05"/>
<path d="M44.2452 91.9958C46.4642 91.531 46.918 94.7628 44.9704 95.0586C42.7081 95.4022 42.5435 92.3528 44.2452 91.9958Z" fill="#ECAC05"/>
<path d="M34.6834 91.9965C36.7566 91.615 37.2871 94.5977 35.4986 95.037C33.2664 95.5842 32.7937 92.3446 34.6834 91.9965Z" fill="#ECAC05"/>
<path d="M65.0355 75.3605C63.4739 77.1444 60.9836 74.1339 63.1302 72.955C64.654 72.1176 66.1889 74.0438 65.0355 75.3605Z" fill="#ECAC05"/>
<path d="M20.448 77.6452C22.2498 77.445 22.7292 80.4811 20.6371 80.52C18.7718 80.5545 18.793 77.8287 20.448 77.6452Z" fill="#ECAC05"/>
<path d="M20.2229 97.002C22.8911 96.4693 22.315 100.769 19.9281 99.5788C18.7825 99.0082 19.0439 97.2367 20.2229 97.002Z" fill="#ECAC05"/>
<path d="M20.3354 87.326C22.2229 87.0023 22.571 89.6736 21.0584 90.0517C18.9852 90.5689 18.5169 87.6385 20.3354 87.326Z" fill="#ECAC05"/>
<path d="M2.41471 94.4873C1.34028 95.6762 -0.514946 94.434 0.134605 92.9293C0.889819 91.1777 3.91401 92.8281 2.41471 94.4873Z" fill="#ECAC05"/>
<path d="M5.76611 82.6583C7.53236 82.2291 8.23085 84.6401 6.74711 85.1951C4.80958 85.9201 4.14001 83.0531 5.76611 82.6583Z" fill="#ECAC05"/>
<path d="M16.7651 84.9257C15.2647 86.3092 13.4251 83.6635 15.1412 82.8016C16.6761 82.0298 17.903 83.8781 16.7651 84.9257Z" fill="#ECAC05"/>
<path d="M26.4414 83.0019C27.6281 84.1874 25.8308 86.0335 24.5995 85.0104C23.1781 83.8293 25.1045 81.6673 26.4414 83.0019Z" fill="#ECAC05"/>
<path d="M10.6566 97.1105C12.4596 96.7068 12.8989 99.3292 11.2717 99.6194C9.55327 99.9253 9.12506 97.4541 10.6566 97.1105Z" fill="#ECAC05"/>
<path d="M1.09436 97.1102C2.95515 96.8033 3.16202 99.5024 1.49922 99.6414C-0.0356805 99.7693 -0.404946 97.3582 1.09436 97.1102Z" fill="#ECAC05"/>
<path d="M29.4068 97.6753C30.0886 96.8568 31.7025 97.5519 31.1375 98.7963C30.5024 100.196 28.4781 98.7908 29.4068 97.6753Z" fill="#ECAC05"/>
</g>
<defs>
<linearGradient id="paint0_linear_387_2694" x1="186.454" y1="34.1557" x2="188.003" y2="88.4422" gradientUnits="userSpaceOnUse">
<stop stop-color="#FCC81E"/>
<stop offset="0.654283" stop-color="#EE6028"/>
</linearGradient>
<clipPath id="clip0_387_2694">
<rect width="291" height="100" fill="white"/>
</clipPath>
</defs>
</svg>
