<svg width="354" height="100" viewBox="0 0 354 100" fill="none" xmlns="http://www.w3.org/2000/svg">
<path d="M142.65 61.461L147.525 60.6219C148.259 54.4897 148.537 48.3104 148.355 42.1361V28.3316C148.537 22.1573 148.259 15.9781 147.525 9.84582L142.65 9.00674V6.84277C145.266 6.96227 147.404 7.0818 149.544 7.0818C150.969 7.0818 152.631 6.96227 154.419 6.84277C159.531 16.5662 173.199 36.6133 185.207 54.2574H185.325C185.207 39.4916 184.968 18.3665 184.019 9.83543L179.144 8.99635V6.84277C181.76 6.96227 184.374 7.0818 186.99 7.0818C189.843 7.0818 192.696 6.96227 195.549 6.84277V9.00412L190.674 9.8432C189.939 15.9754 189.661 22.1547 189.843 28.329V34.4519C189.843 41.8946 190.08 55.099 190.319 64.2224C189.452 64.0886 188.579 64.0088 187.703 63.9834C186.787 64.0034 185.873 64.0833 184.968 64.2224C174.163 48.0175 161.908 29.6512 153.11 15.7272H152.755C152.873 30.8514 153.112 51.9791 154.061 60.5024L158.936 61.3415V63.5029C156.32 63.3834 153.706 63.2639 151.09 63.2639C148.237 63.2639 145.384 63.3834 142.531 63.5029V61.461H142.65Z" fill="#4F7033"/>
<path d="M220.99 18.2466C232.52 18.2466 241.555 26.7699 241.555 40.933C241.555 54.7375 232.759 64.461 219.801 64.461C208.865 64.461 198.76 57.1379 198.76 40.5615C198.726 37.6102 199.279 34.6821 200.385 31.9505C201.492 29.2188 203.13 26.7392 205.203 24.6584C207.276 22.5776 209.741 20.938 212.453 19.8367C215.164 18.7353 218.067 18.1946 220.99 18.2466ZM220.753 61.1099C233.358 61.1099 234.781 48.3808 234.781 41.9045C234.781 32.4227 230.621 21.8575 219.209 21.8575C212.778 21.8575 205.421 26.7803 205.421 39.9822C205.418 50.1758 208.868 61.1099 220.753 61.1099Z" fill="#4F7033"/>
<path d="M250.708 60.6191C251.065 55.9431 251.184 51.1372 251.184 46.3313V19.3145C251.184 14.6385 251.065 9.83256 250.708 5.14878L245.359 4.3097V2.14835C248.985 1.77242 252.567 1.05315 256.059 0H257.723C257.723 6.96204 257.365 13.9241 257.365 20.7666V25.2088C262.359 19.6859 266.627 18.2468 271.036 18.2468C276.029 18.2468 288.035 21.2472 288.035 39.8525C288.035 54.0181 278.882 64.5807 266.045 64.5807C264.262 64.5807 261.885 64.2196 259.387 63.9806C257.01 63.7416 254.633 63.3805 252.73 63.3805C251.339 63.3617 249.949 63.4416 248.57 63.6195L250.708 60.6191ZM267.707 23.5281C263.076 23.5281 257.365 26.5285 257.365 36.013C257.365 41.6553 257.602 51.2567 257.841 58.3408C261.049 60.0077 264.578 60.95 268.183 61.1023C276.978 61.1023 281.259 51.6204 281.259 41.6553C281.375 32.0488 277.812 23.5281 267.707 23.5281Z" fill="#4F7033"/>
<path d="M292.543 61.4585L297.174 60.6194C297.531 56.0577 297.649 49.3346 297.649 44.6534V29.8877C297.649 21.606 297.292 13.4438 297.174 5.27897L291.825 4.43989V2.27854C295.451 1.89837 299.033 1.17473 302.524 0.117188H304.189C304.189 7.07922 303.831 14.0413 303.831 20.8838V44.6509C303.831 51.3739 304.189 56.8942 304.307 60.6168L308.938 61.4558V63.6172C306.203 63.4977 303.35 63.3782 300.616 63.3782C297.881 63.3782 295.028 63.4977 292.293 63.6172V61.4558L292.543 61.4585Z" fill="#4F7033"/>
<path d="M354 52.8183C350.434 58.3411 345.798 64.581 335.099 64.581C320.477 64.581 315.604 53.4105 315.604 43.3338C315.604 28.6901 325.234 18.2471 337.358 18.2471C349.482 18.2471 352.93 26.8899 352.93 35.1716C352.953 35.8139 352.914 36.4569 352.811 37.0913C347.7 36.9718 342.706 36.8523 337.595 36.8523C332.72 36.8523 327.729 36.8523 322.736 37.0913C322.469 38.5964 322.349 40.1243 322.378 41.653C322.378 53.6574 329.748 59.1776 337.474 59.1776C344.844 59.1776 348.536 55.216 351.857 51.0154L354 52.8183ZM346.025 33.2518C346.025 26.5288 343.884 21.8476 336.277 21.8476C327.837 21.8476 324.747 28.5706 323.44 33.7324L346.025 33.2518Z" fill="#4F7033"/>
<path d="M143.005 98.9066L144.669 98.6676C144.915 96.5992 144.994 94.5142 144.906 92.4329V87.7569C144.931 85.676 144.852 83.5951 144.669 81.5223L143.005 81.2833V80.5637C144.075 80.5637 145.027 80.6832 146.092 80.6832C147.005 80.6895 147.917 80.6496 148.826 80.5637C149.897 80.5637 151.085 80.4442 152.274 80.4442C153.369 80.3191 154.479 80.4137 155.538 80.7226C156.598 81.0316 157.587 81.5487 158.448 82.2445C159.446 83.0848 160.227 84.1575 160.724 85.3702C161.221 86.583 161.419 87.8995 161.301 89.2065C161.378 90.5578 161.18 91.9108 160.718 93.1814C160.256 94.452 159.54 95.6131 158.615 96.5925C157.69 97.5719 156.575 98.3487 155.34 98.8746C154.104 99.4005 152.775 99.6643 151.435 99.6495C150.561 99.6575 149.688 99.6176 148.819 99.53C147.749 99.53 146.678 99.4106 146.084 99.4106C145.054 99.3906 144.023 99.4304 142.997 99.53V98.93L143.005 98.9066ZM147.165 92.4122C147.165 94.0929 147.283 95.7737 147.401 97.8129C148.729 98.13 150.081 98.3308 151.443 98.413C157.506 98.413 158.695 92.8902 158.695 89.2896C158.782 88.29 158.652 87.2831 158.313 86.3399C157.973 85.3966 157.433 84.54 156.731 83.8304C156.028 83.1208 155.18 82.5754 154.246 82.2327C153.311 81.89 152.314 81.7584 151.324 81.847C150.002 81.8361 148.683 81.9976 147.401 82.3276C147.283 84.1278 147.165 85.9281 147.165 87.7283V92.4122Z" fill="#66B361"/>
<path d="M163.327 98.9068L164.871 98.6679C164.989 97.1092 164.989 94.8258 164.989 93.2671V90.6251C165.036 89.1433 164.996 87.6601 164.871 86.1829L163.088 85.944V85.1048C164.297 84.9825 165.491 84.7415 166.653 84.3853H167.248L166.89 88.7054C167.603 87.1467 169.149 84.2632 171.289 84.2632C171.865 84.2414 172.437 84.3655 172.954 84.6243C172.407 85.7126 171.931 86.8355 171.528 87.9858L170.934 87.7468V86.4271C170.697 86.3076 170.577 86.1881 170.34 86.1881C169.746 86.1881 168.439 86.9077 167.605 88.9496C167.149 90.2999 166.947 91.7247 167.011 93.1502C167.011 95.431 167.129 97.2313 167.129 98.551C167.795 98.6897 168.472 98.7697 169.151 98.7899V99.5095C167.726 99.5095 166.774 99.39 165.941 99.39C165.028 99.3672 164.114 99.4072 163.206 99.5095V98.9095L163.327 98.9068Z" fill="#66B361"/>
<path d="M186.987 96.0255C186.403 97.2099 185.504 98.2073 184.392 98.9067C183.28 99.6062 181.997 99.9802 180.687 99.9871C179.778 100.023 178.871 99.8601 178.03 99.51C177.189 99.16 176.432 98.6309 175.812 97.9587C175.191 97.2866 174.721 96.4872 174.435 95.6152C174.148 94.7432 174.051 93.8189 174.15 92.9055C174.058 91.8684 174.174 90.8233 174.493 89.8328C174.811 88.8424 175.324 87.9272 176.001 87.1422C176.679 86.3572 177.507 85.7186 178.435 85.2648C179.363 84.8111 180.372 84.5515 181.402 84.5017C182.133 84.4515 182.866 84.5662 183.547 84.8374C184.229 85.1085 184.842 85.5294 185.343 86.0696C185.844 86.6097 186.219 87.2555 186.442 87.9602C186.665 88.6649 186.73 89.4109 186.632 90.1441V90.8637C184.967 90.8637 183.185 90.7442 181.52 90.7442C179.856 90.7442 178.191 90.7442 176.527 90.8637C176.419 91.3756 176.379 91.8998 176.409 92.4223C176.312 93.157 176.372 93.9042 176.584 94.6136C176.797 95.323 177.158 95.9782 177.642 96.5353C178.126 97.0924 178.722 97.5384 179.391 97.8434C180.06 98.1484 180.786 98.3054 181.52 98.3037C182.496 98.2896 183.453 98.0296 184.305 97.5474C185.156 97.0652 185.875 96.376 186.395 95.5423L186.987 96.0255ZM184.252 89.4245C184.252 87.1437 183.54 85.5824 180.923 85.5824C178.07 85.5824 177.119 87.8632 176.645 89.544L184.252 89.4245Z" fill="#66B361"/>
<path d="M202.676 99.6265C201.964 99.6265 201.369 99.507 200.775 99.507C200.297 99.4872 199.818 99.5273 199.35 99.6265C199.001 98.4598 198.841 97.2442 198.874 96.026C198.479 97.1521 197.758 98.1321 196.804 98.8386C195.85 99.5452 194.708 99.9455 193.526 99.9876C192.976 100.031 192.424 99.9625 191.902 99.7851C191.38 99.6077 190.899 99.3255 190.488 98.9554C190.076 98.5852 189.744 98.1349 189.509 97.6314C189.275 97.128 189.144 96.5819 189.124 96.026C189.124 92.4255 193.523 90.5031 197.565 90.5031H198.871V89.5419C198.871 87.2611 198.159 85.9414 195.543 85.9414C194.269 86.0467 193.023 86.3717 191.859 86.9026L191.977 88.4613L191.383 88.7002C191.097 87.6775 190.656 86.7056 190.076 85.8193C191.839 85.0419 193.74 84.6336 195.663 84.6191C198.28 84.6191 200.775 85.4582 200.775 89.0614C200.775 90.142 200.657 93.3814 200.657 94.7037C200.554 96.1415 200.798 97.5831 201.369 98.9043L202.44 99.1433V99.6239L202.676 99.6265ZM193.999 98.1847C196.258 98.1847 198.753 96.504 198.874 91.5838H197.804C195.663 91.5838 191.372 92.3034 191.372 95.7844C191.379 96.1192 191.454 96.4491 191.592 96.7538C191.73 97.0584 191.927 97.3315 192.173 97.5562C192.419 97.781 192.708 97.9526 193.022 98.0607C193.336 98.1688 193.668 98.211 193.999 98.1847Z" fill="#66B361"/>
<path d="M204.577 98.907L206.121 98.668C206.239 97.1093 206.239 94.8259 206.239 93.2672V90.6175C206.286 89.1357 206.247 87.6524 206.121 86.1753L204.341 85.9415V85.1024C205.55 84.9801 206.744 84.739 207.906 84.3828H208.501C208.402 85.3797 208.362 86.3816 208.382 87.3832C208.952 86.5497 209.693 85.8501 210.554 85.3322C211.416 84.8144 212.378 84.4906 213.376 84.3828C215.516 84.3828 216.463 85.7025 216.941 87.7443C217.459 86.8072 218.195 86.0114 219.086 85.4257C219.976 84.84 220.995 84.4821 222.053 84.3828C224.669 84.3828 226.094 86.3026 226.094 89.1835V94.2258C226.054 95.6708 226.134 97.1167 226.331 98.5485L227.874 98.7875V99.5071C227.162 99.5071 226.331 99.3876 225.616 99.3876C225.019 99.3676 224.422 99.4077 223.833 99.5071C223.951 97.1067 223.951 94.3453 223.951 91.945V90.6175C223.951 87.7366 223.12 86.0558 221.098 86.0558C218.603 86.0558 217.175 88.3366 217.175 91.8176V93.4984C217.175 95.4182 217.294 97.2184 217.294 98.5407L218.837 98.7797V99.4993C217.885 99.4993 216.936 99.3798 216.102 99.3798C215.189 99.357 214.276 99.3969 213.368 99.4993V98.7797L214.911 98.5407C215.03 96.9821 215.03 94.6986 215.03 93.1399V90.6201C215.03 87.7391 214.199 86.0584 212.177 86.0584C209.681 86.0584 208.254 88.3392 208.254 91.8203V93.501C208.254 95.4208 208.372 97.221 208.372 98.5433L209.916 98.7823V99.5019C208.964 99.5019 208.014 99.3824 207.181 99.3824C206.268 99.3596 205.354 99.3995 204.446 99.5019V98.9018L204.577 98.907Z" fill="#66B361"/>
<path d="M237.742 98.9071L239.286 98.6681C239.404 97.1094 239.404 94.826 239.404 93.2674V90.6254C239.451 89.1436 239.411 87.6603 239.286 86.1832L237.503 85.9442V85.1155C238.712 84.9932 239.906 84.7522 241.068 84.3959H241.663C241.663 85.7156 241.544 87.0378 241.544 90.5189V93.1608C241.544 95.4417 241.663 97.2419 241.663 98.5616L243.206 98.8006V99.5202C242.254 99.5202 241.305 99.4007 240.472 99.4007C239.558 99.3779 238.645 99.4178 237.737 99.5202L237.742 98.9071ZM240.477 78.6211C240.672 78.6274 240.864 78.6729 241.042 78.755C241.22 78.8371 241.38 78.954 241.513 79.0991C241.645 79.2441 241.748 79.4144 241.815 79.5999C241.882 79.7854 241.911 79.9825 241.902 80.1797C241.902 80.5618 241.752 80.9282 241.484 81.1983C241.217 81.4684 240.854 81.6202 240.476 81.6202C240.097 81.6202 239.734 81.4684 239.467 81.1983C239.199 80.9282 239.049 80.5618 239.049 80.1797C239.04 79.9823 239.069 79.785 239.136 79.5993C239.203 79.4136 239.306 79.2432 239.439 79.0981C239.572 78.9531 239.732 78.8361 239.911 78.7542C240.089 78.6723 240.281 78.6271 240.477 78.6211Z" fill="#66B361"/>
<path d="M253.322 97.7058C252.987 98.3755 252.478 98.9413 251.851 99.3428C251.223 99.7444 250.499 99.9669 249.756 99.9866C249.34 99.9725 248.93 99.8732 248.552 99.6948C248.175 99.5165 247.837 99.2627 247.559 98.9488C247.281 98.6349 247.069 98.2674 246.935 97.8685C246.802 97.4696 246.75 97.0475 246.782 96.6277C246.782 94.8274 246.901 93.2662 246.901 91.9517V86.0704C246.307 86.0704 245.831 86.1898 245.236 86.1898V85.3507L246.901 84.8702C246.901 83.67 246.782 82.5893 246.782 81.3892C247.588 81.2458 248.382 81.0453 249.159 80.7891C249.159 82.1087 249.041 83.5505 249.041 84.8702H251.776C252.058 84.8895 252.341 84.8487 252.607 84.7507L252.131 86.0704C251.578 86.002 251.023 85.9621 250.466 85.9508H249.041V94.113C249.041 97.5941 249.754 98.1941 250.824 98.1941C251.593 98.0557 252.3 97.6778 252.846 97.1135L253.322 97.7058Z" fill="#66B361"/>
<path d="M257.476 97.1064C257.758 97.1064 258.033 97.1909 258.268 97.349C258.502 97.5071 258.685 97.7319 258.793 97.9949C258.901 98.2578 258.929 98.5472 258.874 98.8264C258.819 99.1055 258.683 99.362 258.484 99.5633C258.284 99.7645 258.03 99.9016 257.754 99.9571C257.478 100.013 257.191 99.9841 256.931 99.8752C256.67 99.7663 256.448 99.5818 256.291 99.3452C256.134 99.1085 256.051 98.8303 256.051 98.5456C256.096 98.1797 256.26 97.8394 256.518 97.5786C256.777 97.3179 257.114 97.1517 257.476 97.1064Z" fill="#66B361"/>
<path d="M270.313 98.9063C270.858 98.768 271.416 98.6879 271.978 98.6673C272.224 96.599 272.303 94.5139 272.215 92.4327V87.7567C272.24 85.6757 272.161 83.5949 271.978 81.522L270.313 81.283V80.54C271.384 80.54 272.335 80.6596 273.401 80.6596C274.431 80.6795 275.462 80.6396 276.488 80.54V81.2596L274.823 81.4986C274.577 83.567 274.498 85.652 274.586 87.7333V91.9339C274.56 93.9776 274.639 96.0214 274.823 98.0568C275.536 98.0568 276.724 98.1763 277.794 98.1763C279.67 98.1302 281.539 97.9295 283.382 97.5762L284.571 95.4149L285.165 95.6539C284.695 96.891 284.375 98.1811 284.213 99.496H276.745C273.774 99.496 272.114 99.496 270.313 99.6155V98.8959V98.9063Z" fill="#66B361"/>
<path d="M285.889 98.9063L287.432 98.6674C287.551 97.1087 287.551 94.8253 287.551 93.2666V90.6246C287.597 89.1428 287.558 87.6596 287.432 86.1824L285.649 85.9435V85.1148C286.858 84.9924 288.052 84.7514 289.215 84.3952H289.809C289.809 85.7148 289.691 87.0371 289.691 90.5181V93.1601C289.691 95.4409 289.809 97.2412 289.809 98.5608L291.353 98.7998V99.5194C290.401 99.5194 289.452 99.3999 288.618 99.3999C287.705 99.3771 286.791 99.4171 285.884 99.5194L285.889 98.9063ZM288.623 78.6203C288.819 78.6263 289.011 78.6716 289.19 78.7535C289.368 78.8354 289.528 78.9523 289.661 79.0974C289.794 79.2425 289.897 79.4128 289.964 79.5985C290.031 79.7842 290.06 79.9816 290.051 80.179C290.051 80.561 289.901 80.9274 289.633 81.1975C289.366 81.4677 289.003 81.6195 288.625 81.6195C288.246 81.6195 287.883 81.4677 287.616 81.1975C287.348 80.9274 287.198 80.561 287.198 80.179C287.179 79.9796 287.202 79.7784 287.265 79.5885C287.328 79.3986 287.43 79.2243 287.565 79.0771C287.699 78.9299 287.863 78.8131 288.046 78.7344C288.228 78.6557 288.425 78.6168 288.623 78.6203Z" fill="#66B361"/>
<path d="M307.284 85.4637L306.214 85.7027C304.55 89.6643 302.767 95.0547 301.221 99.8684H299.075C297.532 94.9456 295.865 90.1449 294.2 85.7027L292.894 85.4637V84.7441C293.845 84.7441 294.795 84.8637 295.865 84.8637C296.659 84.8837 297.454 84.8438 298.242 84.7441V85.4637L296.817 85.7027C297.887 89.5448 299.194 93.6259 300.621 98.0655C301.928 93.9844 303.238 89.6617 304.187 85.7027L302.88 85.4637V84.7441C303.711 84.7441 304.545 84.8637 305.376 84.8637C306.012 84.8875 306.648 84.8475 307.277 84.7441L307.284 85.4637Z" fill="#66B361"/>
<path d="M321.55 96.0255C320.966 97.2099 320.068 98.2073 318.956 98.9067C317.843 99.6062 316.561 99.9802 315.25 99.9871C314.341 100.023 313.435 99.8601 312.593 99.51C311.752 99.16 310.995 98.6309 310.375 97.9587C309.755 97.2866 309.285 96.4872 308.998 95.6152C308.711 94.7432 308.614 93.8189 308.713 92.9055C308.621 91.8684 308.738 90.8233 309.056 89.8328C309.374 88.8424 309.888 87.9272 310.565 87.1422C311.242 86.3572 312.07 85.7186 312.998 85.2648C313.926 84.8111 314.935 84.5515 315.965 84.5017C316.696 84.4515 317.429 84.5662 318.111 84.8374C318.792 85.1085 319.406 85.5294 319.906 86.0696C320.407 86.6097 320.782 87.2555 321.005 87.9602C321.228 88.6649 321.293 89.4109 321.195 90.1441V90.8637C319.531 90.8637 317.748 90.7442 316.084 90.7442C314.419 90.7442 312.755 90.7442 311.09 90.8637C310.982 91.3756 310.943 91.8998 310.972 92.4223C310.875 93.157 310.935 93.9042 311.148 94.6136C311.36 95.323 311.721 95.9782 312.205 96.5353C312.689 97.0924 313.286 97.5384 313.955 97.8434C314.624 98.1484 315.35 98.3054 316.084 98.3037C317.06 98.2896 318.017 98.0296 318.868 97.5474C319.719 97.0652 320.438 96.376 320.959 95.5423L321.55 96.0255ZM318.934 89.4245C318.934 87.1437 318.222 85.5824 315.605 85.5824C312.752 85.5824 311.8 87.8632 311.325 89.544L318.934 89.4245Z" fill="#66B361"/>
<path d="M331.531 98.9064L333.075 98.6674C333.193 97.1087 333.193 94.8253 333.193 93.2666V90.6247C333.24 89.1429 333.2 87.6596 333.075 86.1825L331.292 85.9435V85.1148C332.501 84.9925 333.695 84.7515 334.858 84.3952H335.452C335.452 85.7149 335.333 87.0371 335.333 90.5182V93.1601C335.333 95.441 335.452 97.2412 335.452 98.5609L336.995 98.7999V99.5195C336.043 99.5195 335.094 99.4 334.261 99.4C333.348 99.3772 332.434 99.4171 331.526 99.5195L331.531 98.9064ZM334.266 78.6204C334.461 78.6267 334.653 78.6722 334.831 78.7543C335.009 78.8363 335.169 78.9533 335.302 79.0983C335.434 79.2434 335.537 79.4137 335.604 79.5992C335.671 79.7847 335.7 79.9818 335.691 80.179C335.691 80.5611 335.541 80.9274 335.273 81.1976C335.006 81.4677 334.643 81.6195 334.265 81.6195C333.886 81.6195 333.523 81.4677 333.256 81.1976C332.988 80.9274 332.838 80.5611 332.838 80.179C332.819 79.9794 332.842 79.778 332.905 79.5879C332.968 79.3978 333.071 79.2234 333.206 79.0762C333.34 78.929 333.505 78.8122 333.687 78.7337C333.87 78.6551 334.067 78.6165 334.266 78.6204Z" fill="#66B361"/>
<path d="M346.99 97.7058C346.655 98.3755 346.146 98.9413 345.519 99.3428C344.891 99.7444 344.167 99.9669 343.424 99.9866C343.008 99.9725 342.598 99.8732 342.22 99.6948C341.843 99.5165 341.505 99.2627 341.227 98.9488C340.949 98.6349 340.737 98.2674 340.603 97.8685C340.47 97.4696 340.418 97.0475 340.45 96.6277C340.45 94.8274 340.569 93.2662 340.569 91.9517V86.0704C339.974 86.0704 339.499 86.1898 338.904 86.1898V85.3507L340.569 84.8702C340.569 83.67 340.45 82.5893 340.45 81.3892C341.256 81.2458 342.05 81.0453 342.827 80.7891C342.827 82.1087 342.709 83.5505 342.709 84.8702H345.444C345.726 84.8895 346.009 84.8487 346.275 84.7507L345.799 86.0704C345.246 86.002 344.691 85.9621 344.134 85.9508H342.709V94.113C342.709 97.5941 343.422 98.1941 344.492 98.1941C345.261 98.0557 345.968 97.6778 346.514 97.1135L346.99 97.7058Z" fill="#66B361"/>
<path d="M351.263 97.1064C351.544 97.107 351.82 97.1918 352.054 97.3503C352.288 97.5087 352.47 97.7336 352.578 97.9967C352.685 98.2597 352.713 98.549 352.658 98.828C352.602 99.107 352.466 99.3632 352.267 99.5642C352.068 99.7652 351.814 99.902 351.537 99.9573C351.261 100.013 350.974 99.984 350.714 99.875C350.454 99.766 350.231 99.5815 350.075 99.3449C349.918 99.1083 349.835 98.8301 349.835 98.5456C349.88 98.1793 350.045 97.8386 350.304 97.5779C350.562 97.3171 350.9 97.1512 351.263 97.1064Z" fill="#66B361"/>
<path d="M26.5139 41.1871C31.2992 37.9915 36.5516 35.5741 42.0792 34.0231C46.0691 33.0486 54.131 29.0146 58.1258 29.7121C61.2254 30.4071 62.395 33.2601 65.7015 33.7411C69.6914 34.227 74.4493 33.9501 77.9603 35.6196C84.3665 38.7496 90.4959 45.1481 97.7948 47.0946C103.236 48.2781 109.158 48.0691 114.806 49.7386C116.328 50.0259 117.828 50.4214 119.295 50.9221C120.598 51.6028 121.842 52.3938 123.013 53.2866V52.8686C123.564 38.8906 127.075 17.5396 124.734 4.11554C112.131 7.87003 94.6378 6.20305 79.8979 5.15803C86.7853 4.81053 99.8695 6.41709 105.38 5.36704C109.37 4.53354 114.128 5.43754 118.19 5.09004C119.772 4.72696 121.317 4.21436 122.804 3.55904C118.19 1.88953 109.787 1.96004 104.829 2.29998C100.697 2.50899 101.8 3.76048 97.5978 3.55904C91.6654 3.35507 80.9901 1.33807 74.9979 2.17156C72.5865 2.51906 60.2604 3.49356 53.0288 3.84106C50.1487 3.7076 47.3134 3.63206 44.4881 3.56407C46.2087 3.14607 47.3807 2.86907 47.1737 2.73058C45.4531 1.34058 22.9305 2.93958 20.3147 2.93958C15.9757 2.93958 11.7066 2.93958 7.57462 2.73058C7.2305 2.73058 5.16326 2.38308 4.83161 2.73058C4.14336 3.42558 4.48748 4.32958 4.96876 5.23358C4.34784 19.8386 3.31547 34.9296 3.86657 49.4641C3.86657 50.6476 3.86657 52.1081 3.79674 53.8456V52.4556C11.2253 48.1421 19.4194 45.5686 26.5139 41.1871Z" fill="#82D0D9"/>
<path d="M27.9604 52.1071C30.5012 51.4129 33.1694 51.3413 35.7431 51.8981C38.27 53.0437 40.6518 54.491 42.8375 56.2091C45.4558 57.6696 48.4856 57.8786 50.8945 59.0596C51.3758 59.2686 52.3408 60.9381 53.029 61.4241C53.5103 61.9101 55.1636 63.0936 55.6474 63.5796C56.1641 64.1778 56.647 64.805 57.0937 65.4581C58.0587 66.9186 56.1286 65.9441 58.954 66.9186C62.9438 68.1021 67.9061 68.5881 72.1703 69.5626C78.7809 70.7461 87.7356 71.0231 92.693 66.4326C97.8573 61.9 105.229 61.9 112.046 63.5821C114.665 64.2771 117.211 65.9466 120.103 66.7121C121.205 67.0596 122.308 67.3391 123.41 67.6161C123.203 61.3561 122.928 55.781 123.135 53.3586C121.964 52.4659 120.721 51.6749 119.417 50.9941C117.946 50.5103 116.447 50.1151 114.929 49.8106C109.281 48.1411 103.358 48.3501 97.9172 47.1666C90.6158 45.2881 84.4864 38.8216 78.0827 35.6916C74.5692 34.0221 69.8188 34.2311 65.824 33.8131C62.5174 33.3271 61.3354 30.4741 58.2483 29.7841C54.2584 29.0891 46.1965 33.1231 42.2016 34.0951C36.6691 35.6325 31.4147 38.0509 26.6363 41.2591C19.4047 45.5701 11.2081 48.1436 3.83935 52.4571V53.8471V55.2371C3.83935 56.4206 3.76953 57.6721 3.76953 58.9236C11.6683 56.0922 19.7511 53.8146 27.9604 52.1071Z" fill="#54C5D2"/>
<path d="M2.34154 94.6005C2.26923 94.859 2.17753 95.1115 2.06723 95.3559V95.4265L1.86026 95.8445C1.79813 96.0653 1.70581 96.2764 1.58596 96.4715C2.35756 96.5911 3.11758 96.7772 3.85767 97.028C6.7503 99.322 19.423 97.028 23.4178 97.028C27.0685 97.028 30.7192 96.9575 34.3675 96.8895C40.0156 90.6295 58.1968 88.5445 63.5681 87.988C71.625 87.0135 81.5423 86.18 89.325 84.5105C94.0778 83.536 110.272 79.1545 101.447 72.2699C100.2 71.2954 89.7264 71.0109 85.5371 70.6709C88.9808 70.9479 104.82 70.5325 105.985 73.7305C107.853 78.7516 98.347 83.536 95.2573 84.5155C89.3349 86.394 89.2726 85.072 83.4125 86.53C80.9338 87.225 78.8666 87.7135 76.4577 88.2675C75.3555 88.5445 74.1162 88.824 72.807 89.1715C72.049 89.3796 71.2227 89.5886 70.3283 89.7985C69.6401 89.937 68.9519 90.146 68.1938 90.355C67.5729 90.4935 66.947 90.7025 66.2662 90.841C64.7398 91.1982 63.2399 91.6626 61.7776 92.231C61.2165 92.4388 60.6842 92.7189 60.1942 93.0645L58.0596 94.3865L56.4761 95.361L54.5485 96.5445H56.2692C68.9419 95.988 81.6146 94.807 94.2848 94.2505C98.347 94.2505 119.079 96.5445 121.351 94.2505C121.505 94.078 121.644 93.8917 121.765 93.694C121.835 93.6235 121.835 93.5555 121.902 93.485C122.007 93.3067 122.099 93.1207 122.176 92.9285C122.176 92.858 122.246 92.79 122.246 92.6515C122.307 92.3896 122.4 92.136 122.52 91.8961V91.6871C122.59 91.3396 122.727 90.9316 122.795 90.5035V90.433C122.865 90.015 122.932 89.5995 123.002 89.111V88.902C123.085 88.4432 123.131 87.9784 123.139 87.512V87.3736C123.209 86.2605 123.346 85.0795 123.346 83.8255C123.483 85.4245 123.62 87.0235 123.76 88.5545C123.967 90.224 124.725 88.3455 124.862 87.0235C125.072 85.338 125.072 83.6325 124.862 81.947L123.278 69.6385C123.278 69.0115 123.209 68.3795 123.209 67.76V67.6215C122.082 67.418 120.976 67.1155 119.902 66.7175C117.079 66.0225 114.461 64.353 111.845 63.5875C105.027 61.918 97.6587 61.918 92.4919 66.438C87.532 70.9706 78.5798 70.749 71.9692 69.568C67.7 68.5935 62.7427 68.1075 58.7528 66.9265C55.93 65.952 57.7878 66.9265 56.8926 65.466C56.4459 64.8129 55.963 64.1857 55.4463 63.5875C54.965 63.1015 53.3117 61.918 52.8279 61.432C52.1397 60.946 51.1746 59.2765 50.6934 59.0675C48.3518 57.884 45.2522 57.607 42.6364 56.217C40.4507 54.4989 38.0689 53.0516 35.542 51.906C32.9623 51.4189 30.3097 51.4902 27.7593 52.115C19.5295 53.8088 11.4284 56.0866 3.51604 58.9315V59.4175C2.89513 59.974 2.13955 60.46 1.86275 60.7395L0.615931 65.539C0.481274 72.2045 3.51355 72.761 0 93.6965C0.75329 94.0653 1.53671 94.3678 2.34154 94.6005Z" fill="#66B361"/>
<path d="M29.8229 12.815C23.0053 15.5849 19.9755 25.7505 30.0972 25.5415C34.6431 25.2645 38.431 22.2025 37.6729 17.126C36.5732 10.3095 29.8229 12.815 29.8229 12.815Z" fill="#F3E57D"/>
</svg>
