<svg width="414" height="100" viewBox="0 0 414 100" fill="none" xmlns="http://www.w3.org/2000/svg">
<path fill-rule="evenodd" clip-rule="evenodd" d="M331.044 75.8272C331.079 75.7928 331.35 75.7763 331.646 75.7905L332.185 75.8163V86.663H331.937C331.83 86.6848 331.669 86.6948 331.516 86.686L331.115 86.663H331.025L330.972 85.6489H330.865C330.806 85.6489 330.65 85.7826 330.518 85.9459C330.195 86.3467 329.588 86.684 328.88 86.8569L328.294 87L327.717 86.8948C326.602 86.6917 325.847 86.2003 325.259 85.2968C325.117 85.0788 324.916 84.6224 324.811 84.2826L324.621 83.6647L324.631 82.2538L324.806 81.6618C324.877 81.4229 325.011 81.0948 325.144 80.8287L325.195 80.673L325.295 80.5516L325.586 80.0716L326.534 79.3037L327.805 78.9293L328.133 78.9492C328.159 78.9478 328.184 78.9468 328.208 78.9468C328.26 78.9468 328.332 78.9539 328.417 78.9664L328.434 78.9675L329.064 79.0057L330.052 79.3867L330.424 79.74C330.628 79.9342 330.837 80.0932 330.888 80.0932H330.981V77.9915C330.981 76.8356 331.009 75.8617 331.044 75.8272ZM328.474 79.93C328.42 79.9276 328.368 79.927 328.317 79.9284C328.216 79.9524 327.96 80.0368 327.693 80.1349L327.124 80.3436L326.772 80.6814C326.399 81.0392 326.163 81.4713 325.986 82.1215L325.877 82.5183L325.989 83.9784L326.167 84.3534C326.425 84.8958 326.817 85.3311 327.302 85.6144L327.651 85.8185C327.695 85.8343 327.74 85.849 327.782 85.8624L329.032 85.8675C329.062 85.8586 329.092 85.8492 329.121 85.8394L329.41 85.6986C329.792 85.5121 330.392 84.94 330.584 84.5792C330.651 84.4517 330.768 84.1739 330.843 83.9619L330.978 83.5765L330.98 82.9729C330.98 82.6409 330.92 82.1609 330.845 81.9063C330.661 81.2808 330.26 80.6777 329.849 80.4102C329.586 80.2392 328.828 79.9811 328.474 79.93Z" fill="white"/>
<path d="M306.95 75.5454C307.12 75.4788 308.204 75.5938 308.646 75.7254C308.89 75.7981 309.291 76.0076 309.536 76.1911L309.982 76.5244L310.635 77.7563L310.695 78.55H309.36L309.343 78.4177C309.333 78.345 309.3 78.1326 309.269 77.9457L309.216 77.6272L309.177 77.5712L308.542 76.9557L308.181 76.849C307.729 76.715 307.113 76.7121 306.718 76.8422C306.369 76.9574 305.878 77.3834 305.694 77.7299L305.568 77.9681V78.5415C305.568 78.8569 305.615 79.2172 305.673 79.3424C305.824 79.67 306.564 80.1639 307.25 80.3943C308.479 80.8071 309.192 81.1017 309.561 81.3492C309.86 81.549 310.161 81.8599 310.389 82.1827L310.499 82.3069L310.52 82.3843C310.619 82.5494 310.695 82.7122 310.737 82.8597L310.851 83.2656L310.827 83.7199C310.828 83.7355 310.829 83.7497 310.829 83.7623C310.829 83.8029 310.824 83.8616 310.816 83.9326L310.813 83.9979L310.774 84.7303L310.582 85.1224L310.539 85.3103L310.462 85.3396C310.345 85.5327 310.191 85.7513 310.065 85.896L309.749 86.2621L309.197 86.5225C308.893 86.6657 308.367 86.8305 308.028 86.8888L307.412 86.9947L306.782 86.8836C306.436 86.8224 305.987 86.702 305.785 86.6161C305.02 86.2922 304.352 85.4792 304.133 84.6072L304.016 84.1386L304.204 83.8411L305.137 83.7874L305.255 83.8847C305.321 83.9383 305.423 84.1838 305.483 84.4303L305.571 84.7956C305.591 84.8373 305.61 84.8774 305.629 84.915L306.196 85.4766C306.235 85.4993 306.273 85.5212 306.312 85.5418L306.606 85.629C306.807 85.6884 307.182 85.7371 307.44 85.7371H307.909L308.924 85.243C308.944 85.224 308.965 85.2047 308.985 85.1849L309.112 85.059L309.272 84.7242C309.392 84.4737 309.515 84.142 309.547 83.9872L309.604 83.7056L309.457 83.3253C309.376 83.1163 309.2 82.8449 309.066 82.7223C308.762 82.4438 307.894 82.0021 307.307 81.8265C306.677 81.6382 306.107 81.4065 305.676 81.1673L305.567 81.127L305.495 81.0609C305.426 81.0182 305.362 80.9756 305.303 80.9329L304.866 80.6152L304.598 80.1853C304.525 80.0678 304.447 79.9183 304.38 79.7719L304.289 79.6082L304.288 79.5577C304.262 79.4893 304.24 79.4263 304.226 79.3732L304.121 78.9909L304.229 77.7106L304.464 77.2484C304.593 76.9943 304.897 76.5985 305.138 76.3689L305.576 75.9514L306.218 75.7659C306.572 75.6639 306.901 75.5647 306.95 75.5454Z" fill="white"/>
<path d="M270.766 79.1205C271.35 79.3014 272.31 79.8742 272.307 80.0397C272.306 80.1241 271.895 80.4966 271.665 80.6471L271.579 80.7322L271.547 80.7085C271.542 80.7097 271.537 80.7105 271.533 80.7105C271.492 80.7105 271.31 80.6109 271.129 80.4891C270.948 80.3673 270.55 80.2045 270.246 80.1274L269.693 79.9872L269.373 80.0395C269.198 80.0683 268.898 80.1351 268.708 80.1881L268.362 80.2843L267.51 81.072L267.03 82.0747L267.028 83.6647L267.186 84.0616C267.273 84.2798 267.48 84.6447 267.646 84.8724L267.893 85.2124C267.929 85.2472 267.965 85.2809 268.002 85.3133L269.038 85.8253H270.076L270.457 85.6797C270.666 85.5996 270.965 85.4409 271.121 85.327C271.257 85.2276 271.411 85.144 271.489 85.1242L271.517 85.096L271.548 85.1249C271.729 85.1793 272.219 85.6608 272.219 85.798C272.219 85.9394 271.591 86.3971 271.105 86.6097C270.907 86.6967 270.474 86.8182 270.144 86.8798L269.544 86.9916L268.944 86.8797C268.614 86.8181 268.129 86.6736 267.866 86.5585L267.388 86.3493L266.928 85.8886C266.675 85.6353 266.364 85.2297 266.236 84.9873C266.109 84.7449 265.953 84.2744 265.89 83.9417L265.776 83.3366L265.799 82.9629L265.791 82.9152L265.809 82.8103L265.821 82.6189C265.846 82.2241 265.92 81.7225 265.984 81.5042C266.009 81.421 266.04 81.3343 266.077 81.2453L266.085 81.1956L266.123 81.1393C266.275 80.8051 266.5 80.449 266.757 80.1438C267.041 79.8055 267.881 79.2132 268.089 79.2047C268.178 79.201 268.392 79.1444 268.564 79.0791C268.735 79.0138 269.177 78.9578 269.544 78.9547L270.213 78.9492L270.766 79.1205Z" fill="white"/>
<path fill-rule="evenodd" clip-rule="evenodd" d="M282.291 79.1218C283.414 79.4526 284.153 80.1261 284.633 81.2563L284.897 81.8769L284.994 83.1547L284.896 83.2147C284.894 83.216 284.89 83.2171 284.883 83.2185L284.881 83.2657L283.051 83.2789C282.637 83.2852 282.178 83.2904 281.697 83.2933L278.595 83.312L278.568 83.4978C278.527 83.7853 278.969 84.6855 279.335 85.0602C279.517 85.2456 279.88 85.4986 280.143 85.6223L280.621 85.8472L281.906 85.7657L282.373 85.5144C282.63 85.3761 282.983 85.106 283.159 84.9142L283.477 84.5654L284.435 84.8643V85.2065L283.321 86.3247L282.819 86.5502C282.543 86.6743 282.036 86.8227 281.692 86.88L281.067 86.9844L280.5 86.875C280.188 86.815 279.692 86.6586 279.397 86.5276L278.862 86.2896L278.434 85.855C277.946 85.36 277.607 84.8143 277.427 84.2379L277.304 83.8411L277.303 83.1182C277.302 83.0932 277.302 83.0685 277.302 83.0442C277.302 83.023 277.302 83.0013 277.303 82.9789L277.302 82.1585L277.44 81.6355C277.515 81.3479 277.636 81.0488 277.707 80.9708C277.779 80.8928 277.837 80.7881 277.837 80.7381C277.837 80.5853 278.547 79.8398 278.96 79.5588C279.174 79.4129 279.581 79.2195 279.864 79.129L280.378 78.9645L281.697 78.9468L282.291 79.1218ZM281.362 79.9806C281.208 79.963 281.063 79.9556 280.927 79.9586C280.923 79.9602 280.918 79.9618 280.913 79.9635C280.864 79.9815 280.592 80.061 280.307 80.1403L279.791 80.2845L278.946 81.1074L278.747 81.6484C278.638 81.9461 278.573 82.2543 278.604 82.3333L278.66 82.477L283.588 82.4301L283.575 82.0241C283.56 81.5801 283.409 81.2277 283.085 80.8866C282.684 80.4646 282.358 80.2692 281.762 80.0936C281.591 80.0434 281.462 80.0065 281.362 79.9806Z" fill="white"/>
<path d="M322.242 79.1232C322.389 79.1232 322.58 79.1606 322.68 79.2076L322.777 79.2026L322.78 79.2598L322.867 79.3058V84.5536L322.595 85.5844L322.336 85.9078C322.005 86.3219 321.362 86.6661 320.591 86.8429L319.983 86.9825L318.8 86.7852L317.748 86.2093L317.462 85.7982C317.304 85.5721 317.132 85.1862 317.078 84.9405L316.982 84.4939V79.2244L317.138 79.1855C317.265 79.1537 317.772 79.163 318.074 79.2027C318.111 79.2075 318.141 80.3935 318.141 81.8383V84.4651L318.341 84.8535C318.585 85.3257 319.072 85.7248 319.528 85.8266L319.72 85.8694H320.045L320.254 85.8308C320.75 85.7391 321.299 85.3615 321.478 84.9888L321.618 84.6963V79.3058L321.791 79.2145C321.886 79.1643 322.089 79.1232 322.242 79.1232Z" fill="white"/>
<path fill-rule="evenodd" clip-rule="evenodd" d="M343.014 79.1218C343.34 79.218 343.796 79.4201 344.026 79.5708C344.512 79.8894 345.079 80.4992 345.282 80.9226C345.523 81.4234 345.704 82.2714 345.676 82.7592L345.649 83.2238L345.595 83.2241L345.583 83.2679H339.781L339.472 83.2702L339.257 83.5261L339.402 83.9481C339.62 84.5829 339.978 85.0368 340.569 85.4283L341.101 85.7809L342.458 85.8428L343.536 85.3136C343.573 85.286 343.61 85.2581 343.645 85.23L344.23 84.5726L344.289 84.5892L344.295 84.5829L344.306 84.594L344.627 84.6847C344.846 84.7463 345.06 84.8268 345.103 84.8636C345.257 84.9953 345.068 85.3549 344.604 85.8107L344.133 86.2742L343.578 86.5337C343.273 86.6763 342.748 86.8352 342.412 86.8868L341.801 86.9805L341.16 86.8483C340.808 86.7756 340.276 86.5881 339.98 86.4318L339.441 86.1476L339.031 85.6998C338.806 85.4536 338.503 85.0027 338.358 84.6981L338.095 84.1441L338.036 82.9691L338.035 82.9593L338.036 82.9546L338.005 82.342L338.151 81.7918C338.231 81.4894 338.438 81.0044 338.61 80.7143L338.922 80.1869L339.408 79.7952C339.565 79.6688 339.771 79.5328 339.962 79.4255L340.013 79.3876L340.053 79.3761C340.153 79.3233 340.245 79.2809 340.319 79.2548C340.553 79.1729 340.825 79.0727 340.923 79.0324C341.021 78.9919 341.398 78.9561 341.761 78.9529L342.42 78.9468L343.014 79.1218ZM340.48 80.3277L339.758 81.0375C339.745 81.0566 339.733 81.0759 339.72 81.0953L339.543 81.5627C339.439 81.8375 339.366 82.1452 339.381 82.2463L339.407 82.4301L344.243 82.4771L344.445 82.2357V82.1075L344.174 81.2559C344.153 81.2231 344.13 81.1898 344.106 81.1563L343.436 80.4482C343.398 80.4188 343.362 80.3918 343.326 80.368L342.908 80.2276C342.65 80.141 342.254 80.0435 342.029 80.011L341.618 79.9519L340.48 80.3277Z" fill="white"/>
<path fill-rule="evenodd" clip-rule="evenodd" d="M385.094 79.0836C385.692 79.2895 385.928 79.4306 386.342 79.8272C386.551 80.028 386.769 80.1769 386.827 80.1578L386.931 80.1233L386.933 79.1673L387.282 79.1391C387.473 79.1237 387.724 79.1344 387.84 79.1631L388.05 79.2153L388.023 83.4629L388.038 86.5299L388.004 86.5448L388.003 86.663H387.423C387.408 86.6633 387.394 86.6635 387.379 86.6634L387.023 86.663H386.933L386.924 86.1638C386.918 85.8892 386.887 85.5942 386.853 85.508L386.816 85.4122L386.8 85.4098C386.78 85.4069 386.754 85.4148 386.722 85.4312L386.387 85.8094C385.904 86.3558 385.402 86.6634 384.696 86.8452L384.175 86.9793L383.559 86.8849C382.463 86.7167 381.728 86.2531 381.08 85.3221L380.798 84.9159L380.469 83.6766V82.1651L380.64 81.574C380.847 80.8554 381.317 80.134 381.866 79.6891C381.973 79.6019 382.128 79.5019 382.292 79.4089C382.298 79.4051 382.305 79.4017 382.311 79.3984C382.485 79.3009 382.67 79.2123 382.821 79.1567L383.367 78.956L384.704 78.9494L385.094 79.0836ZM383.705 80.0574C383.45 80.1143 383.112 80.2349 382.956 80.3254C382.585 80.54 382.035 81.3352 381.845 81.9339L381.706 82.3694L381.705 82.595L381.783 83.9293L381.973 84.3289C382.243 84.8933 382.645 85.3459 383.121 85.6218L383.489 85.8355C383.512 85.8439 383.535 85.8519 383.557 85.8593L384.766 85.8691C384.786 85.864 384.806 85.8587 384.825 85.8532L385.227 85.6504C385.465 85.5299 385.801 85.2918 385.973 85.1212C386.145 84.9507 386.425 84.5135 386.595 84.1497L386.905 83.4884L386.842 81.9892L386.364 81.0065L385.967 80.6447C385.576 80.2881 385.226 80.1354 384.526 80.0153L384.169 79.9542L383.705 80.0574Z" fill="white"/>
<path fill-rule="evenodd" clip-rule="evenodd" d="M221.974 79.3781L222.728 80.1943L222.819 80.1386C222.869 80.1079 222.91 79.9115 222.91 79.702V79.3212L222.999 79.248V79.2114H223.044L223.137 79.1345L223.606 79.1579C223.763 79.1658 223.913 79.1864 224.015 79.2114H224.16L224.158 79.4978C224.18 80.0355 224.189 81.4289 224.179 83.0293L224.154 86.715L223.347 86.68L222.999 86.6968V86.6649L222.954 86.663L222.928 86.0678C222.914 85.7403 222.877 85.4725 222.846 85.4725C222.816 85.4726 222.607 85.6662 222.382 85.9027C221.902 86.4083 221.268 86.7566 220.601 86.8818L220.121 86.9717L219.598 86.8884C219.311 86.8426 218.84 86.7006 218.552 86.5729L218.029 86.3408L217.669 85.9728C217.26 85.5559 217.007 85.1354 216.734 84.4217L216.545 83.9293L216.535 81.9892L217.069 80.6001L217.407 80.2192C217.593 80.0098 217.903 79.7143 218.097 79.5624L218.45 79.2863L219.008 79.1233C219.315 79.0336 219.835 78.9573 220.164 78.9536L220.762 78.9468L221.974 79.3781ZM221.171 80.1611C220.358 79.9364 220.231 79.9284 219.684 80.068L219.178 80.1972L218.811 80.5078C218.401 80.8556 218.096 81.3907 217.869 82.163L217.738 82.6076V82.92L217.762 83.1776C217.862 84.2668 218.368 85.1072 219.232 85.6182L219.639 85.859C219.648 85.8622 219.658 85.8654 219.667 85.8684L220.904 85.8576L221.293 85.6582C221.796 85.4002 222.361 84.8205 222.642 84.2741L222.823 83.922C222.824 83.9193 222.825 83.9167 222.826 83.914L222.866 83.7982L222.925 82.1656L222.528 81.1178L221.706 80.309L221.171 80.1611Z" fill="white"/>
<path fill-rule="evenodd" clip-rule="evenodd" d="M409.49 78.9558L410.384 78.9514L411.027 79.1621C411.706 79.3847 412.166 79.6787 412.611 80.1734C413.015 80.6232 413.19 80.9419 413.43 81.6694L413.524 81.9558L413.558 82.0329L413.557 82.0546L413.647 82.3283L413.594 83.2238L410.429 83.2707C408.688 83.2966 407.254 83.3263 407.241 83.3369C407.229 83.3476 407.219 83.4504 407.219 83.5654C407.219 83.9328 407.469 84.4923 407.817 84.9045L408.15 85.2976C408.153 85.3009 408.157 85.304 408.161 85.3073L409.209 85.8253H410.344L411.422 85.3053C411.459 85.2767 411.496 85.2475 411.531 85.2182L412.139 84.5129L412.466 84.6508C412.68 84.7413 412.817 84.8009 412.906 84.8462L413.015 84.8693L413.015 84.9114C413.051 84.9396 413.067 84.9642 413.077 84.9947C413.092 85.0402 412.903 85.3241 412.656 85.6255L412.208 86.1734L410.919 86.7856L409.755 86.9687L409.267 86.8863C408.363 86.7335 407.873 86.5334 407.32 86.0906C406.765 85.6464 406.387 85.0841 406.117 84.3033L405.985 83.9201L405.96 83.8842L405.961 83.8496L405.881 83.6191L405.883 82.2538L406.103 81.6132C406.371 80.832 406.451 80.6783 406.834 80.2142C407.241 79.7199 407.75 79.3872 408.456 79.1537L409.047 78.958L409.278 78.9568L409.314 78.9431L409.49 78.9558ZM408.38 80.2943L407.509 81.2053L407.364 81.6997C407.284 81.9716 407.243 82.2572 407.273 82.3342L407.327 82.4742H412.218L412.273 82.3325C412.303 82.2544 412.258 81.9668 412.172 81.6931L412.044 81.2863C412.016 81.2358 411.986 81.1862 411.955 81.1375L411.077 80.289L410.597 80.1551C410.333 80.0814 409.997 80.0013 409.849 79.9772L409.582 79.9332L408.38 80.2943Z" fill="white"/>
<path fill-rule="evenodd" clip-rule="evenodd" d="M236.824 78.9639C236.888 78.9586 236.961 78.9585 237.042 78.9628C237.395 78.9673 237.743 79.0031 238.007 79.0711C238.628 79.2312 239.089 79.4684 239.563 79.873C240.072 80.3072 240.425 80.8323 240.648 81.4866L240.833 82.0278V83.2679L234.725 83.2707L234.478 83.4248L234.601 84.2321L235.377 85.2741L236.492 85.8253H237.672L238.71 85.3017C238.726 85.289 238.743 85.2762 238.759 85.2633L239.382 84.5574L239.459 84.5815L239.489 84.5497L239.551 84.6104L240.253 84.8313L240.27 84.9732L240.315 85.0267L240.283 85.0779L240.308 85.2822L239.308 86.2558L238.755 86.5211C238.451 86.667 237.942 86.8273 237.624 86.8775L237.046 86.9685L236.465 86.8781C236.145 86.8285 235.643 86.6766 235.349 86.5407C234.657 86.2215 234.163 85.7996 233.802 85.201L233.744 85.1419L233.695 85.0107C233.579 84.7903 233.478 84.5479 233.389 84.28L233.164 83.5982V82.342L233.599 80.9484L233.918 80.4904C234.018 80.3463 234.125 80.2128 234.238 80.0892L234.237 80.0865L234.243 80.0845C234.667 79.6229 235.188 79.302 235.839 79.096C236.088 79.0173 236.449 78.9728 236.824 78.9639ZM237.122 79.9675C236.977 79.9494 236.579 80.0269 236.238 80.1397L235.638 80.3373C235.628 80.3429 235.618 80.3485 235.607 80.3541L234.712 81.3214L234.512 82.1771L234.505 82.2396L234.702 82.4742H239.501L239.555 82.3349L239.564 82.2239C239.557 82.0973 239.517 81.8958 239.455 81.7022L239.299 81.2137L238.525 80.3948C238.506 80.3817 238.487 80.3691 238.468 80.3571L237.941 80.1838C237.635 80.0829 237.266 79.9856 237.122 79.9675Z" fill="white"/>
<path d="M349.394 78.9224C349.795 78.8806 350.225 78.9438 350.826 79.1328L351.366 79.3028L351.728 79.676C352.105 80.0642 352.292 80.4707 352.292 80.9001V81.1515H351.216L351.166 80.9971C351.012 80.5232 350.916 80.3798 350.61 80.1645L350.271 79.9269L349.567 79.8362L349.344 79.8394L348.413 80.3215L348.163 81.0305L348.226 81.2825C348.262 81.4212 348.398 81.631 348.53 81.7488L348.77 81.9629L349.884 82.3392C350.497 82.5462 351.099 82.7577 351.222 82.8092C351.408 82.8875 351.631 83.0662 351.825 83.2773L351.891 83.3215L351.931 83.3995C352.047 83.5421 352.147 83.6928 352.212 83.8337L352.377 84.1938L352.377 84.6348C352.377 84.8773 352.341 85.229 352.297 85.4163C352.153 86.0281 351.438 86.6034 350.54 86.8283L350.018 86.9592L349.522 86.9291C349.249 86.9125 348.852 86.8528 348.64 86.7962C348.216 86.6835 347.698 86.3859 347.453 86.1151C347.245 85.8847 346.834 84.838 346.919 84.7563C346.956 84.7209 347.207 84.6809 347.477 84.6672L347.967 84.6424L348.162 85.0475C348.39 85.5217 348.717 85.7768 349.292 85.9287L349.663 86.0269H349.75L350.553 85.817L351.172 85.2106L351.135 84.3811L350.573 83.8076L349.627 83.486C349.106 83.3091 348.596 83.1444 348.493 83.1201C348.191 83.0489 347.457 82.4555 347.259 82.1215L347.076 81.8128V80.4019L347.258 80.0946C347.294 80.0342 347.336 79.9747 347.383 79.9166L347.404 79.8681L347.459 79.8282C347.886 79.3636 348.642 79.0008 349.394 78.9224Z" fill="white"/>
<path d="M210.649 75.6777C211.328 75.4779 211.783 75.4711 212.492 75.6501C212.924 75.7591 213.23 75.8702 213.488 76.0261L213.503 76.0313L213.512 76.0407C213.711 76.1654 213.883 76.3185 214.063 76.5211C214.215 76.6917 214.343 76.8623 214.448 77.034L214.509 77.0989L214.531 77.1785C214.694 77.4825 214.785 77.7909 214.809 78.1102L214.84 78.55H213.595L213.543 78.2414C213.476 77.8526 213.269 77.4602 212.996 77.2082C212.397 76.6548 210.984 76.5883 210.391 77.0855C210.298 77.1634 210.108 77.382 209.968 77.5712L209.747 77.8692L209.713 77.9385V79.1349L209.943 79.4329C210.234 79.8104 210.866 80.205 211.496 80.4034C211.766 80.4882 212.027 80.5867 212.076 80.6224C212.125 80.658 212.386 80.7564 212.656 80.841C213.306 81.0451 214.155 81.5982 214.472 82.0252C214.806 82.4749 215.057 83.2041 215.06 83.7392C215.06 83.7451 215.06 83.7511 215.06 83.7573C215.062 83.7838 215.064 83.8083 215.064 83.8305C215.064 83.9263 215.043 84.0611 215.007 84.2162C214.973 84.4101 214.924 84.6191 214.87 84.7946L214.677 85.4227L213.878 86.2677L212.789 86.7934L211.59 86.9578L210.305 86.7817L209.808 86.5323C209.655 86.4554 209.517 86.3732 209.39 86.2839L209.385 86.2817L209.382 86.2782C209.105 86.081 208.887 85.8489 208.705 85.5607C208.476 85.1996 208.284 84.5439 208.302 84.1926C208.3 84.1654 208.3 84.1428 208.303 84.1261L208.313 84.0525L208.331 83.8411L209.443 83.7887L209.736 84.8329L209.997 85.1095C210.141 85.2617 210.415 85.4651 210.607 85.5617L210.954 85.7371L211.987 85.7369L212.388 85.5812C213.001 85.3432 213.14 85.2465 213.388 84.8826L213.618 84.5466L213.681 84.1004V83.5198L213.551 83.0413L213.259 82.7716C212.863 82.4055 212.452 82.1789 211.764 81.9473C210.055 81.3725 209.437 81.0326 208.888 80.3672L208.554 79.9615L208.502 79.6526C208.473 79.4826 208.422 79.2491 208.387 79.1334C208.293 78.8224 208.442 77.657 208.629 77.2379C208.814 76.8237 209.539 76.0675 209.884 75.9282C210.011 75.8772 210.355 75.7644 210.649 75.6777Z" fill="white"/>
<path d="M402.333 78.9568C402.929 78.9469 403.722 79.1023 404.114 79.3059C404.471 79.4914 405.079 79.9433 405.079 80.0236C405.079 80.0657 404.912 80.2576 404.707 80.4499L404.336 80.7996L404.117 80.6448C403.581 80.2664 403.431 80.1965 402.928 80.091L402.395 79.979L401.887 80.0905C401.607 80.1519 401.273 80.2553 401.145 80.3203C401.016 80.3854 400.726 80.6425 400.5 80.8915L400.129 81.2995L400.082 81.3633L399.866 82.0774L399.868 83.8411L400.06 84.2585C400.166 84.4881 400.359 84.8143 400.49 84.9834L400.661 85.2054C400.711 85.25 400.763 85.2933 400.817 85.3355L401.808 85.8253H402.949L403.367 85.6392C403.598 85.5369 403.919 85.3544 404.081 85.2338L404.376 85.0145L404.679 85.3538C404.846 85.5403 404.984 85.7397 404.986 85.7968L404.986 85.7978L404.998 85.8111L404.983 85.8246C404.934 86.033 404.301 86.448 403.677 86.6732L403.021 86.9096L402.289 86.9092L402.264 86.9091L402.215 86.9166L402.178 86.9091L401.557 86.9089L401.022 86.7087C399.944 86.3055 399.237 85.5945 398.829 84.5025L398.614 83.9293V83.2647L398.547 82.823L398.614 82.4757V82.0774L398.787 81.5042C398.998 80.8012 399.439 80.1497 399.981 79.7405C400.548 79.3122 400.571 79.3004 401.187 79.1239C401.349 79.0775 401.573 79.0345 401.796 79.0036C401.869 78.9884 401.954 78.9786 402.047 78.974C402.15 78.9643 402.248 78.9583 402.333 78.9568Z" fill="white"/>
<path d="M260.769 79.0237C260.85 78.8926 261.88 78.9392 262.386 79.0967C262.65 79.1791 263.025 79.3804 263.218 79.544L263.569 79.8414L263.733 80.4003L263.78 80.4901L263.781 80.5629L263.84 80.764L263.816 83.8183L263.843 86.3563L263.795 86.445L263.793 86.663H263.677L263.653 86.7071H262.867L262.84 86.663H262.723L262.634 81.0192L262.474 80.7013C262.305 80.3666 262.157 80.2629 261.546 80.0552L261.171 79.9276L260.234 80.1909C260.176 80.2225 260.12 80.2567 260.065 80.2929L259.324 81.0557C259.318 81.0672 259.311 81.0787 259.304 81.0902L259.112 81.8469V86.7155L258.938 86.7073L258.934 86.7168L258.342 86.6792L257.997 86.663V79.2555L258.319 79.1768C258.497 79.1335 258.747 79.1243 258.877 79.1564L259.112 79.2147V79.9169H259.258C259.338 79.9168 259.579 79.7571 259.794 79.5619C259.874 79.4887 259.965 79.4172 260.057 79.3548L260.09 79.3225L260.127 79.3086C260.254 79.2278 260.374 79.169 260.452 79.1536C260.6 79.1243 260.742 79.0659 260.769 79.0237Z" fill="white"/>
<path d="M374.539 75.8163V86.663H374.45L373.602 86.7168L373.581 86.663H373.469L373.468 86.3673L373.435 86.2814L373.449 82.0035L373.446 81.3278C373.433 78.3935 373.443 75.9411 373.467 75.878L373.512 75.7633L374.539 75.8163Z" fill="white"/>
<path d="M377.366 79.229C377.492 79.1044 378.138 79.0901 378.326 79.2077L378.456 79.2894L378.478 86.3985L378.323 86.7071H378.218L378.211 86.7156L378.079 86.7071H377.367L377.313 86.5676C377.283 86.4908 377.259 84.8321 377.259 82.8815V79.3349L377.366 79.229Z" fill="white"/>
<path d="M291.927 79.3128L292.238 79.6369C292.259 79.6596 292.282 79.684 292.304 79.7097L292.459 79.8414L292.494 79.9617C292.569 80.0746 292.63 80.186 292.661 80.2696L292.773 80.5783V86.663L292.652 86.6698L292.628 86.7071H291.843L291.825 86.6751C291.781 86.6671 291.75 86.6571 291.738 86.6452C291.73 86.6368 291.721 86.5747 291.713 86.4682L291.659 86.3675L291.661 84.7062C291.658 84.4531 291.655 84.1854 291.654 83.9094L291.643 81.2456L291.547 80.9373C291.417 80.5172 291.076 80.2226 290.541 80.0678L290.093 79.9381L289.573 80.0972C289.003 80.2716 288.727 80.4838 288.37 81.0192L288.136 81.3719L288.047 86.663L287.617 86.6832C287.547 86.6927 287.471 86.6995 287.403 86.701L287.117 86.7071L287.117 86.7068L286.932 86.7155V86.3659L286.921 86.3462L286.932 84.9653V79.2147L287.133 79.1737C287.307 79.138 287.555 79.145 287.98 79.1975L288.091 79.2114V79.559C288.091 79.7501 288.131 79.9309 288.18 79.9609C288.229 79.9908 288.401 79.8732 288.562 79.6997L288.854 79.3841L289.919 78.951L290.938 78.9468L291.927 79.3128Z" fill="white"/>
<path d="M395.805 79.3155L396.496 80.0923L396.549 80.4235C396.555 80.4654 396.562 80.6381 396.569 80.9009L396.608 81.1218V83.4567C396.621 84.7715 396.626 86.111 396.613 86.557L396.608 86.7155L395.97 86.6854C395.907 86.6869 395.849 86.686 395.806 86.6822L395.69 86.6722L395.493 86.663L395.404 80.931L395.1 80.3806L394.252 79.9864L393.794 80.0238C393.543 80.0445 393.196 80.138 393.024 80.2316C392.852 80.3253 392.554 80.5764 392.363 80.7896L392.016 81.1772L391.927 86.663H390.768L390.721 79.2272L390.812 79.2142L390.812 79.2114H390.833L391.056 79.1798C391.241 79.1537 391.512 79.1401 391.659 79.1497L391.927 79.1673L391.954 79.5421C391.969 79.7482 392.023 79.9168 392.074 79.9169C392.125 79.9169 392.347 79.7605 392.566 79.5694C392.654 79.4931 392.762 79.413 392.873 79.3397L392.911 79.3026L392.955 79.2873C393.096 79.1998 393.235 79.1273 393.338 79.0913C393.543 79.0195 393.933 78.9576 394.206 78.9538L394.701 78.9468L395.805 79.3155Z" fill="white"/>
<path d="M226.789 79.1765L226.94 79.4805C227.024 79.6477 227.159 79.983 227.241 80.2255C227.323 80.468 227.445 80.7855 227.512 80.931C227.579 81.0765 227.732 81.4733 227.852 81.8128C227.972 82.1524 228.176 82.7278 228.304 83.0915C228.433 83.4553 228.596 83.878 228.666 84.0308C228.737 84.1836 228.795 84.3734 228.795 84.4525C228.795 84.6379 229.03 84.7271 229.184 84.6004C229.25 84.5463 229.396 84.1946 229.509 83.8189C229.622 83.4431 229.747 83.0761 229.787 83.0033C229.827 82.9306 230.044 82.3949 230.268 81.8128C231.08 79.7042 231.227 79.3423 231.306 79.2574C231.309 79.2538 231.314 79.2504 231.319 79.2469L231.333 79.2114H231.418C231.528 79.184 231.701 79.1629 231.881 79.1583L232.376 79.1454L232.402 79.2114H232.451V79.2924C232.451 79.3156 232.435 79.3669 232.41 79.4301C232.361 79.7013 232.199 80.1863 232.1 80.3116C232.061 80.3614 231.946 80.64 231.845 80.931C231.744 81.222 231.513 81.8371 231.331 82.2979C231.15 82.7586 230.87 83.4928 230.71 83.9293C229.894 86.1587 229.771 86.4742 229.677 86.586L229.576 86.7071H228.442L228.37 86.5623C228.359 86.5497 228.352 86.5365 228.35 86.5224L228.255 86.3323C228.152 86.1261 227.973 85.6798 227.858 85.3402C227.534 84.3855 226.69 82.1109 225.872 79.988L225.611 79.3095L225.808 79.1127L226.789 79.1765Z" fill="white"/>
<path fill-rule="evenodd" clip-rule="evenodd" d="M252.501 75.9265C252.547 76.0114 252.666 76.3189 252.766 76.6099C252.866 76.9009 253.154 77.6748 253.405 78.3295C253.656 78.9843 253.883 79.5993 253.91 79.6964C253.936 79.7934 254.011 79.9918 254.075 80.1373C254.139 80.2828 254.334 80.7987 254.507 81.2837C254.68 81.7688 255.024 82.7013 255.271 83.3561C255.517 84.0108 255.721 84.5861 255.722 84.6348C255.723 84.6833 255.788 84.842 255.865 84.9875C255.998 85.2377 256.433 86.499 256.436 86.641C256.436 86.6773 256.141 86.7071 255.779 86.7071H255.121L255.026 86.5932C254.973 86.5305 254.763 86.0046 254.558 85.4247C254.353 84.8448 254.146 84.3207 254.097 84.26L254.008 84.1497H249.248L249.106 84.26C248.992 84.3474 248.459 85.5821 248.115 86.5528L248.061 86.7071H246.718V86.5704C246.718 86.4953 246.776 86.3214 246.848 86.1839C246.92 86.0466 247.076 85.6616 247.194 85.3285C247.717 83.8556 247.888 83.3888 247.969 83.2238C248.016 83.1268 248.15 82.7895 248.268 82.4742C248.385 82.159 248.688 81.3653 248.941 80.7105C249.194 80.0558 249.524 79.1827 249.674 78.7705C249.825 78.3582 250.118 77.5844 250.326 77.0509C250.534 76.5174 250.729 76.0114 250.759 75.9265L250.814 75.7722H252.418L252.501 75.9265ZM251.689 77.6614C251.663 77.6352 251.563 77.7253 251.466 77.8615C251.37 77.9977 251.188 78.4067 251.061 78.7705C250.748 79.667 250.392 80.6103 250.245 80.931C250.178 81.0765 250.058 81.394 249.978 81.6365C249.897 81.879 249.773 82.2016 249.702 82.3536C249.631 82.5054 249.562 82.7237 249.55 82.8386L249.526 83.0474L252.411 83.0819C252.922 83.0681 253.347 83.0491 253.525 83.0273L253.607 82.8164L253.231 81.7855C253.025 81.2186 252.76 80.5165 252.642 80.2255C252.525 79.9345 252.35 79.4583 252.253 79.1673C251.992 78.3796 251.744 77.715 251.689 77.6614Z" fill="white"/>
<path d="M274.113 79.1965C274.246 79.1131 274.766 79.1033 275.052 79.179L275.253 79.2325L275.207 86.663H274.961C274.853 86.6877 274.682 86.7053 274.517 86.7058L274.096 86.7071L274.096 86.663H274.047L274.001 79.2671L274.113 79.1965Z" fill="white"/>
<path d="M295.986 76.7422C296.197 76.7422 296.433 76.7663 296.51 76.7958L296.651 76.8493V79.1043L296.792 79.1578C296.87 79.1872 297.082 79.1877 297.265 79.1589L297.596 79.1064L297.696 79.2256C297.751 79.2911 297.79 79.5231 297.781 79.741L297.766 80.1373L296.696 80.2255L296.649 85.4071L296.741 85.5169C296.791 85.5772 297.029 85.6524 297.268 85.6838C297.418 85.7035 297.559 85.74 297.648 85.7793L297.677 85.7812V85.793C297.714 85.812 297.738 85.8313 297.745 85.8492C297.767 85.9088 297.775 86.0568 297.761 86.178C297.747 86.2992 297.733 86.4679 297.729 86.5528L297.721 86.7071H297.085C296.735 86.7071 296.29 86.66 296.096 86.6024L295.742 86.4975L295.448 86.0539L295.358 80.2255L294.378 80.1373L294.323 79.2989L294.57 79.2062C294.705 79.1552 294.899 79.1338 294.999 79.1588C295.099 79.1837 295.238 79.1695 295.307 79.1273L295.433 79.0504L295.391 76.9948L295.496 76.8695L295.497 76.8304H295.529L295.603 76.7422H295.986Z" fill="white"/>
<path d="M314.088 76.8381C314.121 76.8908 314.142 77.4002 314.134 77.9701L314.119 79.0062L314.319 79.1701C314.377 79.184 314.447 79.1966 314.523 79.2068L314.727 79.1746C314.913 79.1453 315.111 79.1515 315.168 79.1885C315.185 79.1997 315.201 79.2226 315.215 79.2539L315.243 79.2555L315.251 79.357C315.293 79.5156 315.313 79.7482 315.297 79.9123L315.3 79.9539L315.29 79.961C315.283 80.0087 315.271 80.0479 315.255 80.0737L315.188 80.1814H314.765C314.532 80.1814 314.294 80.2291 314.235 80.2873L314.128 80.3931V85.3042L314.566 85.7371H314.642L314.822 85.6996C314.955 85.6719 315.111 85.6789 315.167 85.7152C315.266 85.7786 315.317 86.0911 315.297 86.5087L315.287 86.7071H313.864L313.165 86.4304L313.094 86.2381C313.055 86.1323 313.001 84.7362 312.974 83.1356L312.924 80.2255L312.235 80.1635L312.188 80.1727L312.169 80.1576L311.944 80.1373L311.934 79.9769L311.913 79.961L311.928 79.8752L311.89 79.2327L312.122 79.1752C312.249 79.1437 312.388 79.1392 312.431 79.1653C312.473 79.1913 312.612 79.1737 312.739 79.126L312.969 79.0394V76.8451L313.08 76.8006C313.142 76.7762 313.38 76.753 313.61 76.7492L314.028 76.7422L314.088 76.8381Z" fill="white"/>
<path fill-rule="evenodd" clip-rule="evenodd" d="M364.251 76.1911C364.35 76.4214 364.468 76.6893 364.513 76.7863C364.559 76.8833 364.677 77.217 364.776 77.5278C364.874 77.8386 364.989 78.1362 365.031 78.1892C365.102 78.2785 365.271 78.7398 365.81 80.3137C365.927 80.6532 366.063 81.0103 366.113 81.1074C366.2 81.2739 366.529 82.1554 366.872 83.1356C367.128 83.871 367.497 84.8544 367.843 85.7289L368.171 86.5585L368.092 86.6369C368.083 86.646 368.061 86.654 368.029 86.6611L368.028 86.663L368.017 86.6635C367.905 86.6859 367.688 86.6974 367.447 86.692C367.317 86.6954 367.185 86.6901 367.076 86.6782L366.692 86.663L366.464 86.0457C366.338 85.7062 366.209 85.3689 366.178 85.2961C366.146 85.2234 366.045 84.9456 365.954 84.6789L365.789 84.1938L363.432 84.169C362.136 84.1555 360.994 84.1637 360.895 84.1876L360.715 84.231L360.595 84.521C360.529 84.6806 360.377 85.0691 360.258 85.3843C360.138 85.6996 359.958 86.1261 359.858 86.3323L359.782 86.4902V86.5351L359.755 86.5451L359.677 86.7071H358.444V86.5902C358.444 86.4468 358.834 85.3041 358.962 85.0696C359.013 84.9759 359.114 84.7207 359.185 84.5025C359.256 84.2842 359.484 83.6691 359.691 83.1356C359.898 82.6021 360.164 81.8972 360.281 81.5691C360.399 81.2411 360.537 80.9038 360.587 80.8196C360.638 80.7353 360.774 80.3887 360.89 80.0492C361.286 78.8918 362.295 76.2478 362.452 75.9578L362.552 75.7722H364.072L364.251 76.1911ZM363.046 77.9107C363.015 78.0682 362.788 78.7132 362.541 79.3437C362.294 79.9742 361.988 80.7877 361.862 81.1515C361.736 81.5152 361.597 81.8574 361.553 81.9117C361.425 82.0703 361.195 82.9109 361.255 83.0053L361.308 83.0915L365.087 83.0888L365.22 83.006L365.31 82.9494V82.8233L365.23 82.6325C365.162 82.4727 364.998 82.0443 364.864 81.6806C364.731 81.3168 364.596 80.9597 364.565 80.8869C364.48 80.6872 363.994 79.3404 363.744 78.6055C363.469 77.8001 363.375 77.6241 363.222 77.6241H363.101L363.046 77.9107Z" fill="white"/>
<path d="M370.794 75.8163V86.663H370.683L370.666 86.7071H370.314C370.141 86.7071 369.947 86.688 369.851 86.663H369.635L369.612 81.3278C369.599 78.3935 369.609 75.9412 369.633 75.8782L369.677 75.7637L370.794 75.8163Z" fill="white"/>
<path d="M335.015 79.1863C335.332 79.1272 335.727 79.1431 335.901 79.2114H335.976L335.976 79.2575L335.976 79.2582L336.065 79.3642L336.019 86.663H335.93L335.628 86.6916C335.461 86.7073 335.231 86.6967 335.115 86.6679L335.095 86.663H334.86L334.813 79.224L335.015 79.1863Z" fill="white"/>
<path d="M274.553 76.2134C274.64 76.2136 274.757 76.2489 274.875 76.3013H274.903L274.927 76.3257C275.141 76.4298 275.341 76.5822 275.342 76.6748C275.342 76.7362 275.367 76.8743 275.396 76.982L275.449 77.1776L275.251 77.3731V77.376L275.247 77.377L274.908 77.7122H274.725L274.703 77.7234L274.652 77.7122H274.37L274.276 77.6305L274.165 77.6064L274.115 77.4893C273.999 77.3746 273.887 77.1771 273.859 77.0323L273.804 76.7493L274.346 76.2131L274.553 76.2134Z" fill="white"/>
<path d="M336.242 76.7286V77.1967L335.72 77.7122H335.458C335.455 77.7122 335.452 77.712 335.448 77.7119C335.446 77.712 335.445 77.7122 335.443 77.7122C335.423 77.7122 335.403 77.7099 335.382 77.7058C335.244 77.6848 335.069 77.6136 334.961 77.5294L334.726 77.3468V76.8555L334.712 76.7835L334.726 76.7659V76.646L335.164 76.2131H335.72L336.242 76.7286Z" fill="white"/>
<path d="M378.596 76.646V77.2793L378.159 77.7122L377.865 77.711C377.862 77.7109 377.86 77.7107 377.857 77.7107C377.848 77.7116 377.838 77.7122 377.829 77.7122H377.607L377.577 77.6806C377.532 77.6702 377.496 77.658 377.477 77.6448C377.368 77.5702 377.251 77.4095 377.172 77.2482L377.17 77.2456V77.243C377.116 77.1311 377.08 77.0194 377.08 76.9363V76.7286L377.341 76.4709L377.353 76.459L377.458 76.3013H377.513L377.602 76.2131H378.159L378.596 76.646Z" fill="white"/>
<path d="M327.726 13.0447C328.273 12.9758 331.046 12.9931 331.605 13.0688C331.924 13.112 332.506 13.1908 332.898 13.2438C333.659 13.3466 334.047 13.4314 335.038 13.7125C335.933 13.9662 337.484 14.5735 337.831 14.8063C337.994 14.9157 338.211 15.0311 338.312 15.063C338.413 15.0949 338.906 15.3932 339.407 15.7262L340.317 16.3316L341.277 17.2776C342.537 18.5188 343.104 19.2765 343.903 20.7889C344.231 21.4093 344.786 22.7272 344.962 23.3022C345.395 24.7204 345.671 26.321 345.715 27.6673L345.723 27.9163L345.749 28.1586L345.732 28.1727L345.738 28.3728L339.14 28.4194L339.028 28.269C338.967 28.1863 338.916 27.9179 338.916 27.6726C338.915 27.2405 338.727 25.6948 338.598 25.0659C338.491 24.5446 337.933 23.2882 337.58 22.7749C337.102 22.0784 336.463 21.3993 335.89 20.9785C335.275 20.5266 335.013 20.372 334.28 20.0278C333.386 19.6083 333.203 19.539 332.675 19.4231C332.405 19.3637 331.924 19.25 331.605 19.1703L331.025 19.0252H327.994L327.37 19.1855C327.026 19.2736 326.585 19.3861 326.389 19.4353C326.193 19.4845 325.781 19.6406 325.474 19.782C325.168 19.9235 324.889 20.0392 324.855 20.0393C324.821 20.0393 324.631 20.1454 324.432 20.275C324.233 20.4047 323.91 20.613 323.714 20.738C323.319 20.9902 322.325 21.9421 321.959 22.4203C321.274 23.3126 320.627 24.761 320.403 25.9036L320.264 26.6091L320.259 29.0783L320.408 29.7802C320.491 30.1663 320.589 30.5234 320.627 30.5739C320.665 30.6243 320.77 30.864 320.86 31.1065C321.018 31.5297 321.422 32.2419 321.706 32.5993C322.334 33.389 323.348 34.2489 324.32 34.8158C325.424 35.4602 328.069 36.6196 329.153 36.9342C329.398 37.0054 329.678 37.108 329.774 37.1623C329.871 37.2165 330.232 37.3528 330.577 37.4651C331.264 37.6886 332.751 38.2122 333.149 38.3702C333.287 38.4251 333.419 38.47 333.442 38.47C333.516 38.4702 335.55 39.2631 336.197 39.5438C337.376 40.0556 338.873 40.788 339.586 41.2015C340.714 41.8565 341.744 42.657 342.692 43.6159L343.569 44.5034L344.132 45.3448C344.442 45.8075 344.814 46.4047 344.959 46.672C345.415 47.5137 345.86 48.7014 346.199 49.9784L346.525 51.2127L346.53 55.7983L346.382 56.3715C346.301 56.6868 346.15 57.3019 346.047 57.7384C345.757 58.9647 345.09 60.5358 344.342 61.7508C343.869 62.5198 342.981 63.63 342.281 64.3273C341.692 64.914 340.152 66.16 340.016 66.16C339.985 66.1601 339.835 66.2527 339.683 66.3659C339.399 66.5783 338.528 67.037 337.668 67.4269C337.068 67.6997 336.323 67.9702 335.599 68.1841L335.596 68.1883H335.585C335.297 68.2731 335.012 68.3491 334.741 68.4124C334.235 68.5304 333.793 68.6439 333.76 68.6644C333.726 68.685 333.217 68.7717 332.629 68.8572L331.56 69.0129L326.924 68.9981L325.854 68.8151C325.265 68.7145 324.503 68.5745 324.16 68.5041C323.372 68.3426 321.788 67.8141 321.262 67.5373C321.041 67.4213 320.761 67.2965 320.639 67.26C320.518 67.2234 320.317 67.1268 320.193 67.0452C320.07 66.9637 319.552 66.6251 319.043 66.2927L318.117 65.6884L317.251 64.8439C316.009 63.6321 315.108 62.3786 314.33 60.7807C313.878 59.8522 313.552 58.9402 313.29 57.8706C313.049 56.885 312.877 54.0063 313.044 53.7458L313.116 53.6332L316.22 53.633C317.928 53.6329 319.348 53.6559 319.376 53.6839C319.405 53.7121 319.455 53.9612 319.488 54.2375C319.606 55.2355 319.981 57.0611 320.098 57.2093C320.137 57.2578 320.239 57.5157 320.326 57.7825C320.413 58.0492 320.559 58.3728 320.65 58.5015C320.741 58.6303 320.816 58.7725 320.816 58.8177C320.816 58.9795 321.556 59.9537 322.095 60.5002C322.397 60.8067 322.829 61.1932 323.056 61.3592C323.978 62.035 325.583 62.6586 326.924 62.8622L327.726 62.9842L329.153 62.982C329.938 62.9809 330.881 62.9413 331.248 62.8943C332.648 62.7151 334.487 62.0414 335.735 61.2503C336.069 61.0384 336.675 60.5385 337.081 60.1395C338.555 58.6909 339.366 57.0614 339.638 55.0046L339.743 54.211L339.64 52.2709L339.455 51.5654C339.353 51.1774 339.1 50.5277 338.893 50.1218L338.544 49.4389C338.517 49.4023 338.49 49.3659 338.462 49.3297L337.847 48.7049C337.179 48.0274 336.219 47.2822 335.505 46.8872C335.297 46.7724 334.706 46.4766 334.191 46.2299C333.676 45.9833 333.192 45.7479 333.115 45.7069C332.962 45.6247 331.152 44.9113 330.528 44.6872C330.311 44.6093 329.605 44.3684 328.958 44.1519C328.312 43.9354 327.449 43.6376 327.041 43.4901C326.633 43.3428 325.898 43.0824 325.408 42.9116C324.211 42.4947 322.106 41.6133 321.485 41.2691C321.386 41.2148 321.126 41.0749 320.905 40.9583C320.037 40.4997 319.398 40.0846 318.587 39.451C316.508 37.8283 315.021 35.8744 314.249 33.7521C313.819 32.5692 313.677 31.9906 313.406 30.321L313.308 29.7118L313.386 26.2564L313.586 25.1981C313.876 23.6648 314.54 21.7481 315.146 20.7007C315.955 19.3002 316.814 18.1806 317.751 17.3056C318.561 16.5485 318.935 16.2512 319.79 15.6862C320.487 15.2261 322.042 14.3955 322.207 14.3955C322.253 14.3954 322.441 14.3153 322.626 14.2171C322.811 14.1191 323.172 13.9845 323.427 13.9183C323.683 13.8522 324.173 13.7153 324.516 13.6141C325.034 13.4615 326.544 13.1936 327.726 13.0447Z" fill="white"/>
<path d="M238.247 13.0427C238.698 12.9736 241.43 12.9927 241.992 13.0688C242.31 13.112 242.892 13.1912 243.285 13.2446C244.204 13.3697 244.806 13.4964 245.226 13.653C245.411 13.7219 245.744 13.8185 245.965 13.8677C246.718 14.0346 248.062 14.6506 249.437 15.4598C250.499 16.0846 252.015 17.4479 252.915 18.588C253.531 19.3673 254.277 20.571 254.629 21.3498C255.105 22.404 255.553 23.7176 255.724 24.5581C255.821 25.0399 255.927 25.475 255.958 25.525C256.035 25.6482 256.248 28.1639 256.194 28.3047L256.15 28.4169H249.501L249.447 28.2774C249.417 28.2006 249.393 27.9224 249.393 27.6591C249.393 27.0924 249.181 25.6786 248.985 24.9336C248.841 24.3865 248.796 24.2745 248.329 23.2886L248.05 22.7018L247.546 22.1421C246.898 21.4215 245.837 20.5743 245.157 20.2329C243.988 19.6463 243.3 19.4292 241.412 19.0512L240.966 18.9619L239.629 19.0077C238.893 19.0328 238.151 19.0976 237.979 19.1514C237.808 19.2053 237.406 19.3042 237.088 19.3713C235.891 19.6233 234.043 20.6789 233.045 21.6802C232.644 22.0826 232.046 22.899 231.695 23.5226C231.343 24.1489 231.035 24.9906 230.84 25.8595L230.671 26.6091L230.667 29.0232L230.798 29.5799C231.107 30.8941 231.578 31.8964 232.288 32.7477C233.208 33.8504 234.126 34.528 235.839 35.3689C237.058 35.9674 237.546 36.1823 238.38 36.4879C238.724 36.6136 239.306 36.8269 239.673 36.9619C240.041 37.0969 240.984 37.4338 241.769 37.7107C242.553 37.9876 243.436 38.3063 243.73 38.4189C244.025 38.5315 244.607 38.7521 245.023 38.909C246.359 39.4116 247.894 40.0781 248.902 40.5929C249.852 41.0776 251.352 42.0084 251.792 42.386C252.502 42.9948 253.576 44.0607 253.971 44.5502C254.56 45.2783 255.211 46.2942 255.558 47.0239C255.708 47.3391 255.87 47.6716 255.918 47.7627C256.072 48.0514 256.595 49.694 256.693 50.1986C256.859 51.048 257.061 52.8103 257.061 53.4019C257.061 54.0544 256.846 56.1562 256.699 56.9447C256.644 57.2357 256.527 57.6921 256.439 57.9588C256.35 58.2256 256.216 58.6423 256.142 58.8848C255.809 59.9741 255.212 61.1248 254.279 62.4787L253.717 63.294L251.577 65.4192L250.641 66.0366C250.126 66.3762 249.203 66.8967 248.59 67.1934C246.859 68.0315 245.665 68.392 243.195 68.8223L242.125 69.0087L237.4 69.0122L236.508 68.8661C235.022 68.6227 233.97 68.3757 232.989 68.0404C232.057 67.7222 230.902 67.2094 230.311 66.8517C229.822 66.5557 229.055 66.045 228.809 65.8514C228.118 65.3067 226.906 64.0665 226.344 63.3293C225.57 62.3141 224.783 60.9756 224.459 60.1238C224.328 59.7819 224.191 59.4624 224.154 59.4139C224.079 59.3155 223.899 58.6017 223.631 57.3384L223.453 56.4978L223.429 55.1162C223.417 54.3565 223.43 53.7114 223.459 53.6827C223.462 53.6793 223.486 53.676 223.528 53.6727L223.534 53.6501L224.319 53.6478C224.906 53.6374 225.742 53.6307 226.658 53.6307H229.805L229.871 53.7363C229.908 53.7944 229.966 54.2027 230.001 54.6437C230.036 55.0847 230.163 55.8027 230.283 56.2392C230.402 56.6757 230.536 57.1718 230.58 57.3415C230.624 57.5113 230.784 57.9041 230.937 58.2144C232.019 60.4187 233.605 61.7893 235.928 62.5306C236.394 62.6793 237.089 62.8423 237.473 62.8931C237.857 62.9438 238.86 62.9853 239.702 62.9853L241.234 62.9851L241.947 62.8596C242.87 62.6973 244.258 62.2513 245.059 61.8599C245.407 61.6898 245.981 61.3572 246.335 61.1208C247.032 60.6561 247.982 59.7769 248.324 59.2816C248.441 59.1119 248.564 58.9531 248.597 58.9289C248.63 58.9046 248.838 58.5475 249.06 58.1352C249.833 56.7013 250.107 55.5389 250.105 53.6975C250.104 52.5124 249.995 51.7867 249.684 50.904L249.451 50.2427L249.006 49.5983C248.761 49.244 248.353 48.7449 248.099 48.4895C247.66 48.0484 246.538 47.216 245.96 46.9022C245.813 46.8224 245.632 46.7176 245.558 46.6692C245.306 46.5035 243.014 45.4575 242.593 45.3161C242.362 45.2384 242.102 45.1333 242.015 45.0825C241.929 45.0317 241.557 44.8896 241.189 44.7667C240.821 44.6437 240.24 44.4492 239.896 44.3344C239.236 44.1137 237.549 43.5232 236.285 43.0706C235.868 42.9212 235.166 42.6542 234.725 42.4772C234.283 42.3002 233.762 42.097 233.565 42.0258C232.735 41.7239 230.954 40.7944 230.065 40.1982C228.895 39.4138 228.724 39.2727 227.588 38.1613C226.683 37.2747 226.55 37.1195 226.003 36.3094C225.304 35.2743 224.641 33.8389 224.336 32.6998C224.233 32.315 224.128 31.9668 224.102 31.9258C224.076 31.8847 223.997 31.4258 223.927 30.9058L223.798 29.9601V26.6973L223.925 25.7713C224.258 23.3605 225.234 20.9609 226.689 18.9811C227.062 18.4728 227.443 18.0498 228.26 17.2379C228.79 16.7107 230.074 15.7159 230.578 15.4419C232.074 14.6286 233.098 14.1652 233.967 13.9088C234.236 13.8292 234.547 13.7284 234.658 13.6849C235.014 13.544 235.949 13.3564 236.998 13.215C237.562 13.1391 238.124 13.0614 238.247 13.0427Z" fill="white"/>
<path fill-rule="evenodd" clip-rule="evenodd" d="M289.26 14.0648C289.333 14.1255 289.445 14.3338 289.51 14.5278C289.575 14.7218 289.782 15.2773 289.971 15.7623C290.024 15.8979 290.097 16.0916 290.184 16.3226C290.193 16.3374 290.201 16.3588 290.208 16.3846C290.43 16.9759 290.731 17.7872 290.989 18.4961C291.361 19.5146 291.703 20.4273 291.749 20.5243C291.796 20.6213 292.036 21.2761 292.282 21.9794C292.529 22.6826 292.769 23.3374 292.815 23.4344C292.862 23.5314 293.085 24.1267 293.311 24.7572C293.72 25.8968 293.976 26.581 294.5 27.9337C294.651 28.3227 294.975 29.1957 295.22 29.8737C295.465 30.5518 295.829 31.543 296.029 32.0766C296.23 32.6101 296.488 33.3045 296.604 33.6198C296.719 33.9351 296.954 34.57 297.125 35.0308C297.297 35.4915 297.576 36.2455 297.746 36.7063C297.916 37.167 298.426 38.5361 298.88 39.7486C299.334 40.9612 299.836 42.3104 299.997 42.7469C300.157 43.1834 300.416 43.8779 300.572 44.2902C300.728 44.7024 300.971 45.3572 301.111 45.7452C301.252 46.1332 301.485 46.7682 301.629 47.1562C301.774 47.5442 301.998 48.1593 302.128 48.523C302.258 48.8868 302.402 49.2638 302.447 49.3608C302.493 49.4578 302.715 50.0531 302.942 50.6836C303.168 51.3141 303.485 52.1673 303.646 52.5796C303.808 52.9918 304.011 53.5474 304.097 53.8141C304.183 54.0809 304.284 54.3388 304.321 54.3873C304.357 54.4358 304.416 54.5747 304.452 54.696C304.559 55.0588 305.3 57.1071 305.393 57.2974C305.479 57.4734 305.758 58.2453 306.158 59.4139C306.274 59.7534 306.408 60.1105 306.455 60.2075C306.503 60.3045 306.686 60.7807 306.863 61.2658C307.039 61.7508 307.321 62.5048 307.488 62.9413C307.656 63.3778 307.996 64.2905 308.243 64.9695C308.491 65.6485 308.752 66.343 308.822 66.5128C309.086 67.1462 309.307 67.8626 309.261 67.936L309.213 68.0119H305.57C303.566 68.0119 301.863 67.9879 301.786 67.9584C301.708 67.929 301.645 67.848 301.645 67.7785C301.645 67.709 301.571 67.5049 301.481 67.3249C301.39 67.145 301.246 66.7398 301.159 66.4246C301.072 66.1093 300.971 65.8117 300.933 65.7632C300.895 65.7147 300.695 65.179 300.487 64.5727C300.279 63.9664 300.017 63.2323 299.904 62.9413C299.791 62.6503 299.51 61.8764 299.28 61.2217C299.05 60.5669 298.711 59.6343 298.525 59.1493C298.34 58.6643 298.041 57.8356 297.862 57.3077C297.449 56.0894 297.229 55.6129 297.048 55.5442C297.038 55.5403 296.936 55.5365 296.753 55.5328L273.022 55.4897H272.853L272.625 55.7845C272.5 55.9468 272.398 56.1065 272.398 56.1395C272.398 56.1726 272.053 57.0617 271.631 58.1154C271.21 59.1691 270.726 60.3883 270.557 60.8248C270.245 61.627 270.172 61.8094 269.61 63.1617C269.439 63.574 269.248 64.07 269.185 64.264C269.123 64.4581 269.022 64.6962 268.961 64.7932C268.901 64.8902 268.781 65.1878 268.696 65.4545C268.61 65.7213 268.512 65.9792 268.477 66.0277C268.443 66.0762 268.319 66.3739 268.203 66.6891C268.087 67.0044 267.941 67.3615 267.877 67.4828C267.814 67.6041 267.762 67.7486 267.762 67.8041C267.761 67.8596 267.698 67.929 267.62 67.9584C267.542 67.9879 265.957 68.0119 264.098 68.0119H260.717L260.718 67.9017C260.719 67.7285 260.957 66.9977 261.102 66.7202C261.174 66.5819 261.314 66.2306 261.413 65.9396C261.745 64.9608 263.284 60.8923 263.481 60.4721C263.566 60.2929 263.903 59.3677 264.204 58.4879C264.296 58.2212 264.427 57.9037 264.496 57.7825C264.565 57.6612 264.704 57.2972 264.804 56.9735C264.905 56.6498 265.029 56.3125 265.081 56.2239C265.133 56.1354 265.298 55.7255 265.448 55.3133C265.597 54.901 265.84 54.2462 265.987 53.8582C266.134 53.4702 266.332 52.9345 266.428 52.6677C266.524 52.401 266.642 52.1034 266.691 52.0063C266.741 51.9093 266.918 51.453 267.085 50.9922C267.253 50.5315 267.537 49.7775 267.716 49.3167C267.896 48.8559 268.137 48.221 268.252 47.9058C268.367 47.5905 268.608 46.9556 268.788 46.4948C268.968 46.034 269.212 45.3792 269.329 45.0397C269.447 44.7002 269.583 44.3431 269.632 44.2461C269.682 44.1491 269.825 43.7919 269.951 43.4524C270.077 43.1129 270.302 42.5176 270.451 42.1296C270.599 41.7416 270.833 41.1265 270.97 40.7628C271.108 40.399 271.308 39.8831 271.414 39.6164C271.521 39.3496 271.642 39.0321 271.682 38.9109C271.722 38.7895 272.065 37.8769 272.445 36.8826C272.825 35.8884 273.233 34.7975 273.353 34.4585C273.473 34.1195 273.604 33.802 273.644 33.753C273.684 33.7039 273.799 33.399 273.899 33.0754C274 32.7517 274.124 32.4144 274.174 32.3258C274.225 32.2372 274.41 31.7679 274.586 31.2829C274.762 30.7979 275.08 29.9447 275.294 29.3869C276.152 27.1439 276.437 26.3961 276.739 25.595C276.912 25.1342 277.168 24.4596 277.307 24.0958C277.446 23.7321 277.684 23.0971 277.836 22.6849C277.987 22.2726 278.166 21.8162 278.233 21.6707C278.3 21.5252 278.407 21.2276 278.47 21.0093C278.533 20.7911 278.634 20.5331 278.694 20.4361C278.753 20.3391 278.887 19.9851 278.99 19.6493C279.094 19.3136 279.217 18.9925 279.265 18.9358C279.312 18.8791 279.432 18.5784 279.531 18.2675C279.63 17.9568 279.75 17.623 279.799 17.526C279.882 17.3596 279.958 17.1619 280.555 15.5419C280.69 15.1782 280.855 14.7555 280.923 14.6027C280.991 14.4499 281.047 14.2832 281.047 14.2323C281.047 14.1814 281.117 14.0993 281.203 14.0498L281.359 13.96L289.127 13.9546L289.26 14.0648ZM284.943 22.868C284.799 23.0866 284.42 24.069 284.029 25.2337C283.909 25.5927 283.776 25.93 283.734 25.9833C283.691 26.0364 283.586 26.2982 283.5 26.565C283.414 26.8318 283.29 27.1691 283.224 27.3146C283.158 27.4601 282.988 27.8966 282.846 28.2846C282.703 28.6726 282.479 29.2679 282.347 29.6074C282.214 29.9469 281.974 30.5818 281.813 31.0183C281.652 31.4549 281.168 32.7247 280.738 33.8403C280.308 34.9557 279.923 35.9676 279.883 36.089C279.842 36.2102 279.663 36.6864 279.485 37.1472C279.089 38.1694 278.723 39.1287 278.383 40.0352C278.242 40.4112 278.006 41.0361 277.858 41.4242C277.711 41.8122 277.501 42.3677 277.393 42.6587C277.286 42.9498 277.064 43.5252 276.901 43.9374C276.738 44.3497 276.435 45.1434 276.227 45.7011C276.019 46.2589 275.809 46.8145 275.76 46.9357C275.712 47.057 275.563 47.4538 275.429 47.8176C275.296 48.1813 275.101 48.6967 274.996 48.9628C274.787 49.4927 274.758 49.7272 274.894 49.7724C274.943 49.7885 279.498 49.7915 285.015 49.7789L295.046 49.7562V49.6176C295.046 49.5414 294.949 49.2341 294.829 48.9349C294.71 48.6356 294.364 47.7161 294.061 46.8916C293.757 46.0671 293.37 45.0155 293.199 44.5547C292.644 43.0605 292.282 42.0534 292.09 41.4683C291.986 41.1531 291.868 40.8529 291.827 40.801C291.786 40.7492 291.674 40.4714 291.578 40.1837C291.309 39.3773 290.527 37.2355 289.698 35.0308C289.313 34.0049 288.914 32.9029 288.661 32.1647C288.545 31.8252 288.409 31.4681 288.36 31.3711C288.274 31.2037 288.07 30.6438 287.588 29.2546C287.47 28.9151 287.336 28.558 287.29 28.461C287.244 28.364 287.001 27.7092 286.75 27.0059C286.499 26.3027 286.221 25.5487 286.131 25.3304C286.042 25.1121 285.86 24.6161 285.727 24.2281C285.594 23.8401 285.45 23.4849 285.406 23.4388C285.363 23.3927 285.327 23.2714 285.327 23.1691C285.327 23.0668 285.272 22.9092 285.206 22.8188L285.084 22.6543L284.943 22.868Z" fill="white"/>
<path fill-rule="evenodd" clip-rule="evenodd" d="M378.879 14.1005C378.969 14.1808 379.042 14.3217 379.042 14.4136C379.042 14.5055 379.107 14.7053 379.187 14.8577C379.267 15.0101 379.433 15.4148 379.556 15.7572C379.853 16.5813 380.287 17.7735 380.666 18.8047C380.835 19.2655 381.163 20.1584 381.393 20.7889C381.624 21.4194 381.909 22.1734 382.025 22.4644C382.142 22.7554 382.287 23.1522 382.347 23.3462C382.406 23.5403 382.528 23.8577 382.617 24.0517C382.706 24.2457 382.883 24.7021 383.01 25.0659C383.138 25.4296 383.346 26.0249 383.473 26.3886C383.6 26.7524 383.733 27.0897 383.769 27.1382C383.804 27.1867 383.903 27.4447 383.988 27.7114C384.134 28.1701 384.344 28.7433 384.925 30.2688C385.063 30.6325 385.326 31.3468 385.51 31.8561C385.693 32.3654 385.998 33.1732 386.187 33.6511C386.377 34.1292 386.532 34.5597 386.532 34.6078C386.532 34.6561 386.592 34.8206 386.665 34.9734C386.737 35.1262 386.895 35.529 387.015 35.8685C387.136 36.208 387.36 36.8231 387.514 37.2354C387.668 37.6476 387.905 38.3027 388.04 38.6913C388.176 39.0797 388.329 39.4765 388.38 39.5731C388.431 39.6696 388.563 40.0066 388.673 40.3218C389.021 41.3148 389.675 43.098 390.323 44.8193C390.73 45.8999 390.828 46.1646 391.484 47.9498C391.662 48.4348 391.92 49.1293 392.057 49.4931C392.306 50.1541 392.775 51.4108 393.176 52.4914C393.293 52.8066 393.655 53.7789 393.979 54.6519C394.304 55.5249 394.684 56.5567 394.825 56.9447C394.965 57.3327 395.207 57.9875 395.361 58.3998C395.516 58.812 395.78 59.5263 395.947 59.9871C396.114 60.4478 396.291 60.9042 396.339 61.0012C396.45 61.2238 396.912 62.4967 397.155 63.2499C397.257 63.5652 397.374 63.8642 397.415 63.9144C397.456 63.9646 397.59 64.3019 397.713 64.664C398.115 65.8454 398.397 66.6417 398.479 66.8214C398.779 67.4872 398.892 67.8059 398.86 67.9017L398.822 68.0119H391.266L391.042 67.3285C390.918 66.9525 390.633 66.149 390.407 65.5427C390.182 64.9365 389.956 64.3214 389.905 64.1759C389.854 64.0303 389.692 63.574 389.544 63.1617C389.396 62.7495 389.126 61.9955 388.944 61.4862C388.761 60.977 388.561 60.4214 388.499 60.2516C387.95 58.7612 387.745 58.188 387.588 57.6943C387.487 57.379 387.374 57.0814 387.337 57.0329C387.3 56.9844 387.178 56.6669 387.067 56.3274C386.956 55.988 386.826 55.6612 386.778 55.6012L386.691 55.4921L362.477 55.4897L362.114 55.7983L361.703 56.8565C361.478 57.4385 361.196 58.133 361.077 58.3998C360.959 58.6665 360.814 59.0435 360.756 59.2375C360.697 59.4315 360.59 59.7064 360.517 59.8485C360.445 59.9905 360.293 60.3477 360.18 60.6422C360.068 60.9366 359.848 61.495 359.691 61.8831C359.535 62.2711 359.309 62.8465 359.19 63.1617C359.07 63.477 358.874 63.9444 358.753 64.2003C358.632 64.4563 358.534 64.6995 358.534 64.7408C358.534 64.8245 357.514 67.3523 357.291 67.8306L357.271 67.9237L357.241 67.9236L357.186 68.0119H350.22L350.268 67.8135C350.294 67.7044 350.461 67.2381 350.64 66.7773C350.818 66.3166 351.043 65.7015 351.139 65.4105C351.236 65.1194 351.359 64.8048 351.413 64.7112C351.467 64.6176 351.604 64.2803 351.718 63.9616C351.832 63.643 352.062 63.0251 352.229 62.5885C352.927 60.769 353.384 59.5716 353.489 59.2816C353.988 57.9149 354.83 55.7318 354.972 55.4359C355.067 55.2366 355.145 55.0058 355.145 54.9231C355.145 54.8403 355.191 54.6875 355.248 54.5834C355.304 54.4794 355.508 53.976 355.701 53.4648C356.56 51.1925 357.045 49.9217 357.417 48.964C357.597 48.5032 357.837 47.8683 357.952 47.553C358.067 47.2377 358.33 46.5433 358.537 46.0098C359.007 44.7986 359.486 43.5131 359.702 42.8792C359.793 42.6125 359.911 42.3207 359.965 42.2308C360.019 42.141 360.165 41.764 360.29 41.3931C360.414 41.0222 360.547 40.679 360.583 40.6305C360.62 40.582 360.72 40.324 360.806 40.0573C360.892 39.7905 361.017 39.4532 361.084 39.3077C361.2 39.054 361.567 38.0853 361.936 37.059C362.031 36.7922 362.164 36.4549 362.23 36.3094C362.297 36.1639 362.473 35.7076 362.623 35.2953C363.079 34.0412 363.343 33.3576 363.529 32.9551C363.626 32.744 363.705 32.5128 363.705 32.4414C363.705 32.37 363.789 32.1198 363.892 31.8855C363.995 31.6511 364.19 31.1616 364.325 30.7979C364.461 30.4341 364.702 29.7992 364.861 29.3869C365.193 28.5242 365.574 27.5136 365.927 26.565C366.062 26.2012 366.5 25.0473 366.9 24.0007C367.301 22.9543 367.629 22.0675 367.629 22.0299C367.629 21.9925 367.686 21.8369 367.757 21.6841C367.899 21.3762 368.583 19.6258 368.831 18.937C368.918 18.6945 369.042 18.377 369.106 18.2315C369.171 18.086 369.321 17.6892 369.441 17.3497C369.641 16.782 369.772 16.4327 370.424 14.7242C370.55 14.3957 370.677 14.0882 370.706 14.0408L370.76 13.9546H378.716L378.879 14.1005ZM374.525 22.7907C374.476 22.8538 374.385 23.0839 374.323 23.3022C374.26 23.5204 374.176 23.739 374.136 23.7881C374.095 23.8372 373.963 24.1546 373.841 24.4936C373.607 25.1477 373.319 25.9158 372.717 27.4909C372.514 28.0244 372.244 28.7387 372.118 29.0783C371.993 29.4178 371.836 29.8146 371.769 29.9601C371.703 30.1056 371.552 30.5025 371.432 30.842C371.313 31.1815 371.086 31.7966 370.927 32.2088C370.6 33.0584 370.24 34.0069 369.864 35.0079C369.551 35.8414 369.175 36.8267 368.744 37.9409C368.444 38.7189 368.166 39.4499 367.538 41.1155C367.401 41.4793 367.16 42.1142 367.001 42.5265C366.843 42.9387 366.597 43.5935 366.455 43.9815C366.312 44.3695 366.142 44.806 366.076 44.9516C366.01 45.0971 365.886 45.4344 365.801 45.7011C365.716 45.9679 365.598 46.2655 365.539 46.3625C365.479 46.4595 365.378 46.7373 365.314 46.9798C365.25 47.2223 365.141 47.5112 365.072 47.6216C365.003 47.7321 364.867 48.0757 364.771 48.3852C364.674 48.6947 364.535 49.0606 364.463 49.1985C364.39 49.3363 364.33 49.5184 364.33 49.6033L364.329 49.7576L364.486 49.7567C364.571 49.7562 369.11 49.7598 374.571 49.7649L384.5 49.7741L384.666 49.6104L384.498 49.221C384.406 49.0069 384.239 48.5539 384.127 48.2144C384.014 47.8749 383.893 47.5574 383.858 47.5089C383.797 47.4267 383.699 47.1571 383.101 45.4366C382.975 45.0728 382.832 44.6958 382.784 44.5988C382.736 44.5018 382.58 44.0851 382.437 43.6729C382.295 43.2606 382.051 42.586 381.897 42.1737C381.742 41.7615 381.522 41.1658 381.409 40.85C381.295 40.5342 381.133 40.1176 381.049 39.9241C380.965 39.7306 380.842 39.3937 380.776 39.1754C380.71 38.9572 380.472 38.2826 380.246 37.6763C380.021 37.07 379.754 36.3359 379.654 36.0449C379.553 35.7539 379.401 35.357 379.316 35.163C379.231 34.969 379.088 34.5722 378.998 34.2812C378.909 33.9902 378.784 33.6727 378.721 33.5757C378.657 33.4787 378.546 33.174 378.474 32.8986C378.401 32.6232 378.294 32.3089 378.235 32.2002C378.176 32.0915 378.037 31.7415 377.925 31.4222C377.814 31.1031 377.554 30.3856 377.349 29.8278C377.144 29.2701 376.883 28.5558 376.771 28.2405C376.658 27.9252 376.417 27.2705 376.235 26.7855C376.054 26.3004 375.788 25.5663 375.645 25.154C375.501 24.7418 375.329 24.2854 375.262 24.1399C375.195 23.9944 375.07 23.6571 374.985 23.3903C374.9 23.1236 374.781 22.8538 374.722 22.7907L374.613 22.6761L374.525 22.7907Z" fill="white"/>
<path d="M165 87H160.334V81.0831L165 81V87Z" fill="#6A7380"/>
<path d="M192.925 39.293L193.175 39.5406V86.5904C193.175 86.6152 192.83 86.5954 192.86 86.9643L187.374 86.7093C187.039 82.091 187.458 77.2844 186.177 72.7899C186.02 72.6067 184.536 72.0545 184.179 71.9232C180.725 70.6479 173.68 70.591 170.044 71.2695C168.733 71.5147 167.529 72.1139 166.223 72.3739L165.696 75.8531C165.686 75.9423 165.459 75.9126 165.444 76.1231C165.231 78.8173 165.284 83.0567 165.444 85.7807C165.449 85.85 166.268 85.8673 165.361 86.8405L163.893 86.7167L161.895 81.6403L160.334 81.0831L160.459 39.2979H192.925V39.293ZM166.952 45.7314V50.9316L168.076 49.6935L167.951 49.2007C168.535 49.7083 169.377 48.5519 170.001 48.2597C175.408 45.7363 182.434 46.2464 186.642 50.7236C186.722 50.8078 186.674 51.0554 186.682 51.1817H187.056C186.842 49.3071 187.281 46.3802 186.287 44.825C183.323 40.1968 172.454 40.39 168.553 43.6364C168.418 43.7503 166.977 45.6026 166.955 45.7314H166.952ZM168.95 57.37C172.202 55.7629 174.984 55.0695 178.76 55.379L183.153 56.6642L185.675 58.4546C185.59 61.4287 186.147 64.4027 184.656 66.9954L184.184 67.1514C184.424 64.5538 185.488 62.7832 183.862 60.3515C180.099 54.7179 168.218 56.3275 168.955 64.4621C169 64.95 169.674 66.4011 169.707 66.7131C169.727 66.8963 169.687 67.092 169.697 67.2752C168.728 68.3648 167.864 62.959 167.829 62.6272C167.676 61.2528 167.232 58.4695 168.448 57.7414H165.206L165.454 69.0086H187.808L188.308 57.9866L185.685 58.1104C185.451 57.3378 186.802 56.8524 186.904 56.2928C188.607 47.0636 174.032 45.5803 168.543 50.5676C166.792 52.1574 166.792 53.4376 166.96 55.7876L168.945 56.8772C168.96 56.897 168.968 57.3403 168.95 57.3675C168.92 57.4195 168.431 57.3799 168.451 57.6127C169.022 57.7736 168.92 57.3824 168.95 57.3675V57.37ZM185.525 70.4053C184.616 69.4915 173.48 69.8778 171.505 69.8828C170.161 69.8828 168.743 69.546 167.277 69.8704L166.702 71.4874C167.881 71.1729 169.574 70.3607 170.753 70.2443C173.738 69.9471 177.689 70.1997 180.528 70.4919C181.387 70.5811 182.236 70.6603 183.095 70.7519L185.932 71.735C185.975 71.6806 185.583 70.4672 185.525 70.4077V70.4053Z" fill="#6A7380"/>
<path d="M186.182 82.3807C186.095 83.1558 187.059 84.6019 186.24 84.8595L166.695 84.9263L166.233 84.5351L166.7 82.507L165.953 82.7521C165.728 82.606 166.058 79.0624 166.083 78.4731C166.098 78.1165 165.721 77.9555 165.723 77.8416C165.726 77.5494 166.523 73.2258 166.687 73.0425L167.204 73.2803L166.702 76.9328L169.45 76.6208L166.702 77.6757V81.3902L170.449 80.152C170.481 80.2857 170.406 80.5606 170.449 80.6473L170.698 80.8949C170.311 80.9667 170.506 80.7686 170.449 80.6473L166.957 82.2618L167.202 84.1141H185.81L185.843 82.715C185.967 82.2197 186.147 82.4203 186.185 82.3782L181.939 80.4591L182.254 80.1471L185.937 81.3877L185.925 77.8119L182.686 76.866L182.691 76.4351L186.062 76.9279L185.77 72.9633L186.187 72.9682C186.34 74.6398 186.619 76.0983 186.697 77.7426C186.707 77.958 186.697 79.0253 186.697 79.3398C186.699 80.2833 186.672 81.2292 186.692 82.1702C186.637 82.3609 186.245 82.3138 186.187 82.3782L186.182 82.3807Z" fill="#6A7380"/>
<path d="M172.696 72.4755V73.0945C171.505 73.0103 169.709 73.7334 168.64 73.721C168.316 73.7186 166.89 73.4065 167.452 72.9707C167.714 72.7677 168.353 73.2481 168.765 73.2283C169.277 73.2035 170.826 72.4755 170.948 72.4755H172.696Z" fill="#6A7380"/>
<path d="M181.4 72.5176C181.447 72.525 182.229 72.9559 182.279 72.9633C183.475 73.1391 184.257 73.0673 185.436 72.9707V73.3397C184.864 73.2877 184.279 73.6889 183.752 73.7111C183.225 73.7334 182.676 73.3521 182.506 73.3323C181.939 73.2654 180.243 73.518 179.941 72.9039L180.226 72.5176C180.613 72.4235 181.013 72.4507 181.4 72.5176Z" fill="#6A7380"/>
<path d="M175.943 73.2183C176.013 73.8845 175.121 73.8671 174.694 73.8349V75.4445L173.108 74.1222C173.261 73.0252 173.67 74.4367 173.945 74.2064L174.409 73.2134L175.948 73.2183H175.943Z" fill="#6A7380"/>
<path d="M176.902 74.5011C176.939 74.5134 177.242 74.8626 177.449 74.7735L176.984 75.7937L175.376 75.447L175.473 74.7264C176.053 74.6274 176.193 74.2832 176.902 74.4986V74.5011Z" fill="#6A7380"/>
<path d="M177.928 72.9881C178.797 73.4338 178.55 73.6814 178.945 74.454L179.192 73.9612C179.836 74.4218 179.15 75.2687 178.752 75.6922L178.128 73.8374L177.069 73.4016L177.926 72.9881H177.928Z" fill="#6A7380"/>
<path d="M171.447 80.8949C171.642 81.1252 171.115 81.3258 171.198 80.9568C171.223 80.8429 171.435 80.88 171.447 80.8949Z" fill="#6A7380"/>
<path d="M178.69 72.7231C178.885 72.9534 178.358 73.154 178.44 72.785C178.465 72.6711 178.677 72.7082 178.69 72.7231Z" fill="#6A7380"/>
<path d="M176.193 61.3321L175.945 63.3107L176.632 62.808L177.818 63.063L177.319 61.5797H177.941C178.103 62.6445 179.207 63.3973 178.518 64.5637L175.131 64.3061L174.976 63.8901L176.193 61.3346V61.3321Z" fill="#6A7380"/>
<path d="M178.648 65.5864C178.697 65.5963 179.477 66.0148 179.442 66.2228C179.424 67.1687 175.184 67.2232 174.697 66.2178C174.32 65.3313 178.21 65.5071 178.648 65.5864Z" fill="#6A7380"/>
<path d="M173.907 59.1455C173.962 59.1554 174.851 59.5046 174.901 59.6333L174.866 60.6016C171.675 62.3449 169.897 58.4546 173.907 59.1455Z" fill="#6A7380"/>
<path d="M181.147 59.3956C181.619 59.5244 181.749 59.9082 181.937 60.3391C180.855 61.0919 179.169 61.4014 178.24 60.2202C178.016 59.304 179.147 59.569 179.504 59.0985C180.034 59.5244 180.598 59.247 181.147 59.3956Z" fill="#6A7380"/>
<path d="M170.948 59.5987C171.143 59.829 170.616 60.0295 170.698 59.6606C170.723 59.5467 170.936 59.5838 170.948 59.5987Z" fill="#6A7380"/>
<path d="M177.941 60.8368C178.136 61.0671 177.609 61.2677 177.691 60.8987C177.716 60.7848 177.928 60.822 177.941 60.8368Z" fill="#6A7380"/>
<path d="M168.948 43.9979H168.451V44.2431H168.948V43.9979Z" fill="#6A7380"/>
<path d="M186.682 49.9411C186.877 50.1714 186.35 50.372 186.432 50.003C186.457 49.8891 186.669 49.9262 186.682 49.9411Z" fill="#6A7380"/>
<path d="M186.557 46.2266H186.434V46.4718H186.557V46.2266Z" fill="#6A7380"/>
<path d="M12.1749 63.4372L11.9801 63.1252C12.075 62.8479 12.12 62.5037 12.2174 62.2387C13.6933 58.1726 20.8884 58.7273 20.8285 63.2911L20.5388 63.4372H12.1724H12.1749Z" fill="#898989"/>
<path d="M11.1135 71.9805H7.86686V76.314H11.1135V71.9805Z" fill="#898989"/>
<path d="M22.8514 52.6653C23.0462 52.8956 22.5192 53.0962 22.6016 52.7272C22.6266 52.6133 22.8389 52.6504 22.8514 52.6653Z" fill="#898989"/>
<path d="M33.0908 81.6381C29.3996 80.6896 24.7594 81.7148 21.5402 83.6216L21.1032 82.1333V83.8667C21.1032 83.9584 19.6747 84.5849 19.5423 84.8597L19.2301 84.5477V79.7808H15.4216L14.9845 79.3475V75.5092L15.3017 75.1873L20.354 75.4473V77.9236H16.8576L17.2896 78.4263H20.4164L20.8459 78.0771L21.1007 72.2256H24.8468V76.1877L26.4951 70.0143L29.3372 70.0019L28.5954 73.2161L29.467 70.2916C28.5854 68.2982 28.1809 67.5231 29.0599 65.4554C29.2223 65.074 29.964 64.97 29.7193 64.1182L28.3707 63.5288L28.2733 63.0583L31.0879 61.2085L27.9261 60.9386L26.9721 58.9031L28.8402 55.8226L25.4362 56.8725L23.1336 54.4804L23.718 51.3008L21.2705 53.6608L18.2137 53.1061L17.3521 49.9389L15.8386 53.1407L13.1864 53.6236L10.6065 50.5555V54.5176C9.97219 54.8147 9.30538 55.1465 8.70849 55.5155C8.36885 55.726 8.35136 56.2658 7.66707 56.3773L4.86247 55.2605L6.36342 58.1701C5.58672 59.074 5.47434 60.0645 4.95987 60.9956L1.86557 61.2036L5.11221 63.1227C5.18214 63.7393 3.06433 63.7839 2.61979 63.9325L2.6123 64.7942C3.40148 64.6085 3.07682 65.2523 3.10928 65.287C3.13426 65.3143 3.4814 65.2325 3.56881 65.3316C4.47537 66.3196 4.40794 69.3234 3.11927 70.0886L5.36695 78.0722C5.49182 78.1589 6.05873 78.6615 6.10619 78.6615H11.101L11.6005 86.7095H0.187306L0 86.5238V49.0078L0.124871 48.6982H33.0908V81.6381ZM28.4681 73.8377C28.483 73.8154 28.4805 73.4836 28.4681 73.4687C28.3057 73.2483 28.3207 74.0606 28.4681 73.8377ZM28.2183 75.1997C28.1184 74.8728 28.493 74.3478 28.0959 74.2091C28.1634 74.4543 27.9361 75.0882 28.2183 75.1997ZM27.9686 76.1902V75.945H27.8462V76.1902H27.9686ZM27.7188 77.1807C27.6664 76.9925 27.8612 76.4527 27.5965 76.4403C27.6489 76.6285 27.4541 77.1683 27.7188 77.1807ZM16.8576 76.9331H18.7306L18.8555 76.5641C18.2436 76.5913 17.6093 76.475 17.0124 76.6533L16.8576 76.9356V76.9331ZM17.1073 77.1807H16.8601V77.6735H17.1073V77.1807ZM27.2218 78.6665L25.9157 78.4114L21.7875 78.4189L21.6027 78.6665H27.2218ZM21.4753 79.4094C21.4503 79.2261 21.5827 78.8795 21.3529 78.9166C21.3779 79.0998 21.2455 79.4465 21.4753 79.4094ZM21.4753 79.9046V79.6595H21.3529V79.9046H21.4753Z" fill="#898989"/>
<path d="M19 81.0005H33V87.0005H19V81.0005Z" fill="#898989"/>
<path d="M74.049 27.6533V81.3867L67.3409 81.6764L65.805 87V84.0264L65.5003 46.7184L43.6579 46.5921L43.0186 85.9753C41.0331 84.5316 39.1751 83.6049 36.8699 82.6639C35.1462 82.009 34.9819 82.1337 34.9819 81.7333L34.9619 28.5795L35.3415 27.6558H74.0515L74.049 27.6533ZM69.6061 32.8065C68.5222 31.6129 68.2924 31.395 66.6242 31.239C58.6649 30.4912 49.2896 31.6773 41.2404 31.4619C38.5282 32.5737 37.5667 36.4269 39.3424 38.5416C39.3823 38.5912 39.712 38.5045 39.7944 38.5887C41.5451 40.3964 43.533 40.3048 45.0939 38.3609C45.2038 36.8503 45.7408 35.7979 44.3272 34.6489C42.4267 33.1037 40.4437 34.6613 41.0881 36.7216L42.0796 37.3084L41.8298 36.8156L42.7039 37.0608L42.574 35.1392C43.3482 34.8817 43.548 35.1664 44.04 35.6097C45.1314 37.8359 42.5466 39.5396 40.7634 38.1776C38.783 36.6621 39.9093 33.5568 41.9247 32.6158C49.5468 32.9353 58.1404 32.0958 65.7351 32.6158C66.9438 32.6976 68.2949 32.6456 69.0067 33.8887C69.6161 34.9535 69.7934 36.6646 69.0567 37.717C68.9193 37.9127 67.8054 38.507 67.4908 38.5515C64.5913 38.9502 64.0144 35.1615 66.8015 35.0847L66.312 36.7216C66.8714 37.4298 67.8029 37.093 68.3099 36.4937L67.768 34.6142C64.9609 33.3042 63.2527 35.9167 64.0593 38.2098C64.831 40.4038 68.692 40.2973 70.0057 38.2569C70.2404 37.8904 70.213 37.3629 70.3129 37.0707C70.3253 37.0311 70.6675 37.0806 70.6725 37.0633C70.7324 36.8404 70.8198 35.0302 70.7874 34.7826C70.655 33.7673 70.1805 33.4454 69.6011 32.8065H69.6061ZM63.5598 33.225H45.7033L45.5809 33.9976L47.0694 35.9192L47.0769 40.0348H62.3111C62.5634 38.5813 61.9115 37.6304 62.3261 36.0257C62.5883 35.0104 63.5274 34.2254 63.5598 33.225ZM65.5578 43.0064C66.8065 41.7707 64.3965 40.9486 63.4899 40.7852C60.8751 40.3097 49.1223 40.2899 46.4001 40.6663C45.6159 40.7753 44.4746 41.4488 43.6255 41.5726L43.3283 43.0064H65.5578ZM65.4329 44.4922L65.4953 43.7493H43.6429L43.3258 43.9425L43.5805 44.4922H65.4329ZM65.5578 45.978L65.1282 45.1038L43.6704 45.2623L43.3308 45.978H65.5578Z" fill="#FAAB7E"/>
<path d="M61.0624 49.0115C61.0824 48.9 61.7367 47.7807 61.8466 47.7535L62.2412 47.704C62.948 47.8228 63.7147 48.5236 63.8146 49.2566L63.5648 86.6265C62.8381 87.149 61.7467 87.1119 61.0649 86.5894V49.0115H61.0624Z" fill="#FAAB7E"/>
<path d="M57.5336 47.751L58.0281 48.2388L58.3253 86.2947L57.9307 86.8816L55.9028 86.8469L55.6905 86.161C56.3273 74.0172 54.8489 61.6158 55.5581 49.5042C55.5781 49.1551 55.8153 48.3032 56.0701 48.0457L57.5361 47.751H57.5336Z" fill="#FAAB7E"/>
<path d="M52.5362 47.751C52.7061 48.0853 53.0182 48.0804 53.0782 48.5038C53.7375 53.1419 53.0332 61.0785 53.0607 66.1054C53.0732 68.5916 53.3304 71.4542 53.3304 74.037V86.3987L52.8834 86.8444L50.823 86.7726L50.838 48.3082C51.3175 47.6842 51.7071 47.5678 52.5387 47.7485L52.5362 47.751Z" fill="#FAAB7E"/>
<path d="M47.8261 86.837L45.7308 86.8791H45.5435V48.3676C46.0454 46.966 47.8261 48.276 47.8261 48.4543V86.837Z" fill="#FAAB7E"/>
<path d="M34.9998 81H42.9998V87H34.9998V81Z" fill="#FAAB7E"/>
<path d="M65.9998 81H73.9998V87H65.805L65.9998 81Z" fill="#FAAB7E"/>
<path d="M111.759 13.0439V81.39C108.71 81.7837 105.244 82.6529 102.926 84.6092H102.267L102.079 44.6168H84.0356V86.5283L80.2895 86.7759C79.6176 86.4887 78.6936 82.3706 78.0443 81.697C77.4824 81.1176 77.0053 81.6648 76.5433 81.0804V13.0439H111.759ZM82.5072 18.7048C82.5621 18.4695 82.4447 18.3333 82.4123 18.1179L80.6116 18.2516L79.5427 19.2298L81.8279 19.73C81.8753 19.4972 82.4922 18.7617 82.5072 18.7023V18.7048ZM86.1609 18.2442H83.0391C83.0541 18.8534 83.124 19.2298 82.7894 19.73H86.036L86.1609 18.2442ZM93.4034 18.2442H86.7852V19.73C88.8181 19.1084 90.9934 18.9177 92.8415 20.2277L93.4034 18.2442ZM99.9591 18.2442H94.0277V20.2252C96.193 19.2768 98.3508 19.1505 100.394 20.4729L99.9591 18.2442ZM104.205 18.2442H100.771L101.27 20.7205C101.483 21.0127 102.442 19.9776 102.519 19.9776H104.267C104.3 19.9776 104.187 19.3759 104.639 19.9776L104.205 18.2442ZM106.48 18.2838L105.014 18.2442L105.513 19.9776L107.262 19.4799L106.477 18.2813L106.48 18.2838ZM84.0381 26.6636V36.5688L84.2878 36.8165H102.269C102.297 36.8165 102.252 36.3856 102.769 36.5688V26.4779C102.769 26.3417 103.573 24.1749 103.693 23.9224C104.317 22.6099 105.875 21.1662 107.389 21.2158V20.666C107.304 20.4506 105.633 21.4535 105.316 21.4609C104.19 21.4881 104.29 20.3466 102.117 21.4683C101.363 21.8596 99.5221 26.1708 99.5221 26.6611V36.3187H98.5231C98.8103 33.4462 98.101 29.5881 98.5156 26.8394C98.668 25.8341 100.971 23.2661 100.568 22.1147C100.049 20.6239 95.0966 19.9726 94.0277 21.7085V36.3187H93.0288C93.1861 33.0054 92.8789 29.6575 92.8964 26.3516C92.9064 24.4325 94.2975 21.5946 91.6177 20.8195C89.9919 20.349 87.9465 20.4233 86.5829 21.4981C86.3732 21.9661 87.8741 25.6855 88.0364 26.5794C88.0589 26.7082 88.2887 26.6488 88.2887 26.6636V36.0736L87.537 36.2618C86.7103 35.66 87.3696 29.2637 87.2972 27.9637C87.2448 27.0276 86.4031 22.3672 86.0735 21.6219C85.8038 21.0127 84.1904 20.6858 83.5985 20.8369L82.2499 21.711C81.2035 21.1018 80.6641 20.3788 79.298 20.4729C79.1356 21.4114 80.0797 21.0919 80.3244 21.2232C82.617 22.4638 83.3713 23.9273 83.7908 26.5794C83.8108 26.7008 84.0406 26.6488 84.0406 26.6611L84.0381 26.6636ZM102.207 37.4356H84.6L84.3103 37.5816L84.7224 38.5548L101.972 38.5598L102.651 38.2304L102.207 37.4356ZM84.5376 40.2833H102.269L102.464 39.4092C96.4852 38.9436 90.3091 39.1516 84.2978 39.3027L84.5376 40.2858V40.2833ZM102.496 41.2936C102.207 41.1277 101.922 41.0633 101.59 41.0188C98.7479 40.6473 87.9241 40.6399 85.092 41.0188C84.7998 41.0584 84.3602 41.1104 84.2728 41.467L84.7224 42.0241H101.972L102.496 41.2936ZM102.269 43.7501L102.207 43.0072L101.712 42.7547C96.5676 43.2152 90.364 42.1603 85.3442 42.7547C85.052 42.7893 84.3727 42.8289 84.2753 43.1979L84.6325 43.7427L102.269 43.7526V43.7501Z" fill="#DEC3B8"/>
<path d="M93.7755 45.7336C94.1077 46.2462 93.7805 46.6301 93.783 46.6845C93.9828 59.7099 94.1276 73.3048 94.0352 86.1692C94.0277 87.1003 92.6966 87.187 92.8989 86.038L93.0313 45.7336H93.7755Z" fill="#DEC3B8"/>
<path d="M99.7718 45.7312C99.8467 45.803 99.7244 47.4522 99.7618 47.7815C101.08 59.5316 99.7269 73.8595 99.7618 85.9166C99.7618 86.1048 100.481 86.9517 99.0975 86.8453L99.0426 45.751L99.7743 45.7312H99.7718Z" fill="#DEC3B8"/>
<path d="M87.7842 45.4835C87.989 58.3356 87.5145 71.2173 87.7742 84.0668C87.7817 84.4432 88.0365 84.3244 88.0439 84.5398C88.0714 85.3941 88.0614 86.0429 87.7817 86.8329L87.3372 86.8453L86.7753 86.293L87.0525 45.5009L87.7842 45.4811V45.4835Z" fill="#DEC3B8"/>
<path d="M76.5433 80.9999H84V86.9999L76.5 87L76.5433 80.9999Z" fill="#DEC3B8"/>
<path d="M102.25 81.0723L111.759 80.9999V86.9999H102.25V81.0723Z" fill="#DEC3B8"/>
<path d="M146 81H158V87H146V81Z" fill="#519693"/>
<path d="M125.746 48.7656C125.771 48.6517 125.984 48.6883 125.996 48.7031C126.191 48.9334 125.664 49.1344 125.746 48.7656Z" fill="#519693"/>
<path d="M147.973 48.9512L147.599 48.9482L147.973 48.7031V48.9512Z" fill="#519693"/>
<path d="M146.225 47.7744C146.25 47.661 146.462 47.6981 146.475 47.7129C146.669 47.9432 146.142 48.1434 146.225 47.7744Z" fill="#519693"/>
<path d="M127.244 45.0508C127.269 44.937 127.482 44.9744 127.494 44.9893C127.689 45.2195 127.162 45.4197 127.244 45.0508Z" fill="#519693"/>
<path d="M145.975 43.8125C146 43.6989 146.212 43.7361 146.225 43.751C146.419 43.9813 145.892 44.1815 145.975 43.8125Z" fill="#519693"/>
<path d="M149.721 43.3174C149.746 43.2035 149.958 43.241 149.971 43.2559C150.165 43.4861 149.638 43.6863 149.721 43.3174Z" fill="#519693"/>
<path d="M150.221 41.584C150.246 41.4702 150.458 41.5076 150.471 41.5225C150.665 41.7526 150.138 41.9528 150.221 41.584Z" fill="#519693"/>
<path d="M146.725 39.0459C146.298 38.6373 149.921 35.7305 150.718 36.0771C150.705 36.2544 150.559 36.4238 150.469 36.5693C150.206 36.5864 149.096 37.1523 148.819 37.3203C148.23 37.6796 147.451 39.0529 146.725 39.0459Z" fill="#519693"/>
<path d="M150.895 36.5723L150.968 36.8789L148.22 38.6797C147.821 38.36 150.343 36.7748 150.468 36.5742L150.469 36.5713C150.611 36.564 150.753 36.5772 150.895 36.5723Z" fill="#519693"/>
<path d="M150.468 36.5723L150.469 36.5693H150.471L150.468 36.5723Z" fill="#519693"/>
<path d="M152.469 36.1367C152.494 36.0233 152.704 36.0592 152.718 36.0742C152.913 36.3044 152.387 36.5052 152.469 36.1367Z" fill="#519693"/>
<path d="M123.463 36.6094C124.574 37.6246 124.692 39.1575 125.743 40.2842C124.135 39.9497 124.02 37.5894 122.749 36.7549L123.463 36.6113V36.6094Z" fill="#519693"/>
<path d="M125.461 36.6094C126.14 37.5479 127.591 37.979 127.491 39.2939C126.46 38.665 125.956 37.3621 124.747 36.7529L125.461 36.6094Z" fill="#519693"/>
<path d="M136.484 34.5908C136.338 34.8825 136.225 35.0517 136.106 35.2998L135.985 35.5791C135.95 35.6088 135.64 35.5121 135.525 35.6211C134.651 36.4581 134.552 37.6324 134.053 38.6748C133.344 37.7735 134.616 36.919 134.237 36.0771L136.484 34.5908Z" fill="#519693"/>
<path d="M137.398 34.5889C137.535 34.6209 137.472 34.8297 137.483 34.8389C137.106 34.8911 136.873 35.6108 136.735 35.8252C136.784 35.7659 137.568 35.524 137.483 34.8359C137.656 34.9375 137.988 34.9303 137.988 35.2695L136.984 38.6748C136.125 38.3702 136.887 36.8374 136.992 36.1514C137.004 36.0786 136.573 36.096 136.725 35.8428C136.162 36.6986 135.702 37.4467 135.493 38.4688L135.113 38.5527C134.9 38.207 135.801 36.0627 135.988 35.582L135.986 35.5801C136.291 35.3253 136.64 35.0166 136.752 34.6113L137.398 34.5889Z" fill="#519693"/>
<path d="M138.97 34.6035C139.202 34.6109 139.207 35.4035 139.229 35.4951C139.265 35.6285 139.479 35.5667 139.479 35.5791V38.6738L138.979 38.4639C138.937 37.7855 139.049 37.0601 138.979 36.3867C138.942 36.0128 138.248 34.5813 138.97 34.6035Z" fill="#519693"/>
<path d="M140.224 35.1758L140.73 38.0557L140.226 37.9766L139.395 35.002L139.729 34.5908L140.224 35.1758Z" fill="#519693"/>
<path d="M130.491 32.8555C129.647 32.4246 129.854 29.837 130.491 29.3887V32.8555Z" fill="#519693"/>
<path d="M129.991 28.8936C130.203 30.1265 128.963 30.9686 129.245 32.2686L128.748 32.6055C128.513 31.9765 128.71 31.3268 128.885 30.7275C128.987 30.3787 129.604 29.103 129.991 28.8936Z" fill="#519693"/>
<path d="M130.741 28.5811C131.428 27.908 131.647 29.369 131.739 29.7998C131.767 29.9306 131.992 29.8689 131.992 29.8838V32.1123H131.989L130.741 28.5811Z" fill="#519693"/>
<path d="M144.976 31.1221L145.476 30.1309C145.406 30.6979 146.482 31.9691 145.728 32.3604L145.229 31.248L145.478 33.165L144.979 34.0957L144.366 29.832L144.976 29.3926V31.1221Z" fill="#519693"/>
<path d="M141.229 33.165C141.254 33.0517 141.465 33.0875 141.479 33.1025C141.674 33.3327 141.148 33.5334 141.229 33.165Z" fill="#519693"/>
<path d="M143.543 28.3955C144.136 28.5393 143.413 29.0937 143.492 29.3066C143.592 29.5665 143.922 29.5639 143.978 29.7246C144.175 30.2941 143.208 32.1073 143.984 32.9121L143.553 33.1104C143.505 33.0683 143.351 32.5946 143.351 32.5459V29.6982H143.353L143.23 29.3887V30.376L142.73 30.2529L141.952 32.5801L141.478 32.667C141.275 31.9662 143.133 28.2766 143.543 28.3955Z" fill="#519693"/>
<path d="M141.685 30.0918C141.652 30.2329 141.087 30.6969 141.025 30.7969C140.863 31.0668 140.374 32.5477 139.981 32.1123L140.48 30.1338L140.853 30.3789L141.482 29.3906L141.685 30.0918Z" fill="#519693"/>
<path d="M144.979 29.3906L144.976 29.3926V29.3887L144.979 29.3906Z" fill="#519693"/>
<path d="M136.734 27.168V27.1592H136.739L136.734 27.168Z" fill="#519693"/>
<path d="M146.725 28.9551C146.749 28.8422 146.958 28.8775 146.974 28.8926C147.168 29.1229 146.642 29.324 146.725 28.9551Z" fill="#519693"/>
<path fill-rule="evenodd" clip-rule="evenodd" d="M157.963 81.2666L150.298 81.623L148.38 86.5889L145.851 86.7764V52.1084C140.084 49.3325 133.376 49.6717 127.494 51.7988V86.0957C127.327 86.0228 127.494 86.0957 127.5 86V87H114.258V22.207H157.963V81.2666ZM130.806 49.8076C129.832 49.8373 127.497 50.6943 126.745 51.4248C128.203 51.14 129.697 50.048 131.362 50.1865L131.365 50.1895C131.393 49.818 131.083 49.8002 130.806 49.8076ZM145.601 50.8105C142.719 49.3371 138.038 49.0799 134.861 49.5107L140.798 49.6846L145.473 51.1797L146.347 51.4248C146.22 50.8494 145.525 51.2009 145.475 51.1787C145.442 51.1479 145.628 50.8231 145.601 50.8105ZM145.176 49.251C140.925 47.7182 131.572 47.3833 127.539 49.3643C127.427 49.4187 125.396 50.7271 125.746 50.9326C126.64 51.0661 127.526 49.9613 128.338 49.7012C129.671 49.2753 133.323 48.7702 134.669 48.6934C136.367 48.5993 138.101 48.7899 139.802 48.6934C141.927 48.5252 144.986 50.3648 146.819 50.6768C147.076 50.7213 147.341 50.6718 147.601 50.6816C147.059 49.8822 146.025 49.5555 145.179 49.251H145.176ZM146.562 47.5615C142.211 45.494 134.769 45.4498 130.084 46.3809C128.768 46.6433 123.981 47.6882 124.537 49.6592L125.366 50.1846C125.419 50.0632 125.421 49.7753 125.526 49.7158C130.703 46.7148 135.501 47.2124 141.3 47.4551C143.595 48.1732 146.4 48.27 147.976 50.1865L148.303 49.9023C148.662 48.367 147.73 48.1187 146.562 47.5615ZM131.49 49.9414C132.224 50.1592 132.192 49.6943 132.239 49.6943H134.487V49.5703H131.802L131.49 49.9414ZM141.729 45.3604C143.66 45.8556 145.553 46.3308 147.349 47.2148C147.054 46.7569 147.106 46.3289 146.505 46.1357L141.729 45.3604ZM126.248 46.6016L126.87 46.7227V46.4746L126.248 46.6016ZM127.744 46.3535C127.554 46.4055 127.01 46.2124 126.997 46.4746C127.187 46.4226 127.732 46.616 127.744 46.3535ZM128.618 46.1055C128.416 46.1426 127.969 45.9849 127.996 46.2275C128.166 46.1854 128.631 46.3556 128.618 46.1055ZM129.617 45.8584C129.4 45.9178 128.793 45.7096 128.745 45.9795C128.955 45.9176 129.555 46.1331 129.617 45.8584ZM130.491 45.6104C130.302 45.6623 129.757 45.4697 129.744 45.7314C129.934 45.6794 130.479 45.8728 130.491 45.6104ZM139.667 41.6484C135.292 41.3315 129.125 41.5122 125.748 44.4912L127.187 45.7441C132.111 44.3599 138.118 43.9616 143.138 44.749C143.602 44.8208 145.05 45.447 145.315 45.4795C145.595 45.5142 145.883 45.4823 146.165 45.4922L146.977 44.9053C147.755 43.4747 146.543 43.8099 146.475 43.751C146.422 43.704 146.609 43.4489 146.595 43.4385C146.46 43.3444 146.305 43.5579 146.225 43.5059C146.192 43.4857 146.255 43.1516 146.225 43.1318C146.142 43.0825 145.82 43.3029 145.728 43.2559C145.713 43.2475 145.757 42.9471 145.703 42.9189H145.7C144.402 42.3024 141.148 41.755 139.667 41.6484ZM135.61 45.2363H140.73C140.775 45.2366 140.776 45.712 141.479 45.4844C141.562 45.1649 141.247 45.1626 141.032 45.1279C139.469 44.8804 137.519 45.1849 135.923 44.8506L135.61 45.2363ZM149.222 42.2627L147.488 42.6494L147.733 44.1494C147.896 44.7163 149.418 44.1499 149.806 43.9541C150.685 43.5084 151.867 41.7478 152.971 41.5225H154.841C155.255 39.7321 153.652 39.1205 152.221 38.6748L149.222 42.2627ZM125.496 43.998H125.618V43.7529H125.496V43.998ZM121.753 41.7695H121.253C120.916 41.45 120.626 40.8805 120.004 40.9053C120.481 41.3039 120.591 41.767 121.253 41.7695H121.251C121.538 42.042 121.935 42.7014 122.295 42.9639C122.742 43.2929 123.775 43.3749 124.095 43.9912L124.824 43.8867L125.371 42.6963C125.381 42.57 123.258 42.2177 122.906 42.0469C122.529 41.8609 121.802 40.9754 121.315 40.7822L121.753 41.7695ZM144.751 41.4355C141.234 39.8137 132.199 39.7768 128.598 41.166C127.606 41.5475 125.928 42.5699 125.748 43.751C126.517 42.8794 127.691 42.5742 128.71 42.2275C128.775 42.2053 128.956 41.8164 129.088 41.7793C129.448 41.6781 130.017 41.8562 130.398 41.7646C135.99 40.4497 140.081 40.9894 145.723 42.2646V42.2666L145.726 42.2646C145.701 42.2369 145.78 41.9872 145.703 41.918C145.353 41.8189 145.071 41.5816 144.751 41.4355ZM147.036 43.0078L147.099 42.9463L147.036 42.8838V43.0078ZM146.215 42.208C146.065 42.0994 145.798 42.2828 145.723 42.2666C145.747 42.3004 145.693 42.4928 145.723 42.5127C145.765 42.5424 146.487 42.5032 146.722 42.7607L146.215 42.208ZM125.559 42.5127L125.621 42.4512L125.559 42.3887V42.5127ZM152.965 36.0146C148.794 34.3833 146.672 39.3702 142.98 40.1602C144.067 40.4598 145.196 40.8317 146.228 41.2725C146.033 41.0422 146.561 40.8415 146.477 41.208C146.449 41.3202 146.239 41.2829 146.228 41.2725C146.395 41.345 146.944 41.9156 147.164 42.0195C148.271 42.1802 150.778 40.1578 151.305 39.2441C151.447 38.9994 151.57 38.4288 151.677 38.1504L151.719 38.0557C151.686 38.1295 151.273 38.6685 151.192 38.7656C151.122 38.8498 150.773 38.6177 150.723 38.6719C150.663 38.7387 150.538 40.1926 149.724 40.0342L149.974 38.7959L150.346 39.043L150.755 37.3418L151.722 37.0625C151.684 37.3681 151.773 37.7619 151.722 38.0488C152.101 37.3743 152.239 36.6063 153.083 36.3125L152.965 36.0146ZM125.988 36.2061C125.596 35.7677 122.684 35.9779 121.997 36.1982H122V38.3027C122 38.3296 122.305 38.351 122.361 38.6836L122.25 37.4062L122.746 37.0674V38.0557L123.236 37.5752L124.487 39.8828L124.308 40.2861L123.434 39.5439L123.251 39.7861C124.093 40.4448 125.796 41.4305 126.902 41.2695L129.245 40.0439L129.739 40.2861V39.791L130.408 40.0439L130.578 39.623C129.584 38.2364 128.223 36.8225 126.558 36.3223C126.058 36.3867 128.133 37.5402 127.307 37.8076C127.097 37.3719 126.25 37.1217 126.03 36.9062C125.812 36.6916 126.009 36.2367 125.988 36.2061ZM117.505 40.5312C117.875 40.7713 118.671 40.2688 118.751 40.2861C118.799 40.2981 119.026 41.0457 119.502 40.7764L119.006 40.0361L120.501 40.1602C119.829 39.8334 118.67 39.5689 118.251 40.4033V40.4053L118.104 38.9248L117.505 40.5312ZM140.605 34.7744C138.787 33.0411 137.184 33.4966 135.029 34.5068C133.159 35.3834 131.8 37.7756 133.333 39.5312H140.174L141.852 40.0361C142.421 37.9165 142.204 36.2973 140.605 34.7744ZM132.114 39.6006C131.82 39.4076 132.037 40.0238 132.239 39.7861C132.279 39.7391 132.167 39.6525 132.114 39.6006ZM122.622 38.9248C122.46 38.7044 122.475 39.5165 122.622 39.2939C122.637 39.2718 122.634 38.9438 122.622 38.9248ZM122.999 38.7979H123.121V38.5527H122.999V38.7979ZM118.943 38.6152L119.006 38.5527L118.943 38.4912V38.6152ZM129.994 27.6553C129.967 28.059 129.652 28.7472 129.442 29.0889C128.536 30.5573 126.82 31.7877 126.729 33.6572C126.685 34.5759 127.861 34.4076 128.211 34.6279C129.672 35.5442 130.773 37.0922 131.612 38.5508C131.308 35.4777 133.563 33.7691 136.118 33.0361C135.931 31.8599 135.214 30.6611 134.175 30.0049L134.487 32.793L134.239 32.8525C133.68 31.7482 134.105 30.4557 132.988 29.5742L133.235 29.2695L132.486 29.0811L133.238 30.3809V32.6689L132.746 32.6572C133.315 31.023 132.065 29.8639 131.982 28.5342L129.994 27.6553ZM151.342 37.4385C151.18 37.219 151.195 38.0304 151.342 37.8076C151.357 37.7852 151.354 37.4533 151.342 37.4385ZM144.602 27.2832C144.408 27.061 140.86 29.6007 140.57 29.7939C140.306 29.9697 139.518 30.1261 139.277 30.2969C138.935 30.542 136.85 32.7064 137.302 32.8574C139.889 32.714 142.981 35.1433 142.729 37.8076C144.334 36.6834 145.258 34.0859 147.453 33.8281L147.571 33.5039C147.621 32.303 147.014 32.6669 146.974 32.6074C146.924 32.5377 147.156 32.2508 147.036 32.001C146.297 30.4756 144.264 29.3782 144.599 27.2832H144.602ZM151.722 34.8359H151.969V34.7148H151.722V34.8359ZM151.969 31C150.385 31.1016 149.187 32.5282 149.472 34.0957L150.845 34.3438C150.752 33.0313 151.072 31.9336 151.969 31ZM121.253 30.624C122.239 31.1861 122.727 32.7462 122.749 33.8457H124.747C124.8 31.7928 123.301 30.7375 121.438 30.376L121.253 30.624ZM137.414 26.043C136.18 26.1915 135.888 26.803 135.211 27.375C134.914 27.6275 133.81 27.514 134.262 28.6279L136.115 29.5693V28.1523L135.491 28.8926C135.491 28.3082 135.536 27.3207 136.237 27.1621L136.362 27.9023L136.734 27.168V29.8838C136.731 29.8951 136.517 29.8424 136.484 29.9678L137.528 31.1221L139.232 29.5566L138.732 28.4004L138.485 28.8955C137.961 28.8955 138.39 28.0736 137.741 28.6455L137.239 27.1621L137.861 27.6553L137.736 27.1621L138.482 26.917C138.984 27.6623 139.634 28.4497 139.484 29.3906L140.608 28.834C139.682 27.5662 138.907 26.6695 137.414 26.043ZM126.745 29.8838C126.747 29.9377 127.338 30.7287 127.491 30.627L128.331 29.6035L129.367 27.7812L126.745 27.5312V29.8838ZM145.224 28.1133C145.254 29.2819 146.462 29.7103 146.977 30.624L147.848 27.9023L145.224 28.1133ZM132.302 28.8926L132.364 28.8311L132.302 28.7695V28.8926ZM138.485 28.1504H138.732L138.485 27.7783V28.1504ZM132.302 27.6553L132.364 27.5928L132.302 27.5312V27.6553ZM138.296 27.6553L138.357 27.5928L138.296 27.5312V27.6553ZM131.802 27.1592L131.864 27.0977L131.802 27.0361V27.1592ZM127.494 26.791C127.309 26.8158 126.96 26.6843 126.997 26.9121C127.182 26.8874 127.531 27.0184 127.494 26.791ZM128.493 26.543C128.308 26.5677 127.959 26.4367 127.996 26.6641C128.181 26.6393 128.531 26.7708 128.493 26.543Z" fill="#519693"/>
<path d="M131.24 51.2422C131.265 51.1283 131.478 51.1648 131.49 51.1797C131.685 51.4099 131.158 51.6105 131.24 51.2422Z" fill="#519693"/>
</svg>
