<svg width="414" height="100" viewBox="0 0 414 100" fill="none" xmlns="http://www.w3.org/2000/svg">
<path fill-rule="evenodd" clip-rule="evenodd" d="M331.044 84.8272C331.079 84.7928 331.35 84.7763 331.646 84.7905L332.185 84.8163V95.663H331.937C331.83 95.6848 331.669 95.6948 331.516 95.686L331.115 95.663H331.025L330.972 94.6489H330.865C330.806 94.6489 330.65 94.7826 330.518 94.9459C330.195 95.3467 329.588 95.684 328.88 95.8569L328.294 96L327.717 95.8948C326.602 95.6917 325.847 95.2003 325.259 94.2968C325.117 94.0788 324.916 93.6224 324.811 93.2826L324.621 92.6647L324.631 91.2538L324.806 90.6618C324.877 90.4229 325.011 90.0948 325.144 89.8287L325.195 89.673L325.295 89.5516L325.586 89.0716L326.534 88.3037L327.805 87.9293L328.133 87.9492C328.159 87.9478 328.184 87.9468 328.208 87.9468C328.26 87.9468 328.332 87.9539 328.417 87.9664L328.434 87.9675L329.064 88.0057L330.052 88.3867L330.424 88.74C330.628 88.9342 330.837 89.0932 330.888 89.0932H330.981V86.9915C330.981 85.8356 331.009 84.8617 331.044 84.8272ZM328.474 88.93C328.42 88.9276 328.368 88.927 328.317 88.9284C328.216 88.9524 327.96 89.0368 327.693 89.1349L327.124 89.3436L326.772 89.6814C326.399 90.0392 326.163 90.4713 325.986 91.1215L325.877 91.5183L325.989 92.9784L326.167 93.3534C326.425 93.8958 326.817 94.3311 327.302 94.6144L327.651 94.8185C327.695 94.8343 327.74 94.849 327.782 94.8624L329.032 94.8675C329.062 94.8586 329.092 94.8492 329.121 94.8394L329.41 94.6986C329.792 94.5121 330.392 93.94 330.584 93.5792C330.651 93.4517 330.768 93.1739 330.843 92.9619L330.978 92.5765L330.98 91.9729C330.98 91.6409 330.92 91.1609 330.845 90.9063C330.661 90.2808 330.26 89.6777 329.849 89.4102C329.586 89.2392 328.828 88.9811 328.474 88.93Z" fill="white"/>
<path d="M306.95 84.5454C307.12 84.4788 308.204 84.5938 308.646 84.7254C308.89 84.7981 309.291 85.0076 309.536 85.1911L309.982 85.5244L310.635 86.7563L310.695 87.55H309.36L309.343 87.4177C309.333 87.345 309.3 87.1326 309.269 86.9457L309.216 86.6272L309.177 86.5712L308.542 85.9557L308.181 85.849C307.729 85.715 307.113 85.7121 306.718 85.8422C306.369 85.9574 305.878 86.3834 305.694 86.7299L305.568 86.9681V87.5415C305.568 87.8569 305.615 88.2172 305.673 88.3424C305.824 88.67 306.564 89.1639 307.25 89.3943C308.479 89.8071 309.192 90.1017 309.561 90.3492C309.86 90.549 310.161 90.8599 310.389 91.1827L310.499 91.3069L310.52 91.3843C310.619 91.5494 310.695 91.7122 310.737 91.8597L310.851 92.2656L310.827 92.7199C310.828 92.7355 310.829 92.7497 310.829 92.7623C310.829 92.8029 310.824 92.8616 310.816 92.9326L310.813 92.9979L310.774 93.7303L310.582 94.1224L310.539 94.3103L310.462 94.3396C310.345 94.5327 310.191 94.7513 310.065 94.896L309.749 95.2621L309.197 95.5225C308.893 95.6657 308.367 95.8305 308.028 95.8888L307.412 95.9947L306.782 95.8836C306.436 95.8224 305.987 95.702 305.785 95.6161C305.02 95.2922 304.352 94.4792 304.133 93.6072L304.016 93.1386L304.204 92.8411L305.137 92.7874L305.255 92.8847C305.321 92.9383 305.423 93.1838 305.483 93.4303L305.571 93.7956C305.591 93.8373 305.61 93.8774 305.629 93.915L306.196 94.4766C306.235 94.4993 306.273 94.5212 306.312 94.5418L306.606 94.629C306.807 94.6884 307.182 94.7371 307.44 94.7371H307.909L308.924 94.243C308.944 94.224 308.965 94.2047 308.985 94.1849L309.112 94.059L309.272 93.7242C309.392 93.4737 309.515 93.142 309.547 92.9872L309.604 92.7056L309.457 92.3253C309.376 92.1163 309.2 91.8449 309.066 91.7223C308.762 91.4438 307.894 91.0021 307.307 90.8265C306.677 90.6382 306.107 90.4065 305.676 90.1673L305.567 90.127L305.495 90.0609C305.426 90.0182 305.362 89.9756 305.303 89.9329L304.866 89.6152L304.598 89.1853C304.525 89.0678 304.447 88.9183 304.38 88.7719L304.289 88.6082L304.288 88.5577C304.262 88.4893 304.24 88.4263 304.226 88.3732L304.121 87.9909L304.229 86.7106L304.464 86.2484C304.593 85.9943 304.897 85.5985 305.138 85.3689L305.576 84.9514L306.218 84.7659C306.572 84.6639 306.901 84.5647 306.95 84.5454Z" fill="white"/>
<path d="M270.766 88.1205C271.35 88.3014 272.31 88.8742 272.307 89.0397C272.306 89.1241 271.895 89.4966 271.665 89.6471L271.579 89.7322L271.547 89.7085C271.542 89.7097 271.537 89.7105 271.533 89.7105C271.492 89.7105 271.31 89.6109 271.129 89.4891C270.948 89.3673 270.55 89.2045 270.246 89.1274L269.693 88.9872L269.373 89.0395C269.198 89.0683 268.898 89.1351 268.708 89.1881L268.362 89.2843L267.51 90.072L267.03 91.0747L267.028 92.6647L267.186 93.0616C267.273 93.2798 267.48 93.6447 267.646 93.8724L267.893 94.2124C267.929 94.2472 267.965 94.2809 268.002 94.3133L269.038 94.8253H270.076L270.457 94.6797C270.666 94.5996 270.965 94.4409 271.121 94.327C271.257 94.2276 271.411 94.144 271.489 94.1242L271.517 94.096L271.548 94.1249C271.729 94.1793 272.219 94.6608 272.219 94.798C272.219 94.9394 271.591 95.3971 271.105 95.6097C270.907 95.6967 270.474 95.8182 270.144 95.8798L269.544 95.9916L268.944 95.8797C268.614 95.8181 268.129 95.6736 267.866 95.5585L267.388 95.3493L266.928 94.8886C266.675 94.6353 266.364 94.2297 266.236 93.9873C266.109 93.7449 265.953 93.2744 265.89 92.9417L265.776 92.3366L265.799 91.9629L265.791 91.9152L265.809 91.8103L265.821 91.6189C265.846 91.2241 265.92 90.7225 265.984 90.5042C266.009 90.421 266.04 90.3343 266.077 90.2453L266.085 90.1956L266.123 90.1393C266.275 89.8051 266.5 89.449 266.757 89.1438C267.041 88.8055 267.881 88.2132 268.089 88.2047C268.178 88.201 268.392 88.1444 268.564 88.0791C268.735 88.0138 269.177 87.9578 269.544 87.9547L270.213 87.9492L270.766 88.1205Z" fill="white"/>
<path fill-rule="evenodd" clip-rule="evenodd" d="M282.291 88.1218C283.414 88.4526 284.153 89.1261 284.633 90.2563L284.897 90.8769L284.994 92.1547L284.896 92.2147C284.894 92.216 284.89 92.2171 284.883 92.2185L284.881 92.2657L283.051 92.2789C282.637 92.2852 282.178 92.2904 281.697 92.2933L278.595 92.312L278.568 92.4978C278.527 92.7853 278.969 93.6855 279.335 94.0602C279.517 94.2456 279.88 94.4986 280.143 94.6223L280.621 94.8472L281.906 94.7657L282.373 94.5144C282.63 94.3761 282.983 94.106 283.159 93.9142L283.477 93.5654L284.435 93.8643V94.2065L283.321 95.3247L282.819 95.5502C282.543 95.6743 282.036 95.8227 281.692 95.88L281.067 95.9844L280.5 95.875C280.188 95.815 279.692 95.6586 279.397 95.5276L278.862 95.2896L278.434 94.855C277.946 94.36 277.607 93.8143 277.427 93.2379L277.304 92.8411L277.303 92.1182C277.302 92.0932 277.302 92.0685 277.302 92.0442C277.302 92.023 277.302 92.0013 277.303 91.9789L277.302 91.1585L277.44 90.6355C277.515 90.3479 277.636 90.0488 277.707 89.9708C277.779 89.8928 277.837 89.7881 277.837 89.7381C277.837 89.5853 278.547 88.8398 278.96 88.5588C279.174 88.4129 279.581 88.2195 279.864 88.129L280.378 87.9645L281.697 87.9468L282.291 88.1218ZM281.362 88.9806C281.208 88.963 281.063 88.9556 280.927 88.9586C280.923 88.9602 280.918 88.9618 280.913 88.9635C280.864 88.9815 280.592 89.061 280.307 89.1403L279.791 89.2845L278.946 90.1074L278.747 90.6484C278.638 90.9461 278.573 91.2543 278.604 91.3333L278.66 91.477L283.588 91.4301L283.575 91.0241C283.56 90.5801 283.409 90.2277 283.085 89.8866C282.684 89.4646 282.358 89.2692 281.762 89.0936C281.591 89.0434 281.462 89.0065 281.362 88.9806Z" fill="white"/>
<path d="M322.242 88.1232C322.389 88.1232 322.58 88.1606 322.68 88.2076L322.777 88.2026L322.78 88.2598L322.867 88.3058V93.5536L322.595 94.5844L322.336 94.9078C322.005 95.3219 321.362 95.6661 320.591 95.8429L319.983 95.9825L318.8 95.7852L317.748 95.2093L317.462 94.7982C317.304 94.5721 317.132 94.1862 317.078 93.9405L316.982 93.4939V88.2244L317.138 88.1855C317.265 88.1537 317.772 88.163 318.074 88.2027C318.111 88.2075 318.141 89.3935 318.141 90.8383V93.4651L318.341 93.8535C318.585 94.3257 319.072 94.7248 319.528 94.8266L319.72 94.8694H320.045L320.254 94.8308C320.75 94.7391 321.299 94.3615 321.478 93.9888L321.618 93.6963V88.3058L321.791 88.2145C321.886 88.1643 322.089 88.1232 322.242 88.1232Z" fill="white"/>
<path fill-rule="evenodd" clip-rule="evenodd" d="M343.014 88.1218C343.34 88.218 343.796 88.4201 344.026 88.5708C344.512 88.8894 345.079 89.4992 345.282 89.9226C345.523 90.4234 345.704 91.2714 345.676 91.7592L345.649 92.2238L345.595 92.2241L345.583 92.2679H339.781L339.472 92.2702L339.257 92.5261L339.402 92.9481C339.62 93.5829 339.978 94.0368 340.569 94.4283L341.101 94.7809L342.458 94.8428L343.536 94.3136C343.573 94.286 343.61 94.2581 343.645 94.23L344.23 93.5726L344.289 93.5892L344.295 93.5829L344.306 93.594L344.627 93.6847C344.846 93.7463 345.06 93.8268 345.103 93.8636C345.257 93.9953 345.068 94.3549 344.604 94.8107L344.133 95.2742L343.578 95.5337C343.273 95.6763 342.748 95.8352 342.412 95.8868L341.801 95.9805L341.16 95.8483C340.808 95.7756 340.276 95.5881 339.98 95.4318L339.441 95.1476L339.031 94.6998C338.806 94.4536 338.503 94.0027 338.358 93.6981L338.095 93.1441L338.036 91.9691L338.035 91.9593L338.036 91.9546L338.005 91.342L338.151 90.7918C338.231 90.4894 338.438 90.0044 338.61 89.7143L338.922 89.1869L339.408 88.7952C339.565 88.6688 339.771 88.5328 339.962 88.4255L340.013 88.3876L340.053 88.3761C340.153 88.3233 340.245 88.2809 340.319 88.2548C340.553 88.1729 340.825 88.0727 340.923 88.0324C341.021 87.9919 341.398 87.9561 341.761 87.9529L342.42 87.9468L343.014 88.1218ZM340.48 89.3277L339.758 90.0375C339.745 90.0566 339.733 90.0759 339.72 90.0953L339.543 90.5627C339.439 90.8375 339.366 91.1452 339.381 91.2463L339.407 91.4301L344.243 91.4771L344.445 91.2357V91.1075L344.174 90.2559C344.153 90.2231 344.13 90.1898 344.106 90.1563L343.436 89.4482C343.398 89.4188 343.362 89.3918 343.326 89.368L342.908 89.2276C342.65 89.141 342.254 89.0435 342.029 89.011L341.618 88.9519L340.48 89.3277Z" fill="white"/>
<path fill-rule="evenodd" clip-rule="evenodd" d="M385.094 88.0836C385.692 88.2895 385.928 88.4306 386.342 88.8272C386.551 89.028 386.769 89.1769 386.827 89.1578L386.931 89.1233L386.933 88.1673L387.282 88.1391C387.473 88.1237 387.724 88.1344 387.84 88.1631L388.05 88.2153L388.023 92.4629L388.038 95.5299L388.004 95.5448L388.003 95.663H387.423C387.408 95.6633 387.394 95.6635 387.379 95.6634L387.023 95.663H386.933L386.924 95.1638C386.918 94.8892 386.887 94.5942 386.853 94.508L386.816 94.4122L386.8 94.4098C386.78 94.4069 386.754 94.4148 386.722 94.4312L386.387 94.8094C385.904 95.3558 385.402 95.6634 384.696 95.8452L384.175 95.9793L383.559 95.8849C382.463 95.7167 381.728 95.2531 381.08 94.3221L380.798 93.9159L380.469 92.6766V91.1651L380.64 90.574C380.847 89.8554 381.317 89.134 381.866 88.6891C381.973 88.6019 382.128 88.5019 382.292 88.4089C382.298 88.4051 382.305 88.4017 382.311 88.3984C382.485 88.3009 382.67 88.2123 382.821 88.1567L383.367 87.956L384.704 87.9494L385.094 88.0836ZM383.705 89.0574C383.45 89.1143 383.112 89.2349 382.956 89.3254C382.585 89.54 382.035 90.3352 381.845 90.9339L381.706 91.3694L381.705 91.595L381.783 92.9293L381.973 93.3289C382.243 93.8933 382.645 94.3459 383.121 94.6218L383.489 94.8355C383.512 94.8439 383.535 94.8519 383.557 94.8593L384.766 94.8691C384.786 94.864 384.806 94.8587 384.825 94.8532L385.227 94.6504C385.465 94.5299 385.801 94.2918 385.973 94.1212C386.145 93.9507 386.425 93.5135 386.595 93.1497L386.905 92.4884L386.842 90.9892L386.364 90.0065L385.967 89.6447C385.576 89.2881 385.226 89.1354 384.526 89.0153L384.169 88.9542L383.705 89.0574Z" fill="white"/>
<path fill-rule="evenodd" clip-rule="evenodd" d="M221.974 88.3781L222.728 89.1943L222.819 89.1386C222.869 89.1079 222.91 88.9115 222.91 88.702V88.3212L222.999 88.248V88.2114H223.044L223.137 88.1345L223.606 88.1579C223.763 88.1658 223.913 88.1864 224.015 88.2114H224.16L224.158 88.4978C224.18 89.0355 224.189 90.4289 224.179 92.0293L224.154 95.715L223.347 95.68L222.999 95.6968V95.6649L222.954 95.663L222.928 95.0678C222.914 94.7403 222.877 94.4725 222.846 94.4725C222.816 94.4726 222.607 94.6662 222.382 94.9027C221.902 95.4083 221.268 95.7566 220.601 95.8818L220.121 95.9717L219.598 95.8884C219.311 95.8426 218.84 95.7006 218.552 95.5729L218.029 95.3408L217.669 94.9728C217.26 94.5559 217.007 94.1354 216.734 93.4217L216.545 92.9293L216.535 90.9892L217.069 89.6001L217.407 89.2192C217.593 89.0098 217.903 88.7143 218.097 88.5624L218.45 88.2863L219.008 88.1233C219.315 88.0336 219.835 87.9573 220.164 87.9536L220.762 87.9468L221.974 88.3781ZM221.171 89.1611C220.358 88.9364 220.231 88.9284 219.684 89.068L219.178 89.1972L218.811 89.5078C218.401 89.8556 218.096 90.3907 217.869 91.163L217.738 91.6076V91.92L217.762 92.1776C217.862 93.2668 218.368 94.1072 219.232 94.6182L219.639 94.859C219.648 94.8622 219.658 94.8654 219.667 94.8684L220.904 94.8576L221.293 94.6582C221.796 94.4002 222.361 93.8205 222.642 93.2741L222.823 92.922C222.824 92.9193 222.825 92.9167 222.826 92.914L222.866 92.7982L222.925 91.1656L222.528 90.1178L221.706 89.309L221.171 89.1611Z" fill="white"/>
<path fill-rule="evenodd" clip-rule="evenodd" d="M409.49 87.9558L410.384 87.9514L411.027 88.1621C411.706 88.3847 412.166 88.6787 412.611 89.1734C413.015 89.6232 413.19 89.9419 413.43 90.6694L413.524 90.9558L413.558 91.0329L413.557 91.0546L413.647 91.3283L413.594 92.2238L410.429 92.2707C408.688 92.2966 407.254 92.3263 407.241 92.3369C407.229 92.3476 407.219 92.4504 407.219 92.5654C407.219 92.9328 407.469 93.4923 407.817 93.9045L408.15 94.2976C408.153 94.3009 408.157 94.304 408.161 94.3073L409.209 94.8253H410.344L411.422 94.3053C411.459 94.2767 411.496 94.2475 411.531 94.2182L412.139 93.5129L412.466 93.6508C412.68 93.7413 412.817 93.8009 412.906 93.8462L413.015 93.8693L413.015 93.9114C413.051 93.9396 413.067 93.9642 413.077 93.9947C413.092 94.0402 412.903 94.3241 412.656 94.6255L412.208 95.1734L410.919 95.7856L409.755 95.9687L409.267 95.8863C408.363 95.7335 407.873 95.5334 407.32 95.0906C406.765 94.6464 406.387 94.0841 406.117 93.3033L405.985 92.9201L405.96 92.8842L405.961 92.8496L405.881 92.6191L405.883 91.2538L406.103 90.6132C406.371 89.832 406.451 89.6783 406.834 89.2142C407.241 88.7199 407.75 88.3872 408.456 88.1537L409.047 87.958L409.278 87.9568L409.314 87.9431L409.49 87.9558ZM408.38 89.2943L407.509 90.2053L407.364 90.6997C407.284 90.9716 407.243 91.2572 407.273 91.3342L407.327 91.4742H412.218L412.273 91.3325C412.303 91.2544 412.258 90.9668 412.172 90.6931L412.044 90.2863C412.016 90.2358 411.986 90.1862 411.955 90.1375L411.077 89.289L410.597 89.1551C410.333 89.0814 409.997 89.0013 409.849 88.9772L409.582 88.9332L408.38 89.2943Z" fill="white"/>
<path fill-rule="evenodd" clip-rule="evenodd" d="M236.824 87.9639C236.888 87.9586 236.961 87.9585 237.042 87.9628C237.395 87.9673 237.743 88.0031 238.007 88.0711C238.628 88.2312 239.089 88.4684 239.563 88.873C240.072 89.3072 240.425 89.8323 240.648 90.4866L240.833 91.0278V92.2679L234.725 92.2707L234.478 92.4248L234.601 93.2321L235.377 94.2741L236.492 94.8253H237.672L238.71 94.3017C238.726 94.289 238.743 94.2762 238.759 94.2633L239.382 93.5574L239.459 93.5815L239.489 93.5497L239.551 93.6104L240.253 93.8313L240.27 93.9732L240.315 94.0267L240.283 94.0779L240.308 94.2822L239.308 95.2558L238.755 95.5211C238.451 95.667 237.942 95.8273 237.624 95.8775L237.046 95.9685L236.465 95.8781C236.145 95.8285 235.643 95.6766 235.349 95.5407C234.657 95.2215 234.163 94.7996 233.802 94.201L233.744 94.1419L233.695 94.0107C233.579 93.7903 233.478 93.5479 233.389 93.28L233.164 92.5982V91.342L233.599 89.9484L233.918 89.4904C234.018 89.3463 234.125 89.2128 234.238 89.0892L234.237 89.0865L234.243 89.0845C234.667 88.6229 235.188 88.302 235.839 88.096C236.088 88.0173 236.449 87.9728 236.824 87.9639ZM237.122 88.9675C236.977 88.9494 236.579 89.0269 236.238 89.1397L235.638 89.3373C235.628 89.3429 235.618 89.3485 235.607 89.3541L234.712 90.3214L234.512 91.1771L234.505 91.2396L234.702 91.4742H239.501L239.555 91.3349L239.564 91.2239C239.557 91.0973 239.517 90.8958 239.455 90.7022L239.299 90.2137L238.525 89.3948C238.506 89.3817 238.487 89.3691 238.468 89.3571L237.941 89.1838C237.635 89.0829 237.266 88.9856 237.122 88.9675Z" fill="white"/>
<path d="M349.394 87.9224C349.795 87.8806 350.225 87.9438 350.826 88.1328L351.366 88.3028L351.728 88.676C352.105 89.0642 352.292 89.4707 352.292 89.9001V90.1515H351.216L351.166 89.9971C351.012 89.5232 350.916 89.3798 350.61 89.1645L350.271 88.9269L349.567 88.8362L349.344 88.8394L348.413 89.3215L348.163 90.0305L348.226 90.2825C348.262 90.4212 348.398 90.631 348.53 90.7488L348.77 90.9629L349.884 91.3392C350.497 91.5462 351.099 91.7577 351.222 91.8092C351.408 91.8875 351.631 92.0662 351.825 92.2773L351.891 92.3215L351.931 92.3995C352.047 92.5421 352.147 92.6928 352.212 92.8337L352.377 93.1938L352.377 93.6348C352.377 93.8773 352.341 94.229 352.297 94.4163C352.153 95.0281 351.438 95.6034 350.54 95.8283L350.018 95.9592L349.522 95.9291C349.249 95.9125 348.852 95.8528 348.64 95.7962C348.216 95.6835 347.698 95.3859 347.453 95.1151C347.245 94.8847 346.834 93.838 346.919 93.7563C346.956 93.7209 347.207 93.6809 347.477 93.6672L347.967 93.6424L348.162 94.0475C348.39 94.5217 348.717 94.7768 349.292 94.9287L349.663 95.0269H349.75L350.553 94.817L351.172 94.2106L351.135 93.3811L350.573 92.8076L349.627 92.486C349.106 92.3091 348.596 92.1444 348.493 92.1201C348.191 92.0489 347.457 91.4555 347.259 91.1215L347.076 90.8128V89.4019L347.258 89.0946C347.294 89.0342 347.336 88.9747 347.383 88.9166L347.404 88.8681L347.459 88.8282C347.886 88.3636 348.642 88.0008 349.394 87.9224Z" fill="white"/>
<path d="M210.649 84.6777C211.328 84.4779 211.783 84.4711 212.492 84.6501C212.924 84.7591 213.23 84.8702 213.488 85.0261L213.503 85.0313L213.512 85.0407C213.711 85.1654 213.883 85.3185 214.063 85.5211C214.215 85.6917 214.343 85.8623 214.448 86.034L214.509 86.0989L214.531 86.1785C214.694 86.4825 214.785 86.7909 214.809 87.1102L214.84 87.55H213.595L213.543 87.2414C213.476 86.8526 213.269 86.4602 212.996 86.2082C212.397 85.6548 210.984 85.5883 210.391 86.0855C210.298 86.1634 210.108 86.382 209.968 86.5712L209.747 86.8692L209.713 86.9385V88.1349L209.943 88.4329C210.234 88.8104 210.866 89.205 211.496 89.4034C211.766 89.4882 212.027 89.5867 212.076 89.6224C212.125 89.658 212.386 89.7564 212.656 89.841C213.306 90.0451 214.155 90.5982 214.472 91.0252C214.806 91.4749 215.057 92.2041 215.06 92.7392C215.06 92.7451 215.06 92.7511 215.06 92.7573C215.062 92.7838 215.064 92.8083 215.064 92.8305C215.064 92.9263 215.043 93.0611 215.007 93.2162C214.973 93.4101 214.924 93.6191 214.87 93.7946L214.677 94.4227L213.878 95.2677L212.789 95.7934L211.59 95.9578L210.305 95.7817L209.808 95.5323C209.655 95.4554 209.517 95.3732 209.39 95.2839L209.385 95.2817L209.382 95.2782C209.105 95.081 208.887 94.8489 208.705 94.5607C208.476 94.1996 208.284 93.5439 208.302 93.1926C208.3 93.1654 208.3 93.1428 208.303 93.1261L208.313 93.0525L208.331 92.8411L209.443 92.7887L209.736 93.8329L209.997 94.1095C210.141 94.2617 210.415 94.4651 210.607 94.5617L210.954 94.7371L211.987 94.7369L212.388 94.5812C213.001 94.3432 213.14 94.2465 213.388 93.8826L213.618 93.5466L213.681 93.1004V92.5198L213.551 92.0413L213.259 91.7716C212.863 91.4055 212.452 91.1789 211.764 90.9473C210.055 90.3725 209.437 90.0326 208.888 89.3672L208.554 88.9615L208.502 88.6526C208.473 88.4826 208.422 88.2491 208.387 88.1334C208.293 87.8224 208.442 86.657 208.629 86.2379C208.814 85.8237 209.539 85.0675 209.884 84.9282C210.011 84.8772 210.355 84.7644 210.649 84.6777Z" fill="white"/>
<path d="M402.333 87.9568C402.929 87.9469 403.722 88.1023 404.114 88.3059C404.471 88.4914 405.079 88.9433 405.079 89.0236C405.079 89.0657 404.912 89.2576 404.707 89.4499L404.336 89.7996L404.117 89.6448C403.581 89.2664 403.431 89.1965 402.928 89.091L402.395 88.979L401.887 89.0905C401.607 89.1519 401.273 89.2553 401.145 89.3203C401.016 89.3854 400.726 89.6425 400.5 89.8915L400.129 90.2995L400.082 90.3633L399.866 91.0774L399.868 92.8411L400.06 93.2585C400.166 93.4881 400.359 93.8143 400.49 93.9834L400.661 94.2054C400.711 94.25 400.763 94.2933 400.817 94.3355L401.808 94.8253H402.949L403.367 94.6392C403.598 94.5369 403.919 94.3544 404.081 94.2338L404.376 94.0145L404.679 94.3538C404.846 94.5403 404.984 94.7397 404.986 94.7968L404.986 94.7978L404.998 94.8111L404.983 94.8246C404.934 95.033 404.301 95.448 403.677 95.6732L403.021 95.9096L402.289 95.9092L402.264 95.9091L402.215 95.9166L402.178 95.9091L401.557 95.9089L401.022 95.7087C399.944 95.3055 399.237 94.5945 398.829 93.5025L398.614 92.9293V92.2647L398.547 91.823L398.614 91.4757V91.0774L398.787 90.5042C398.998 89.8012 399.439 89.1497 399.981 88.7405C400.548 88.3122 400.571 88.3004 401.187 88.1239C401.349 88.0775 401.573 88.0345 401.796 88.0036C401.869 87.9884 401.954 87.9786 402.047 87.974C402.15 87.9643 402.248 87.9583 402.333 87.9568Z" fill="white"/>
<path d="M260.769 88.0237C260.85 87.8926 261.88 87.9392 262.386 88.0967C262.65 88.1791 263.025 88.3804 263.218 88.544L263.569 88.8414L263.733 89.4003L263.78 89.4901L263.781 89.5629L263.84 89.764L263.816 92.8183L263.843 95.3563L263.795 95.445L263.793 95.663H263.677L263.653 95.7071H262.867L262.84 95.663H262.723L262.634 90.0192L262.474 89.7013C262.305 89.3666 262.157 89.2629 261.546 89.0552L261.171 88.9276L260.234 89.1909C260.176 89.2225 260.12 89.2567 260.065 89.2929L259.324 90.0557C259.318 90.0672 259.311 90.0787 259.304 90.0902L259.112 90.8469V95.7155L258.938 95.7073L258.934 95.7168L258.342 95.6792L257.997 95.663V88.2555L258.319 88.1768C258.497 88.1335 258.747 88.1243 258.877 88.1564L259.112 88.2147V88.9169H259.258C259.338 88.9168 259.579 88.7571 259.794 88.5619C259.874 88.4887 259.965 88.4172 260.057 88.3548L260.09 88.3225L260.127 88.3086C260.254 88.2278 260.374 88.169 260.452 88.1536C260.6 88.1243 260.742 88.0659 260.769 88.0237Z" fill="white"/>
<path d="M374.539 84.8163V95.663H374.45L373.602 95.7168L373.581 95.663H373.469L373.468 95.3673L373.435 95.2814L373.449 91.0035L373.446 90.3278C373.433 87.3935 373.443 84.9411 373.467 84.878L373.512 84.7633L374.539 84.8163Z" fill="white"/>
<path d="M377.366 88.229C377.492 88.1044 378.138 88.0901 378.326 88.2077L378.456 88.2894L378.478 95.3985L378.323 95.7071H378.218L378.211 95.7156L378.079 95.7071H377.367L377.313 95.5676C377.283 95.4908 377.259 93.8321 377.259 91.8815V88.3349L377.366 88.229Z" fill="white"/>
<path d="M291.927 88.3128L292.238 88.6369C292.259 88.6596 292.282 88.684 292.304 88.7097L292.459 88.8414L292.494 88.9617C292.569 89.0746 292.63 89.186 292.661 89.2696L292.773 89.5783V95.663L292.652 95.6698L292.628 95.7071H291.843L291.825 95.6751C291.781 95.6671 291.75 95.6571 291.738 95.6452C291.73 95.6368 291.721 95.5747 291.713 95.4682L291.659 95.3675L291.661 93.7062C291.658 93.4531 291.655 93.1854 291.654 92.9094L291.643 90.2456L291.547 89.9373C291.417 89.5172 291.076 89.2226 290.541 89.0678L290.093 88.9381L289.573 89.0972C289.003 89.2716 288.727 89.4838 288.37 90.0192L288.136 90.3719L288.047 95.663L287.617 95.6832C287.547 95.6927 287.471 95.6995 287.403 95.701L287.117 95.7071L287.117 95.7068L286.932 95.7155V95.3659L286.921 95.3462L286.932 93.9653V88.2147L287.133 88.1737C287.307 88.138 287.555 88.145 287.98 88.1975L288.091 88.2114V88.559C288.091 88.7501 288.131 88.9309 288.18 88.9609C288.229 88.9908 288.401 88.8732 288.562 88.6997L288.854 88.3841L289.919 87.951L290.938 87.9468L291.927 88.3128Z" fill="white"/>
<path d="M395.805 88.3155L396.496 89.0923L396.549 89.4235C396.555 89.4654 396.562 89.6381 396.569 89.9009L396.608 90.1218V92.4567C396.621 93.7715 396.626 95.111 396.613 95.557L396.608 95.7155L395.97 95.6854C395.907 95.6869 395.849 95.686 395.806 95.6822L395.69 95.6722L395.493 95.663L395.404 89.931L395.1 89.3806L394.252 88.9864L393.794 89.0238C393.543 89.0445 393.196 89.138 393.024 89.2316C392.852 89.3253 392.554 89.5764 392.363 89.7896L392.016 90.1772L391.927 95.663H390.768L390.721 88.2272L390.812 88.2142L390.812 88.2114H390.833L391.056 88.1798C391.241 88.1537 391.512 88.1401 391.659 88.1497L391.927 88.1673L391.954 88.5421C391.969 88.7482 392.023 88.9168 392.074 88.9169C392.125 88.9169 392.347 88.7605 392.566 88.5694C392.654 88.4931 392.762 88.413 392.873 88.3397L392.911 88.3026L392.955 88.2873C393.096 88.1998 393.235 88.1273 393.338 88.0913C393.543 88.0195 393.933 87.9576 394.206 87.9538L394.701 87.9468L395.805 88.3155Z" fill="white"/>
<path d="M226.789 88.1765L226.94 88.4805C227.024 88.6477 227.159 88.983 227.241 89.2255C227.323 89.468 227.445 89.7855 227.512 89.931C227.579 90.0765 227.732 90.4733 227.852 90.8128C227.972 91.1524 228.176 91.7278 228.304 92.0915C228.433 92.4553 228.596 92.878 228.666 93.0308C228.737 93.1836 228.795 93.3734 228.795 93.4525C228.795 93.6379 229.03 93.7271 229.184 93.6004C229.25 93.5463 229.396 93.1946 229.509 92.8189C229.622 92.4431 229.747 92.0761 229.787 92.0033C229.827 91.9306 230.044 91.3949 230.268 90.8128C231.08 88.7042 231.227 88.3423 231.306 88.2574C231.309 88.2538 231.314 88.2504 231.319 88.2469L231.333 88.2114H231.418C231.528 88.184 231.701 88.1629 231.881 88.1583L232.376 88.1454L232.402 88.2114H232.451V88.2924C232.451 88.3156 232.435 88.3669 232.41 88.4301C232.361 88.7013 232.199 89.1863 232.1 89.3116C232.061 89.3614 231.946 89.64 231.845 89.931C231.744 90.222 231.513 90.8371 231.331 91.2979C231.15 91.7586 230.87 92.4928 230.71 92.9293C229.894 95.1587 229.771 95.4742 229.677 95.586L229.576 95.7071H228.442L228.37 95.5623C228.359 95.5497 228.352 95.5365 228.35 95.5224L228.255 95.3323C228.152 95.1261 227.973 94.6798 227.858 94.3402C227.534 93.3855 226.69 91.1109 225.872 88.988L225.611 88.3095L225.808 88.1127L226.789 88.1765Z" fill="white"/>
<path fill-rule="evenodd" clip-rule="evenodd" d="M252.501 84.9265C252.547 85.0114 252.666 85.3189 252.766 85.6099C252.866 85.9009 253.154 86.6748 253.405 87.3295C253.656 87.9843 253.883 88.5993 253.91 88.6964C253.936 88.7934 254.011 88.9918 254.075 89.1373C254.139 89.2828 254.334 89.7987 254.507 90.2837C254.68 90.7688 255.024 91.7013 255.271 92.3561C255.517 93.0108 255.721 93.5861 255.722 93.6348C255.723 93.6833 255.788 93.842 255.865 93.9875C255.998 94.2377 256.433 95.499 256.436 95.641C256.436 95.6773 256.141 95.7071 255.779 95.7071H255.121L255.026 95.5932C254.973 95.5305 254.763 95.0046 254.558 94.4247C254.353 93.8448 254.146 93.3207 254.097 93.26L254.008 93.1497H249.248L249.106 93.26C248.992 93.3474 248.459 94.5821 248.115 95.5528L248.061 95.7071H246.718V95.5704C246.718 95.4953 246.776 95.3214 246.848 95.1839C246.92 95.0466 247.076 94.6616 247.194 94.3285C247.717 92.8556 247.888 92.3888 247.969 92.2238C248.016 92.1268 248.15 91.7895 248.268 91.4742C248.385 91.159 248.688 90.3653 248.941 89.7105C249.194 89.0558 249.524 88.1827 249.674 87.7705C249.825 87.3582 250.118 86.5844 250.326 86.0509C250.534 85.5174 250.729 85.0114 250.759 84.9265L250.814 84.7722H252.418L252.501 84.9265ZM251.689 86.6614C251.663 86.6352 251.563 86.7253 251.466 86.8615C251.37 86.9977 251.188 87.4067 251.061 87.7705C250.748 88.667 250.392 89.6103 250.245 89.931C250.178 90.0765 250.058 90.394 249.978 90.6365C249.897 90.879 249.773 91.2016 249.702 91.3536C249.631 91.5054 249.562 91.7237 249.55 91.8386L249.526 92.0474L252.411 92.0819C252.922 92.0681 253.347 92.0491 253.525 92.0273L253.607 91.8164L253.231 90.7855C253.025 90.2186 252.76 89.5165 252.642 89.2255C252.525 88.9345 252.35 88.4583 252.253 88.1673C251.992 87.3796 251.744 86.715 251.689 86.6614Z" fill="white"/>
<path d="M274.113 88.1965C274.246 88.1131 274.766 88.1033 275.052 88.179L275.253 88.2325L275.207 95.663H274.961C274.853 95.6877 274.682 95.7053 274.517 95.7058L274.096 95.7071L274.096 95.663H274.047L274.001 88.2671L274.113 88.1965Z" fill="white"/>
<path d="M295.986 85.7422C296.197 85.7422 296.433 85.7663 296.51 85.7958L296.651 85.8493V88.1043L296.792 88.1578C296.87 88.1872 297.082 88.1877 297.265 88.1589L297.596 88.1064L297.696 88.2256C297.751 88.2911 297.79 88.5231 297.781 88.741L297.766 89.1373L296.696 89.2255L296.649 94.4071L296.741 94.5169C296.791 94.5772 297.029 94.6524 297.268 94.6838C297.418 94.7035 297.559 94.74 297.648 94.7793L297.677 94.7812V94.793C297.714 94.812 297.738 94.8313 297.745 94.8492C297.767 94.9088 297.775 95.0568 297.761 95.178C297.747 95.2992 297.733 95.4679 297.729 95.5528L297.721 95.7071H297.085C296.735 95.7071 296.29 95.66 296.096 95.6024L295.742 95.4975L295.448 95.0539L295.358 89.2255L294.378 89.1373L294.323 88.2989L294.57 88.2062C294.705 88.1552 294.899 88.1338 294.999 88.1588C295.099 88.1837 295.238 88.1695 295.307 88.1273L295.433 88.0504L295.391 85.9948L295.496 85.8695L295.497 85.8304H295.529L295.603 85.7422H295.986Z" fill="white"/>
<path d="M314.088 85.8381C314.121 85.8908 314.142 86.4002 314.134 86.9701L314.119 88.0062L314.319 88.1701C314.377 88.184 314.447 88.1966 314.523 88.2068L314.727 88.1746C314.913 88.1453 315.111 88.1515 315.168 88.1885C315.185 88.1997 315.201 88.2226 315.215 88.2539L315.243 88.2555L315.251 88.357C315.293 88.5156 315.313 88.7482 315.297 88.9123L315.3 88.9539L315.29 88.961C315.283 89.0087 315.271 89.0479 315.255 89.0737L315.188 89.1814H314.765C314.532 89.1814 314.294 89.2291 314.235 89.2873L314.128 89.3931V94.3042L314.566 94.7371H314.642L314.822 94.6996C314.955 94.6719 315.111 94.6789 315.167 94.7152C315.266 94.7786 315.317 95.0911 315.297 95.5087L315.287 95.7071H313.864L313.165 95.4304L313.094 95.2381C313.055 95.1323 313.001 93.7362 312.974 92.1356L312.924 89.2255L312.235 89.1635L312.188 89.1727L312.169 89.1576L311.944 89.1373L311.934 88.9769L311.913 88.961L311.928 88.8752L311.89 88.2327L312.122 88.1752C312.249 88.1437 312.388 88.1392 312.431 88.1653C312.473 88.1913 312.612 88.1737 312.739 88.126L312.969 88.0394V85.8451L313.08 85.8006C313.142 85.7762 313.38 85.753 313.61 85.7492L314.028 85.7422L314.088 85.8381Z" fill="white"/>
<path fill-rule="evenodd" clip-rule="evenodd" d="M364.251 85.1911C364.35 85.4214 364.468 85.6893 364.513 85.7863C364.559 85.8833 364.677 86.217 364.776 86.5278C364.874 86.8386 364.989 87.1362 365.031 87.1892C365.102 87.2785 365.271 87.7398 365.81 89.3137C365.927 89.6532 366.063 90.0103 366.113 90.1074C366.2 90.2739 366.529 91.1554 366.872 92.1356C367.128 92.871 367.497 93.8544 367.843 94.7289L368.171 95.5585L368.092 95.6369C368.083 95.646 368.061 95.654 368.029 95.6611L368.028 95.663L368.017 95.6635C367.905 95.6859 367.688 95.6974 367.447 95.692C367.317 95.6954 367.185 95.6901 367.076 95.6782L366.692 95.663L366.464 95.0457C366.338 94.7062 366.209 94.3689 366.178 94.2961C366.146 94.2234 366.045 93.9456 365.954 93.6789L365.789 93.1938L363.432 93.169C362.136 93.1555 360.994 93.1637 360.895 93.1876L360.715 93.231L360.595 93.521C360.529 93.6806 360.377 94.0691 360.258 94.3843C360.138 94.6996 359.958 95.1261 359.858 95.3323L359.782 95.4902V95.5351L359.755 95.5451L359.677 95.7071H358.444V95.5902C358.444 95.4468 358.834 94.3041 358.962 94.0696C359.013 93.9759 359.114 93.7207 359.185 93.5025C359.256 93.2842 359.484 92.6691 359.691 92.1356C359.898 91.6021 360.164 90.8972 360.281 90.5691C360.399 90.2411 360.537 89.9038 360.587 89.8196C360.638 89.7353 360.774 89.3887 360.89 89.0492C361.286 87.8918 362.295 85.2478 362.452 84.9578L362.552 84.7722H364.072L364.251 85.1911ZM363.046 86.9107C363.015 87.0682 362.788 87.7132 362.541 88.3437C362.294 88.9742 361.988 89.7877 361.862 90.1515C361.736 90.5152 361.597 90.8574 361.553 90.9117C361.425 91.0703 361.195 91.9109 361.255 92.0053L361.308 92.0915L365.087 92.0888L365.22 92.006L365.31 91.9494V91.8233L365.23 91.6325C365.162 91.4727 364.998 91.0443 364.864 90.6806C364.731 90.3168 364.596 89.9597 364.565 89.8869C364.48 89.6872 363.994 88.3404 363.744 87.6055C363.469 86.8001 363.375 86.6241 363.222 86.6241H363.101L363.046 86.9107Z" fill="white"/>
<path d="M370.794 84.8163V95.663H370.683L370.666 95.7071H370.314C370.141 95.7071 369.947 95.688 369.851 95.663H369.635L369.612 90.3278C369.599 87.3935 369.609 84.9412 369.633 84.8782L369.677 84.7637L370.794 84.8163Z" fill="white"/>
<path d="M335.015 88.1863C335.332 88.1272 335.727 88.1431 335.901 88.2114H335.976L335.976 88.2575L335.976 88.2582L336.065 88.3642L336.019 95.663H335.93L335.628 95.6916C335.461 95.7073 335.231 95.6967 335.115 95.6679L335.095 95.663H334.86L334.813 88.224L335.015 88.1863Z" fill="white"/>
<path d="M274.553 85.2134C274.64 85.2136 274.757 85.2489 274.875 85.3013H274.903L274.927 85.3257C275.141 85.4298 275.341 85.5822 275.342 85.6748C275.342 85.7362 275.367 85.8743 275.396 85.982L275.449 86.1776L275.251 86.3731V86.376L275.247 86.377L274.908 86.7122H274.725L274.703 86.7234L274.652 86.7122H274.37L274.276 86.6305L274.165 86.6064L274.115 86.4893C273.999 86.3746 273.887 86.1771 273.859 86.0323L273.804 85.7493L274.346 85.2131L274.553 85.2134Z" fill="white"/>
<path d="M336.242 85.7286V86.1967L335.72 86.7122H335.458C335.455 86.7122 335.452 86.712 335.448 86.7119C335.446 86.712 335.445 86.7122 335.443 86.7122C335.423 86.7122 335.403 86.7099 335.382 86.7058C335.244 86.6848 335.069 86.6136 334.961 86.5294L334.726 86.3468V85.8555L334.712 85.7835L334.726 85.7659V85.646L335.164 85.2131H335.72L336.242 85.7286Z" fill="white"/>
<path d="M378.596 85.646V86.2793L378.159 86.7122L377.865 86.711C377.862 86.7109 377.86 86.7107 377.857 86.7107C377.848 86.7116 377.838 86.7122 377.829 86.7122H377.607L377.577 86.6806C377.532 86.6702 377.496 86.658 377.477 86.6448C377.368 86.5702 377.251 86.4095 377.172 86.2482L377.17 86.2456V86.243C377.116 86.1311 377.08 86.0194 377.08 85.9363V85.7286L377.341 85.4709L377.353 85.459L377.458 85.3013H377.513L377.602 85.2131H378.159L378.596 85.646Z" fill="white"/>
<path d="M327.726 22.0447C328.273 21.9758 331.046 21.9931 331.605 22.0688C331.924 22.112 332.506 22.1908 332.898 22.2438C333.659 22.3466 334.047 22.4314 335.038 22.7125C335.933 22.9662 337.484 23.5735 337.831 23.8063C337.994 23.9157 338.211 24.0311 338.312 24.063C338.413 24.0949 338.906 24.3932 339.407 24.7262L340.317 25.3316L341.277 26.2776C342.537 27.5188 343.104 28.2765 343.903 29.7889C344.231 30.4093 344.786 31.7272 344.962 32.3022C345.395 33.7204 345.671 35.321 345.715 36.6673L345.723 36.9163L345.749 37.1586L345.732 37.1727L345.738 37.3728L339.14 37.4194L339.028 37.269C338.967 37.1863 338.916 36.9179 338.916 36.6726C338.915 36.2405 338.727 34.6948 338.598 34.0659C338.491 33.5446 337.933 32.2882 337.58 31.7749C337.102 31.0784 336.463 30.3993 335.89 29.9785C335.275 29.5266 335.013 29.372 334.28 29.0278C333.386 28.6083 333.203 28.539 332.675 28.4231C332.405 28.3637 331.924 28.25 331.605 28.1703L331.025 28.0252H327.994L327.37 28.1855C327.026 28.2736 326.585 28.3861 326.389 28.4353C326.193 28.4845 325.781 28.6406 325.474 28.782C325.168 28.9235 324.889 29.0392 324.855 29.0393C324.821 29.0393 324.631 29.1454 324.432 29.275C324.233 29.4047 323.91 29.613 323.714 29.738C323.319 29.9902 322.325 30.9421 321.959 31.4203C321.274 32.3126 320.627 33.761 320.403 34.9036L320.264 35.6091L320.259 38.0783L320.408 38.7802C320.491 39.1663 320.589 39.5234 320.627 39.5739C320.665 39.6243 320.77 39.864 320.86 40.1065C321.018 40.5297 321.422 41.2419 321.706 41.5993C322.334 42.389 323.348 43.2489 324.32 43.8158C325.424 44.4602 328.069 45.6196 329.153 45.9342C329.398 46.0054 329.678 46.108 329.774 46.1623C329.871 46.2165 330.232 46.3528 330.577 46.4651C331.264 46.6886 332.751 47.2122 333.149 47.3702C333.287 47.4251 333.419 47.47 333.442 47.47C333.516 47.4702 335.55 48.2631 336.197 48.5438C337.376 49.0556 338.873 49.788 339.586 50.2015C340.714 50.8565 341.744 51.657 342.692 52.6159L343.569 53.5034L344.132 54.3448C344.442 54.8075 344.814 55.4047 344.959 55.672C345.415 56.5137 345.86 57.7014 346.199 58.9784L346.525 60.2127L346.53 64.7983L346.382 65.3715C346.301 65.6868 346.15 66.3019 346.047 66.7384C345.757 67.9647 345.09 69.5358 344.342 70.7508C343.869 71.5198 342.981 72.63 342.281 73.3273C341.692 73.914 340.152 75.16 340.016 75.16C339.985 75.1601 339.835 75.2527 339.683 75.3659C339.399 75.5783 338.528 76.037 337.668 76.4269C337.068 76.6997 336.323 76.9702 335.599 77.1841L335.596 77.1883H335.585C335.297 77.2731 335.012 77.3491 334.741 77.4124C334.235 77.5304 333.793 77.6439 333.76 77.6644C333.726 77.685 333.217 77.7717 332.629 77.8572L331.56 78.0129L326.924 77.9981L325.854 77.8151C325.265 77.7145 324.503 77.5745 324.16 77.5041C323.372 77.3426 321.788 76.8141 321.262 76.5373C321.041 76.4213 320.761 76.2965 320.639 76.26C320.518 76.2234 320.317 76.1268 320.193 76.0452C320.07 75.9637 319.552 75.6251 319.043 75.2927L318.117 74.6884L317.251 73.8439C316.009 72.6321 315.108 71.3786 314.33 69.7807C313.878 68.8522 313.552 67.9402 313.29 66.8706C313.049 65.885 312.877 63.0063 313.044 62.7458L313.116 62.6332L316.22 62.633C317.928 62.6329 319.348 62.6559 319.376 62.6839C319.405 62.7121 319.455 62.9612 319.488 63.2375C319.606 64.2355 319.981 66.0611 320.098 66.2093C320.137 66.2578 320.239 66.5157 320.326 66.7825C320.413 67.0492 320.559 67.3728 320.65 67.5015C320.741 67.6303 320.816 67.7725 320.816 67.8177C320.816 67.9795 321.556 68.9537 322.095 69.5002C322.397 69.8067 322.829 70.1932 323.056 70.3592C323.978 71.035 325.583 71.6586 326.924 71.8622L327.726 71.9842L329.153 71.982C329.938 71.9809 330.881 71.9413 331.248 71.8943C332.648 71.7151 334.487 71.0414 335.735 70.2503C336.069 70.0384 336.675 69.5385 337.081 69.1395C338.555 67.6909 339.366 66.0614 339.638 64.0046L339.743 63.211L339.64 61.2709L339.455 60.5654C339.353 60.1774 339.1 59.5277 338.893 59.1218L338.544 58.4389C338.517 58.4023 338.49 58.3659 338.462 58.3297L337.847 57.7049C337.179 57.0274 336.219 56.2822 335.505 55.8872C335.297 55.7724 334.706 55.4766 334.191 55.2299C333.676 54.9833 333.192 54.7479 333.115 54.7069C332.962 54.6247 331.152 53.9113 330.528 53.6872C330.311 53.6093 329.605 53.3684 328.958 53.1519C328.312 52.9354 327.449 52.6376 327.041 52.4901C326.633 52.3428 325.898 52.0824 325.408 51.9116C324.211 51.4947 322.106 50.6133 321.485 50.2691C321.386 50.2148 321.126 50.0749 320.905 49.9583C320.037 49.4997 319.398 49.0846 318.587 48.451C316.508 46.8283 315.021 44.8744 314.249 42.7521C313.819 41.5692 313.677 40.9906 313.406 39.321L313.308 38.7118L313.386 35.2564L313.586 34.1981C313.876 32.6648 314.54 30.7481 315.146 29.7007C315.955 28.3002 316.814 27.1806 317.751 26.3056C318.561 25.5485 318.935 25.2512 319.79 24.6862C320.487 24.2261 322.042 23.3955 322.207 23.3955C322.253 23.3954 322.441 23.3153 322.626 23.2171C322.811 23.1191 323.172 22.9845 323.427 22.9183C323.683 22.8522 324.173 22.7153 324.516 22.6141C325.034 22.4615 326.544 22.1936 327.726 22.0447Z" fill="white"/>
<path d="M238.247 22.0427C238.698 21.9736 241.43 21.9927 241.992 22.0688C242.31 22.112 242.892 22.1912 243.285 22.2446C244.204 22.3697 244.806 22.4964 245.226 22.653C245.411 22.7219 245.744 22.8185 245.965 22.8677C246.718 23.0346 248.062 23.6506 249.437 24.4598C250.499 25.0846 252.015 26.4479 252.915 27.588C253.531 28.3673 254.277 29.571 254.629 30.3498C255.105 31.404 255.553 32.7176 255.724 33.5581C255.821 34.0399 255.927 34.475 255.958 34.525C256.035 34.6482 256.248 37.1639 256.194 37.3047L256.15 37.4169H249.501L249.447 37.2774C249.417 37.2006 249.393 36.9224 249.393 36.6591C249.393 36.0924 249.181 34.6786 248.985 33.9336C248.841 33.3865 248.796 33.2745 248.329 32.2886L248.05 31.7018L247.546 31.1421C246.898 30.4215 245.837 29.5743 245.157 29.2329C243.988 28.6463 243.3 28.4292 241.412 28.0512L240.966 27.9619L239.629 28.0077C238.893 28.0328 238.151 28.0976 237.979 28.1514C237.808 28.2053 237.406 28.3042 237.088 28.3713C235.891 28.6233 234.043 29.6789 233.045 30.6802C232.644 31.0826 232.046 31.899 231.695 32.5226C231.343 33.1489 231.035 33.9906 230.84 34.8595L230.671 35.6091L230.667 38.0232L230.798 38.5799C231.107 39.8941 231.578 40.8964 232.288 41.7477C233.208 42.8504 234.126 43.528 235.839 44.3689C237.058 44.9674 237.546 45.1823 238.38 45.4879C238.724 45.6136 239.306 45.8269 239.673 45.9619C240.041 46.0969 240.984 46.4338 241.769 46.7107C242.553 46.9876 243.436 47.3063 243.73 47.4189C244.025 47.5315 244.607 47.7521 245.023 47.909C246.359 48.4116 247.894 49.0781 248.902 49.5929C249.852 50.0776 251.352 51.0084 251.792 51.386C252.502 51.9948 253.576 53.0607 253.971 53.5502C254.56 54.2783 255.211 55.2942 255.558 56.0239C255.708 56.3391 255.87 56.6716 255.918 56.7627C256.072 57.0514 256.595 58.694 256.693 59.1986C256.859 60.048 257.061 61.8103 257.061 62.4019C257.061 63.0544 256.846 65.1562 256.699 65.9447C256.644 66.2357 256.527 66.6921 256.439 66.9588C256.35 67.2256 256.216 67.6423 256.142 67.8848C255.809 68.9741 255.212 70.1248 254.279 71.4787L253.717 72.294L251.577 74.4192L250.641 75.0366C250.126 75.3762 249.203 75.8967 248.59 76.1934C246.859 77.0315 245.665 77.392 243.195 77.8223L242.125 78.0087L237.4 78.0122L236.508 77.8661C235.022 77.6227 233.97 77.3757 232.989 77.0404C232.057 76.7222 230.902 76.2094 230.311 75.8517C229.822 75.5557 229.055 75.045 228.809 74.8514C228.118 74.3067 226.906 73.0665 226.344 72.3293C225.57 71.3141 224.783 69.9756 224.459 69.1238C224.328 68.7819 224.191 68.4624 224.154 68.4139C224.079 68.3155 223.899 67.6017 223.631 66.3384L223.453 65.4978L223.429 64.1162C223.417 63.3565 223.43 62.7114 223.459 62.6827C223.462 62.6793 223.486 62.676 223.528 62.6727L223.534 62.6501L224.319 62.6478C224.906 62.6374 225.742 62.6307 226.658 62.6307H229.805L229.871 62.7363C229.908 62.7944 229.966 63.2027 230.001 63.6437C230.036 64.0847 230.163 64.8027 230.283 65.2392C230.402 65.6757 230.536 66.1718 230.58 66.3415C230.624 66.5113 230.784 66.9041 230.937 67.2144C232.019 69.4187 233.605 70.7893 235.928 71.5306C236.394 71.6793 237.089 71.8423 237.473 71.8931C237.857 71.9438 238.86 71.9853 239.702 71.9853L241.234 71.9851L241.947 71.8596C242.87 71.6973 244.258 71.2513 245.059 70.8599C245.407 70.6898 245.981 70.3572 246.335 70.1208C247.032 69.6561 247.982 68.7769 248.324 68.2816C248.441 68.1119 248.564 67.9531 248.597 67.9289C248.63 67.9046 248.838 67.5475 249.06 67.1352C249.833 65.7013 250.107 64.5389 250.105 62.6975C250.104 61.5124 249.995 60.7867 249.684 59.904L249.451 59.2427L249.006 58.5983C248.761 58.244 248.353 57.7449 248.099 57.4895C247.66 57.0484 246.538 56.216 245.96 55.9022C245.813 55.8224 245.632 55.7176 245.558 55.6692C245.306 55.5035 243.014 54.4575 242.593 54.3161C242.362 54.2384 242.102 54.1333 242.015 54.0825C241.929 54.0317 241.557 53.8896 241.189 53.7667C240.821 53.6437 240.24 53.4492 239.896 53.3344C239.236 53.1137 237.549 52.5232 236.285 52.0706C235.868 51.9212 235.166 51.6542 234.725 51.4772C234.283 51.3002 233.762 51.097 233.565 51.0258C232.735 50.7239 230.954 49.7944 230.065 49.1982C228.895 48.4138 228.724 48.2727 227.588 47.1613C226.683 46.2747 226.55 46.1195 226.003 45.3094C225.304 44.2743 224.641 42.8389 224.336 41.6998C224.233 41.315 224.128 40.9668 224.102 40.9258C224.076 40.8847 223.997 40.4258 223.927 39.9058L223.798 38.9601V35.6973L223.925 34.7713C224.258 32.3605 225.234 29.9609 226.689 27.9811C227.062 27.4728 227.443 27.0498 228.26 26.2379C228.79 25.7107 230.074 24.7159 230.578 24.4419C232.074 23.6286 233.098 23.1652 233.967 22.9088C234.236 22.8292 234.547 22.7284 234.658 22.6849C235.014 22.544 235.949 22.3564 236.998 22.215C237.562 22.1391 238.124 22.0614 238.247 22.0427Z" fill="white"/>
<path fill-rule="evenodd" clip-rule="evenodd" d="M289.26 23.0648C289.333 23.1255 289.445 23.3338 289.51 23.5278C289.575 23.7218 289.782 24.2773 289.971 24.7623C290.024 24.8979 290.097 25.0916 290.184 25.3226C290.193 25.3374 290.201 25.3588 290.208 25.3846C290.43 25.9759 290.731 26.7872 290.989 27.4961C291.361 28.5146 291.703 29.4273 291.749 29.5243C291.796 29.6213 292.036 30.2761 292.282 30.9794C292.529 31.6826 292.769 32.3374 292.815 32.4344C292.862 32.5314 293.085 33.1267 293.311 33.7572C293.72 34.8968 293.976 35.581 294.5 36.9337C294.651 37.3227 294.975 38.1957 295.22 38.8737C295.465 39.5518 295.829 40.543 296.029 41.0766C296.23 41.6101 296.488 42.3045 296.604 42.6198C296.719 42.9351 296.954 43.57 297.125 44.0308C297.297 44.4915 297.576 45.2455 297.746 45.7063C297.916 46.167 298.426 47.5361 298.88 48.7486C299.334 49.9612 299.836 51.3104 299.997 51.7469C300.157 52.1834 300.416 52.8779 300.572 53.2902C300.728 53.7024 300.971 54.3572 301.111 54.7452C301.252 55.1332 301.485 55.7682 301.629 56.1562C301.774 56.5442 301.998 57.1593 302.128 57.523C302.258 57.8868 302.402 58.2638 302.447 58.3608C302.493 58.4578 302.715 59.0531 302.942 59.6836C303.168 60.3141 303.485 61.1673 303.646 61.5796C303.808 61.9918 304.011 62.5474 304.097 62.8141C304.183 63.0809 304.284 63.3388 304.321 63.3873C304.357 63.4358 304.416 63.5747 304.452 63.696C304.559 64.0588 305.3 66.1071 305.393 66.2974C305.479 66.4734 305.758 67.2453 306.158 68.4139C306.274 68.7534 306.408 69.1105 306.455 69.2075C306.503 69.3045 306.686 69.7807 306.863 70.2658C307.039 70.7508 307.321 71.5048 307.488 71.9413C307.656 72.3778 307.996 73.2905 308.243 73.9695C308.491 74.6485 308.752 75.343 308.822 75.5128C309.086 76.1462 309.307 76.8626 309.261 76.936L309.213 77.0119H305.57C303.566 77.0119 301.863 76.9879 301.786 76.9584C301.708 76.929 301.645 76.848 301.645 76.7785C301.645 76.709 301.571 76.5049 301.481 76.3249C301.39 76.145 301.246 75.7398 301.159 75.4246C301.072 75.1093 300.971 74.8117 300.933 74.7632C300.895 74.7147 300.695 74.179 300.487 73.5727C300.279 72.9664 300.017 72.2323 299.904 71.9413C299.791 71.6503 299.51 70.8764 299.28 70.2217C299.05 69.5669 298.711 68.6343 298.525 68.1493C298.34 67.6643 298.041 66.8356 297.862 66.3077C297.449 65.0894 297.229 64.6129 297.048 64.5442C297.038 64.5403 296.936 64.5365 296.753 64.5328L273.022 64.4897H272.853L272.625 64.7845C272.5 64.9468 272.398 65.1065 272.398 65.1395C272.398 65.1726 272.053 66.0617 271.631 67.1154C271.21 68.1691 270.726 69.3883 270.557 69.8248C270.245 70.627 270.172 70.8094 269.61 72.1617C269.439 72.574 269.248 73.07 269.185 73.264C269.123 73.4581 269.022 73.6962 268.961 73.7932C268.901 73.8902 268.781 74.1878 268.696 74.4545C268.61 74.7213 268.512 74.9792 268.477 75.0277C268.443 75.0762 268.319 75.3739 268.203 75.6891C268.087 76.0044 267.941 76.3615 267.877 76.4828C267.814 76.6041 267.762 76.7486 267.762 76.8041C267.761 76.8596 267.698 76.929 267.62 76.9584C267.542 76.9879 265.957 77.0119 264.098 77.0119H260.717L260.718 76.9017C260.719 76.7285 260.957 75.9977 261.102 75.7202C261.174 75.5819 261.314 75.2306 261.413 74.9396C261.745 73.9608 263.284 69.8923 263.481 69.4721C263.566 69.2929 263.903 68.3677 264.204 67.4879C264.296 67.2212 264.427 66.9037 264.496 66.7825C264.565 66.6612 264.704 66.2972 264.804 65.9735C264.905 65.6498 265.029 65.3125 265.081 65.2239C265.133 65.1354 265.298 64.7255 265.448 64.3133C265.597 63.901 265.84 63.2462 265.987 62.8582C266.134 62.4702 266.332 61.9345 266.428 61.6677C266.524 61.401 266.642 61.1034 266.691 61.0063C266.741 60.9093 266.918 60.453 267.085 59.9922C267.253 59.5315 267.537 58.7775 267.716 58.3167C267.896 57.8559 268.137 57.221 268.252 56.9058C268.367 56.5905 268.608 55.9556 268.788 55.4948C268.968 55.034 269.212 54.3792 269.329 54.0397C269.447 53.7002 269.583 53.3431 269.632 53.2461C269.682 53.1491 269.825 52.7919 269.951 52.4524C270.077 52.1129 270.302 51.5176 270.451 51.1296C270.599 50.7416 270.833 50.1265 270.97 49.7628C271.108 49.399 271.308 48.8831 271.414 48.6164C271.521 48.3496 271.642 48.0321 271.682 47.9109C271.722 47.7895 272.065 46.8769 272.445 45.8826C272.825 44.8884 273.233 43.7975 273.353 43.4585C273.473 43.1195 273.604 42.802 273.644 42.753C273.684 42.7039 273.799 42.399 273.899 42.0754C274 41.7517 274.124 41.4144 274.174 41.3258C274.225 41.2372 274.41 40.7679 274.586 40.2829C274.762 39.7979 275.08 38.9447 275.294 38.3869C276.152 36.1439 276.437 35.3961 276.739 34.595C276.912 34.1342 277.168 33.4596 277.307 33.0958C277.446 32.7321 277.684 32.0971 277.836 31.6849C277.987 31.2726 278.166 30.8162 278.233 30.6707C278.3 30.5252 278.407 30.2276 278.47 30.0093C278.533 29.7911 278.634 29.5331 278.694 29.4361C278.753 29.3391 278.887 28.9851 278.99 28.6493C279.094 28.3136 279.217 27.9925 279.265 27.9358C279.312 27.8791 279.432 27.5784 279.531 27.2675C279.63 26.9568 279.75 26.623 279.799 26.526C279.882 26.3596 279.958 26.1619 280.555 24.5419C280.69 24.1782 280.855 23.7555 280.923 23.6027C280.991 23.4499 281.047 23.2832 281.047 23.2323C281.047 23.1814 281.117 23.0993 281.203 23.0498L281.359 22.96L289.127 22.9546L289.26 23.0648ZM284.943 31.868C284.799 32.0866 284.42 33.069 284.029 34.2337C283.909 34.5927 283.776 34.93 283.734 34.9833C283.691 35.0364 283.586 35.2982 283.5 35.565C283.414 35.8318 283.29 36.1691 283.224 36.3146C283.158 36.4601 282.988 36.8966 282.846 37.2846C282.703 37.6726 282.479 38.2679 282.347 38.6074C282.214 38.9469 281.974 39.5818 281.813 40.0183C281.652 40.4549 281.168 41.7247 280.738 42.8403C280.308 43.9557 279.923 44.9676 279.883 45.089C279.842 45.2102 279.663 45.6864 279.485 46.1472C279.089 47.1694 278.723 48.1287 278.383 49.0352C278.242 49.4112 278.006 50.0361 277.858 50.4242C277.711 50.8122 277.501 51.3677 277.393 51.6587C277.286 51.9498 277.064 52.5252 276.901 52.9374C276.738 53.3497 276.435 54.1434 276.227 54.7011C276.019 55.2589 275.809 55.8145 275.76 55.9357C275.712 56.057 275.563 56.4538 275.429 56.8176C275.296 57.1813 275.101 57.6967 274.996 57.9628C274.787 58.4927 274.758 58.7272 274.894 58.7724C274.943 58.7885 279.498 58.7915 285.015 58.7789L295.046 58.7562V58.6176C295.046 58.5414 294.949 58.2341 294.829 57.9349C294.71 57.6356 294.364 56.7161 294.061 55.8916C293.757 55.0671 293.37 54.0155 293.199 53.5547C292.644 52.0605 292.282 51.0534 292.09 50.4683C291.986 50.1531 291.868 49.8529 291.827 49.801C291.786 49.7492 291.674 49.4714 291.578 49.1837C291.309 48.3773 290.527 46.2355 289.698 44.0308C289.313 43.0049 288.914 41.9029 288.661 41.1647C288.545 40.8252 288.409 40.4681 288.36 40.3711C288.274 40.2037 288.07 39.6438 287.588 38.2546C287.47 37.9151 287.336 37.558 287.29 37.461C287.244 37.364 287.001 36.7092 286.75 36.0059C286.499 35.3027 286.221 34.5487 286.131 34.3304C286.042 34.1121 285.86 33.6161 285.727 33.2281C285.594 32.8401 285.45 32.4849 285.406 32.4388C285.363 32.3927 285.327 32.2714 285.327 32.1691C285.327 32.0668 285.272 31.9092 285.206 31.8188L285.084 31.6543L284.943 31.868Z" fill="white"/>
<path fill-rule="evenodd" clip-rule="evenodd" d="M378.879 23.1005C378.969 23.1808 379.042 23.3217 379.042 23.4136C379.042 23.5055 379.107 23.7053 379.187 23.8577C379.267 24.0101 379.433 24.4148 379.556 24.7572C379.853 25.5813 380.287 26.7735 380.666 27.8047C380.835 28.2655 381.163 29.1584 381.393 29.7889C381.624 30.4194 381.909 31.1734 382.025 31.4644C382.142 31.7554 382.287 32.1522 382.347 32.3462C382.406 32.5403 382.528 32.8577 382.617 33.0517C382.706 33.2457 382.883 33.7021 383.01 34.0659C383.138 34.4296 383.346 35.0249 383.473 35.3886C383.6 35.7524 383.733 36.0897 383.769 36.1382C383.804 36.1867 383.903 36.4447 383.988 36.7114C384.134 37.1701 384.344 37.7433 384.925 39.2688C385.063 39.6325 385.326 40.3468 385.51 40.8561C385.693 41.3654 385.998 42.1732 386.187 42.6511C386.377 43.1292 386.532 43.5597 386.532 43.6078C386.532 43.6561 386.592 43.8206 386.665 43.9734C386.737 44.1262 386.895 44.529 387.015 44.8685C387.136 45.208 387.36 45.8231 387.514 46.2354C387.668 46.6476 387.905 47.3027 388.04 47.6913C388.176 48.0797 388.329 48.4765 388.38 48.5731C388.431 48.6696 388.563 49.0066 388.673 49.3218C389.021 50.3148 389.675 52.098 390.323 53.8193C390.73 54.8999 390.828 55.1646 391.484 56.9498C391.662 57.4348 391.92 58.1293 392.057 58.4931C392.306 59.1541 392.775 60.4108 393.176 61.4914C393.293 61.8066 393.655 62.7789 393.979 63.6519C394.304 64.5249 394.684 65.5567 394.825 65.9447C394.965 66.3327 395.207 66.9875 395.361 67.3998C395.516 67.812 395.78 68.5263 395.947 68.9871C396.114 69.4478 396.291 69.9042 396.339 70.0012C396.45 70.2238 396.912 71.4967 397.155 72.2499C397.257 72.5652 397.374 72.8642 397.415 72.9144C397.456 72.9646 397.59 73.3019 397.713 73.664C398.115 74.8454 398.397 75.6417 398.479 75.8214C398.779 76.4872 398.892 76.8059 398.86 76.9017L398.822 77.0119H391.266L391.042 76.3285C390.918 75.9525 390.633 75.149 390.407 74.5427C390.182 73.9365 389.956 73.3214 389.905 73.1759C389.854 73.0303 389.692 72.574 389.544 72.1617C389.396 71.7495 389.126 70.9955 388.944 70.4862C388.761 69.977 388.561 69.4214 388.499 69.2516C387.95 67.7612 387.745 67.188 387.588 66.6943C387.487 66.379 387.374 66.0814 387.337 66.0329C387.3 65.9844 387.178 65.6669 387.067 65.3274C386.956 64.988 386.826 64.6612 386.778 64.6012L386.691 64.4921L362.477 64.4897L362.114 64.7983L361.703 65.8565C361.478 66.4385 361.196 67.133 361.077 67.3998C360.959 67.6665 360.814 68.0435 360.756 68.2375C360.697 68.4315 360.59 68.7064 360.517 68.8485C360.445 68.9905 360.293 69.3477 360.18 69.6422C360.068 69.9366 359.848 70.495 359.691 70.8831C359.535 71.2711 359.309 71.8465 359.19 72.1617C359.07 72.477 358.874 72.9444 358.753 73.2003C358.632 73.4563 358.534 73.6995 358.534 73.7408C358.534 73.8245 357.514 76.3523 357.291 76.8306L357.271 76.9237L357.241 76.9236L357.186 77.0119H350.22L350.268 76.8135C350.294 76.7044 350.461 76.2381 350.64 75.7773C350.818 75.3166 351.043 74.7015 351.139 74.4105C351.236 74.1194 351.359 73.8048 351.413 73.7112C351.467 73.6176 351.604 73.2803 351.718 72.9616C351.832 72.643 352.062 72.0251 352.229 71.5885C352.927 69.769 353.384 68.5716 353.489 68.2816C353.988 66.9149 354.83 64.7318 354.972 64.4359C355.067 64.2366 355.145 64.0058 355.145 63.9231C355.145 63.8403 355.191 63.6875 355.248 63.5834C355.304 63.4794 355.508 62.976 355.701 62.4648C356.56 60.1925 357.045 58.9217 357.417 57.964C357.597 57.5032 357.837 56.8683 357.952 56.553C358.067 56.2377 358.33 55.5433 358.537 55.0098C359.007 53.7986 359.486 52.5131 359.702 51.8792C359.793 51.6125 359.911 51.3207 359.965 51.2308C360.019 51.141 360.165 50.764 360.29 50.3931C360.414 50.0222 360.547 49.679 360.583 49.6305C360.62 49.582 360.72 49.324 360.806 49.0573C360.892 48.7905 361.017 48.4532 361.084 48.3077C361.2 48.054 361.567 47.0853 361.936 46.059C362.031 45.7922 362.164 45.4549 362.23 45.3094C362.297 45.1639 362.473 44.7076 362.623 44.2953C363.079 43.0412 363.343 42.3576 363.529 41.9551C363.626 41.744 363.705 41.5128 363.705 41.4414C363.705 41.37 363.789 41.1198 363.892 40.8855C363.995 40.6511 364.19 40.1616 364.325 39.7979C364.461 39.4341 364.702 38.7992 364.861 38.3869C365.193 37.5242 365.574 36.5136 365.927 35.565C366.062 35.2012 366.5 34.0473 366.9 33.0007C367.301 31.9543 367.629 31.0675 367.629 31.0299C367.629 30.9925 367.686 30.8369 367.757 30.6841C367.899 30.3762 368.583 28.6258 368.831 27.937C368.918 27.6945 369.042 27.377 369.106 27.2315C369.171 27.086 369.321 26.6892 369.441 26.3497C369.641 25.782 369.772 25.4327 370.424 23.7242C370.55 23.3957 370.677 23.0882 370.706 23.0408L370.76 22.9546H378.716L378.879 23.1005ZM374.525 31.7907C374.476 31.8538 374.385 32.0839 374.323 32.3022C374.26 32.5204 374.176 32.739 374.136 32.7881C374.095 32.8372 373.963 33.1546 373.841 33.4936C373.607 34.1477 373.319 34.9158 372.717 36.4909C372.514 37.0244 372.244 37.7387 372.118 38.0783C371.993 38.4178 371.836 38.8146 371.769 38.9601C371.703 39.1056 371.552 39.5025 371.432 39.842C371.313 40.1815 371.086 40.7966 370.927 41.2088C370.6 42.0584 370.24 43.0069 369.864 44.0079C369.551 44.8414 369.175 45.8267 368.744 46.9409C368.444 47.7189 368.166 48.4499 367.538 50.1155C367.401 50.4793 367.16 51.1142 367.001 51.5265C366.843 51.9387 366.597 52.5935 366.455 52.9815C366.312 53.3695 366.142 53.806 366.076 53.9516C366.01 54.0971 365.886 54.4344 365.801 54.7011C365.716 54.9679 365.598 55.2655 365.539 55.3625C365.479 55.4595 365.378 55.7373 365.314 55.9798C365.25 56.2223 365.141 56.5112 365.072 56.6216C365.003 56.7321 364.867 57.0757 364.771 57.3852C364.674 57.6947 364.535 58.0606 364.463 58.1985C364.39 58.3363 364.33 58.5184 364.33 58.6033L364.329 58.7576L364.486 58.7567C364.571 58.7562 369.11 58.7598 374.571 58.7649L384.5 58.7741L384.666 58.6104L384.498 58.221C384.406 58.0069 384.239 57.5539 384.127 57.2144C384.014 56.8749 383.893 56.5574 383.858 56.5089C383.797 56.4267 383.699 56.1571 383.101 54.4366C382.975 54.0728 382.832 53.6958 382.784 53.5988C382.736 53.5018 382.58 53.0851 382.437 52.6729C382.295 52.2606 382.051 51.586 381.897 51.1737C381.742 50.7615 381.522 50.1658 381.409 49.85C381.295 49.5342 381.133 49.1176 381.049 48.9241C380.965 48.7306 380.842 48.3937 380.776 48.1754C380.71 47.9572 380.472 47.2826 380.246 46.6763C380.021 46.07 379.754 45.3359 379.654 45.0449C379.553 44.7539 379.401 44.357 379.316 44.163C379.231 43.969 379.088 43.5722 378.998 43.2812C378.909 42.9902 378.784 42.6727 378.721 42.5757C378.657 42.4787 378.546 42.174 378.474 41.8986C378.401 41.6232 378.294 41.3089 378.235 41.2002C378.176 41.0915 378.037 40.7415 377.925 40.4222C377.814 40.1031 377.554 39.3856 377.349 38.8278C377.144 38.2701 376.883 37.5558 376.771 37.2405C376.658 36.9252 376.417 36.2705 376.235 35.7855C376.054 35.3004 375.788 34.5663 375.645 34.154C375.501 33.7418 375.329 33.2854 375.262 33.1399C375.195 32.9944 375.07 32.6571 374.985 32.3903C374.9 32.1236 374.781 31.8538 374.722 31.7907L374.613 31.6761L374.525 31.7907Z" fill="white"/>
<path d="M165 96H160.334V90.0831L165 90V96Z" fill="#6A7380"/>
<path d="M192.925 48.293L193.175 48.5406V95.5904C193.175 95.6152 192.83 95.5954 192.86 95.9643L187.374 95.7093C187.039 91.091 187.458 86.2844 186.177 81.7899C186.02 81.6067 184.536 81.0545 184.179 80.9232C180.725 79.6479 173.68 79.591 170.044 80.2695C168.733 80.5147 167.529 81.1139 166.223 81.3739L165.696 84.8531C165.686 84.9423 165.459 84.9126 165.444 85.1231C165.231 87.8173 165.284 92.0567 165.444 94.7807C165.449 94.85 166.268 94.8673 165.361 95.8405L163.893 95.7167L161.895 90.6403L160.334 90.0831L160.459 48.2979H192.925V48.293ZM166.952 54.7314V59.9316L168.076 58.6935L167.951 58.2007C168.535 58.7083 169.377 57.5519 170.001 57.2597C175.408 54.7363 182.434 55.2464 186.642 59.7236C186.722 59.8078 186.674 60.0554 186.682 60.1817H187.056C186.842 58.3071 187.281 55.3802 186.287 53.825C183.323 49.1968 172.454 49.39 168.553 52.6364C168.418 52.7503 166.977 54.6026 166.955 54.7314H166.952ZM168.95 66.37C172.202 64.7629 174.984 64.0695 178.76 64.379L183.153 65.6642L185.675 67.4546C185.59 70.4287 186.147 73.4027 184.656 75.9954L184.184 76.1514C184.424 73.5538 185.488 71.7832 183.862 69.3515C180.099 63.7179 168.218 65.3275 168.955 73.4621C169 73.95 169.674 75.4011 169.707 75.7131C169.727 75.8963 169.687 76.092 169.697 76.2752C168.728 77.3648 167.864 71.959 167.829 71.6272C167.676 70.2528 167.232 67.4695 168.448 66.7414H165.206L165.454 78.0086H187.808L188.308 66.9866L185.685 67.1104C185.451 66.3378 186.802 65.8524 186.904 65.2928C188.607 56.0636 174.032 54.5803 168.543 59.5676C166.792 61.1574 166.792 62.4376 166.96 64.7876L168.945 65.8772C168.96 65.897 168.968 66.3403 168.95 66.3675C168.92 66.4195 168.431 66.3799 168.451 66.6127C169.022 66.7736 168.92 66.3824 168.95 66.3675V66.37ZM185.525 79.4053C184.616 78.4915 173.48 78.8778 171.505 78.8828C170.161 78.8828 168.743 78.546 167.277 78.8704L166.702 80.4874C167.881 80.1729 169.574 79.3607 170.753 79.2443C173.738 78.9471 177.689 79.1997 180.528 79.4919C181.387 79.5811 182.236 79.6603 183.095 79.7519L185.932 80.735C185.975 80.6806 185.583 79.4672 185.525 79.4077V79.4053Z" fill="#6A7380"/>
<path d="M186.182 91.3807C186.095 92.1558 187.059 93.6019 186.24 93.8595L166.695 93.9263L166.233 93.5351L166.7 91.507L165.953 91.7521C165.728 91.606 166.058 88.0624 166.083 87.4731C166.098 87.1165 165.721 86.9555 165.723 86.8416C165.726 86.5494 166.523 82.2258 166.687 82.0425L167.204 82.2803L166.702 85.9328L169.45 85.6208L166.702 86.6757V90.3902L170.449 89.152C170.481 89.2857 170.406 89.5606 170.449 89.6473L170.698 89.8949C170.311 89.9667 170.506 89.7686 170.449 89.6473L166.957 91.2618L167.202 93.1141H185.81L185.843 91.715C185.967 91.2197 186.147 91.4203 186.185 91.3782L181.939 89.4591L182.254 89.1471L185.937 90.3877L185.925 86.8119L182.686 85.866L182.691 85.4351L186.062 85.9279L185.77 81.9633L186.187 81.9682C186.34 83.6398 186.619 85.0983 186.697 86.7426C186.707 86.958 186.697 88.0253 186.697 88.3398C186.699 89.2833 186.672 90.2292 186.692 91.1702C186.637 91.3609 186.245 91.3138 186.187 91.3782L186.182 91.3807Z" fill="#6A7380"/>
<path d="M172.696 81.4755V82.0945C171.505 82.0103 169.709 82.7334 168.64 82.721C168.316 82.7186 166.89 82.4065 167.452 81.9707C167.714 81.7677 168.353 82.2481 168.765 82.2283C169.277 82.2035 170.826 81.4755 170.948 81.4755H172.696Z" fill="#6A7380"/>
<path d="M181.4 81.5176C181.447 81.525 182.229 81.9559 182.279 81.9633C183.475 82.1391 184.257 82.0673 185.436 81.9707V82.3397C184.864 82.2877 184.279 82.6889 183.752 82.7111C183.225 82.7334 182.676 82.3521 182.506 82.3323C181.939 82.2654 180.243 82.518 179.941 81.9039L180.226 81.5176C180.613 81.4235 181.013 81.4507 181.4 81.5176Z" fill="#6A7380"/>
<path d="M175.943 82.2183C176.013 82.8845 175.121 82.8671 174.694 82.8349V84.4445L173.108 83.1222C173.261 82.0252 173.67 83.4367 173.945 83.2064L174.409 82.2134L175.948 82.2183H175.943Z" fill="#6A7380"/>
<path d="M176.902 83.5011C176.939 83.5134 177.242 83.8626 177.449 83.7735L176.984 84.7937L175.376 84.447L175.473 83.7264C176.053 83.6274 176.193 83.2832 176.902 83.4986V83.5011Z" fill="#6A7380"/>
<path d="M177.928 81.9881C178.797 82.4338 178.55 82.6814 178.945 83.454L179.192 82.9612C179.836 83.4218 179.15 84.2687 178.752 84.6922L178.128 82.8374L177.069 82.4016L177.926 81.9881H177.928Z" fill="#6A7380"/>
<path d="M171.447 89.8949C171.642 90.1252 171.115 90.3258 171.198 89.9568C171.223 89.8429 171.435 89.88 171.447 89.8949Z" fill="#6A7380"/>
<path d="M178.69 81.7231C178.885 81.9534 178.358 82.154 178.44 81.785C178.465 81.6711 178.677 81.7082 178.69 81.7231Z" fill="#6A7380"/>
<path d="M176.193 70.3321L175.945 72.3107L176.632 71.808L177.818 72.063L177.319 70.5797H177.941C178.103 71.6445 179.207 72.3973 178.518 73.5637L175.131 73.3061L174.976 72.8901L176.193 70.3346V70.3321Z" fill="#6A7380"/>
<path d="M178.648 74.5864C178.697 74.5963 179.477 75.0148 179.442 75.2228C179.424 76.1687 175.184 76.2232 174.697 75.2178C174.32 74.3313 178.21 74.5071 178.648 74.5864Z" fill="#6A7380"/>
<path d="M173.907 68.1455C173.962 68.1554 174.851 68.5046 174.901 68.6333L174.866 69.6016C171.675 71.3449 169.897 67.4546 173.907 68.1455Z" fill="#6A7380"/>
<path d="M181.147 68.3956C181.619 68.5244 181.749 68.9082 181.937 69.3391C180.855 70.0919 179.169 70.4014 178.24 69.2202C178.016 68.304 179.147 68.569 179.504 68.0985C180.034 68.5244 180.598 68.247 181.147 68.3956Z" fill="#6A7380"/>
<path d="M170.948 68.5987C171.143 68.829 170.616 69.0295 170.698 68.6606C170.723 68.5467 170.936 68.5838 170.948 68.5987Z" fill="#6A7380"/>
<path d="M177.941 69.8368C178.136 70.0671 177.609 70.2677 177.691 69.8987C177.716 69.7848 177.928 69.822 177.941 69.8368Z" fill="#6A7380"/>
<path d="M168.948 52.9979H168.451V53.2431H168.948V52.9979Z" fill="#6A7380"/>
<path d="M186.682 58.9411C186.877 59.1714 186.35 59.372 186.432 59.003C186.457 58.8891 186.669 58.9262 186.682 58.9411Z" fill="#6A7380"/>
<path d="M186.557 55.2266H186.434V55.4718H186.557V55.2266Z" fill="#6A7380"/>
<path d="M12.1749 72.4372L11.9801 72.1252C12.075 71.8479 12.12 71.5037 12.2174 71.2387C13.6933 67.1726 20.8884 67.7273 20.8285 72.2911L20.5388 72.4372H12.1724H12.1749Z" fill="#898989"/>
<path d="M11.1135 80.9805H7.86686V85.314H11.1135V80.9805Z" fill="#898989"/>
<path d="M22.8514 61.6653C23.0462 61.8956 22.5192 62.0962 22.6016 61.7272C22.6266 61.6133 22.8389 61.6504 22.8514 61.6653Z" fill="#898989"/>
<path d="M33.0908 90.6381C29.3996 89.6896 24.7594 90.7148 21.5402 92.6216L21.1032 91.1333V92.8667C21.1032 92.9584 19.6747 93.5849 19.5423 93.8597L19.2301 93.5477V88.7808H15.4216L14.9845 88.3475V84.5092L15.3017 84.1873L20.354 84.4473V86.9236H16.8576L17.2896 87.4263H20.4164L20.8459 87.0771L21.1007 81.2256H24.8468V85.1877L26.4951 79.0143L29.3372 79.0019L28.5954 82.2161L29.467 79.2916C28.5854 77.2982 28.1809 76.5231 29.0599 74.4554C29.2223 74.074 29.964 73.97 29.7193 73.1182L28.3707 72.5288L28.2733 72.0583L31.0879 70.2085L27.9261 69.9386L26.9721 67.9031L28.8402 64.8226L25.4362 65.8725L23.1336 63.4804L23.718 60.3008L21.2705 62.6608L18.2137 62.1061L17.3521 58.9389L15.8386 62.1407L13.1864 62.6236L10.6065 59.5555V63.5176C9.97219 63.8147 9.30538 64.1465 8.70849 64.5155C8.36885 64.726 8.35136 65.2658 7.66707 65.3773L4.86247 64.2605L6.36342 67.1701C5.58672 68.074 5.47434 69.0645 4.95987 69.9956L1.86557 70.2036L5.11221 72.1227C5.18214 72.7393 3.06433 72.7839 2.61979 72.9325L2.6123 73.7942C3.40148 73.6085 3.07682 74.2523 3.10928 74.287C3.13426 74.3143 3.4814 74.2325 3.56881 74.3316C4.47537 75.3196 4.40794 78.3234 3.11927 79.0886L5.36695 87.0722C5.49182 87.1589 6.05873 87.6615 6.10619 87.6615H11.101L11.6005 95.7095H0.187306L0 95.5238V58.0078L0.124871 57.6982H33.0908V90.6381ZM28.4681 82.8377C28.483 82.8154 28.4805 82.4836 28.4681 82.4687C28.3057 82.2483 28.3207 83.0606 28.4681 82.8377ZM28.2183 84.1997C28.1184 83.8728 28.493 83.3478 28.0959 83.2091C28.1634 83.4543 27.9361 84.0882 28.2183 84.1997ZM27.9686 85.1902V84.945H27.8462V85.1902H27.9686ZM27.7188 86.1807C27.6664 85.9925 27.8612 85.4527 27.5965 85.4403C27.6489 85.6285 27.4541 86.1683 27.7188 86.1807ZM16.8576 85.9331H18.7306L18.8555 85.5641C18.2436 85.5913 17.6093 85.475 17.0124 85.6533L16.8576 85.9356V85.9331ZM17.1073 86.1807H16.8601V86.6735H17.1073V86.1807ZM27.2218 87.6665L25.9157 87.4114L21.7875 87.4189L21.6027 87.6665H27.2218ZM21.4753 88.4094C21.4503 88.2261 21.5827 87.8795 21.3529 87.9166C21.3779 88.0998 21.2455 88.4465 21.4753 88.4094ZM21.4753 88.9046V88.6595H21.3529V88.9046H21.4753Z" fill="#898989"/>
<path d="M19 90.0005H33V96.0005H19V90.0005Z" fill="#898989"/>
<path d="M74.049 36.6533V90.3867L67.3409 90.6764L65.805 96V93.0264L65.5003 55.7184L43.6579 55.5921L43.0186 94.9753C41.0331 93.5316 39.1751 92.6049 36.8699 91.6639C35.1462 91.009 34.9819 91.1337 34.9819 90.7333L34.9619 37.5795L35.3415 36.6558H74.0515L74.049 36.6533ZM69.6061 41.8065C68.5222 40.6129 68.2924 40.395 66.6242 40.239C58.6649 39.4912 49.2896 40.6773 41.2404 40.4619C38.5282 41.5737 37.5667 45.4269 39.3424 47.5416C39.3823 47.5912 39.712 47.5045 39.7944 47.5887C41.5451 49.3964 43.533 49.3048 45.0939 47.3609C45.2038 45.8503 45.7408 44.7979 44.3272 43.6489C42.4267 42.1037 40.4437 43.6613 41.0881 45.7216L42.0796 46.3084L41.8298 45.8156L42.7039 46.0608L42.574 44.1392C43.3482 43.8817 43.548 44.1664 44.04 44.6097C45.1314 46.8359 42.5466 48.5396 40.7634 47.1776C38.783 45.6621 39.9093 42.5568 41.9247 41.6158C49.5468 41.9353 58.1404 41.0958 65.7351 41.6158C66.9438 41.6976 68.2949 41.6456 69.0067 42.8887C69.6161 43.9535 69.7934 45.6646 69.0567 46.717C68.9193 46.9127 67.8054 47.507 67.4908 47.5515C64.5913 47.9502 64.0144 44.1615 66.8015 44.0847L66.312 45.7216C66.8714 46.4298 67.8029 46.093 68.3099 45.4937L67.768 43.6142C64.9609 42.3042 63.2527 44.9167 64.0593 47.2098C64.831 49.4038 68.692 49.2973 70.0057 47.2569C70.2404 46.8904 70.213 46.3629 70.3129 46.0707C70.3253 46.0311 70.6675 46.0806 70.6725 46.0633C70.7324 45.8404 70.8198 44.0302 70.7874 43.7826C70.655 42.7673 70.1805 42.4454 69.6011 41.8065H69.6061ZM63.5598 42.225H45.7033L45.5809 42.9976L47.0694 44.9192L47.0769 49.0348H62.3111C62.5634 47.5813 61.9115 46.6304 62.3261 45.0257C62.5883 44.0104 63.5274 43.2254 63.5598 42.225ZM65.5578 52.0064C66.8065 50.7707 64.3965 49.9486 63.4899 49.7852C60.8751 49.3097 49.1223 49.2899 46.4001 49.6663C45.6159 49.7753 44.4746 50.4488 43.6255 50.5726L43.3283 52.0064H65.5578ZM65.4329 53.4922L65.4953 52.7493H43.6429L43.3258 52.9425L43.5805 53.4922H65.4329ZM65.5578 54.978L65.1282 54.1038L43.6704 54.2623L43.3308 54.978H65.5578Z" fill="#FAAB7E"/>
<path d="M61.0624 58.0115C61.0824 57.9 61.7367 56.7807 61.8466 56.7535L62.2412 56.704C62.948 56.8228 63.7147 57.5236 63.8146 58.2566L63.5648 95.6265C62.8381 96.149 61.7467 96.1119 61.0649 95.5894V58.0115H61.0624Z" fill="#FAAB7E"/>
<path d="M57.5336 56.751L58.0281 57.2388L58.3253 95.2947L57.9307 95.8816L55.9028 95.8469L55.6905 95.161C56.3273 83.0172 54.8489 70.6158 55.5581 58.5042C55.5781 58.1551 55.8153 57.3032 56.0701 57.0457L57.5361 56.751H57.5336Z" fill="#FAAB7E"/>
<path d="M52.5362 56.751C52.7061 57.0853 53.0182 57.0804 53.0782 57.5038C53.7375 62.1419 53.0332 70.0785 53.0607 75.1054C53.0732 77.5916 53.3304 80.4542 53.3304 83.037V95.3987L52.8834 95.8444L50.823 95.7726L50.838 57.3082C51.3175 56.6842 51.7071 56.5678 52.5387 56.7485L52.5362 56.751Z" fill="#FAAB7E"/>
<path d="M47.8261 95.837L45.7308 95.8791H45.5435V57.3676C46.0454 55.966 47.8261 57.276 47.8261 57.4543V95.837Z" fill="#FAAB7E"/>
<path d="M34.9998 90H42.9998V96H34.9998V90Z" fill="#FAAB7E"/>
<path d="M65.9998 90H73.9998V96H65.805L65.9998 90Z" fill="#FAAB7E"/>
<path d="M111.759 22.0439V90.39C108.71 90.7837 105.244 91.6529 102.926 93.6092H102.267L102.079 53.6168H84.0356V95.5283L80.2895 95.7759C79.6176 95.4887 78.6936 91.3706 78.0443 90.697C77.4824 90.1176 77.0053 90.6648 76.5433 90.0804V22.0439H111.759ZM82.5072 27.7048C82.5621 27.4695 82.4447 27.3333 82.4123 27.1179L80.6116 27.2516L79.5427 28.2298L81.8279 28.73C81.8753 28.4972 82.4922 27.7617 82.5072 27.7023V27.7048ZM86.1609 27.2442H83.0391C83.0541 27.8534 83.124 28.2298 82.7894 28.73H86.036L86.1609 27.2442ZM93.4034 27.2442H86.7852V28.73C88.8181 28.1084 90.9934 27.9177 92.8415 29.2277L93.4034 27.2442ZM99.9591 27.2442H94.0277V29.2252C96.193 28.2768 98.3508 28.1505 100.394 29.4729L99.9591 27.2442ZM104.205 27.2442H100.771L101.27 29.7205C101.483 30.0127 102.442 28.9776 102.519 28.9776H104.267C104.3 28.9776 104.187 28.3759 104.639 28.9776L104.205 27.2442ZM106.48 27.2838L105.014 27.2442L105.513 28.9776L107.262 28.4799L106.477 27.2813L106.48 27.2838ZM84.0381 35.6636V45.5688L84.2878 45.8165H102.269C102.297 45.8165 102.252 45.3856 102.769 45.5688V35.4779C102.769 35.3417 103.573 33.1749 103.693 32.9224C104.317 31.6099 105.875 30.1662 107.389 30.2158V29.666C107.304 29.4506 105.633 30.4535 105.316 30.4609C104.19 30.4881 104.29 29.3466 102.117 30.4683C101.363 30.8596 99.5221 35.1708 99.5221 35.6611V45.3187H98.5231C98.8103 42.4462 98.101 38.5881 98.5156 35.8394C98.668 34.8341 100.971 32.2661 100.568 31.1147C100.049 29.6239 95.0966 28.9726 94.0277 30.7085V45.3187H93.0288C93.1861 42.0054 92.8789 38.6575 92.8964 35.3516C92.9064 33.4325 94.2975 30.5946 91.6177 29.8195C89.9919 29.349 87.9465 29.4233 86.5829 30.4981C86.3732 30.9661 87.8741 34.6855 88.0364 35.5794C88.0589 35.7082 88.2887 35.6488 88.2887 35.6636V45.0736L87.537 45.2618C86.7103 44.66 87.3696 38.2637 87.2972 36.9637C87.2448 36.0276 86.4031 31.3672 86.0735 30.6219C85.8038 30.0127 84.1904 29.6858 83.5985 29.8369L82.2499 30.711C81.2035 30.1018 80.6641 29.3788 79.298 29.4729C79.1356 30.4114 80.0797 30.0919 80.3244 30.2232C82.617 31.4638 83.3713 32.9273 83.7908 35.5794C83.8108 35.7008 84.0406 35.6488 84.0406 35.6611L84.0381 35.6636ZM102.207 46.4356H84.6L84.3103 46.5816L84.7224 47.5548L101.972 47.5598L102.651 47.2304L102.207 46.4356ZM84.5376 49.2833H102.269L102.464 48.4092C96.4852 47.9436 90.3091 48.1516 84.2978 48.3027L84.5376 49.2858V49.2833ZM102.496 50.2936C102.207 50.1277 101.922 50.0633 101.59 50.0188C98.7479 49.6473 87.9241 49.6399 85.092 50.0188C84.7998 50.0584 84.3602 50.1104 84.2728 50.467L84.7224 51.0241H101.972L102.496 50.2936ZM102.269 52.7501L102.207 52.0072L101.712 51.7547C96.5676 52.2152 90.364 51.1603 85.3442 51.7547C85.052 51.7893 84.3727 51.8289 84.2753 52.1979L84.6325 52.7427L102.269 52.7526V52.7501Z" fill="#DEC3B8"/>
<path d="M93.7755 54.7336C94.1077 55.2462 93.7805 55.6301 93.783 55.6845C93.9828 68.7099 94.1276 82.3048 94.0352 95.1692C94.0277 96.1003 92.6966 96.187 92.8989 95.038L93.0313 54.7336H93.7755Z" fill="#DEC3B8"/>
<path d="M99.7718 54.7312C99.8467 54.803 99.7244 56.4522 99.7618 56.7815C101.08 68.5316 99.7269 82.8595 99.7618 94.9166C99.7618 95.1048 100.481 95.9517 99.0975 95.8453L99.0426 54.751L99.7743 54.7312H99.7718Z" fill="#DEC3B8"/>
<path d="M87.7842 54.4835C87.989 67.3356 87.5145 80.2173 87.7742 93.0668C87.7817 93.4432 88.0365 93.3244 88.0439 93.5398C88.0714 94.3941 88.0614 95.0429 87.7817 95.8329L87.3372 95.8453L86.7753 95.293L87.0525 54.5009L87.7842 54.4811V54.4835Z" fill="#DEC3B8"/>
<path d="M76.5433 89.9999H84V95.9999L76.5 96L76.5433 89.9999Z" fill="#DEC3B8"/>
<path d="M102.25 90.0723L111.759 89.9999V95.9999H102.25V90.0723Z" fill="#DEC3B8"/>
<path d="M146 90H158V96H146V90Z" fill="#519693"/>
<path d="M125.746 57.7656C125.771 57.6517 125.984 57.6883 125.996 57.7031C126.191 57.9334 125.664 58.1344 125.746 57.7656Z" fill="#519693"/>
<path d="M147.973 57.9512L147.599 57.9482L147.973 57.7031V57.9512Z" fill="#519693"/>
<path d="M146.225 56.7744C146.25 56.661 146.462 56.6981 146.475 56.7129C146.669 56.9432 146.142 57.1434 146.225 56.7744Z" fill="#519693"/>
<path d="M127.244 54.0508C127.269 53.937 127.482 53.9744 127.494 53.9893C127.689 54.2195 127.162 54.4197 127.244 54.0508Z" fill="#519693"/>
<path d="M145.975 52.8125C146 52.6989 146.212 52.7361 146.225 52.751C146.419 52.9813 145.892 53.1815 145.975 52.8125Z" fill="#519693"/>
<path d="M149.721 52.3174C149.746 52.2035 149.958 52.241 149.971 52.2559C150.165 52.4861 149.638 52.6863 149.721 52.3174Z" fill="#519693"/>
<path d="M150.221 50.584C150.246 50.4702 150.458 50.5076 150.471 50.5225C150.665 50.7526 150.138 50.9528 150.221 50.584Z" fill="#519693"/>
<path d="M146.725 48.0459C146.298 47.6373 149.921 44.7305 150.718 45.0771C150.705 45.2544 150.559 45.4238 150.469 45.5693C150.206 45.5864 149.096 46.1523 148.819 46.3203C148.23 46.6796 147.451 48.0529 146.725 48.0459Z" fill="#519693"/>
<path d="M150.895 45.5723L150.968 45.8789L148.22 47.6797C147.821 47.36 150.343 45.7748 150.468 45.5742L150.469 45.5713C150.611 45.564 150.753 45.5772 150.895 45.5723Z" fill="#519693"/>
<path d="M150.468 45.5723L150.469 45.5693H150.471L150.468 45.5723Z" fill="#519693"/>
<path d="M152.469 45.1367C152.494 45.0233 152.704 45.0592 152.718 45.0742C152.913 45.3044 152.387 45.5052 152.469 45.1367Z" fill="#519693"/>
<path d="M123.463 45.6094C124.574 46.6246 124.692 48.1575 125.743 49.2842C124.135 48.9497 124.02 46.5894 122.749 45.7549L123.463 45.6113V45.6094Z" fill="#519693"/>
<path d="M125.461 45.6094C126.14 46.5479 127.591 46.979 127.491 48.2939C126.46 47.665 125.956 46.3621 124.747 45.7529L125.461 45.6094Z" fill="#519693"/>
<path d="M136.484 43.5908C136.338 43.8825 136.225 44.0517 136.106 44.2998L135.985 44.5791C135.95 44.6088 135.64 44.5121 135.525 44.6211C134.651 45.4581 134.552 46.6324 134.053 47.6748C133.344 46.7735 134.616 45.919 134.237 45.0771L136.484 43.5908Z" fill="#519693"/>
<path d="M137.398 43.5889C137.535 43.6209 137.472 43.8297 137.483 43.8389C137.106 43.8911 136.873 44.6108 136.735 44.8252C136.784 44.7659 137.568 44.524 137.483 43.8359C137.656 43.9375 137.988 43.9303 137.988 44.2695L136.984 47.6748C136.125 47.3702 136.887 45.8374 136.992 45.1514C137.004 45.0786 136.573 45.096 136.725 44.8428C136.162 45.6986 135.702 46.4467 135.493 47.4688L135.113 47.5527C134.9 47.207 135.801 45.0627 135.988 44.582L135.986 44.5801C136.291 44.3253 136.64 44.0166 136.752 43.6113L137.398 43.5889Z" fill="#519693"/>
<path d="M138.97 43.6035C139.202 43.6109 139.207 44.4035 139.229 44.4951C139.265 44.6285 139.479 44.5667 139.479 44.5791V47.6738L138.979 47.4639C138.937 46.7855 139.049 46.0601 138.979 45.3867C138.942 45.0128 138.248 43.5813 138.97 43.6035Z" fill="#519693"/>
<path d="M140.224 44.1758L140.73 47.0557L140.226 46.9766L139.395 44.002L139.729 43.5908L140.224 44.1758Z" fill="#519693"/>
<path d="M130.491 41.8555C129.647 41.4246 129.854 38.837 130.491 38.3887V41.8555Z" fill="#519693"/>
<path d="M129.991 37.8936C130.203 39.1265 128.963 39.9686 129.245 41.2686L128.748 41.6055C128.513 40.9765 128.71 40.3268 128.885 39.7275C128.987 39.3787 129.604 38.103 129.991 37.8936Z" fill="#519693"/>
<path d="M130.741 37.5811C131.428 36.908 131.647 38.369 131.739 38.7998C131.767 38.9306 131.992 38.8689 131.992 38.8838V41.1123H131.989L130.741 37.5811Z" fill="#519693"/>
<path d="M144.976 40.1221L145.476 39.1309C145.406 39.6979 146.482 40.9691 145.728 41.3604L145.229 40.248L145.478 42.165L144.979 43.0957L144.366 38.832L144.976 38.3926V40.1221Z" fill="#519693"/>
<path d="M141.229 42.165C141.254 42.0517 141.465 42.0875 141.479 42.1025C141.674 42.3327 141.148 42.5334 141.229 42.165Z" fill="#519693"/>
<path d="M143.543 37.3955C144.136 37.5393 143.413 38.0937 143.492 38.3066C143.592 38.5665 143.922 38.5639 143.978 38.7246C144.175 39.2941 143.208 41.1073 143.984 41.9121L143.553 42.1104C143.505 42.0683 143.351 41.5946 143.351 41.5459V38.6982H143.353L143.23 38.3887V39.376L142.73 39.2529L141.952 41.5801L141.478 41.667C141.275 40.9662 143.133 37.2766 143.543 37.3955Z" fill="#519693"/>
<path d="M141.685 39.0918C141.652 39.2329 141.087 39.6969 141.025 39.7969C140.863 40.0668 140.374 41.5477 139.981 41.1123L140.48 39.1338L140.853 39.3789L141.482 38.3906L141.685 39.0918Z" fill="#519693"/>
<path d="M144.979 38.3906L144.976 38.3926V38.3887L144.979 38.3906Z" fill="#519693"/>
<path d="M136.734 36.168V36.1592H136.739L136.734 36.168Z" fill="#519693"/>
<path d="M146.725 37.9551C146.749 37.8422 146.958 37.8775 146.974 37.8926C147.168 38.1229 146.642 38.324 146.725 37.9551Z" fill="#519693"/>
<path fill-rule="evenodd" clip-rule="evenodd" d="M157.963 90.2666L150.298 90.623L148.38 95.5889L145.851 95.7764V61.1084C140.084 58.3325 133.376 58.6717 127.494 60.7988V95.0957C127.327 95.0228 127.494 95.0957 127.5 95V96H114.258V31.207H157.963V90.2666ZM130.806 58.8076C129.832 58.8373 127.497 59.6943 126.745 60.4248C128.203 60.14 129.697 59.048 131.362 59.1865L131.365 59.1895C131.393 58.818 131.083 58.8002 130.806 58.8076ZM145.601 59.8105C142.719 58.3371 138.038 58.0799 134.861 58.5107L140.798 58.6846L145.473 60.1797L146.347 60.4248C146.22 59.8494 145.525 60.2009 145.475 60.1787C145.442 60.1479 145.628 59.8231 145.601 59.8105ZM145.176 58.251C140.925 56.7182 131.572 56.3833 127.539 58.3643C127.427 58.4187 125.396 59.7271 125.746 59.9326C126.64 60.0661 127.526 58.9613 128.338 58.7012C129.671 58.2753 133.323 57.7702 134.669 57.6934C136.367 57.5993 138.101 57.7899 139.802 57.6934C141.927 57.5252 144.986 59.3648 146.819 59.6768C147.076 59.7213 147.341 59.6718 147.601 59.6816C147.059 58.8822 146.025 58.5555 145.179 58.251H145.176ZM146.562 56.5615C142.211 54.494 134.769 54.4498 130.084 55.3809C128.768 55.6433 123.981 56.6882 124.537 58.6592L125.366 59.1846C125.419 59.0632 125.421 58.7753 125.526 58.7158C130.703 55.7148 135.501 56.2124 141.3 56.4551C143.595 57.1732 146.4 57.27 147.976 59.1865L148.303 58.9023C148.662 57.367 147.73 57.1187 146.562 56.5615ZM131.49 58.9414C132.224 59.1592 132.192 58.6943 132.239 58.6943H134.487V58.5703H131.802L131.49 58.9414ZM141.729 54.3604C143.66 54.8556 145.553 55.3308 147.349 56.2148C147.054 55.7569 147.106 55.3289 146.505 55.1357L141.729 54.3604ZM126.248 55.6016L126.87 55.7227V55.4746L126.248 55.6016ZM127.744 55.3535C127.554 55.4055 127.01 55.2124 126.997 55.4746C127.187 55.4226 127.732 55.616 127.744 55.3535ZM128.618 55.1055C128.416 55.1426 127.969 54.9849 127.996 55.2275C128.166 55.1854 128.631 55.3556 128.618 55.1055ZM129.617 54.8584C129.4 54.9178 128.793 54.7096 128.745 54.9795C128.955 54.9176 129.555 55.1331 129.617 54.8584ZM130.491 54.6104C130.302 54.6623 129.757 54.4697 129.744 54.7314C129.934 54.6794 130.479 54.8728 130.491 54.6104ZM139.667 50.6484C135.292 50.3315 129.125 50.5122 125.748 53.4912L127.187 54.7441C132.111 53.3599 138.118 52.9616 143.138 53.749C143.602 53.8208 145.05 54.447 145.315 54.4795C145.595 54.5142 145.883 54.4823 146.165 54.4922L146.977 53.9053C147.755 52.4747 146.543 52.8099 146.475 52.751C146.422 52.704 146.609 52.4489 146.595 52.4385C146.46 52.3444 146.305 52.5579 146.225 52.5059C146.192 52.4857 146.255 52.1516 146.225 52.1318C146.142 52.0825 145.82 52.3029 145.728 52.2559C145.713 52.2475 145.757 51.9471 145.703 51.9189H145.7C144.402 51.3024 141.148 50.755 139.667 50.6484ZM135.61 54.2363H140.73C140.775 54.2366 140.776 54.712 141.479 54.4844C141.562 54.1649 141.247 54.1626 141.032 54.1279C139.469 53.8804 137.519 54.1849 135.923 53.8506L135.61 54.2363ZM149.222 51.2627L147.488 51.6494L147.733 53.1494C147.896 53.7163 149.418 53.1499 149.806 52.9541C150.685 52.5084 151.867 50.7478 152.971 50.5225H154.841C155.255 48.7321 153.652 48.1205 152.221 47.6748L149.222 51.2627ZM125.496 52.998H125.618V52.7529H125.496V52.998ZM121.753 50.7695H121.253C120.916 50.45 120.626 49.8805 120.004 49.9053C120.481 50.3039 120.591 50.767 121.253 50.7695H121.251C121.538 51.042 121.935 51.7014 122.295 51.9639C122.742 52.2929 123.775 52.3749 124.095 52.9912L124.824 52.8867L125.371 51.6963C125.381 51.57 123.258 51.2177 122.906 51.0469C122.529 50.8609 121.802 49.9754 121.315 49.7822L121.753 50.7695ZM144.751 50.4355C141.234 48.8137 132.199 48.7768 128.598 50.166C127.606 50.5475 125.928 51.5699 125.748 52.751C126.517 51.8794 127.691 51.5742 128.71 51.2275C128.775 51.2053 128.956 50.8164 129.088 50.7793C129.448 50.6781 130.017 50.8562 130.398 50.7646C135.99 49.4497 140.081 49.9894 145.723 51.2646V51.2666L145.726 51.2646C145.701 51.2369 145.78 50.9872 145.703 50.918C145.353 50.8189 145.071 50.5816 144.751 50.4355ZM147.036 52.0078L147.099 51.9463L147.036 51.8838V52.0078ZM146.215 51.208C146.065 51.0994 145.798 51.2828 145.723 51.2666C145.747 51.3004 145.693 51.4928 145.723 51.5127C145.765 51.5424 146.487 51.5032 146.722 51.7607L146.215 51.208ZM125.559 51.5127L125.621 51.4512L125.559 51.3887V51.5127ZM152.965 45.0146C148.794 43.3833 146.672 48.3702 142.98 49.1602C144.067 49.4598 145.196 49.8317 146.228 50.2725C146.033 50.0422 146.561 49.8415 146.477 50.208C146.449 50.3202 146.239 50.2829 146.228 50.2725C146.395 50.345 146.944 50.9156 147.164 51.0195C148.271 51.1802 150.778 49.1578 151.305 48.2441C151.447 47.9994 151.57 47.4288 151.677 47.1504L151.719 47.0557C151.686 47.1295 151.273 47.6685 151.192 47.7656C151.122 47.8498 150.773 47.6177 150.723 47.6719C150.663 47.7387 150.538 49.1926 149.724 49.0342L149.974 47.7959L150.346 48.043L150.755 46.3418L151.722 46.0625C151.684 46.3681 151.773 46.7619 151.722 47.0488C152.101 46.3743 152.239 45.6063 153.083 45.3125L152.965 45.0146ZM125.988 45.2061C125.596 44.7677 122.684 44.9779 121.997 45.1982H122V47.3027C122 47.3296 122.305 47.351 122.361 47.6836L122.25 46.4062L122.746 46.0674V47.0557L123.236 46.5752L124.487 48.8828L124.308 49.2861L123.434 48.5439L123.251 48.7861C124.093 49.4448 125.796 50.4305 126.902 50.2695L129.245 49.0439L129.739 49.2861V48.791L130.408 49.0439L130.578 48.623C129.584 47.2364 128.223 45.8225 126.558 45.3223C126.058 45.3867 128.133 46.5402 127.307 46.8076C127.097 46.3719 126.25 46.1217 126.03 45.9062C125.812 45.6916 126.009 45.2367 125.988 45.2061ZM117.505 49.5312C117.875 49.7713 118.671 49.2688 118.751 49.2861C118.799 49.2981 119.026 50.0457 119.502 49.7764L119.006 49.0361L120.501 49.1602C119.829 48.8334 118.67 48.5689 118.251 49.4033V49.4053L118.104 47.9248L117.505 49.5312ZM140.605 43.7744C138.787 42.0411 137.184 42.4966 135.029 43.5068C133.159 44.3834 131.8 46.7756 133.333 48.5312H140.174L141.852 49.0361C142.421 46.9165 142.204 45.2973 140.605 43.7744ZM132.114 48.6006C131.82 48.4076 132.037 49.0238 132.239 48.7861C132.279 48.7391 132.167 48.6525 132.114 48.6006ZM122.622 47.9248C122.46 47.7044 122.475 48.5165 122.622 48.2939C122.637 48.2718 122.634 47.9438 122.622 47.9248ZM122.999 47.7979H123.121V47.5527H122.999V47.7979ZM118.943 47.6152L119.006 47.5527L118.943 47.4912V47.6152ZM129.994 36.6553C129.967 37.059 129.652 37.7472 129.442 38.0889C128.536 39.5573 126.82 40.7877 126.729 42.6572C126.685 43.5759 127.861 43.4076 128.211 43.6279C129.672 44.5442 130.773 46.0922 131.612 47.5508C131.308 44.4777 133.563 42.7691 136.118 42.0361C135.931 40.8599 135.214 39.6611 134.175 39.0049L134.487 41.793L134.239 41.8525C133.68 40.7482 134.105 39.4557 132.988 38.5742L133.235 38.2695L132.486 38.0811L133.238 39.3809V41.6689L132.746 41.6572C133.315 40.023 132.065 38.8639 131.982 37.5342L129.994 36.6553ZM151.342 46.4385C151.18 46.219 151.195 47.0304 151.342 46.8076C151.357 46.7852 151.354 46.4533 151.342 46.4385ZM144.602 36.2832C144.408 36.061 140.86 38.6007 140.57 38.7939C140.306 38.9697 139.518 39.1261 139.277 39.2969C138.935 39.542 136.85 41.7064 137.302 41.8574C139.889 41.714 142.981 44.1433 142.729 46.8076C144.334 45.6834 145.258 43.0859 147.453 42.8281L147.571 42.5039C147.621 41.303 147.014 41.6669 146.974 41.6074C146.924 41.5377 147.156 41.2508 147.036 41.001C146.297 39.4756 144.264 38.3782 144.599 36.2832H144.602ZM151.722 43.8359H151.969V43.7148H151.722V43.8359ZM151.969 40C150.385 40.1016 149.187 41.5282 149.472 43.0957L150.845 43.3438C150.752 42.0313 151.072 40.9336 151.969 40ZM121.253 39.624C122.239 40.1861 122.727 41.7462 122.749 42.8457H124.747C124.8 40.7928 123.301 39.7375 121.438 39.376L121.253 39.624ZM137.414 35.043C136.18 35.1915 135.888 35.803 135.211 36.375C134.914 36.6275 133.81 36.514 134.262 37.6279L136.115 38.5693V37.1523L135.491 37.8926C135.491 37.3082 135.536 36.3207 136.237 36.1621L136.362 36.9023L136.734 36.168V38.8838C136.731 38.8951 136.517 38.8424 136.484 38.9678L137.528 40.1221L139.232 38.5566L138.732 37.4004L138.485 37.8955C137.961 37.8955 138.39 37.0736 137.741 37.6455L137.239 36.1621L137.861 36.6553L137.736 36.1621L138.482 35.917C138.984 36.6623 139.634 37.4497 139.484 38.3906L140.608 37.834C139.682 36.5662 138.907 35.6695 137.414 35.043ZM126.745 38.8838C126.747 38.9377 127.338 39.7287 127.491 39.627L128.331 38.6035L129.367 36.7812L126.745 36.5312V38.8838ZM145.224 37.1133C145.254 38.2819 146.462 38.7103 146.977 39.624L147.848 36.9023L145.224 37.1133ZM132.302 37.8926L132.364 37.8311L132.302 37.7695V37.8926ZM138.485 37.1504H138.732L138.485 36.7783V37.1504ZM132.302 36.6553L132.364 36.5928L132.302 36.5312V36.6553ZM138.296 36.6553L138.357 36.5928L138.296 36.5312V36.6553ZM131.802 36.1592L131.864 36.0977L131.802 36.0361V36.1592ZM127.494 35.791C127.309 35.8158 126.96 35.6843 126.997 35.9121C127.182 35.8874 127.531 36.0184 127.494 35.791ZM128.493 35.543C128.308 35.5677 127.959 35.4367 127.996 35.6641C128.181 35.6393 128.531 35.7708 128.493 35.543Z" fill="#519693"/>
<path d="M131.24 60.2422C131.265 60.1283 131.478 60.1648 131.49 60.1797C131.685 60.4099 131.158 60.6105 131.24 60.2422Z" fill="#519693"/>
</svg>
